<svg id="Layer_1" enable-background="new 0 0 136 136" height="512" viewBox="0 0 136 136" width="512" xmlns="http://www.w3.org/2000/svg"><g><g><path d="m124.2 92.7-41.9.7-67.6 1.2c.3-1.1.7-2.1 1.1-3.1 3.7-9.7 9.6-18.3 16.9-24.9 5.7-5.2 12.3-9.2 19.3-11.5 4-1.4 8.2-2.2 12.4-2.5 12.9-.9 26.1 3.2 36.7 11.6.4.3.8.7 1.2 1 .7.6 1.4 1.2 2 1.8 7.8 7.2 13.9 16.5 19.9 25.7z" fill="#f7941e"/></g><g><path d="m101.7 63c-.8.2-1.6.2-2.5 0-28.1-7-57.1 2.8-75.5 25-2 2.4-4.7 2-6.5.3 3.7-9 9.5-16.9 16.7-23 9.5-6.4 20.2-10.8 31.4-12.9 12.8-.9 25.9 2.8 36.4 10.6z" fill="#f7a64d"/></g><g><path d="m124.2 92.7-41.9.7.6-.6c3.8-3.3 8.3-5.3 13-6 2.4-.4 4.8-.5 7.3-.4 1.3.1 2.6.2 3.9.3 1.2.1 2.6.6 3.8.3 1.8-.4 2-1.8 1.1-3.2-2.4-3.9-5.4-7.4-7.8-11.3-1.3-2.1-1-4.1 0-5.6 7.9 7.3 14 16.6 20 25.8z" fill="#e57c0a"/></g><g><path d="m129 93.9c-.6 1.8-1.3 3.5-2.1 5.2-2.8 6.4-6.4 12.4-10.7 18-1.1 1.4-2.3 2.9-3.9 3.6-1.5.7-3.1.8-4.8.8-20.3.7-40.6.8-60.9.3-4.1-.1-8.3-.3-12.4-.4-3.3-.1-6.7-.3-10-.5-2.1-.1-4.3-.3-6-1.4-1.4-1-2.3-2.5-3.2-4-2.6-4.4-5.7-10.8-8.3-15.3l8.7-.4z" fill="#a97c50"/></g><g><path d="m128.9 99.5c-9.6 4.1-26.2 2.6-37 2.4-7.3-.1-14.5-.3-21.8-.4-17.6-.3-35.1-.6-52.7-.9-3.4-.1-6.8-.1-9.9-1-.4-.1-.7-.2-1.1-.4-6.2-2.3-4.4-6 2.6-7.7 9.3-2.2 24.2-1 34.2-1.1 2.4 0 4.8-.1 7.1-.1 21.2-.3 42.3-.1 63.5.4 6.4.1 27.4 3.6 15.1 8.8z" fill="#9b8579"/></g><g><path d="m50.3 90.3c.1 0 .2.1.2.2.6 1.2-3.3 3.8-4.2 4.2-1.6.7-3.5.7-5.2.6-1.8-.1-3.6-.1-5.4-.2-5.1-.2-10.5-.3-15.1 2.1-1.4.7-2.6 1.6-4 2.2-2.5 1-5.3.9-7.8.2-1.6-.4-5-1.2-5.8-2.8-1.4-2.9 4.1-4.8 6.1-5.3 9.3-2.2 24.2-.9 34.2-1.1.9-.1 6-.6 7-.1z" fill="#b7a095"/></g><g><path d="m34.2 121.4c-3.3-.1-6.7-.3-10-.5-2.1-.1-4.3-.3-6-1.4-1.4-1-2.3-2.5-3.2-4-2.6-4.4-5.7-10.8-8.3-15.3l8.7-.4c2.7 7.9 6.9 17.9 15.8 19.7 1.5.3 2.4 1 3 1.9z" fill="#b7885e"/></g><g><path d="m128.5 101.4h.2c-4 4.7-6.6 10.6-10.5 15.6-1.1 1.4-2.3 2.9-3.9 3.6-1.5.7-3.1.8-4.8.8-20.3.7-40.6.8-60.9.3.7-.5 1.7-.9 2.9-.8 13.7.3 27.6.5 41.3-1.5 6.6-1 13.3-2 19.3-4.9 2.9-1.4 5.6-3.4 7.7-5.9 1.1-1.3 2-2.8 2.6-4.3.3-.6.4-1.8.9-2.2.7-.6 2.7-.4 3.5-.5.6-.1 1.2-.3 1.7-.2z" fill="#996b45"/></g><g fill="#202020"><path d="m134.1 95.7c-.2-.3-.5-.6-.8-.8s-.7-.5-.9-.6c-2-1.1-4-1.6-6.1-2.1-.6-.1-1.3-.3-1.9-.4-.2-.8-1-2.4-2.9-5.7-8.3-13.6-16-22.7-29.5-29.9-.7-.4-1.5-.7-2.2-1s-1.5-.7-2.3-1c-6.9-2.7-16.6-4.6-26.7-3-17 2.3-33.8 13.6-42.5 32-1.2 2.6-2 4.9-2.5 6.5-2.1.2-4.2.4-6.2.8-1.6.3-3.2.8-4.7 1.6-.8.4-1.6.9-2.4 1.8-.9 1-1.4 2.6-.9 3.9 1 2.2 2.5 2.7 4.6 3.7.2.1.5.2.7.2.6 1.5 1.9 4.2 3.6 7.9 1.2 2.4 2.3 4.8 3.6 7.1.5.9 1 1.8 1.7 2.7s1.7 1.8 2.9 2.3c2.1 1 4.6 1 7 1.2 1.2.1 2.3.2 3.5.2 19 1.3 41.7 1.8 56.1 1.6 6.6-.1 12.3-.2 17.4-.4 2.5-.1 4.9-.2 7.1-.3 1.1-.1 2.3-.1 3.5-.4.6-.1 1.2-.3 1.8-.6s1.1-.5 1.5-.9c3.4-2.3 11.1-15.8 12-19.3.2-.9 0-1.1-.2-1.3 1.1-.3 2.2-.7 3.3-1.2.4-.2 1-.5 1.5-.9.6-.5 1.1-1 1.3-1.7.2-.6 0-1.4-.4-2zm-114.4-11.8c7.6-13.2 18-21.7 30.2-26.3-.6.9-1.3 2-2 3.3-4.8 8.5-7.1 18.6-6.9 23.2.1 1.7.6 1.8 1.2 1.9s1.1.1 1.7-1.4c1-2.3 2.8-11.8 6.7-22.5.7-2.1 1.5-4 1.9-5.3 2.9-.9 5.9-1.6 8.8-2 1.6-.2 3.2-.3 4.8-.4-.1.3-.3.6-.4 1-3 8.5-2.2 19.7 2.1 28.2.4.9.9 1.6 1.2 2.2.4.6.7 1 1 1.4 1.2 1.4 1.7 1.1 2.1.9.5-.3.9-.6.4-2.2-.1-.4-.3-.9-.5-1.5-4.1-10.7-5.2-16.2-4.8-28.5 0-.5 0-1 0-1.3 6.1 0 11.8 1.1 16.5 2.7 1.1 1 2.4 2.2 3.6 3.6 5.6 6.5 6.9 13.3 8 21.3.3 2 .5 3.5.7 4.4.5 1.9 1 2 1.5 1.9.6 0 1.1-.1 1.3-2.1.1-1 .2-2.4.1-4.6-.1-8.4-2.3-15.8-8.1-21.8 13.7 7.1 20 16.8 28.3 27.6 1.3 1.7 2.2 2.9 2.9 3.7-.7-.1-1.3-.2-2-.3-1.1-.2-2.2-.3-3.3-.4s-2.3-.2-3.3-.2c-26.9-1-46.6-1-68.4-.8-9.1.2-18.9-.6-28.3 0 .8-1.5 1.7-3.4 3-5.7zm112.2 13.4c-.1.2-.2.3-.4.5s-.5.4-.9.6c-3.2 1.6-6.7 2.3-10 2.7s-6.4.6-9.3.7c-5.7.2-10.4.1-13.6.1s-5 .1-5 .3c0 .1 1.8.3 5 .5s7.9.6 13.7.6c2.9 0 6.1 0 9.5-.4 2.1-.2 4.3-.5 6.6-1.1-.1.1-.1.1-.2.2-2.5 2.5-10.2 15.4-12.7 17-.3.2-.6.4-1 .5-.3.1-.7.2-1.1.3-.8.2-1.7.2-2.8.2-2.2.1-4.5.1-7 .2-5 .1-10.8.2-17.3.3-14.3.2-36.9.2-55.9-.4-5.6-.2-5.9-.2-6.9-.2-1-.1-2-.2-2.8-.6-.8-.3-1.5-.8-2.1-1.5-1.2-1.4-2.2-3.2-3.1-4.7-.9-1.6-1.8-3.1-2.5-4.4-1.7-3.1-3.2-5.4-4.1-6.9l2.7.6c2.8.4 5.5.4 8 .4 15.7.2 45.3.6 61 .4 12.6-.2 13.1-.7 13.1-1.2s-.5-1.1-13.1-1.7c-25.6-1.2-63.6-1.3-68.4-2-1.8-.2-3.8-.8-5.3-1.8l-.1-.1s0 0-.1 0l-.1-.1c.2-.2.6-.5 1.1-.8 1-.5 2.4-.9 3.7-1.2 9.6-2 23.5-.8 34.7-1.1 19.8-.3 39.5-.6 68.2-.2 1.1 0 2.1 0 3.2.1 2.7.2 6.2.6 9.3 1.3 2 .4 3.9.9 5.5 1.7.2.1.4.2.5.4 0 .4.1.6 0 .8z"/><path d="m38.1 25.4c.7 1 1.6 2 2.4 3 .8 1.1 1.6 2.7 2.1 4.8.5 2 .9 4.4 1.4 6.5.9 4.3 1.9 7.7 2.4 7.6.6-.1.6-3.6.4-8-.1-2.2-.2-4.6-.6-7s-1.3-4.7-2.4-6.3c-1-1.4-1.9-2.3-2.6-3.2-.7-.8-1.1-1.5-1.4-2-.6-1.2-.7-2-.7-2.5-.1-.5-.1-.9-.2-1.2s-.3-.5-.5-.6c-.2-.2-.4-.3-.8-.3-.3.1-.9.4-1.3 1.4s-.6 2.6.1 4.6c.3 1.1.9 2.2 1.7 3.2z"/><path d="m87.1 36.9c1-1.7 2.2-3.5 3.1-5.6.9-2 1.4-4.3 1.3-6.1-.1-1.6-.3-2.7-.4-3.7s-.1-1.6-.1-2.2c.1-1.1.4-1.8.6-2.2s.3-.7.4-1 0-.5-.1-.8-.2-.5-.5-.7c-.3-.1-.9-.2-1.8.3s-1.9 1.7-2.4 3.6c-.3 1-.3 2.1-.2 3.3.1 1.1.3 2.3.3 3.5.1 1.2-.1 2.8-.7 4.6s-1.5 3.8-2.2 5.6c-1.4 3.7-2.4 6.8-1.9 7.1.6.3 2.5-2.3 4.6-5.7z"/><path d="m60.8 34.8c1.5 4 3.5 6.7 3.9 6.5.5-.3-.5-3.4-1.1-7.2-.7-3.9-.9-8.5-.8-11.4 0-2.7.3-4.6.4-6.2s0-2.8-.2-3.6c-.4-1.6-1-1.6-1.5-1.5-.6.1-1 .2-1.3 1.5-.2.7-.4 1.6-.7 3.1s-.7 3.8-.7 6.7c0 1.6.1 3.7.5 5.8.2 2.1.8 4.3 1.5 6.3z"/></g></g></svg>