<svg id="Layer_1" enable-background="new 0 0 136 136" height="512" viewBox="0 0 136 136" width="512" xmlns="http://www.w3.org/2000/svg"><g><g><path d="m130.3 35.9c-.1 1-.2 2-.4 3-1.2 5.9-4.6 11.2-8.4 15.9-4.4 5.5-9.4 10.7-12.5 17-2.8 5.6-4 11.8-6.1 17.7-7.3 20.3-26.8 36.1-48.3 37.3-16.7.9-33.7-8-42.7-21.9-2.6-4-4.5-8.4-5.6-13-.5-2.1-.3-5.1 1-6.9l112.2-65.1c7 1.2 11.2 8.9 10.8 16z" fill="#006838"/></g><g><path d="m115.6 39.2c-2.9 3.3-6.2 6.2-9.5 9.1-3.2 3-6.3 6-8.6 9.6-6.3 9.8-6.5 22.6-13.1 32.1-7.6 11-22 15-35.4 15.7-6.5.3-13.3 0-19.5-1.8-5.3-1.4-10.2-3.8-14.3-7.6-3.3-3-5.8-6.8-7.3-10.9-3.4-8.6-3.1-18.8.7-27.4 5.6-12.7 17.6-21.7 30.6-26.3 13.1-4.5 27.3-4.9 41.1-3.8l1.4-1.3c4.9-5.9 10.1-12.1 17.1-15.3 4.7-2.1 10.5-2.5 15.2-.6 2.3.9 4.3 2.4 5.8 4.5 5.1 7.2 1.6 17.4-4.2 24z" fill="#8dc63f"/></g><g><path d="m71.2 71.4c-7.3 7.1-17.9 11.5-27.9 9.3-10.8-2.3-13.8-11.6-11.2-20.2 1-3.3 2.7-6.5 5.2-9.2 4.8-5.4 14.8-9.1 23.7-8.9h.8c6.5.4 12.4 2.9 15.1 8.5.5.9.8 1.9 1.1 3 1.6 6.5-2.1 13-6.8 17.5z" fill="#a97c50"/></g><g><path d="m114 10.9c-.1.9-.5 1.8-1.2 2.6-6.8 7.9-14.6 16.4-25.2 18.7-5.9 1.3-11.7.5-17.7.4-5.6-.1-11.3.4-16.8 1.6-22 5.1-40.8 22.8-41 46.4 0 2.9-2.1 4.5-4.3 4.8-3.4-8.6-3.1-18.8.7-27.4 5.6-12.7 17.6-21.7 30.6-26.3 13.1-4.5 27.3-4.9 41.1-3.8l1.4-1.3c4.9-5.9 10.1-12.1 17.1-15.3 4.8-2 10.7-2.3 15.3-.4z" fill="#a9d860"/></g><g><path d="m106.2 48.3c-3.2 3-6.3 6-8.6 9.6-6.3 9.8-6.5 22.6-13.1 32.1-7.7 11-22.1 15-35.5 15.7-6.5.3-13.3 0-19.5-1.8.7-1.5 2.1-2.5 4.3-2.3 8.6.8 17.3-1.1 25.5-3.4 7.2-1.9 12.7-6.1 17.8-11.4s9.3-11.7 12.1-18.5 4.7-13.9 8.3-20.4c2.1-3.9 7-2.6 8.7.4z" fill="#8abf36"/></g><g><path d="m129.9 38.8c-1.2 5.9-4.6 11.2-8.4 15.9-4.4 5.5-9.4 10.7-12.5 17-2.8 5.6-4 11.8-6.1 17.7-7.3 20.3-26.8 36.1-48.3 37.3-16.7.9-33.7-8-42.7-21.9.9.2 1.7.7 2.4 1.6 8.2 9.9 23.9 11 35.9 11.3 13.5.4 26.4-3.1 36.3-12.5 10.1-9.5 12.7-22.6 18.7-34.5 5.9-11.6 14-22.1 23.5-31.1.5-.3.8-.6 1.2-.8z" fill="#03512a"/></g><g><path d="m75.6 50.6c-1.2 3.1-8.4 3.9-10.9 3.9-4.7 0-9.6-.8-13.9 1-6.2 2.6-9.1 9.5-11.8 15.6-.8 1.7-2.3 3.7-4 3.1-.8-.3-1.3-.9-1.7-1.6-4.2-7-1-15.7 4-21.3 4.8-5.4 14.8-9.1 23.7-8.9 0 0 0 .1.1.1.2 0 .5-.1.7-.1 3.8.2 12.5 1.9 13.8 6.4.2.8.2 1.3 0 1.8z" fill="#b78d67"/></g><g fill="#202020"><path d="m126 21c-.9-.6-1.6-.9-2.3-1.1-.4-1.6-1-3.2-1.8-4.5-1.2-2-2.8-3.5-4.6-4.6-7.7-4.9-19.9-4.3-31.8 9.8-1.5 1.8-2.4 3.1-3 4-1.2 1.8-1.1 2.1-.9 2.3s.5.2 2.1-1.3c.8-.7 1.9-1.9 3.4-3.5 8.2-8.1 18.5-14.7 28.2-8.3 2.7 1.7 4.7 4.8 4.9 8.6.3 3.8-1.1 8.1-3.6 12.1-3.9 6.4-11.7 11.5-17.5 18-2.2 2.4-4.2 5.3-5.7 8.5-3 6.4-4.4 13.5-7 20.4-3.5 8.7-8.2 14.3-17.9 18.3-9.2 3.8-21.3 5-31.2 3.9-11.6-1.2-21.7-5.9-27-16.3-2.4-4.9-3.5-10.5-3.3-16 .1-2.7.5-5.4 1.2-8s1.7-5.1 3-7.4c11.5-22.1 38-27.9 62.7-27.8 4 0 6.3.1 6.3 0s-2.2-.5-6.2-.8c-14.2-1-29 .2-42 6.3-9.4 4.4-18.1 11.5-23.2 20.8-5.2 9-6.4 20.8-2.6 31.3-.2.7-.3 1.5-.3 2.6 0 1.3 0 3 .4 4.9.1 1 .5 1.9.7 3 3 11.2 12.5 22.4 27.6 28.6 31 11.7 61-8.3 70.3-34.8 3.4-9.7 3.5-14.9 9.8-23.5 2.2-3 4.5-5.7 6.6-8.2 5.2-6.3 10.2-13.5 10.6-21.8.4-5.7-1.3-12.4-5.9-15.5zm2.6 15.1c-1 10.8-10.7 19.3-17.1 27.9-6.9 9.3-7 14.8-10.4 24.5-9.1 26-36.9 43.4-65.4 33.5-15.8-6-25.7-18.1-28.2-29.1-.4-1.8-.6-3.3-.7-4.6 0-.5-.1-.9-.1-1.3.3.6.5 1.2.8 1.8 5.7 11.6 16.7 17 29.6 18.5 10.5 1.2 23.2.1 33.1-4 22.1-9 20.5-26.8 27.1-40.6 5-11 16.8-16.5 22.8-26.2 2.8-4.5 4.3-9.4 4-14.2.2.1.3.3.5.4 3.4 3.2 4.4 8.7 4 13.4z"/><path d="m78 53.4c-.1-.4-.2-1.1-.5-1.9-.5-1.6-1.7-3.9-4.1-5.9-2.3-2-5.9-3.5-9.9-4.1-11.2-1.6-29.5 3.3-33.5 20-.6 2.4-.8 5-.4 7.4.3 2.5 1.2 4.8 2.5 6.9.7 1 1.5 1.9 2.3 2.7.9.8 1.8 1.5 2.7 2 17 10.1 44.5-8.4 42.4-23.5 0-.5-.1-.9-.2-1.3-.1-.3-.2-.6-.3-.8-.4-.9-.7-.8-1-.8-.3.1-.5.2-.6 1 0 .2 0 .5-.1.8 0 .3 0 .7-.1 1.1-1.7 17.9-32.9 29.9-41.9 16.6-8.2-11.7 6-31.7 28-29.8 3.7.3 6.9 1.4 9.1 3.1 2.3 1.6 3.5 3.6 4.3 5 .4.7.6 1.3.8 1.7s.3.6.4.6.2-.4.1-.8z"/></g></g></svg>