<svg id="Layer_1" enable-background="new 0 0 136 136" height="512" viewBox="0 0 136 136" width="512" xmlns="http://www.w3.org/2000/svg"><g><g><path d="m121.7 81.5c-.6 1.2-1.2 2.5-1.9 3.6-6.9 11.5-18.5 19.9-30.9 25.6-.9.4-1.9.9-2.8 1.3-13.2 5.6-27.7 8.8-41.6 6.7-7-1-13.8-3.5-19.6-7.3-4.9-3.2-9.1-7.4-12-12.4-.4-.7-.8-1.4-1.2-2.2-2.1-4.3-2.7-10.8 1.8-13.6 3-1.9 6.9-1 10.3-.3 1.9.4 3.8.8 5.7 1.1 3.6.6 7.2.9 10.8.9 3 0 5.9-.1 8.9-.6 12.7-1.9 30.9-9 40.3-17.9 5.4-5.1 8.7-12.2 8.9-19.3l.5-3.1c-.4-7.8-8.6-14.6-5.6-22.1 1.9-4.6 8.4-7 12.7-4.6.6.3 1.1.7 1.5 1.1 2.5 2.3 3.6 6 4 9.5.5 4.1.6 8.5 2.6 12.1 1.3 2.2 3.2 3.9 4.8 5.8.9 1 1.7 2.1 2.4 3.3 5.8 9.4 5.3 21.9.4 32.4z" fill="#f9ed32"/></g><g><path d="m23.8 83c1.9.4 3.8.8 5.7 1.1-7.9 0-14.8 2-13.8 10.6.3 2.4-1 3.9-2.8 4.5-.4-.7-.8-1.4-1.2-2.2-2.1-4.5-2.7-11 1.8-13.8 3.1-1.8 6.9-1 10.3-.2z" fill="#fff278"/></g><g><path d="m104 45.1c1.4 13.3-9 23.4-19.2 30-10.7 6.9-23.6 11.5-36.5 10.8-1.9-.1-4.7-.5-7.9-1 3 0 5.9-.1 8.9-.6 12.7-1.9 30.9-9 40.3-17.9 5.4-5.1 8.7-12.2 8.9-19.3l.5-3.1c-.4-7.8-8.6-14.6-5.6-22.1 1.9-4.6 8.4-7 12.7-4.6.6.3 1.1.7 1.5 1.1-3.6 1-6.5 3.7-7.5 7.8-1.6 6.5 3.3 12.6 3.9 18.9z" fill="#fff278"/></g><g><path d="m121.7 81.5c-.4.6-.8 1.2-1.2 1.7-6.6 9.3-15.4 16.8-24.8 23.2-2.2 1.5-4.5 3-6.9 4.3-.9.4-1.9.9-2.8 1.3-13.2 5.6-27.7 8.8-41.6 6.7-7-1-13.8-3.5-19.6-7.3 1.1-1 2.7-1.6 4.5-1 20.8 6.1 42.2 0 59.9-11.6 17.6-11.6 31.1-27.3 32-49.2 0-.2 0-.4 0-.5 5.9 9.4 5.4 21.9.5 32.4z" fill="#f4dc00"/></g><g><path d="m103.1 62c-.1.2-.1.4-.2.5-1.9 5.6-5.4 10.6-9.7 14.7s-9.1 7.5-14.1 10.8c-2.3 1.5-4.7 3.1-7.1 4.4-5 2.8-10.4 4.9-16 6.3-2.8.7-5.7 1.3-8.5 1.5-1.8.1-3.6.1-5.4.4-.6.1-1.9.2-2.3.7-1 1.3 1 1.6 2.1 2 6.1 2 12.7 1.2 18.8-.3 11.1-2.7 21.6-7.6 30.8-14.2 8.6-6.2 17.9-14.9 18.8-26.2 0-.1 0-.2 0-.4.2-3.3-.8-6.7-3-9.2-2.6 2.3-3.2 5.8-4.2 9z" fill="#f4dc00"/></g><g><g><path d="m98.9 44c-.1 0-.3 0-.4-.3-.2-.3-.3-.9-.7-1.9s-.9-2.5-2.1-4.6c-.6-1.1-1.2-2.3-2-3.8-7.8-15.6 6.9-21.6 13.7-17.2 1.9 1.2 3.3 3 4.2 5s1.5 4.2 1.8 6.4.4 4.4.8 6.6c1.8 10.5 12.5 10.6 13.2 29.3 1.5 37.9-50.8 61.7-82.4 57.3-21.4-3-34.7-17.7-36.4-28.1-1.2-7.8 3.2-13.4 13-11.6 1.6.3 3 .7 4.4 1 6.8 1.4 14.2 2.1 21.1 1.4 11.4-1.2 28.7-7.2 39.3-15.4 5-3.8 8.4-8.4 10.4-14.3 1.3-4.1 1.3-6.5 1.5-6.5.1 0 .1.6.1 1.8 0 1.1-.2 2.8-.8 5-5.1 18.9-33.8 30-50.2 32-7.2.9-14.8.3-22-1.1-8.2-1.5-15.1-2-13.6 7.3 1.5 8.9 13.7 22.4 33.6 24.9 29.9 4 79.1-18.8 77.9-53.4-.5-15.4-9.3-17.4-12-25.1-.4-1.3-.7-2.6-.9-3.8-.4-2.4-.5-4.7-.8-6.7s-.7-3.8-1.4-5.4-1.7-2.8-2.9-3.6c-3.3-2.5-15.3-1-9.3 13 .7 1.5 1.3 2.8 1.7 3.9 1 2.3 1.4 4 1.6 5.2s0 1.9 0 2.2c-.1.4-.2.5-.4.5z" fill="#202020"/></g></g><g><g><path d="m106.9 51.8c.3.1.5.2.6.8s.1 1.8-.4 4c-1.8 7.6-6.9 16.9-15.8 25.3-8.7 8.3-20 14-31.4 17.1-11.8 3.3-21.7 3.2-21.7 2.7-.2-1.5 28.3-2.1 50.3-22.8 7.9-7.5 12.2-14.8 15.8-23.2.8-1.9 1.2-3 1.6-3.4.4-.6.7-.6 1-.5z" fill="#202020"/></g></g></g></svg>