<svg id="Layer_1" enable-background="new 0 0 136 136" height="512" viewBox="0 0 136 136" width="512" xmlns="http://www.w3.org/2000/svg"><g><g><path d="m33.1 111.8c-6.5-3.9-11.3-10.6-14.2-17.9-2.7-6.7-3.9-13.9-4.2-21.1 0-.6.8-.9 1.1-.4 5.5 7.9 16.2 11 21.3 19.5 1.1 1.8 1.9 3.8 2.6 5.8.9 2.3 1.7 4.7 1.7 7.2s-1 5.2-3 6.3c-2.3 1.3-5.2.3-7.6-.8" fill="#f9ed32"/></g><g><path d="m42.5 118.2c.2.1.4.1.5.2.1 0 .1.1.2.1z" fill="#f9ed32"/></g><g><path d="m80.2 110.7c-5.6 3.4-11.5 6.3-17.9 7.8s-13.2 1.7-19.3-.1c-.1-.1-.3-.2-.5-.2-2-1.1-4-2.5-4.3-4.7-.3-2.1 1.1-4.2 2.9-5.4 1.9-1.3 4.1-1.9 6.4-2.5 1.9-.5 3.8-1 5.8-1.1 6.7-.6 12.9 2.4 19.3 4.1 2.4.6 4.8 1.1 7.2 1 .7 0 .9.8.4 1.1z" fill="#f9ed32"/></g><g><path d="m46.4 90.8c.1 0 .1.1.2.1.2.1.4.3.6.4z" fill="#f9ed32"/></g><g><path d="m57 85.3c0 2.5-1 5.2-3.1 6.3-2.3 1.3-5 .4-7.4-.7-4.8-3.5-8.6-8.6-11.2-14.3-.4-.7-.7-1.5-1-2.2-2.6-6.7-3.8-13.9-4.2-21.2 0-.6.8-.9 1.1-.4 1.2 1.8 2.7 3.3 4.3 4.7 5.7 4.9 13 8.2 17 14.8 1.1 1.8 1.9 3.8 2.6 5.8 1 2.3 1.8 4.7 1.9 7.2z" fill="#f9ed32"/></g><g><path d="m57.9 98.6c.2.1.4.1.7.2.1 0 .1.1.2.1z" fill="#f9ed32"/></g><g><path d="m94.8 91.8c-5.3 3.1-10.9 5.7-16.9 7.2-6.4 1.5-13.2 1.7-19.3-.1-.5-.3-1.1-.6-1.6-.9-1.6-1-2.9-2.3-3.1-4-.3-2.1 1.1-4.2 2.9-5.4 1.9-1.3 4.1-1.9 6.4-2.5 1.9-.5 3.9-1 5.8-1.1 6.1-.5 11.8 1.9 17.6 3.6 2.6.8 5.2 1.4 7.8 1.5.9 0 1.2 1.2.4 1.7z" fill="#f9ed32"/></g><g><path d="m60.7 69.5c.1 0 .1.1.2.1.2.1.4.3.6.4z" fill="#f9ed32"/></g><g><path d="m71.3 64c0 2.5-1 5.2-3 6.3-2.3 1.3-5 .4-7.4-.7-4.6-3.4-8.3-8.2-10.9-13.6-.5-1-.9-1.9-1.3-2.9-2.6-6.7-3.8-13.9-4.2-21.1 0-.6.8-.9 1.1-.4 1.1 1.5 2.3 2.9 3.7 4.1 5.8 5.2 13.6 8.5 17.7 15.3 1.1 1.8 1.9 3.8 2.6 5.8.8 2.4 1.7 4.7 1.7 7.2z" fill="#f9ed32"/></g><g><path d="m72.2 77.4c.2.1.4.1.7.2.1 0 .1.1.2.1z" fill="#f9ed32"/></g><g><path d="m110.1 69.9c-5.6 3.4-11.5 6.3-17.9 7.8-6.2 1.5-12.7 1.7-18.6 0-.2 0-.5-.1-.7-.2-2.2-1.1-4.4-2.6-4.7-4.9-.3-2.1 1.1-4.2 2.9-5.4 1.9-1.3 4.1-1.9 6.4-2.5 1.9-.5 3.8-1 5.8-1.1 8.4-.7 16.1 4.3 24.3 5.1.7.1 1.5.1 2.2.1.6 0 .8.8.3 1.1z" fill="#f9ed32"/></g><g><path d="m71.7 50.4c.1 0 .1.1.2.1.2.2.4.3.7.5z" fill="#f9ed32"/></g><g><path d="m82.4 44.9c0 2.5-1 5.2-3.1 6.3-2.3 1.3-5 .4-7.4-.7-4.7-3.4-8.4-8.4-11-13.9-.4-.9-.8-1.7-1.1-2.6-2.7-6.8-3.8-14-4.2-21.2 0-.6.8-.9 1.1-.4 1.5 2.1 3.2 3.8 5.2 5.4 5.5 4.5 12.3 7.8 16.1 14.1 1.1 1.8 1.9 3.8 2.6 5.8.9 2.3 1.7 4.7 1.8 7.2z" fill="#f9ed32"/></g><g><path d="m83.3 58.2c.2.1.4.1.6.2.1 0 .1.1.2.1z" fill="#f9ed32"/></g><g><path d="m121.1 50.7c-5.5 3.4-11.5 6.3-17.9 7.8s-13.2 1.7-19.3-.1c-.3-.1-.5-.3-.8-.4-1.9-1.1-3.7-2.5-4-4.5-.3-2.1 1.1-4.2 2.9-5.4 1.9-1.3 4.1-1.9 6.4-2.5 1.9-.5 3.9-1 5.8-1.1 7.2-.6 13.8 2.9 20.7 4.4 1.9.4 3.9.7 5.8.7.8 0 1 .8.4 1.1z" fill="#f9ed32"/></g><g><path d="m94.8 37.6c.2-.1.3-.2.5-.3h.1z" fill="#f9ed32"/></g><g><path d="m112.5 5.6c-.7 6.2-2.1 12.4-5 18-2.8 5.6-7 10.5-12.3 13.7-2.2.8-4.8 1.5-6.9.5-.1 0-.2-.1-.3-.1-1.9-1.1-2.8-3.4-2.6-5.6.1-2.2 1-4.2 2-6.1.8-1.7 1.6-3.4 2.8-4.9 4.9-6.7 14.3-9 20.1-14.7.4-.4.8-.8 1.1-1.2.5-.5 1.2-.2 1.1.4z" fill="#f9ed32"/></g><g><path d="m60.9 36.5c-.4-.9-.8-1.7-1.1-2.6-2.7-6.7-3.8-13.9-4.2-21.1 0-.6.8-.9 1.1-.4 1.5 2.1 3.2 3.8 5.2 5.4.3 4.3 1 8.7 2.3 13 .9 2.9-.9 5.1-3.3 5.7z" fill="#fff388"/></g><g><path d="m109.2 13c-7.8 5.8-13.6 13.2-17.5 22-.7 1.6-2 2.5-3.3 2.7-.1 0-.2-.1-.3-.1-1.9-1.1-2.8-3.4-2.6-5.6.1-2.2 1-4.2 2-6.1.8-1.7 1.6-3.4 2.8-4.9 4.9-6.7 14.3-9 20.1-14.7 1.2 2 1.3 4.9-1.2 6.7z" fill="#fff388"/></g><g><path d="m50 56c-.5-1-.9-1.9-1.3-2.9-2.6-6.7-3.8-13.9-4.2-21.1 0-.6.8-.9 1.1-.4 1.1 1.5 2.3 2.9 3.7 4.1.1 5.1.9 10.2 2.4 15.2.8 2.3-.1 4.1-1.7 5.1z" fill="#fff388"/></g><g><path d="m35.4 76.6c-.4-.7-.7-1.5-1-2.2-2.6-6.7-3.8-13.9-4.2-21.2 0-.6.8-.9 1.1-.4 1.2 1.8 2.7 3.3 4.3 4.7.2 4.6 1 9.1 2.4 13.6.8 2.6-.6 4.6-2.6 5.5z" fill="#fff388"/></g><g><path d="m21 98.5c-.8-1.5-1.5-3-2.1-4.6-2.7-6.7-3.9-13.9-4.2-21.1 0-.6.8-.9 1.1-.4 1.1 1.6 2.4 2.9 3.8 4.2-.2 5.8.6 11.6 2.4 17.4.5 1.9 0 3.4-1 4.5z" fill="#fff388"/></g><g><path d="m121.1 50.7c-5.5 3.4-11.5 6.3-17.9 7.8s-13.2 1.7-19.3-.1c.1 0 .1.1.2.1l-.8-.3h-.1c0-.1 0-.1 0-.2.2-2.3 1.8-4.5 4.7-4.5 9.3-.1 18.4-1.6 27.1-4.6 1.9.4 3.9.7 5.8.7.7 0 .9.8.3 1.1z" fill="#edd707"/></g><g><path d="m94.8 91.8c-5.3 3.1-10.9 5.7-16.9 7.2-6.4 1.5-13.2 1.7-19.3-.1.1 0 .1.1.2.1l-.9-.3-1-.4c0-.1 0-.2 0-.4.4-2.1 1.9-4 4.6-4.1 8.6-.3 17.5-1.2 24.9-5.3 2.6.8 5.2 1.4 7.8 1.5 1.1.1 1.4 1.3.6 1.8z" fill="#edd707"/></g><g><path d="m110.1 69.9c-5.6 3.4-11.5 6.3-17.9 7.8-6.2 1.5-12.7 1.7-18.6 0 .5-1.8 2-3.4 4.5-3.4 10-.1 20.8-.6 29.5-5.7.7.1 1.5.1 2.2.1.6.1.8.9.3 1.2z" fill="#edd707"/></g><g><path d="m80.2 110.7c-5.6 3.4-11.5 6.3-17.9 7.8s-13.2 1.7-19.3-.1c.1 0 .1.1.2.1l-.7-.3s.1 0 .1-.1c.7-.6 1.6-1 2.7-1.1 9.6-1.2 18.8-4.2 27.4-8.5 2.4.6 4.8 1.1 7.2 1 .6.1.8.9.3 1.2z" fill="#edd707"/></g><path d="m122.8 48.8-.8-.7-.2-.2s-.1 0-.2-.1h-.3l-1.2-.2c-.8-.1-1.6-.2-2.3-.3-.2 0-.4-.1-.6-.1l-.5-.1-.5-.1c-1.5-.3-2.9-.7-4.3-1.2-2.8-.9-5.4-1.8-7.8-2.4-2.2-.6-4.4-1-6.5-1.2s-4.2 0-5.9.4c-1.8.4-3.3.8-4.8 1.2-.5.1-.9.3-1.4.4.6-1 1-1.9 1.4-2.7.5-.9.8-1.7 1.1-2.3.2.1.3.1.5.2.9.2 1.7.3 2.4.2 1.3-.1 2.2-.5 2.9-.7.6-.3 1-.5 1.3-.8.2-.2.3-.3.4-.5.3-.1.6-.3 1-.5 1.9-1 4.5-2.8 7-5.5s5-6.3 6.8-10.5c.9-2.1 1.7-4.3 2.3-6.6.6-2.2.9-4 1-4.3l.2-1.2c.2-1 .3-2.1.5-3.2l-.1-1.1c-.1-.3-.2-.4-.3-.7-.1-.2-.2-.4-.4-.6s-.5-.4-.8-.5c-.2-.1-.3-.1-.4-.1s-.2 0-.3 0l-.7.1-.7.1-1 .9c-.7.6-1.4 1.3-2.1 1.9l-.5.8c-.2.1-.3.3-.5.4-.7.5-1.5 1-2.2 1.4-3 1.8-6 3.4-8.5 5-1.9 1.2-3.6 2.5-5.1 4-1.5 1.4-2.7 3.1-3.5 4.7-.9 1.6-1.5 2.9-2.1 4.3s-1.1 2.8-1.3 4.2c-.5 2.9.4 5.7 2.1 7.3 0 0 .1.1.2.1-.8 1.1-1.5 2.2-2.2 3.2-.2-.9-.5-1.9-.8-2.9-.5-1.6-1.1-3.1-1.9-4.9s-1.9-3.7-3.3-5.5c-1.5-1.8-3.2-3.4-5.2-4.9-2.5-2-5.6-3.9-8.6-6.2-.4-.3-.7-.6-1.1-.9s-.7-.6-1.1-.9-.7-.6-1-1c-.7-.7-1.4-1.5-2.1-2.2l-1-1.2c-.2-.1-.4-.1-.7-.2l-.7-.2c-.2-.1-.3-.1-.7 0-.3.1-.7.3-.9.4-.2.2-.3.4-.4.6l-.4.7c-.1.3-.1.8-.2 1.1.1 1.2.2 2.4.3 3.6l.1.8.1.5.1 1c.2 1.3.4 2.6.6 3.9.5 2.6 1.2 5.1 2 7.6 1.6 4.9 3.9 9.2 6.4 12.6s5.2 5.8 7.2 7.1c.4.3.8.5 1.1.7 0 .2.2.3.4.6.3.3.7.6 1.4.9.6.3 1.5.7 2.7.8-1.1 1.8-2.4 3.7-3.7 5.8-.1-.5-.3-.9-.4-1.4-.5-1.6-1.1-3.1-1.9-4.9s-1.9-3.7-3.3-5.5c-1.5-1.8-3.2-3.4-5.2-4.9-2.5-2-5.6-3.9-8.6-6.2-.4-.3-.7-.6-1.1-.9s-.7-.6-1.1-.9-.7-.6-1-1c-.7-.7-1.4-1.5-2.1-2.3l-1-1.2c-.2-.1-.4-.1-.7-.2l-.7-.2c-.2-.1-.3-.1-.7 0-.3.1-.7.3-.9.4-.2.2-.3.4-.4.6l-.4.6c-.1.3-.1.8-.2 1.1.1 1.2.2 2.4.3 3.6l.1.8.1.5c.1.5.2 2.1.8 4.9.5 2.6 1.2 5.1 2 7.6 1.6 4.9 3.9 9.2 6.4 12.6s5.2 5.8 7.2 7.1c.4.3.8.5 1.1.7 0 .2.2.3.4.6.3.3.7.6 1.4.9.4.2.8.4 1.4.6-.1.2-3.8 5.7-5.7 8.5-.2-.6-.3-1.1-.5-1.7-.5-1.6-1.1-3.1-1.9-4.9s-1.9-3.7-3.3-5.5c-1.5-1.8-3.2-3.4-5.2-4.9-2.1-1.7-4.7-3.4-7.2-5.2-1.3-.9-2.5-1.9-3.8-3-.3-.3-.6-.6-.9-.9-.6-.6-1.2-1.3-1.8-1.9l-.9-1c-.1-.1-.3-.4-.4-.5l-.4.2-1.1-.3c-.2-.1-1 .1-1.4.4-.1.1-.2.2-.2.2l-.3.2-.3.5-.2.3v.5c0 .1-.1 1.8-.1 1.7l.1.6.1 1.3c0 .4.1.9.1 1.3l.1.7.2 1.4c.7 4.5 1.7 9.1 3.4 13.4 2.5 6.7 6.5 12 9.9 15.1 1.5 1.4 2.9 2.3 4 3 0 .2.2.3.4.6.3.3.7.6 1.4.9.4.2.8.4 1.3.5-2.3 3.2-4.6 6.5-6.9 9.7-.1-.9-.3-1.8-.5-2.6-.4-1.4-.9-2.8-1.4-4.2s-1.1-2.9-1.8-4.3c-1.5-2.9-3.8-5.5-6.3-7.6-3.7-3.2-7.4-5.4-11-8.5-.5-.5-1.1-.9-1.5-1.4-.1-.1-.8-.8-1.2-1.3-.5-.5-.9-1.1-1.4-1.8-.6-.7-1.2-1.1-2.1-1.2-.1 0-.2 0-.5 0-.5 0-1.2.4-1.4.7s-.4.6-.7.9c-.1.6-.1 1.4-.1 2 0 .3 0 .8.1 1.1.2 2.6.2 2.5.4 4.1 1.2 9.7 4 16.9 6.9 21.7 3 4.9 5.9 7.6 7.9 9.1 2.1 1.6 3.4 2.1 4.1 2.3s.9 0 1-.3c.7.3 1.5.5 2.5.6-8.4 11.4-15.1 20.1-14.7 20.5.2.2 2.4-2.1 5.9-5.9 2.8-3.1 6.4-7.3 10.2-12 .3.7.7 1.3 1.1 1.7 1 1 1.9 1.4 2.5 1.8.5.2 1.6.6 2.1.4.3.1.7.3 1.1.4 2.1.8 5.3 1.4 9.2 1.5 3.8.1 8.3-.4 12.8-1.7 3.6-1 6.8-2.4 10.1-4 .7-.3 3.1-1.6 4.9-2.7l.7-.7.2-.2c0-.1 0-.1.1-.1l.1-.3c.1-.2.2-.4.2-.6s.1-.5 0-.9c-.1-.3-.2-.6-.3-.7s-.3-.3-.4-.4c-.4-.2-.3-.6-1.5-.6-.9-.1-1.9-.2-2.8-.4-.2 0-.5-.1-.7-.1l-.6-.1-.7-.1c-.9-.2-1.7-.4-2.6-.7-3.4-1-6.6-2.2-9.5-2.9-2.2-.6-4.4-1-6.5-1.2s-4.2 0-5.9.4c-1.8.4-3.3.8-4.8 1.2-.1 0-.2 0-.2.1 2.3-2.9 4.5-5.9 6.7-8.9.3.9.8 1.5 1.3 2 1 1 1.9 1.4 2.5 1.7.7.3 1.1.4 1.5.4.3 0 .5 0 .6-.1.3.1.7.3 1.1.4 2.1.7 5.2 1.4 9 1.6 3.8.1 8.2-.4 12.7-1.6 2.2-.6 4.5-1.4 6.7-2.3s3.7-1.7 4.1-1.9l.9-.4c.9-.5 1.9-1 2.8-1.6.8-.5.9-1 1.3-1.4.3-.4.4-1.1.2-1.8-.1-.4-.3-.8-.6-1.1-.1-.1-.3-.1-.4-.2l-.8-.4-.4-.2-.2-.1h-.3c-.9-.1-1.8-.2-2.7-.3-.4-.1-.9-.2-1.3-.3-.9-.2-1.7-.4-2.5-.7-3.3-1-6.5-2.2-9.4-2.9-2.2-.6-4.4-.9-6.4-1-2.1-.1-4.1.1-5.8.5-1.8.4-3.2.8-4.7 1.2-.5.1-.9.3-1.3.4 2.7-3.8 5.1-7.4 7.2-10.4.3.6.7 1 1 1.4 1 1 1.9 1.4 2.5 1.8.7.3 1.1.4 1.5.5.3 0 .5 0 .6-.1.3.1.7.3 1.1.4 2.1.8 5.3 1.4 9.2 1.5 3.8.1 8.3-.4 12.8-1.7 3.6-1 6.8-2.4 10.1-4 .7-.3 3.1-1.6 4.9-2.7l.7-.7.2-.2c0-.1 0-.1.1-.1l.1-.3c.1-.2.2-.4.2-.6s.1-.5 0-.9c-.1-.3-.2-.6-.3-.7s-.3-.3-.4-.4c-.4-.2-.3-.6-1.5-.6-.9-.1-1.9-.2-2.8-.4-.2 0-.5-.1-.7-.1l-.6-.1-.7-.1c-.9-.2-1.7-.4-2.6-.7-3.4-1-6.6-2.2-9.5-2.9-2.2-.6-4.4-1-6.5-1.2s-4.2 0-5.9.4c-1.8.4-3.3.8-4.8 1.2-.6.2-1.2.4-1.8.6 1.8-2.8 3.3-5.3 4.7-7.5.1.2.3.3.4.5 1 1 1.9 1.4 2.5 1.8.7.3 1.1.4 1.5.5.3 0 .5 0 .6-.1 1.1.4 2.5.9 4.4 1.3 4.2.9 10.3 1 16.7-.5 3.2-.8 6.5-1.9 9.6-3.3.8-.4 1.6-.7 2.4-1.1l1.2-.6 1-.5 1-.6 1-.6c.2-.1.4-.2.5-.3l.4-.3c.4-.4 1.1-.8 1.1-1.1l.2-.5c.1-.2.1-.3.1-.6-.2-.9-.5-1.6-.7-1.7zm-35.4-17.5c.2-1 .6-2.1 1.2-3.3s1.3-2.6 2-4c.8-1.3 1.7-2.6 2.9-3.8s2.7-2.3 4.4-3.4c2.3-1.5 5.2-3 8.4-5.1.8-.5 1.6-1.1 2.4-1.7.4-.3.8-.7 1.1-.9 0 0 0 0 0-.1.1 0 .1-.2.2-.2s.1.1.1.2v.2.1l-.1.4c0 .3-.3 2.1-.8 4.1-.5 2.2-1.1 4.3-1.9 6.2-1.5 4-3.5 7.5-5.7 10.2-2.5 3.2-5.1 5.2-6.7 6.5-.1-.1-.3-.1-.5-.1-.3 0-.8 0-1.4.1-.6 0-1.4.1-2.3.1-.6-.1-1.3-.2-1.9-.6-.1-.1-.2-.2-.3-.3 0 0-.1-.1-.1-.1-.1-.1-.2-.1-.2-.2-.6-.8-1.2-2.4-.8-4.3zm-38.6 59.3c-.7-.1-1.1-.2-1.5-.2-.3 0-.5 0-.6.1-.9-.8-2-1.9-3.3-3.3-2.9-3.3-6.3-8.5-8.3-14.9-1.3-4.1-2.2-8.5-2.6-12.8l-.1-1.3-.1-.7v-.1c0-.1 0-.2 0-.3v-.1h.1l.1.2v.1c.3.3.6.6 1 .9 1.3 1.2 2.7 2.3 4 3.3 2.7 2 5.1 3.6 7.1 5.2 1.8 1.4 3.3 2.8 4.6 4.3 1.2 1.5 2.1 3 2.8 4.5.7 1.6 1.3 3.2 1.9 4.6.6 1.5 1.1 3.2 1.2 4.8-1.9 2.7-2.9 4.2-4 5.8-.9.1-1.7 0-2.3-.1zm-12.7 20.5c-1.2.1-2.3-.1-3.2-.3-.4-.6-1.4-1.4-3-3.1s-4-4.3-6.6-8.9c-2.5-4.5-5-11.1-6.1-20.3 0-.4-.1-.7-.1-1.1l-.1-.4s0 0 0 0v-.1s-.1-.1.3.3c.6.5 1.2 1 1.7 1.5 1.2 1 2.5 1.9 3.7 2.8 2.6 1.8 5.2 3.5 7.5 5.3 2.3 1.9 4.4 4 5.8 6.5.7 1.2 1.3 2.6 1.9 3.9s1.1 2.6 1.5 3.9c.6 1.8.9 3.5.7 5-.2.3-.4.6-.6.9-.4.3-.7.6-1.1 1-.7.8-1.2 1.7-1.6 2.6-.1.1-.2.2-.3.4 0 0-.2.1-.4.1zm10.9-3.4c1.4-.3 2.9-.7 4.5-1 .8-.1 1.6-.3 2.4-.3h1.2c.4 0 .9 0 1.3.1 1.8.1 3.7.5 5.7 1.1 2.7.7 5.8 1.8 9.5 2.8.9.2 1.9.4 2.8.7l.7.1h.1.1c.1 0 .2-.1.3 0 0 .1-.1.1-.1.2-.2.1.2 0-1.2.7-3 1.6-6.1 3.1-9.4 4.2-4.2 1.5-8.4 2.2-12 2.4-4.3.3-7.7-.3-9.8-.7 0-.1-.1-.3-.3-.5s-.5-.6-1-1c-.4-.4-1.1-1-1.6-1.7-.5-.8-.8-1.6-.4-2.6.2-.5.6-1.2 1.2-1.7.6-.6 1.3-1.1 2.3-1.5 1.2-.6 2.4-.9 3.7-1.3zm15.3-19.5c1.3-.3 2.9-.7 4.4-1 3-.6 6.4-.5 10.5.6 2.6.7 5.7 1.8 9.3 2.8.9.3 1.8.5 2.8.7l1.5.3h.2.3c.1.1 0 .1-.1.2 0 0-.1.1-.2.2-.6.3-2.1 1.2-4.5 2.3-5.6 2.7-11.7 4.5-18 4.8-4.2.2-7.5-.3-9.6-.7 0-.1-.1-.3-.3-.5s-.5-.6-1-1c-.4-.4-1-.9-1.5-1.7-.5-.7-.8-1.6-.5-2.6 0-.1.1-.2.1-.3.7-.6 1.3-1.1 1.8-2.1.4-.3.8-.6 1.4-.8.9-.4 2.1-.8 3.4-1.2zm11.9-38c-.7-.1-1.1-.2-1.5-.2-.3 0-.5 0-.6.1-.3-.2-.6-.5-.9-.8-1.7-1.6-4-4.1-6.1-7.5s-4-7.6-5.3-12.2c-.6-2.3-1.2-4.8-1.5-7.3-.2-1.2-.4-2.5-.5-3.7l-.1-.9v-.5-.1-.2c0-.1 0-.2.1-.2.1.1.1.2.2.2l.1.1c.4.4.8.8 1.2 1.1.4.4.8.7 1.2 1s.8.6 1.2 1c3.2 2.5 6.2 4.4 8.5 6.3 1.8 1.4 3.3 2.8 4.6 4.3 1.2 1.5 2.1 3 2.8 4.5.7 1.6 1.3 3.2 1.9 4.6.5 1.4.9 2.7 1.1 3.9.2 1.1.2 2.1 0 2.9-.4.6-.8 1.3-1.2 1.9-.3.4-.6.9-.9 1.4 0 .1-.1.1-.1.2-.5.2-1 .3-1.5.4-1.2-.1-2-.2-2.7-.3zm-11 19.1c-.7-.1-1.1-.2-1.5-.2-.3 0-.5 0-.6.1-.3-.2-.6-.5-.9-.8-1.7-1.6-4-4.1-6.1-7.5s-4-7.6-5.3-12.2c-.6-2.3-1.2-4.8-1.5-7.3-.2-1.2-.4-2.5-.5-3.7l-.1-.9v-.5-.1-.2c0-.1 0-.2.1-.2.1.1.1.2.2.2l.1.1c.4.4.8.8 1.2 1.1.4.4.8.7 1.2 1s.8.6 1.2 1c3.2 2.5 6.2 4.4 8.5 6.3 1.8 1.4 3.3 2.8 4.6 4.3 1.2 1.5 2.1 3 2.8 4.5.7 1.6 1.3 3.2 1.9 4.6.5 1.5 1 3.1 1.2 4.6-1.2 1.9-2.5 3.9-3.9 6-1.2.1-2-.1-2.6-.2zm13.7-2.4c1.4-.3 2.9-.7 4.5-1 .8-.1 1.6-.3 2.4-.3h1.2c.4 0 .9 0 1.3.1 1.8.1 3.7.5 5.7 1.1 2.7.7 5.8 1.8 9.5 2.8.9.2 1.9.4 2.8.7l.7.1h.1.1c.1 0 .2-.1.3 0 0 .1-.1.1-.1.2-.2.1.2 0-1.2.7-1 .6-2 1.1-3.1 1.6-2.1 1-4.2 1.9-6.3 2.6-4.2 1.5-8.4 2.2-12 2.4-4.3.3-7.7-.3-9.8-.7 0-.1-.1-.3-.3-.5s-.5-.6-1-1c-.4-.4-1.1-1-1.6-1.7-.5-.8-.8-1.6-.4-2.7 0-.1.1-.2.1-.2.8-.6 1.3-1.2 1.8-2.1.4-.3.9-.6 1.5-.9 1.3-.5 2.5-.8 3.8-1.2zm39.8-15.7s-.1.1-.2.2h-.1s0 0-.1 0l-1.1.6c-.7.4-1.5.8-2.2 1.1-2.9 1.5-6 2.7-8.9 3.6-5.9 1.8-11.7 2.1-15.7 1.8-1.7-.2-3.1-.4-4.2-.6 0-.1-.1-.3-.3-.5s-.5-.6-1-1c-.4-.4-1.1-1-1.6-1.7-.4-.6-.7-1.3-.6-2.1.2-.4.5-.8.7-1.2.6-.5 1-1.1 1.4-1.8.4-.3.9-.6 1.5-.9 1-.4 2.2-.8 3.5-1.2 1.9-.5 4.9-1.2 6.9-1.3h1.2c.4 0 .9 0 1.3.1 1.8.1 3.7.5 5.7 1.1 2.3.6 4.8 1.5 7.8 2.3 1.5.4 3 .8 4.7 1.1l.6.1h.1.1.2c.3.2.3.2.3.3z" fill="#202020"/></g></svg>