<svg id="Layer_1" enable-background="new 0 0 136 136" height="512" viewBox="0 0 136 136" width="512" xmlns="http://www.w3.org/2000/svg"><g><g><path d="m101 106.3c0 2.8-.3 5.6-1.2 8.2-1 3-2.9 5.5-5.2 7.6-2.5 2.3-5.4 4-8.6 5.3-4.6 1.8-9.6 2.6-14.5 3.1-1.5.2-3 .3-4.5.4-7.2.6-14.5 1.3-21.6-.1-1.6-.3-3.3-.8-4.9-1.4-5.3-1.9-10-5.3-12.7-10.2-3.1-5.5-3.2-12.2-3.3-18.5-.1-15.5-.3-30.9-.4-46.4l4.8-.1 67.9-1.5c0 .6.1 1.1.1 1.7 1 11.2 2 22.4 2.8 33.7.2 3.1.5 6.3.7 9.4.1 1.1.2 2.2.2 3.3.3 1.9.4 3.7.4 5.5z" fill="#00a79d"/></g><g><path d="m104.1 41.1v.9c-.4 4.3-3.3 8.4-7.1 9.5-.9.2-1.9.3-2.8.2-.3 1.5-.9 3-1.8 4.4-1.6 2.4-4 4.6-7.4 5.7-2 .7-4.2 1-6.8.9l.1-.8c-.9 5.4-7.8 8.2-13 6.4-2.8-1-5.8-3.3-8.1-5.6-1.8-1.8-3.2-3.6-3.7-4.7-6.3 9-17.8 2-19.4-3.3-3.9 2.1-9.2.9-12.3-2.3-.3-.3-.6-.6-.8-.9-7.2-8.7-.7-21.9 9.7-24.5 1.5-.4 4.1-.4 5.2-1.6.8-.9.6-2.1.9-3.1.3-.9.7-1.8 1.3-2.7 1.3-2 3.3-3.6 5.5-4.3.4-.1.9-.3 1.3-.3 2.5-.4 5.2.1 7.5 1.4l-.8-.9c.4-2.2 1.4-4.1 2.8-5.8.3-.4.6-.7.9-1 3-2.9 7.4-4.3 11.5-3.4s7.3 4.2 8.8 8c4.2-.9 8.8.2 12.1 2.9.6.5 1.2 1.1 1.7 1.8 2.3 2.9 3.5 6.6 3.1 10.3l.6-1.5c.7-.2 1.4-.3 2-.3 5.4 0 9.1 8.2 9 14.6z" fill="#f9ed32"/></g><g><path d="m89.1 17.9c-1.1.9-2.5 1.4-4.2 1.1-2.9-.5-5.8-.7-8.8-.8-.3 0-.5 0-.8 0-4.1-.1-8.1.1-12.2.3-2.5.1-5.1.2-7.5 1-.1 0-.3.1-.4.1-.2.1-.4.2-.6.3-2.4 1.2-4.3 3.4-6.5 4.9-7 5.1-28.6 9.3-25.6 21.4.6 2.3-.4 4.1-1.8 5.1-7.2-8.7-.7-21.9 9.7-24.5 1.5-.4 4.1-.4 5.2-1.6.8-.9.6-2.1.9-3.1.3-.9.7-1.8 1.3-2.7.8-.4 1.6-.9 2.4-1.3 1.6-1 3-2.1 4.5-3.3 2.5-.4 5.2.1 7.5 1.4l-.8-.9c.4-2.2 1.4-4.1 2.8-5.8.3-.1.6-.2.9-.2 0-.3 0-.5 0-.8 3-2.9 7.4-4.3 11.5-3.4s7.3 4.2 8.8 8c4.2-.9 8.8.2 12.1 2.9.5.6 1 1.2 1.6 1.9z" fill="#fff27d"/></g><g><path d="m104.1 41.1v.9c-1.9 3.4-4.5 6.7-7.1 9.5-1.6 1.7-3.2 3.2-4.7 4.5-.3.3-.6.5-.9.8-2.1 1.8-4.3 3.4-6.5 4.9-2 .7-4.2 1-6.8.9l.1-.8c-.9 5.4-7.8 8.2-13 6.4-2.8-1-5.8-3.3-8.1-5.6 9-1.6 17.5-5.4 24.8-10.9 5.8-4.4 19.8-16.3 13.7-24.2-.3-.4-.5-.8-.7-1.1 5.6.1 9.3 8.3 9.2 14.7z" fill="#f4df1c"/></g><g><path d="m40.6 129.4c-5.3-1.9-10-5.3-12.7-10.2-3.1-5.5-3.2-12.2-3.3-18.5-.1-15.5-.3-30.9-.4-46.4l4.8-.1c.1.4.3.7.4 1.2 1.9 9.4 2.8 18.5 2.6 28-.2 8.6-1 17.4.3 26 1 6.9 3.3 14.1 8 19.4 0 .3.1.5.3.6z" fill="#44d8ca"/></g><g><path d="m101.9 102c-.2 1.5-.5 2.9-.9 4.3-1.4 5.5-3.7 10.8-6.3 15.9-2.5 2.3-5.4 4-8.6 5.3-4.6 1.8-9.6 2.6-14.5 3.1 9.3-10 14.6-22.9 17.2-36.2 1.3-6.7 1.9-13.6 2.1-20.5.2-6.2-1.3-13.7 1-19.6.3-.7.6-1.5 1.2-2s1.6-.7 2.2-.2c.3.2.4.6.6.9 2.1 5 2 11.3 2.4 16.6.5 5.7 2.2 12.7 1.5 18.5-.3 2.7-.8 5.4-1.3 8.1.7.3 1.4.8 2 1.3 1.1 1.1 1.7 2.6 1.4 4.5z" fill="#059385"/></g><path d="m118.9 75.6c-.2-1-.3-1.9-.5-2.8-2.5-11.2-13-13.9-18.5-12.5-.4.1-.8.2-1.2.4-.6-4.4-1-6.6-1.3-7.7.9-.2 1.9-.5 3-1.2 7.5-5 7-16.1 1.3-22.8-1.7-2.2-4.4-3.4-6.2-3.3-.7 0-1.2.1-1.6.3.1-.6.1-1.4-.1-2.4-1.3-8.3-9.6-13.4-16.9-11.4-5-13.2-22.2-10.7-25.5.2-.1.5-.2.9-.3 1.3-9.2-3.9-17.1 4.3-15.9 11.7 0 .1.1.3.1.4-.6-.3-1.6-.6-2.9-.6-6-.3-13.9 5.1-15.5 12.1-1.3 5.8.4 12.3 4.9 16 .7.5 1.3 1 2 1.3-.1.7-.1 1.7-.2 3.1-.4 9.9-.6 36.2-.6 46.3.3 12.8 4.1 22 17.4 26.7 9.4 3.4 21 2.2 32 1.1 3.3-.3 6.4-.8 9.4-1.6s5.8-1.8 8.3-3.1c6.5-3.5 11.4-9.1 12.5-16.5.3-1.9.3-3.6.3-5.3h1.1c8.9-.6 18.1-9.5 14.9-29.7zm-98.4-37.6c.8-5.3 6.6-10.3 11.9-11.2 1.4-.3 2.4-.2 3-.3.2.8.6 1.1.7 1.1.3-.1.3-.9.6-2.2 1.6-7.6 9-12.4 17.7-5 1 .9 1.4.8 2 .5.3-.1.5-.2.6-.5s.2-.8-.2-1.6c-.3-.8-1-2-2.4-3.2-.6-.5-1.4-1.1-2.3-1.6.2-.3.4-.7.6-1.1 6-9.4 20.1-8.5 21.8 5.9.1.9.2 1.3.4 1.6s.4.4.7.5.5.1.8-.1.7-.7 1-1.7.6-2.7 0-5.1c0-.1 0-.1 0-.2 6.2.7 10.7 4.2 12.7 10.4.4 1.2.5 2 .7 2.6.3 1.1.8 1.3 1.4 1.3.5 0 1.1.1 1.5-1.3.4 0 1 .1 1.6.3 1.4.4 3 1.6 4.1 3.5 3.5 5.4 4.6 16.5-4 19.5-.7.2-1.1.3-1.4.6-.2.2-.3.4-.4.7-.4 0-.8.1-1.2.7-.3.4-.7.9-1.2 1.8-3.8 5.9-10.9 8.3-13.1 7.9-.3 0-.5-.1-.8.1-.3.1-.5.4-1 .9-6.5 7.7-14.2 3.1-21.4-3.8-1-.9-1.5-1.5-1.8-1.5 0 0-.1 0-.1.1-.4-.1-.8-.1-1.5.3-.5.3-1.1.8-2.1 1.3-4 2.1-8.7.7-12.2-2-1.2-.9-2.2-2-2.7-2.8.2-.2.4-.4.5-.6.2-.4.1-.6-.1-.9-.1-.2-.3-.5-.7-.5-.4-.1-1 0-2 .1-8.7.7-12.9-7-11.7-14.5zm60.3 88.3c-2.7.7-5.7 1.2-8.9 1.5-10.3 1.1-21.6 2.5-30.3-.5-12.6-4.3-15.2-12.8-15.7-23.5-.3-10.7-.9-36.1-1.5-46.2-.1-1.3-.2-2.3-.2-2.9.9.4 1.7.7 2.5.9 3 .7 5.2.2 6.5-.3h.1c1.3 6.2 11.6 12.2 18.4 7 1.2-.9 1.7-1.8 2.1-2.4 4.5 8.9 15.4 14.9 23.1 7.8 1.5-1.4 2.1-2.8 2.2-3.7.1-.2.1-.4.1-.6 3.4 1 8.9.1 12.7-3.5 1.6-1.6 2.4-3.1 2.9-4.2.4-1.1.6-1.9.6-2.5.1 0 .2 0 .3.1h.5c-.2 1.2-.2 3.8 0 9.3.4 8.1 2.8 42.1 2.8 42.2 0 9.6-4.1 17.8-18.2 21.5zm22.9-22.6c-.3.1-.6.1-.9.2-.2-5.4-2.8-32.4-3.7-40.6.4 0 .8-.1 1.3-.1 6.1-.2 12.3 2.9 14.1 10.5 2.9 12.9 1.9 27-10.8 30z" fill="#202020"/></g></svg>