<svg id="Layer_1" enable-background="new 0 0 136 136" height="512" viewBox="0 0 136 136" width="512" xmlns="http://www.w3.org/2000/svg"><g><g><path d="m124.8 83.8c-.8.8-1.6 1.5-2.4 2.1l2.7-2 1-.7c3.5 1.3 5.5 5.1 5.4 8.8s-2.1 7.1-4.8 9.6-6 4.3-9.4 5.8l1.2-4.9c-2 4-5.5 7.5-9.9 8.7s-9.6-.2-12.1-3.9l1.1-2.6c-1.8 4.1-4.8 7.7-8.9 9.5s-9.4 1.4-12.8-1.6l.8-2 .1-.3c-.1.1-.3.2-.4.3-3.6 2.4-7.4 4.5-11.7 5.2-4.4.7-9.4-.5-12.1-4l2.2-2.3c-3 2.7-6.8 4.6-10.9 4.8-4 .2-8.3-1.4-10.7-4.7l2.3-3.2c-1 .9-2.1 1.9-3.2 2.8-3.2 2.6-6.8 4.7-10.8 4.3-3.4-.3-6.3-2.4-8.7-4.9-.9-.9-1.7-1.9-2.1-3s-.3-2.6.5-3.5l1.7-.1c-.5-.2-1-.4-1.4-.6-3.6-1.9-6.1-5.7-7-9.6-.9-4-.4-8.2.9-12.1l3.6.9c-.3-.2-.6-.5-.9-.8-.6-.7-1.1-1.6-1.4-2.6-.1-.3-.2-.6-.3-1-1-3.4-1.4-7-1.1-10.5.1-1.6.4-3.2 1.1-4.6.7-1.3 1.9-2.5 3.4-2.8-.9-.7-1.7-1.5-2.3-2.3-6.3-8.3-1.6-17.5 4.5-24.1 1.5-1.6 3.5-2.5 5.6-3 5.8-1.4 11.9 0 17.1 2.7l-2.5-1.3c.3-1.7 1.5-3.1 3.1-4 1.5-.9 3.3-1.2 5-1.5 2.7-.4 5.4-.7 8-.1 2.2.5 4.4 1.8 5.6 3.7l-1.3-2.4c3-3 7.8-3.8 12-3s8 3.1 11.5 5.6l-1.6-2.8c.4-.7 1-1.2 1.7-1.7 1.8-1.2 4.2-1.6 6.4-1.9 2.5-.3 5-.6 7.5 0 .9.2 1.8.7 2.6 1.2 1 .7 1.7 1.6 2.1 2.6l-.8-2.9.1-.1c2.7-2.8 7-3.8 10.7-2.6.3.1.5.2.8.3 2.3 1 4.2 3 5.3 5.3 1.6-.9 3.3-1.7 5.1-2.1 1.4-.3 2.9-.2 4.2.3.5.2 1 .4 1.4.8 1.3 1.1 2 2.7 2.4 4.3.8 3.3.7 6.8-.3 10.1l.2-.3c2.7 1 4.5 3.5 5.3 6.2.7 2.7.4 5.6-.4 8.3-.2.6-.3 1.2-.5 1.7-.6 1.8-1.5 3.6-2.5 5.3-.2.3-.3.5-.5.8l.5-.6 1.6-1.8c4.3 3.1 5.7 9.2 4.4 14.3-1.3 4-3.9 7.6-7 10.5z" fill="#a97c50"/></g><g><ellipse cx="40.7" cy="53.9" fill="#c4956a" rx="8.5" ry="8.9"/></g><g><ellipse cx="70.6" cy="51.3" fill="#c4956a" rx="8.5" ry="8.9"/></g><g><ellipse cx="100.4" cy="51.8" fill="#c4956a" rx="8.5" ry="8.9"/></g><g><ellipse cx="41.6" cy="81.7" fill="#c4956a" rx="8.9" ry="8.5" transform="matrix(.118 -.993 .993 .118 -44.415 113.394)"/></g><g><ellipse cx="72.8" cy="80.8" fill="#c4956a" rx="8.9" ry="8.5" transform="matrix(.118 -.993 .993 .118 -16.065 143.475)"/></g><g><ellipse cx="101.6" cy="80.7" fill="#c4956a" rx="8.9" ry="8.5" transform="matrix(.118 -.993 .993 .118 9.477 172.109)"/></g><g><path d="m120.1 24.3c-.2 1.8-1.3 3.4-3.5 3.9-10.4 2.6-21.2 5.6-32 6.4-4.9.4-9.6-.4-14.3-1.4-6.8 1.8-13.6.3-20.1-2.2-2.1 1.2-4.2 2.4-6.5 3.3-7.3 3-15 3.8-22.7 2.7-6.9 2.8-7.1 12.3-7.6 19.6-.1 1-.2 2-.3 3v.3c-.8 6.3-2.7 12.1-6.1 17.4-.1-.3-.2-.6-.3-1-1-3.4-1.4-7-1.1-10.5.1-1.6.4-3.2 1.1-4.6.7-1.3 1.9-2.5 3.4-2.8-.9-.7-1.7-1.5-2.3-2.3-6.3-8.3-1.6-17.5 4.5-24.1 1.5-1.6 3.5-2.5 5.6-3 5.8-1.4 11.9 0 17.1 2.7l-2.5-1.3c.3-1.7 1.5-3.1 3.1-4 1.5-.9 3.3-1.2 5-1.5 2.7-.4 5.4-.7 8-.1 2.2.5 4.4 1.8 5.6 3.7l-1.3-2.4c3-3 7.8-3.8 12-3s8 3.1 11.5 5.6l-1.6-2.8c.4-.7 1-1.2 1.7-1.7 5.3.8 10.9.4 16.5-.6.5-.1.9-.2 1.4-.3 3.8-.8 7.7-1.7 11.4-2.7 2.3 1 4.2 3 5.3 5.3 1.6-.9 3.3-1.7 5.1-2.1 1.1-.1 2.6 0 3.9.5z" fill="#b2865f"/></g><g><path d="m76.5 110.6c-3.6 2.4-7.4 4.5-11.7 5.2-4.4.7-9.4-.5-12.1-4l2.2-2.3c-3 2.7-6.8 4.6-10.9 4.8-4 .2-8.3-1.4-10.7-4.7l2.3-3.2c-1 .9-2.1 1.9-3.2 2.8.1-.6.3-1.2.6-1.7 1.5-2.5 4.4-2.9 6.8-1.8 3.7 1.7 8.5 3.4 12.5 1.7 2.5-1.1 5.4-.8 6.8 1.8.6 1 1.7 1.6 2.9 1.4 2.7-.5 5.4-1.2 8-2 2.4-.7 4.3.3 5.3 1.9.5.1.8.1 1.2.1z" fill="#a07045"/></g><g><path d="m97.6 104.7c-1.8 4.1-4.8 7.7-8.9 9.5s-9.4 1.4-12.8-1.6l.8-2c5.4 0 10.8-1.8 15.1-5.3 1.9-1.5 4.1-1.5 5.8-.6z" fill="#a07045"/></g><g><path d="m125.4 59.7c-.2-1.8 1-3.5 2.7-4.4-.6 1.8-1.5 3.6-2.5 5.3-.1-.3-.1-.6-.2-.9z" fill="#a07045"/></g><g><path d="m131.5 92.1c-.1 3.7-2.1 7.1-4.8 9.6s-6 4.3-9.4 5.8l1.2-4.9c-2 4-5.5 7.5-9.9 8.7s-9.6-.2-12.1-3.9c.4-.9.7-1.9 1.2-2.6 1.1 1.5 2.6 2.4 4.6 2.5 1.7.1 3.3-.4 4.8-1.1 2.7-1.1 5.5-2.6 7.3-4.8 2.5-2.8 7-.5 9.2-3.2 2.5-3.1 3.3-8 1.9-11.7-.3-.8-.4-1.6-.3-2.3 0 0-.1 0-.1-.1l1-.7c3.4 1.2 5.5 5 5.4 8.7z" fill="#a07045"/></g><g><path d="m131.5 73.3c-1.1 4.1-3.6 7.6-6.7 10.6-2-1.3-3-3.7-1.2-6.2 3.9-5.3 2.8-10.8 1.9-16.8l1.6-1.8c4.4 3 5.8 9 4.4 14.2z" fill="#a07045"/></g><g fill="#202020"><path d="m129.4 59.9c-.3-.2-.6-.4-.8-.6 3.4-6.7 4-16.4-2.4-19.7-.2-.1-.4-.2-.5-.3 2-7 .2-16.5-6.9-16.9-2.3-.1-4.4.7-6.3 1.9-.1.1-.1.1-.2.1-3.3-7.4-13-8.2-17.4-3.2-.3.4-.6.7-.7 1-5.2-4.2-16.3-1.2-18.8 2-.4.5-.6 1-.7 1.3-.2-.2-.5-.4-.7-.6-1.1-.8-2.7-1.8-5.1-2.7-6.3-2.3-12.2-.6-14.9 2.2-.2.2-.4.5-.6.7-.1-.1-.1-.1-.2-.2-.7-.5-1.5-1-2.5-1.4-5.5-2.2-14.1 0-16.9 2.9-.6.7-1 1.4-1.3 2 0 .1-.1.2-.1.3-.4-.2-.8-.4-1.3-.6-9.3-3.7-20.3-.5-21.3 6.5-.1.1-.3.2-.5.3-6.8 4.1-9.1 15.7-3.5 22.1.7.8 1.4 1.4 2 1.7-1.3.6-2.6 1.9-3.3 4.1-1.3 3.8-1.4 9.9.5 15.1.2.5.4.9.6 1.4-6 8.2-3.7 20.2 4.1 23.8.2.1.4.2.6.2-.1.3-.2.7-.3 1.1-.1.9.1 2 .6 3 3.2 6.5 11.4 10.9 19.5 6 1.1-.7 2-1.3 2.7-1.9.3-.2.5-.5.8-.7.1.2.2.5.4.7 3.2 4.8 11.9 6.8 18.9 1.9.1-.1.2-.2.3-.3.1.2.2.3.4.5 3.2 4 11.6 6.4 20.7.5.8-.5 1.3-1 1.7-1.3.1.3.5.9 1.1 1.5 4.8 4.3 14.8 3.5 20.1-5 3.8 5.4 14.2 6.1 20.2-1.7.2.4.6.8 2 .5.8-.2 2-.6 3.6-1.4 12.8-6.7 12.1-19.3 5.6-22.9-.3-.2-.5-.3-.8-.4 8.4-8.4 7.1-19.2 1.6-23.5zm-8.3 43.6c-.9.6-1.6 1-2.1 1.4.1-.1.1-.3.1-.4.4-1.4-.1-1.7-.6-1.9-.5-.3-1-.4-1.9.4-.5.4-1 1.1-1.9 2-5.8 5.7-11.6 6.1-16.4 3.2-.1-.1-.3-.2-.4-.2.3-.6.4-1.2.5-1.6.3-1.4-.2-1.6-.7-1.9-.5-.2-1-.3-1.8.6-.4.5-1 1.2-1.8 2.1-4.4 5.3-9.7 7.8-16.2 5.7-.7-.2-1.2-.4-1.6-.5.1-.1.2-.2.2-.2.9-1 .6-1.5.3-1.9-.3-.5-.6-.9-1.9-.5-.6.2-1.5.6-2.7 1.1-6 2.8-11.6 4.9-17.8 1.6-.1-.1-.3-.1-.4-.2.3-.3.6-.6.8-.9.7-1.1.4-1.5 0-1.9s-.8-.7-1.8-.4c-.5.2-1.2.6-2.3 1.1-5.6 2.6-10.4 3.3-15.8.1-.3-.2-.5-.3-.7-.4.5-.5.8-1 1.1-1.3 1-1.4.6-1.8.3-2.2-.4-.4-.8-.7-2.2.1-.7.4-1.7 1.1-3 2-11.8 7.6-18.7-2.6-18.9-4.1-.1-.2-.1-.5-.1-.7 1 .2 1.9.2 2.5.1 1-.2 1.4-.6 1.5-.9.2-.3.1-.6 0-.8-.1-.3-.2-.5-.4-.7s-.6-.3-1.1-.5-1.3-.4-2.4-1.1c-4.3-2.7-7.3-9-4.8-19 1.2 1.4 2.6 1.8 3.5 1.9 1 0 1.4-.3 1.6-.5.2-.3.2-.5.1-.8-.1-.6-.3-.9-1-1.5-.3-.3-.8-.7-1.3-1.5-.2-.4-.5-1-.7-1.8-1.5-4.7-1.9-10.4-1.6-13.1.2-1.6.8-2.8 1.6-3.6.2-.2.4-.4.6-.6.5.1.9 0 1.1-.1.3-.2.4-.4.4-.7.2-.6.2-1-.6-1.8-.4-.4-.9-1-1.6-2-2.4-3.6-3.1-9.4-.8-14.7.5-1.3 1.2-2.4 1.8-3.2.2.9.7 1.4.9 1.3.3-.1.2-.9.5-2 1.9-6.4 11.8-6 18.6-4.3 1.4.4 2.4.6 3.1.8 1.4.3 1.7-.1 2-.6s.5-1-.8-2c-.2-.1-.3-.3-.6-.4l.2-.2c.7-.7 1.8-1.5 3.3-1.9 2.3-.7 9.6-1.7 13.8.7 1 .5 1.5 1 2 1.3.8.6 1.3.6 1.8.3.3-.1.5-.2.6-.5s.2-.7-.1-1.5c-.2-.5-.5-1.1-1.1-1.8.2-.1.3-.1.5-.2 6.4-2.5 11.5-.4 17.2 2.4 1.1.6 2 .9 2.5 1.1 1.2.4 1.5 0 1.9-.5.3-.5.6-.9-.2-1.9-.2-.3-.5-.6-.9-.9.3-.1.7-.3 1.1-.6 2.5-1.1 12.5-3 17.3 1.4.6.6 1.1.7 1.6.6.3 0 .5-.1.7-.3s.4-.6.3-1.4c.2-.7-.2-1.7-1.2-2.7.3-.1.6-.2 1-.4 5.6-2.2 10.1-.7 13.1 3.7.6.8.9 1.4 1.1 1.8.5.8 1 .9 1.6.8.5-.1 1.1-.1 1.2-1.4 0-.4 0-.9-.2-1.6.1 0 .3-.1.4-.1 1.4-.4 3.4-.9 5.3-.5 5.3 1.2 4.4 10.9 2.5 16-.6 1.5-1.1 2.6-1.5 3.3-.7 1.4-.4 1.8.1 2.2.4.4.9.7 2.3-.5.7-.6 1.6-1.7 2.5-3.4.3-.6.6-1.3.9-2.1 5 5.6 1.5 14.5-2.6 20.7-.9 1.3-1.5 2.2-1.9 2.8-.8 1.3-.5 1.7-.1 2.1s.8.8 2.2-.1c.7-.4 1.6-1.2 2.8-2.6.7-.8 1.5-1.9 2.3-3.3.1.1.2.3.3.5 4.3 6.9 1.6 13.8-3.5 20.2-1 1.2-1.7 2-2.1 2.6-.9 1.2-.6 1.7-.2 2.1s.7.8 2.1.1c.6-.3 1.4-.8 2.4-1.7.2.2.4.5.7.7 3.9 4.5 3.8 11.7-6.4 18.6z"/><path d="m35.1 62.7c1.9 1.3 4.3 1.8 6.4 1.5 2.1-.2 4-1.2 5.3-2.4s2.1-2.6 2.5-3.9c.8-2.5.3-4.1.1-4-.3 0-.4 1.5-1.5 3.4-.6.9-1.4 2-2.5 2.7-1.1.8-2.5 1.3-4 1.3s-3-.5-4.2-1.4-2.1-2.3-2.5-3.7-.4-2.9 0-4.2 1-2.3 1.8-3.1c1.4-1.4 3-1.9 4.5-2 .7 0 1.4.1 2 .3s1.1.4 1.6.7c1.9 1.2 2.7 2.7 3.2 3.7s.7 1.6 1 1.9.5.3.8.3.5 0 .8-.4c.2-.4.5-1.2.2-2.7-.2-.7-.4-1.7-1-2.7s-1.4-2.2-2.9-3.2c-.7-.5-1.5-1-2.5-1.3s-2.1-.5-3.3-.6c-2.4 0-5.2.9-7.3 3.1-1.2 1.2-2.2 2.9-2.7 4.9s-.5 4.3.3 6.4c.4 2.3 2 4.2 3.9 5.4z"/><path d="m64.9 60.1c1.9 1.2 4.3 1.8 6.4 1.5 2.1-.2 4-1.2 5.3-2.4s2.1-2.6 2.5-3.9c.8-2.5.3-4.1.1-4-.3 0-.4 1.5-1.5 3.4-.6.9-1.4 2-2.5 2.7-1.1.8-2.5 1.3-4 1.3s-3-.5-4.2-1.4-2.1-2.3-2.5-3.7-.4-2.9 0-4.2c.8-2.8 3.3-5 6.2-5.1.7 0 1.4.1 2 .3s1.1.4 1.6.7c1.9 1.2 2.7 2.7 3.2 3.7s.7 1.6 1 1.9.5.3.8.3.5 0 .8-.4c.2-.4.5-1.2.2-2.7-.2-.7-.4-1.7-1-2.7s-1.4-2.2-2.9-3.2c-.7-.5-1.5-1-2.5-1.3s-2.1-.5-3.3-.6c-4.5 0-8.9 3.2-10 8-.5 2-.5 4.3.3 6.4.6 2.2 2.1 4.1 4 5.4z"/><path d="m94.7 60.6c1.9 1.3 4.3 1.8 6.4 1.5 2.1-.2 4-1.2 5.3-2.4s2.1-2.6 2.5-3.9c.8-2.5.3-4.1.1-4-.3 0-.4 1.5-1.5 3.4-.6.9-1.4 2-2.5 2.7-1.1.8-2.5 1.3-4 1.3s-3-.5-4.2-1.4-2.1-2.3-2.5-3.7-.4-2.9 0-4.2 1-2.3 1.8-3.1c1.4-1.4 3-1.9 4.5-2 .7 0 1.4.1 2 .3s1.1.4 1.6.7c1.9 1.2 2.7 2.7 3.2 3.7s.7 1.6 1 1.9.5.3.8.3.5 0 .8-.4c.2-.4.5-1.2.2-2.7-.2-.7-.4-1.7-1-2.7s-1.4-2.2-2.9-3.2c-.7-.5-1.5-1-2.5-1.3s-2.1-.5-3.3-.6c-2.4 0-5.2.9-7.3 3.1-1.2 1.2-2.2 2.9-2.7 4.9s-.5 4.3.3 6.4c.5 2.3 2 4.2 3.9 5.4z"/><path d="m50.7 76.7c-.5-1.1-1.2-2.3-2.6-3.5-.7-.6-1.5-1.1-2.4-1.5s-2-.7-3.2-.8c-2.4-.2-5.3.5-7.6 2.5-1.3 1.1-2.5 2.7-3.1 4.6-.7 1.9-.8 4.2-.3 6.4s1.9 4.2 3.7 5.7c1.8 1.4 4.1 2.1 6.2 2.1s4.1-.9 5.5-2 2.3-2.4 2.8-3.6c1-2.4.7-4 .4-4s-.6 1.5-1.8 3.3c-.6.9-1.5 1.8-2.7 2.5s-2.6 1.1-4.1 1-3-.7-4.1-1.8-1.9-2.5-2.2-3.9c-.3-1.5-.1-3 .4-4.2s1.3-2.2 2-2.9c1.5-1.3 3.2-1.7 4.6-1.6.7.1 1.4.2 2 .4s1.1.5 1.5.9c1.8 1.4 2.4 2.9 2.8 3.9s.5 1.7.8 2c.2.3.5.4.8.4s.5 0 .8-.3c.2-.4.6-1.1.5-2.6-.1-1-.2-1.9-.7-3z"/><path d="m81.8 75.8c-.5-1.1-1.2-2.3-2.6-3.5-.7-.6-1.5-1.1-2.4-1.5s-2-.7-3.2-.8c-2.4-.2-5.3.5-7.6 2.5-1.3 1.1-2.5 2.7-3.1 4.6-.7 1.9-.8 4.2-.3 6.4s1.9 4.2 3.7 5.7c1.8 1.4 4.1 2.1 6.2 2.1s4.1-.9 5.5-2 2.3-2.4 2.8-3.6c1-2.4.7-4 .4-4s-.6 1.5-1.8 3.3c-.6.9-1.5 1.8-2.7 2.5s-2.6 1.1-4.1 1-3-.7-4.1-1.8-1.9-2.5-2.2-3.9c-.3-1.5-.1-3 .4-4.2s1.3-2.2 2-2.9c1.5-1.3 3.2-1.7 4.6-1.6.7.1 1.4.2 2 .4s1.1.5 1.5.9c1.8 1.4 2.4 2.9 2.8 3.9s.5 1.7.8 2c.2.3.5.4.8.4s.5 0 .8-.3c.2-.4.6-1.1.5-2.6-.1-1-.2-1.9-.7-3z"/><path d="m110.7 75.7c-.5-1.1-1.2-2.3-2.6-3.5-.7-.6-1.5-1.1-2.4-1.5s-2-.7-3.2-.8c-2.4-.2-5.3.5-7.6 2.5-1.3 1.1-2.5 2.7-3.1 4.6-.7 1.9-.8 4.2-.3 6.4s1.9 4.2 3.7 5.7c1.8 1.4 4.1 2.1 6.2 2.1s4.1-.9 5.5-2 2.3-2.4 2.8-3.6c1-2.4.7-4 .4-4s-.6 1.5-1.8 3.3c-.6.9-1.5 1.8-2.7 2.5s-2.6 1.1-4.1 1-3-.7-4.1-1.8-1.9-2.5-2.2-3.9c-.3-1.5-.1-3 .4-4.2s1.3-2.2 2-2.9c1.5-1.3 3.2-1.7 4.6-1.6.7.1 1.4.2 2 .4s1.1.5 1.5.9c1.8 1.4 2.4 2.9 2.8 3.9s.5 1.7.8 2c.2.3.5.4.8.4s.5 0 .8-.3c.2-.4.6-1.1.5-2.6-.1-1-.2-1.9-.7-3z"/></g></g></svg>