<svg id="Layer_1" enable-background="new 0 0 136 136" height="512" viewBox="0 0 136 136" width="512" xmlns="http://www.w3.org/2000/svg"><g><g><path d="m95.6 54.8c-2.8 2.3-5.5 4.2-8.2 5.9-4.8 3-9.5 5.1-14.1 6.1s-9.1.9-13.4-.5c-5.9-1.9-11.5-6.2-16.6-13.1-3-12.1-.6-25.4 6.4-35.7 5-7.4 13.9-13.7 22.6-11.3.4.1.7.2 1.1.4 1.9.7 3.7 1.8 5.4 3 14 9.8 21 28.6 16.8 45.2z" fill="#fff"/></g><g><path d="m95.6 54.8c-2.8 2.3-5.5 4.2-8.2 5.9-.7-.3-1.4-.9-2-1.5-3.6 3.2-7.8 5.8-12.1 7.6-2.6 1.1-5.3 1.9-7.9 2.3s-4.5-1-5.5-2.8c-1.5-2.6-.9-6.3 2.9-6.9 8.6-1.4 18.4-7.8 22.6-15.7 3.7-6.9 1.8-13.6-1.6-19.9-2.6-4.6-5.7-8.9-9.3-12.9-1.3-1.4-1.5-3-1.2-4.5 1.9.7 3.7 1.8 5.4 3 14.1 10 21.1 28.8 16.9 45.4z" fill="#efefef"/></g><g><path d="m111.5 62.5c-.7 3.2-1.6 6.4-2.9 9.5-2.3 5.6-5.9 10.8-10.2 15-2.6 2.6-5.6 4.9-8.8 6.8-2.5 1.5-5.1 2.7-7.8 3.7-.7.2-1.3.5-2 .7-1.4.4-2.9.8-4.3 1.1-2.8.6-5.7.9-8.5.9-6.6.1-13.1-1.2-19.1-3.9-1-.4-2-.9-3-1.4-8.6-4.4-15.6-11.7-18.9-20.6s-2.4-19.4 3-27.2l.3.5c11.7 6.7 23.2 10.4 36.2 11 2.1.1 4.3.1 6.4.1 9.1-.2 18.2-2.4 26.3-6.4 5.3-2.6 11.3.4 13 5.4.5 1.4.7 3.1.3 4.8z" fill="#27aae1"/></g><g><path d="m90.5 119.5c-.2 3.5-2.6 6.7-5.6 8.5-2.5 1.5-5.3 2.2-8.2 2.6-.7.1-1.3.2-2 .2-3.2.3-6.4.3-9.5-.3-1-.2-1.9-.4-2.9-.8-3.9-1.4-7.5-4.2-9-8.1-.4-1.1-.7-2.4-.1-3.5.5-.9 1.4-1.4 2.3-2 2.7-1.8 4.6-5.8 5.5-9.6.5-1.9.8-3.9.8-5.5l4.8-.9 8.6-1.6 4.3-.8c0 .2-.1.3-.1.5-1.1 8.5 11.6 12.5 11.1 21.3z" fill="#27aae1"/></g><g><path d="m60.7 63.7c-8.1-.2-18.3-1.5-26.3-5.5-1.6-.8-3.5.3-3.5 2.1 0 4.1.8 8.2 2.4 12.2 3 7.6 6.8 15.6 12.9 21.2.9.8 1.3 1.7 1.5 2.6-1-.4-2-.9-3-1.4-8.4-4.4-15.4-11.7-18.7-20.6s-2.4-19.4 3-27.2l.3.5c11.7 6.7 23.2 10.4 36.2 11 .1 2.6-1.5 5.2-4.8 5.1z" fill="#37c3f4"/></g><g><path d="m65.3 130.6c-1-.2-1.9-.4-2.9-.8-3.9-1.4-7.5-4.2-9-8.1-.4-1.1-.7-2.4-.1-3.5.5-.9 1.4-1.4 2.3-2 2.7-1.8 4.6-5.8 5.5-9.6 1 1.1 1.5 2.6.8 4.5-1 2.9-2.7 4.6-2.2 7.8.5 3 2 5.5 4.2 7.6 1.3 1.3 1.7 2.8 1.4 4.1z" fill="#37c3f4"/></g><g><path d="m111.5 62.5c-.7 3.2-1.6 6.4-2.9 9.5-2.3 5.6-5.9 10.8-10.2 15-3 2.2-6.1 4.3-8.8 6.8-2.5 1.5-5.1 2.7-7.8 3.7-.7.2-1.3.5-2 .7-1.4 8.4 11.3 12.5 10.8 21.3-.2 3.5-2.6 6.7-5.6 8.5-2.5 1.5-5.3 2.2-8.2 2.6-.4-1.5-.1-3.1 1.4-4.5 6.5-6.3 1.2-11.8-1.5-18.3-1.2-2.9-1.6-5.8-1.2-8.6 0-.3.1-.5.1-.7.5-2.9 1.8-5.7 3.8-8.2 4.1-5.4 10.4-8.6 15.5-12.8 5.6-4.6 10.8-10.1 13.5-16.9.6-1.5 1.7-2.5 2.9-3 .4 1.5.6 3.2.2 4.9z" fill="#07a4db"/></g><path d="m112.4 55.9c-1.1-2.2-2.9-4-5-5.1s-4.7-1.5-7-1c-.6.2-1.2.2-1.7.5-.2.1-.5.2-.7.3.2-.7.3-1.5.5-2.5 1.9-14.5-3.8-30.2-17.5-40.7-1.4-1.1-3.1-2.1-5-3-2.1-.8-4.3-1.4-6.6-1.4-2.3-.1-4.6.4-6.8 1.1-14.4 5.3-22.4 24.3-21 39.8.5 5.4 1.8 8.5 2 8.5.3-.1-.4-3.3-.4-8.5 0-14.1 7.4-31.8 20.6-36.2 1.8-.6 3.6-.9 5.4-.8 1.7.1 3.4.5 4.9 1.3 10.9 5 21.5 19.3 21.4 39.7-.1 1.4-.1 2.5-.2 3.3v.6c-.3.1-.6.3-1 .5-15.3 6.7-33.3 6.6-49.7 1.5-4.8-1.6-8.6-3.2-11.2-4.4s-4-1.9-4.1-1.7c-.1.1 1.2 1 3.7 2.5 2.5 1.4 6.2 3.3 11 5.2 16.5 6 35.4 6.6 51.5-.1 1-.4 1.9-.8 2.9-1.3.5-.3.9-.4 1.3-.5.4-.2.8-.2 1.2-.3 1.6-.3 3.4 0 4.9.8s2.7 2.1 3.4 3.6.9 3.2.5 4.9c-4.4 19.6-19 32.2-35.4 35.2-27 4.8-51.9-15.4-48.3-39.4.9-5.3 2.3-7.8 2.7-9.2.6-1.4.4-1.6.2-1.8s-.5-.2-1.6 1c-.9 1.2-2.9 3.7-4.2 9.5-3.4 15.5 5.6 32.2 22.8 40.3 4.5 2.1 9.8 3.6 15.5 4.2-3.5 15.1-8 12.2-9.6 16-.5 1.1-.4 2.2-.2 3.1.9 3.6 3.4 6.5 6.5 8.5 5.7 3.7 13.2 3.8 19.9 2.8 3.1-.5 6-1.5 8.3-3 3.9-2.5 6.6-6.9 6.1-11.5-.6-5.8-5.8-9.6-8.8-13.1-1.1-1.2-1.7-2.2-2.2-3.1-.4-.7-.6-1.3-.7-1.9 15.3-4.9 28.4-17.8 32.4-37 .6-2.4.3-5-.7-7.2zm-33.6 47c.4 1.2 1.1 2.7 2.2 4.2 3.2 4.4 13.3 12.5 3.2 19-1.7 1.1-4 2-6.7 2.4-8.9 1.5-20.4.6-22.9-8.1-.2-.6-.2-1.1-.1-1.4s.4-.7 1-1.1c.3-.2.6-.4.9-.6 4.6-3.8 6.2-11.3 5.9-15.3 4.1.3 8.4.2 12.8-.6 1.1-.2 2.2-.5 3.4-.8 0 .7.1 1.5.3 2.3z" fill="#202020"/></g></svg>