<svg id="Layer_1" enable-background="new 0 0 136 136" height="512" viewBox="0 0 136 136" width="512" xmlns="http://www.w3.org/2000/svg"><g><g><path d="m94.5 109.3c-1.7 4.4-3.9 8.8-7.2 12.3-3.6 3.8-8.4 6.3-13.3 8-7.3 2.6-15.7 3.5-23 1.5-.7-.2-1.3-.4-1.9-.6-2.9-1.1-5.6-2.7-7.9-4.9-1.9-1.9-3.4-4.1-4.4-6.6-2.5-6-2.4-13.3.9-19 3.9-6.7 11.1-10.8 16.3-16.5 6.6-7.3 9.6-17.6 8.4-27.4-.1-1-.3-2-.5-3-.5-2.5-1.3-5-2.4-7.3l-.2-1.4c2.4-4.9 8.5-7.2 13.8-6.4 5.4.8 10 4.1 13.8 8.1 4.1 4.3 7.1 9.3 9.2 14.7 5.7 15 4.4 33.1-1.6 48.5z" fill="#2b3990"/></g><g><path d="m67.5 29.2c-3.3-3.4-5.6-8.9-6.1-14.8-.3-3.5.2-7.6 2.3-9.4 1.9-1.6 4.5-.4 6.1 2s2.3 5.6 3.1 8.7c1 4.4 2.1 8.8 3.1 13.1" fill="#b4e565"/></g><g><path d="m65.1 71.6c-.6 3.9-1.8 7.7-3.6 11.3-3 5.8-7.3 10.7-11.2 16-2.3 3.2-4.5 6.6-6 10.3-1.2 3-1.2 6.1-3.8 8.1-1.8 1.4-3.1 2.1-4.3.2-.9-1.5-1.1-4.2-1.2-5.9-.2-4 .6-8.1 2.6-11.6 3.9-6.7 11.1-10.8 16.3-16.5 6.6-7.3 9.6-17.6 8.4-27.4-.1-1-.3-2-.5-3 0-1.2-.1-2.2 0-2.4.8 0 1.6 2 2.2 4.3 1.6 5.4 1.9 11.1 1.1 16.6z" fill="#45a"/></g><g><path d="m94.5 109.3c-1.7 4.4-3.9 8.8-7.2 12.3-3.6 3.8-8.4 6.3-13.3 8-7.3 2.6-15.7 3.5-23 1.5-.7-.2-1.3-.4-1.9-.6 33-2.8 51-39.3 46.9-69.7 5.8 15 4.5 33.1-1.5 48.5z" fill="#1a2d89"/></g><g><path d="m92.2 45.6c-2.9 1.1-7-1.5-8.8 1-1.2 1.6-.2 3.8.5 5.7.8 2.1 1 4.4.8 6.6-.1.9-.3 1.8-.9 2.4-1 1.2-2.5 1-3.9.3-1.1-.6-2.1-1.6-2.7-2.7-1.3-2.4-2.2-5.6-4.9-6.4-4.6-1.5-7.8 5.5-12.2 7.1-.7.2-1.3.4-2.1.3-5.1-.3-5.7-7.1-5.3-10.9.6-6 3.3-11.5 8.1-15.3 3.4-2.7 8.1-4.3 12.9-4.7s9.8.4 13.8 2.6c2.1 1.1 4 2.7 5.4 4.6 2.3 3 2.7 8.2-.7 9.4z" fill="#8dc63f"/></g><g><path d="m70.4 34.5c-10 2-14.1 14.8-10.5 23.6.2.5.3 1 .4 1.5-.7.2-1.3.4-2.1.3-5.1-.3-5.7-7.1-5.3-10.9.6-6 3.3-11.5 8.1-15.3 3.4-2.7 8.1-4.3 12.9-4.7.4 2.4-.5 4.9-3.5 5.5z" fill="#b4e565"/></g><g><path d="m92.2 45.6c-2.9 1.1-7-1.5-8.8 1-1.2 1.6-.2 3.8.5 5.7.8 2.1 1 4.4.8 6.6-.1.9-.3 1.8-.9 2.4-1 1.2-2.5 1-3.9.3 0-.4 0-.9.1-1.4 1.3-5.8-2.5-11.1.8-16.7 1.3-2.1 3.1-3.7 5.2-5.1.7-.4 1.6-1.1 2.3-1.3.3-.3.5-.5.8-.6-1.5-1.4-1.8-3.2-1.4-4.9 2.1 1.1 4 2.7 5.4 4.6 2.1 3 2.5 8.2-.9 9.4z" fill="#89bc39"/></g><path d="m101.7 74.1c-1-9.2-4.1-16.8-7.7-22.7-1.2-1.9-2.5-3.6-3.9-5.1.6 0 1.2-.1 1.5-.3.4-.2.6-.3.6-.4-.1-.1-.9.1-2.5-.2-.8-.1-1.7-.4-2.9-.5-.6-.1-1.3-.1-2.1 0-.8.2-1.6.7-2.1 1.5s-.7 1.9-.5 2.8c.1.9.4 1.8.7 2.6.6 1.6.9 3.2 1 5 0 .9-.1 1.9-.3 2.7s-.6 1.3-1 1.4-1.2 0-1.9-.5c-2.8-1.8-2.6-5.5-5.5-8.1-1.1-1-2.7-1.7-4.4-1.6s-3 .9-4 1.7c-2.1 1.6-3.6 3.4-5.3 4.6-.8.6-1.6 1-2.4 1.1-4.3.6-4.6-6.5-3.7-10.9 1.6-8.1 7.2-14.4 17.2-16 4.4-.7 8.2-.2 11.3.7 7.9 2.5 10.5 8 9.6 11.2-.2.7-.4 1.1-.7 1.3-.4.6-.5.8-.4 1.1 0 .1.1.3.3.3s.5.1 1-.1 1.2-.7 1.8-1.7c2.4-4.1-.4-12.2-10.5-15.7-2.4-.8-5.1-1.3-8.1-1.4 0-.3 0-.7-.1-1.2-.4-4.6-2.5-19.1-7.9-22.5-1-.6-2.4-1.1-3.9-.8-1.6.3-2.8 1.3-3.5 2.4-.8 1.1-1.2 2.2-1.4 3.3-1.3 5.9.9 13.9 4.4 18.4.7 1 1.4 1.7 2 2.1-.8.3-1.7.6-2.5 1-6.8 3.1-11.3 9.5-12.7 16.9-.9 4.9-.6 11.7 3.5 14.3 1.4.9 3 1.2 4.6 1 1.1-.2 2-.6 2.8-1.1 0 .7-.1 1.4-.1 2.1-.6 5.4-2.5 11.7-6.8 17.4-2.1 2.8-5 5.3-8 7.8-22.7 19-12.5 38.7 1.7 43.9 5.8 2.3 15.6 3 26.8-1 4.1-1.5 8-3.4 11.2-6.2 11.6-9.5 16.7-34.2 14.8-50.6zm-35.9-48.5c-2.5-5.1-4.2-14.9-1.4-18.7.4-.5.8-.7 1-.7.3 0 .7.1 1.2.4 3.6 2.4 4.4 12.4 7.3 19.9.1.2.2.4.2.6-.8 0-1.5.1-2.3.2-1.5.2-3 .5-4.5 1-.4-.6-1-1.5-1.5-2.7zm18.7 96c-2.8 2.3-6.3 4.2-10 5.6-10.4 3.8-19.4 3.2-24.2 1.3-12.6-4.4-21-21.1-1.2-38.5 3-2.6 5.9-5.3 8.1-8.4 4.4-6.2 6.2-13 6.6-18.6.1-1.1.1-2.2 0-3.3 1.9-1.6 3.3-3.3 4.9-4.5.8-.6 1.6-1.1 2.3-1.2s1.4.1 2 .7c2.3 1.9 2.2 5.7 6.1 8.1.6.3 1.2.6 1.9.7s1.5.1 2.3-.1c1.6-.6 2.4-2.1 2.6-3.3s.2-2.2.2-3.3c-.1-2.1-.7-4.1-1.4-5.6s-1.1-3-.6-3.9c.3-.5.8-.8 1.3-1 1.9 2 3.8 4.3 5.5 7.1 3.3 5.4 6 12.5 6.9 21.1 1.5 14.7-3 38.4-13.3 47.1z" fill="#202020"/></g></svg>