<svg id="Layer_1" enable-background="new 0 0 136 136" height="512" viewBox="0 0 136 136" width="512" xmlns="http://www.w3.org/2000/svg"><g><g><path d="m127 69c-2.4 4.2-7 7.6-11.4 6.2l-1.4-2.6-.3-.6c.1.3.2.5.2.8 1.3 4.5.1 9.6-2.8 13.2-3 3.8-7.7 5.7-12.3 5.7-3.1-.1-6.4-1.3-8-4-2.2 4.7-7.1 8.1-12 8-5.5-.1-10.7-4.5-12.3-10.1-7 13.7-15.6 26.4-25.6 37.8-2.7 3.1-5.8 6.3-9.7 7.1-1.5.3-3 .3-4.5 0-2.8-.6-5.5-2-7.8-3.7-5.9-4.3-15.8-12.1-12.2-20.6.1-.1.1-.3.2-.4 2.9-6.3 10.6-9.2 15.6-13.2 6-4.9 27.7-18.7 27.3-27.7-.2-3.4-3.6-5.2-6-7.4-3.7-3.3-4.8-9.1-2.8-13.8 3.7-8.9 6.1-6.1 6.1-6.1-2.6-7.2.9-16.2 7.4-19.3 1.3-.6 2.6-1 4-1 4.1.1 7.2 3.8 8.7 7.9.2.5.4 1.1.5 1.6l-.5-1.7-2.3-8.5c.4-4.1 4.2-6.8 7.9-7.7 7.6-1.9 18.5-.4 18.5-.4 2.8-3.7 4.8-3.3 9.2-3.1s8.7 2.7 11.2 6.6c1.3 2 2.1 4.5 2.3 6.9.1 1.3.1 2.5-.2 3.8l1.6-3.7c7.3 4.8 10.9 15.3 8.3 24 0 .1-.1.2-.1.4 1.5 1.6 2.8 3.4 3.7 5.4 3 6.1 3 14.1-.5 20.2z" fill="#00d45a"/></g><g><path d="m67.2 24.9c0 .3-.3.3-1.2.6-1 .3-2.4 0-3.5-.1-2-.1-4.1-.4-6.1.2-2.3.8-4.2 2.9-4.8 5.5-.7 2.7.1 5.7-.9 8.4-.7 2-2.4 3.5-3.3 5.5-2.3 5.2 1.5 8.3 4.4 11.7 1.8 2.2 3 4.5 3.4 7.4.8 6.1-2.2 12.6-5.5 17.4-8.5 12.3-22.5 18.4-33.4 27.8-3.8 3.2-8.8 0-9.3-3.8 2.9-6.3 10.6-9.2 15.6-13.2 6-4.9 27.7-18.7 27.3-27.7-.2-3.4-3.6-5.2-6-7.4-3.7-3.3-4.8-9.1-2.8-13.8 3.7-8.9 6.1-6.1 6.1-6.1-2.6-7.2.9-16.2 7.4-19.3 1.3-.6 2.6-1 4-1 3.3 0 7.5 3.3 8.3 6.8.2.6.3.9.3 1.1z" fill="#25ef76"/></g><g><path d="m114.9 18.7c-.1 1.5-1 2.7-2.7 1.8-2.2-1.1-3.6-3.5-5.1-5.5-3.7-5-10.1-5.9-15.7-4.8-2.7.5-5.1.9-7.8 1.3-5.4.8-10.7 3.8-14 8.6-.4.5-2.3 4.1-2.2 4.6 0 0-2.3-8.5-2.3-8.5.4-4.1 4.2-6.8 7.9-7.7 7.6-1.9 18.5-.4 18.5-.4 2.8-3.7 4.8-3.3 9.2-3.1s8.7 2.7 11.2 6.6c1 1.6 2.3 4.1 2.7 6 .3.4.3.8.3 1.1z" fill="#25ef76"/></g><g><path d="m114.2 72.7c1.3 4.5.1 9.6-2.8 13.2-3 3.8-7.7 5.7-12.3 5.7-3.1-.1-6.4-1.3-8-4-2.2 4.7-7.1 8.1-12 8-5.5-.1-10.7-4.5-12.3-10.1-7 13.7-15.6 26.4-25.6 37.8-2.7 3.1-5.8 6.3-9.7 7.1-1.5.3-3 .3-4.5 0-.1-1.9.6-3.8 2.3-5.1 13-9.9 23.5-23.6 29.7-39.4 1.8-4.6 7.2-4.6 9.5-2 1-.1 2 .2 3 1 5.7 4.4 12 5.4 18.6 2.9 1.6-.6 3-.4 4.1.4.3-.1.7-.2 1-.3 5.3-.9 12.4-4.1 14.6-9.9.7-2 2.1-3.5 3.9-4 .2-.6.3-1 .5-1.3z" fill="#04bc4f"/></g><g><path d="m127 69c-2.4 4.2-7 7.6-11.4 6.2l-1.4-2.6c.4-.8 1-1.5 1.8-2 5-3.4 9.9-9 8.9-15.9-.4-2.7.8-4.9 2.6-6.1 3 6.3 3 14.3-.5 20.4z" fill="#04bc4f"/></g><path d="m129.3 47.9c-1.1-2.1-2.2-3.3-2.9-4.1-.2-.1-.3-.3-.4-.4 2.6-9-1.1-18.8-7-23.2-1.1-.8-2-1.3-2.6-1.5 0-.5-.1-1-.1-1.6-1.9-13.3-17.4-18-25.4-9.3 0 0-.1.1-.1.1s0 0 0-.1c.2-.5.4-1-1.1-1.9-.7-.4-1.9-.8-3.7-1.1-10.4-1.3-20.7 6.4-21.3 12.4-.3-.3-.7-.6-1.1-.8-.7-.5-1.6-.9-2.6-1.2-9.2-2.4-17.8 9.8-15 19.4.2.8.5 1.4.8 1.9h-.1c-.7 0-1.7.5-2.6 1.3-3.7 2.8-9 12.3 2.5 22.8 1 .9 1.9 1.9 2.2 3 .2.5.2 1.1.1 1.7s-.2 1.2-.5 1.9c-1.1 2.5-3.2 4.9-5.4 7.1-5.9 5.8-23.7 18.3-24 18.6-2.8 1.8-5.9 3.5-8.7 5.9-2.7 2.3-5.2 5.5-5.7 9.5-.2 1.9 0 3.9.7 5.6 3.3 8.4 15.8 17.6 22.6 18.5 2.5.3 5.1-.1 7.1-1.2 6.2-3.1 16.1-16.8 20-22.5 5.9-8.6 9.2-14.8 11.3-19.1.3-.5.5-1 .7-1.5 3.9 10.5 17.6 12.8 24.5 2.7.2-.4.4-.7.6-1.1 6.4 7.4 23.6 2.4 24.5-11.5.1-1 0-1.8-.1-2.5.5.2 1.2.4 2.2.4 2 .1 4.8-1 7-3.1 5.7-5 8.3-16.2 3.6-25.1zm-5.7 23.3c-1.6 1.9-3.6 3.1-5.2 3.5-.9.3-1.6.3-2.1.3-.1-.6-.3-1.1-.4-1.5-.4-1-.8-1.4-1.1-1.6s-.6-.1-.8 0c-.3.1-.5.2-.7.5s-.2.8-.2 1.6 0 2.1-.3 3.8c-.2.9-.4 1.9-.8 3-3.3 8.7-14.2 11.2-19.1 7.5-.1 0-.1-.1-.2-.1.2-.6.4-1.2.4-1.6.2-1 0-1.5-.1-1.8-.2-.3-.4-.4-.7-.4-.6-.1-1-.1-1.9 1.3-.4.7-1 1.7-2.1 3-5.1 6-11.9 6.1-16.8 1.9-1.7-1.4-2.9-3.1-3.7-4.5.9-2 1.4-3.4 1.6-4.2.3-1.3.1-1.5-.1-1.6s-.5-.2-1.3.9c-.8 1-2 3.1-4.4 7.2-2.4 4-5.9 10-11.8 18.3-3.4 4.7-13.6 18.4-18.7 21-1.5.7-3.1 1-4.9.8-6-.8-20.9-11.7-20-19.6.1-.3.1-.6.1-1l.3-.9c.2-.6.5-1.3.9-1.9.8-1.2 1.8-2.3 2.9-3.4 2.3-2.1 5.3-3.8 8.2-5.8.5-.4 17.7-12.9 24.1-19.5 2.3-2.4 4.5-5 5.8-8.2.3-.8.5-1.7.6-2.6s0-1.9-.3-2.7c-.6-1.8-1.9-3-3-3.9-10.1-8.4-7.2-16.9-3.5-20.5.8-.9 1.5-1.3 2.1-1.5.1 0 .2 0 .2-.1.2.3.4.5.5.4.1 0 .2-.2.2-.5 0-.5-.1-1.3-.1-2.3-.1-9.9 7.4-16.3 12.4-15.3.6.2 1.1.4 1.5.7.9.6 1.7 1.3 2.3 2 1.2 1.4 1.9 2.6 2.4 3.3 1 1.5 1.4 1.5 2 1.4.3-.1.5-.2.7-.5s.2-.9 0-1.9-.7-2.5-2.1-4.5c-.2-.3-.5-.6-.8-1 .1-.2.2-.5.3-.7 2.6-5.6 12.6-9.2 19.6-9.2 1.5 0 2.5.1 3.2.1s1.1-.1 1.3-.2c-.9 1.2-1.2 2-1 2.1.2.2 1.1-.7 2.7-1.7 10.3-6.7 21.2 1.2 20.6 12.3-.1 2-.5 3.3-.8 4.2s-.4 1.4-.4 1.8.2.5.5.7.4.3.8.2.9-.5 1.6-1.4c.7-1 1.6-2.6 2-5.1.1-.6.2-1.3.2-2.1.4.4.9 1 1.5 1.7 5.2 6.3 6.8 15.7 3.5 22.9-1.6 3.5-3.8 5.4-5.6 6.2-1.8.9-3.2.9-4.2 1-.9 0-1.5 0-1.8.2-.3.1-.5.3-.6.6s-.2.5 0 .9.7.8 2 1.2c1.2.4 3.3.6 6.1-.4 2.6-.9 5.5-3.4 7.5-7.3.4.7.8 1.6 1.3 2.7 3.4 8.4 1.6 17.3-2.3 21.8z" fill="#202020"/></g></svg>