<svg id="Layer_1" enable-background="new 0 0 136 136" height="512" viewBox="0 0 136 136" width="512" xmlns="http://www.w3.org/2000/svg"><g><g><path d="m122.5 92.7c-1.7 9.9-4.1 18.9-10.5 27.3-1.7 2.3-3.7 4.5-6.4 6.1-3.7 2.2-8.5 3.1-13.3 2.6-4.7-.5-9.3-2.3-13-4.9l.3-1.1c-3 4.2-8 7.3-13.7 8.4-5.5 1.1-11.7.4-16.9-2-4.2.8-8.6.9-12.7-.4-.4-.1-.8-.2-1.2-.4-3.4-1.2-6.4-3.3-8.9-5.7-2.1-2-3.8-4.4-5.3-6.7-8.8-14.2-9.3-30.6-8-46.1.6-7.2 1.6-14.4 5-20.8s9.4-12.1 17.5-14c5.6-1.3 11.9-.6 16.9 2 1.8.9 3.5 4 5.5 4.3 1.7.3 4.4-1.3 6.4-1.3 4.7-.2 9.5 1.6 12.5 5.1.7.8 1.4 1.7 2.1 2.5.6.7 1.3 1.4 2.2 1.9l-.8-.9c.1-.7.3-1.3.5-1.9 2.7-7.2 12.8-11.7 21.8-9.3 7.2 1.9 12.2 6.9 15.4 12.9 2.2 4 3.5 8.4 4.3 12.6.2.9.3 1.7.4 2.6 1.5 8.9 1.4 18.1-.1 27.2z" fill="#2bb673"/></g><g><path d="m75.5 19.7c-.3 3.9-1.7 9.5-2.9 14.5-.6 2.3-1.1 4.5-1.5 6.2l-5.8-.6c.1-2.2-.7-4.4-1.6-6.4-2.5-5.6-5.4-11-8.9-16.2-1.8-2.6-3.7-5.8-2.5-8.7 1.3-3.2 5.4-4.1 9-4.2 2.4-.1 4.9.1 7.1 1 1.4.7 2.7 1.6 3.7 2.7 2.7 3.1 3.8 7.6 3.4 11.7z" fill="#2bb673"/></g><g><path d="m54.8 17.2c-1.8-2.6-3.7-5.8-2.5-8.7 1.3-3.2 5.4-4.1 9-4.2 2.4-.1 4.9.1 7.1 1 1.4.7 2.7 1.6 3.7 2.7-.9.8-2.1 1.3-3.7 1.2-3.1-.1-4.5.5-5.8 3.2-1.1 2.2-1.4 4.8-1.2 7.2.3 3.6 1.7 7 3.1 10.3 1 2.4 2.2 4.8 3 7.3.2.6 1.1 2.5.5 3-.4.3-2-.3-2.6-.3-.1-2.3-.7-4.3-1.7-6.5-2.5-5.6-5.5-11-8.9-16.2z" fill="#56db98"/></g><g><path d="m76.7 45c.7.8 1.4 1.7 2.1 2.5-1.8.6-3.8.4-5.6-1.1-2.5-2.2-6.3-2.8-9.8-2.5 3.6 5.8-6 11.1-9.7 5.3-2.5-3.9-5.3-8.7-10.6-9.2-1-.1-2-.1-2.9.1-2.3.5-4.5 1.5-6.5 2.9-17.8 23.2-16 53.6-7.4 79.9-2.1-2-3.8-4.4-5.3-6.7-8.8-14.2-9.3-30.6-8-46.1.6-7.2 1.6-14.4 5-20.8s9.4-12.1 17.5-14c5.6-1.3 11.9-.6 16.9 2 1.8.9 3.5 4 5.5 4.3 1.7.3 4.4-1.3 6.4-1.3 4.6-.5 9.4 1.3 12.4 4.7z" fill="#56db98"/></g><g><path d="m117.9 50c-1.5 1.1-3.6 1.3-5.7 0-7.8-4.9-16.4-9.3-25-3-2.5 1.8-4.9 1.1-6.4-.6 0 0 0 0-.1 0 2.7-7.2 12.8-11.7 21.8-9.3 7.2 1.9 12.2 6.9 15.4 12.9z" fill="#56db98"/></g><g><path d="m122.5 92.7c-1.7 9.9-4.1 18.9-10.5 27.3-1.7 2.3-3.7 4.5-6.4 6.1-3.7 2.2-8.5 3.1-13.3 2.6-4.7-.5-9.3-2.3-13-4.9l.3-1.1c-3 4.2-8 7.3-13.7 8.4-5.5 1.1-11.7.4-16.9-2-4.2.8-8.6.9-12.7-.4-.4-.1-.8-.2-1.2-.4.9-1.3 2.4-2.3 4.5-2.4 9.7-.4 18.5-5.4 28.4-5.7 9.4-.2 19.2 4.1 28.3.3 18.2-7.7 23.1-33.9 22.7-50.6-.1-2.7 1.6-4.3 3.7-4.9 1.4 9.4 1.3 18.6-.2 27.7z" fill="#2a6"/></g><path d="m121.8 54.6c-8.6-22.7-30.2-23.2-39.2-12.3-.4.6-.8 1.1-1.1 1.6s-.5 1-.7 1.5c-.8-.8-1.7-1.5-2.5-2.1-1.7-1.2-4.1-2.4-6.5-3.2.5-.1 1-.7 2.1-4 .7-2 1.6-5.1 2.7-9.7.3-1.2.5-2.4.8-3.8.2-1.4.5-3 .4-4.7-.3-9.5-5.8-16.1-16.9-15.5-9.4.5-13.8 6.1-7.9 14.9.9 1.3 1.7 2.5 2.6 3.7 3.3 4.9 5.8 9.6 7.6 13.1.9 1.7 1.5 3.1 1.7 4.1.1.4.2.7.2 1-2.1.1-3.7.5-4.8 1-.6.2-1 .5-1.3.7-.1 0-.1.1-.2.1-.7-.9-1.4-1.7-2.3-2.5-9.3-8.1-26.6-7.9-36.8 4.8-7.2 8.7-8.5 21.3-9.1 32.8-.3 5.2-.2 10 .2 14.2 1.8 19 12 40.8 31 40.8 3.4-.1 5.4-.6 6.6-1 .2.4.4.6.5.6 0 0 .1-.1.1-.2.1.1.3.3.5.4 5.4 3.7 17 4.2 24.9-1.5 2-1.4 3.5-3 4.4-4.3.2-.3.4-.7.6-1 0 .2.2.5.6.9 4.8 4.6 15.4 7.5 24.3 3.9 2.1-.8 4.3-2.2 6.1-4.1 16-15.4 18.6-51.1 11.4-70.2zm-57.2-21.2c-1.3-3.7-3.6-8.7-6.6-14-2.2-4-9.9-12.9 3.1-13.2 8.2-.2 12.3 3.9 12.5 11.7 0 1.4-.1 2.8-.3 4.1s-.4 2.5-.6 3.7c-.8 4.5-1.5 7.6-1.8 9.8-.5 3.2-.3 4.2 0 4.5-1.8-.5-3.6-.7-5.2-.7-.1 0-.1 0-.2 0 0-.3.1-.6.1-1.1 0-1.3-.3-2.9-1-4.8zm8.3 93.5c-5.8 2.9-12.3 3.1-18.8 2-1.6-.3-2.8-.6-3.5-.7-1-.2-1.5-.1-1.7.2h-.1c-.2-.8-.3-1.9-.5-3.1-3.3-26.6 3.4-48 12.2-66.4 1.7-3.3 1.4-3.7.9-4s-.9-.5-3.4 2.5c-10.7 13.5-17.4 45.9-11.3 68.3.3 1.1.6 2 1 2.8-1.2 0-3 .1-5.6-.1-17.1-1.6-25.4-21-27.1-38.3-.4-4-.5-8.6-.3-13.7.5-10.6 1.2-22.6 7.7-30.9 9-11.6 24.4-12.1 33-5.4 1.6 1.2 2.8 2.6 3.7 4.1 1.7 3 2.2 5.8 2.5 7.8s.4 3.1.5 3.1.3-1.1.3-3.1-.2-5.1-1.9-8.5c-.3-.7-.8-1.4-1.3-2.1.9-.2 3.2-.9 6.7-.5 5.2.6 10.9 3.5 14.2 8 2 2.6 3.4 5.7 4.3 9.1 4.6 17.5 2.2 51.4-2.9 61.4-1.1 2-1.8 3-2.1 3.6-1.3.4-3.4 2.5-6.5 3.9zm29.9-1.4c-5.1 2.2-10.6 2-15.9.4-3.4-1-5.1-1.9-6.1-2.2.7-.4 1.7-1.3 3-3 7.7-10.7 9.1-46.2 3.7-63.9-1.1-3.6-2.9-7.2-5.3-9.9-.3-.3-.5-.6-.8-.9.1-.1.1-.2.2-.3.2-.4.5-.8.8-1.3 8.4-10.9 28.9-10.2 36.3 11.3 7.8 22.6.5 62.6-15.9 69.8z" fill="#202020"/></g></svg>