<svg id="Layer_1" enable-background="new 0 0 136 136" height="512" viewBox="0 0 136 136" width="512" xmlns="http://www.w3.org/2000/svg"><g><g><path d="m119.8 120.1c-.1 1.6-.7 3.1-1.5 4.5-1.4 2.2-3.5 4-5.9 5.2-.1.1-.2.1-.3.2-3.8 1.7-8.2 2-12.4 1.6-3.4-.3-6.9-1-9.9-2.5-1.3-.6-2.4-1.3-3.5-2.2-7.8-6-11.2-16.6-16.7-25.1-2.4-3.7-5.3-7-8.7-9.9-1.6-1.4-4.3-2.6-5.6-4.2-1.2-1.6-.3-4.1.9-5.5s2.8-2.3 4.6-3c3.8-1.4 7-.9 10.3 1.2 3.6 2.3 6.6 5.3 9.3 8.5 3.8 4.5 7.3 9.5 11.9 13.3 1 .8 2.1 1.6 3.4 1.5 2.4-.2 1.8-3.2 1.2-4.7-1-2.7-1.1-5.7-1.4-8.5-.9-7.2-1-14 .7-21.1.9-3.5 4.7-10.8 9.4-8.2 1.8 1 1.2 3.7 1.3 5.6 0 1.1.1 2.2.2 3.3.2 3.6.4 7.1.8 10.6 1 9.1 3.1 18.3 7.4 26.4 2.1 4.2 5 8.4 4.5 13z" fill="#8dc63f"/></g><g><path d="m94.8 103.2c-3.2-4.3-6.1-8.9-8.4-13.7-1.2-2.4-2.2-4.9-3.2-7.4-.8-2.1-1-4.8-3.3-5.7-2.7-1.2-5.1-3.5-8.1-3.6-2-.1-4 1-5.5 2.4-2.5 2.4-5.2 5.6-2.2 8.4 2.9 2.7 5.9 5.3 8.6 8.3 5.4 6 10.2 12.5 15.3 18.8 1.9 2.4 4.8 5 7.7 3.8 2.1-.9 2.8-3.5 2.3-5.6-.5-2.2-1.9-4-3.2-5.7z" fill="#b7f456"/></g><g><path d="m109.7 49.7c1 5.3-1 11.1-5 14.8-4.6 4.2-11.8 5.5-17.7 3.1l-.5-1c0 4.1-2.3 8.1-5.8 10.3s-8.2 2.5-12 .7l.6-2.9c-.3.9-.6 1.8-1.1 2.7-1.9 3.8-5.5 6.7-9.6 7.9-3.7 1.1-7.7.7-11.2-.9-1.3-.6-2.5-1.4-3.6-2.3-5 .3-10.2-1.1-14.3-4.1-5.2-3.8-8.5-9.9-8.9-16.2-.1-2.1.2-4.3 1-6.3l-1.1 1.5c-3-3.5-4.8-8.1-4-12.6s4.8-8.5 9.4-8.6l-3.9-.1c-1.6-4.3-1-9.3 1.6-13.1s7.1-6.2 11.8-6.4c4-.1 7.8 1.3 11.7 2.1l-4.4-2.9c2.4-5.3 8.2-8.9 14.1-9.4s11.9 1.8 16.5 5.6l-1.6-3c5-4.4 12.6-5.7 18.8-3.2 2.6 1 4.9 2.7 6.7 4.7 2 2.2 3.4 4.9 4.1 7.7l-.4-2.5c2.2.1 4.1 1.1 5.7 2.5 1.4 1.3 2.6 2.9 3.6 4.5 4.5 8.4 4.3 19.1-.5 27.4z" fill="#39b54a"/></g><g><path d="m98.2 107.2c-2.5-13.3-4.9-26.9-2.5-40.2" fill="#a7a9ac"/></g><g><path d="m97.1 10.1c-2.1 2.8-4.4 1.2-7.2.4-1.5-.5-2.9-.9-4.4-1-2.5-.1-4.9.8-7 2.3-1.7 1.2-3.7 3.4-5.8 3.5-2.3.2-4.8-1.7-7-2.1-2.5-.4-5.1.2-7.4 1.3s-4.2 2.7-6.1 4.4c-1.6 1.5-4.1 1.7-6.3 1.9-2.3.1-4.6.1-6.8.6-1.5.4-3 1.1-4.2 2.2-1.5 1.4-.9 2.4-1 4.2-.2 3-1.7 5.8-3.9 7.8s-4.6 2.8-5.5 6c-.8 2.6-.4 5.4.8 7.8.8 1.5 1.8 2.9 2.1 4.5.3 1.9-.5 3.9-.7 5.9-.4 5 4.1 10.9 8.9 12.1 3.9 1 7.5 2.5 11.6 2.5 6.3.3 6.4 9.9.3 10-1.3-.6-2.5-1.4-3.6-2.3-5.1.3-10.3-1.1-14.4-4.1-5.2-3.8-8.5-9.9-8.9-16.2-.1-2.1.2-4.3 1-6.3l-1.1 1.5c-3-3.5-4.8-8.1-4-12.6s4.8-8.5 9.4-8.6l-3.9-.1c-1.6-4.3-1-9.3 1.6-13.1s7.1-6.2 11.8-6.4c4-.1 7.8 1.3 11.7 2.1l-4.4-2.9c2.4-5.3 8.2-8.9 14.1-9.4s11.9 1.8 16.5 5.6l-1.6-3c5-4.4 12.6-5.7 18.8-3.2 2.5 1 4.8 2.7 6.6 4.7z" fill="#57dd64"/></g><g><path d="m109.7 49.7c1 5.3-1 11.1-5 14.8-4.6 4.2-11.8 5.5-17.7 3.1l-.5-1c0 4.1-2.3 8.1-5.8 10.3s-8.2 2.5-12 .7c0 0 .6-2.9.6-2.8-.3.9-.6 1.8-1 2.7.3-.6-.2-1.6.5-2.4s1-.6 2.1-.6c1.9-.1 3.7-.6 5.3-1.4 3.5-1.6 6.4-4.4 8.4-7.7.6-1 1.1-2.1 2-2.8 1.7-1.3 3.5-.9 5.4-1.2 1.9-.2 3.8-.9 5.6-1.8 3.5-1.9 6.4-5 7.8-8.8.8-2.3 1.1-4.8 1.2-7.3.1-1.9.9-3.3 1.2-5.1.6-4.3-.4-8.9-3.1-12.3-2.4-3.1-.7-7 1.9-8.3 1.4 1.3 2.6 2.9 3.6 4.5 4.5 8.4 4.3 19.1-.5 27.4z" fill="#24a030"/></g><g><path d="m119.8 120.1c-.1 1.6-.7 3.1-1.5 4.5-1.7 2.1-3.8 3.9-6.2 5.3-3.8 1.7-8.2 2-12.4 1.6-3.4-.3-6.9-1-9.9-2.5-1.3-.6-2.4-1.3-3.5-2.2.8-1.1 2.1-1.8 3.9-1.7 5.8.3 11.4-.7 16.4-3.8 5.3-3.2 7-7.5 5.5-13.6-1.4-5.4-4-10.3-5.4-15.6-1.5-5.8-2.3-11.7-2.4-17.7-.1-2.3 1.1-3.7 2.7-4.4.2 3.6.4 7.1.8 10.6 1 9.1 3.1 18.3 7.4 26.4 2.2 4.3 5.1 8.5 4.6 13.1z" fill="#87ba36"/></g><g fill="#202020"><path d="m113.6 98.6c-3.7-10.4-4.2-19.7-5.3-29.6-.2-2.2-.4-3.7-.6-4.8.6-.7 1.2-1.5 1.6-2.2 2-3.3 2.4-6.3 2.4-8.4 0-1.7-.2-2.9-.5-3.8.6-.8 1.5-2.2 2.3-4.3 5.3-14-2.3-28.2-9.7-30.3-.7-.2-1.3-.3-1.8-.3-.1-.4-.3-.9-.5-1.4-5.2-12-20-14.1-28.2-7.3-1.1.9-1.7 1.7-1.8 2.1-.6-.5-1.3-1-2.3-1.6-10.7-6.1-22.5-1.6-26.1 6-.7 1.5-.8 2.5-.6 2.6-.4-.1-.8-.3-1.3-.4-14.5-3.8-23.9 8.4-20.8 18.1.3.9.6 1.6.9 2-.2.1-.4.2-.6.3-10 5.3-6.2 19.3-.7 21.7-3.5 10.7 4.6 25.5 19.8 26.9 2.1.2 3.7 0 4.9-.2.1.1.3.3.5.4 1.1 1 2.8 2.1 5 2.8 1.6.5 3.4.8 5.2.8 25.3 23.4 19 44.6 46.6 45.8 2.7.1 5.5-.1 8.1-.8 20.9-5.7 7.5-23.3 3.5-34.1zm-62.8-14.5c-1.5-.2-2.9-.6-4-1 .5-.2.8-.4 1-.6.3-.3.2-.6.2-.8-.1-.3-.2-.5-.5-.7-.4-.2-1-.3-2.1-.3-1.1-.1-2.7 0-5.1-.4-15.1-2.6-20.9-17.3-17.3-25.6.8-1.8 1.8-2.8 1.6-3-.1-.2-1.5.3-3 2.2-.5.6-.9 1.4-1.2 2.3-.5-1.2-1.4-3-1.9-5.2-1.2-4.9.1-9.4 4.1-12.3.9-.7 1.7-1 2.2-1.3 1-.5 1.1-1 1.1-1.6 0-.5-.1-1.1-1.6-1.2-.5 0-1.2 0-2.1.3 0-.5-.1-1.2-.1-2-.2-8.5 5.8-16.1 18.4-14.2 1.9.3 3.3.6 4.3.6 1.9.1 2.1-.4 2.2-1s.1-1-1.6-1.8c-.7-.3-1.5-.7-2.8-1.1.3.1.9-.7 1.9-1.7 5.4-5.7 13.5-7.7 23.1-3.6 1.6.7 2.6 1.2 3.3 1.6 1.5.7 1.9.4 2.2-.1.4-.4.7-.9-.5-2.2-.2-.2-.5-.5-.8-.8.4-.1 1.2-.5 2.4-1 9.4-4.1 19-1.3 24 7.6.9 1.6 1.3 2.8 1.7 3.6 1.1 2.7 3.6 2.4 2.6-2.6.3.1.5.3.8.5 6 3.6 11 15.8 5.7 30.9-.5.2-.8.5-.8 2 0 .8 0 2-.2 3.7s-.7 4-2.2 6.6c-.8 1.4-2.1 3.1-3.9 4.4s-4.1 2.4-6.3 2.9-4.3.5-5.9.4c-.8-.1-1.5-.1-2-.1-.3-.9-.8-.9-1.2-.9-.6 0-1 .1-1.5 1.1-.2.5-.5 1.2-1 2.2s-1.1 2.3-2.4 3.7c-.7.7-1.7 1.6-3 2.3s-2.8 1.2-4.2 1.4c-1.8.3-3.4.2-4.5.1.1-.2.1-.5.1-.7.2-1.7-.3-1.9-.8-2-.6-.2-1-.2-1.8.9-.4.6-.9 1.4-1.9 2.5-.9 1.1-2.2 2.5-4.4 3.8-1.2.7-2.8 1.5-4.6 1.9-1.7.6-3.8.6-5.7.3zm18.8-5.4c.2.1.3.2.6.3 1 .6 2.6 1.1 4.4 1.2s3.9-.2 5.7-.9c.2-.1.3-.2.5-.2.1.4.2.9.3 1.4 3.3 12.8 11.3 22.7 13.7 26.2.6.8 1 1.7 1.3 2.6.2.8.1 1.8-.3 2.5-.2.4-.4.6-.7.8-2.9 1.5-7.1-4.8-9.9-8.1-4.7-5.8-10.9-13.3-16.9-18.2-1.1-.9-2.1-1.6-2.9-2.2 1.5-1.2 2.5-2.5 3.2-3.6.5-.7.7-1.3 1-1.8zm14.2.8c-.2-.5-.4-.9-.6-1.3-.1-.2-.2-.3-.2-.5.6-.5 1.2-.9 1.6-1.4 1.8-1.9 2.6-3.8 3-5.2.3-1.1.4-2 .3-2.6.4.2.9.5 1.4.7 1.2.5 2.9.9 4.8.9-.1.2-.2.4-.2.6-.2.4-.3 1-.5 1.7-.1.7-.2 1.6-.4 2.6-2.1 16 10.2 48-9.2 4.5zm18.2 50.3c-27.4-.7-21.3-26.8-44.4-41.1-.7-.4-1.2-.7-1.6-.9.4 0 .8 0 1.2-.1 2.4-.3 4.6-1.2 6.1-2.1.5-.3.9-.6 1.4-.9.7.7 1.6 1.6 2.6 2.7 16 16.9 21.3 33.2 29.8 28.6 1-.6 1.8-1.4 2.2-2.3 1-1.8 1.1-3.6.7-5.3-.3-1.4-.9-2.6-1.5-3.5-.2-6.1-2-16.6-1.7-29.6 0-1 0-1.8.1-2.5 0-.7 0-1.2 0-1.7s-.1-.9-.1-1.1c2.5-.3 5.1-1.1 7.3-2.5.5-.3 1-.7 1.5-1.1 0 .8 0 1.7-.1 2.8.1 10.5 1 20.8 4.4 30.8 3.2 8.9 17.8 30.4-7.9 29.8z"/><path d="m45 31.1c-.8.4-1.9 1.1-2.8 2.2s-1.6 2.5-2 3.9-.6 2.7-.6 3.7c0 1.9.2 3.2.5 4.2.2 1 .5 1.6.7 2 .5.8 1 .8 1.6.7s1-.2 1.3-1.1c.1-.5.2-1.1.1-2 0-.9-.1-2.1-.1-3.6 0-.8 0-1.9.1-2.9.1-1.1.4-2.2.8-3.2s.9-1.8 1.3-2.5c.4-.6.7-1.1.6-1.3-.1-.4-.6-.4-1.5-.1z"/><path d="m66.8 70.7c2.8-.6 4.7-1.8 6-2.8 1.3-1.1 1.9-2 2.2-2.7.6-1.4.1-1.7-.4-2s-.9-.5-1.9.2c-.5.3-1.1.9-2.2 1.5-1 .6-2.5 1.4-4.6 1.8-1.2.2-2.6.4-4.3.3-1.6-.1-3.4-.6-5-1.2-3.2-1.2-5.5-2.9-5.9-2.5s1.3 3 4.7 5.1c1.6 1 3.7 1.9 5.7 2.3 2.1.4 4.2.3 5.7 0z"/><path d="m74.4 26.6c18 6.2 19 14.5 21.7 12.8.5-.3.9-.6.4-2-1.7-5.5-12.1-13-22-12.4-1.3.1-2.1.4-2.1.6.1.4.8.7 2 1z"/></g></g></svg>