<svg id="Layer_1" enable-background="new 0 0 136 136" height="512" viewBox="0 0 136 136" width="512" xmlns="http://www.w3.org/2000/svg"><g><g><path d="m128 104.1c-.1 1-.1 1.9-.4 2.9-.2.6-.4 1.1-.7 1.6-.5.7-1.2 1.3-2 1.6-1.5.7-3.3.9-5 .9-26.7 1-53.3-5.6-79.8-3-4.4.4-8.8 1.1-13.1 1.1-1.8 0-3.6-.1-5.3-.4-6.1-1-12.2-4.8-13.9-10.7-.6-2-.6-4.2-.6-6.3-.3-13.6-.5-27.2-.6-40.8l.7-6.3c37.5 2 67.3 4.8 100.9 3.2 2.2-.1 4.5-.2 6.7-.4 3.1-.2 6.8-.2 9.5 1.1 1.4.6 2.6 1.6 3.3 3 .8 1.6.9 3.5 1 5.4v1.4c.4 15.3.1 30.5-.7 45.7z" fill="#efdd03"/></g><g><path d="m127 49-106.9-3.8-5-.2-8.4-.3c1.9-1 3.9-1.8 5.9-2.5 5.9-2.2 12.2-3.8 18.2-5.6 8.5-2.5 17.1-4.7 25.7-6.6 9.9-2.2 19.8-4 29.9-5 5.2-.5 10.5-.7 15.6.8 4.4 1.3 8.4 3.9 12.1 6.8 2.2 1.7 4.4 3.5 6.3 5.5 1.5 1.6 2.9 3.3 4 5.2 2.1 3.6 2.6 1.5 2.6 5.7z" fill="#fff200"/></g><g><path d="m51.1 93.6c-1.3 1.8-3.5 2.9-5.7 3.2-2.4.3-4.9-.4-6.7-2-3.5-3.1-3.7-9.1-.7-12.6l-.1.8c.3-.6 1.2-1 2-1.2 1-.3 2.1-.5 3.2-.6 1.6-.2 3.3-.1 4.8.6 4.3 1.8 5.9 8 3.2 11.8z" fill="#d1be11"/></g><g><path d="m18.7 69.6c-2.1 2.9-6.8 3.3-9.4.9-.4-.3-.7-.7-1-1.1-1.7-2.5-1.5-6.2.5-8.5l-.2 1.2c2.2-1.3 6-2.3 8.4-1 .3.1.5.3.8.6 2.1 1.9 2.6 5.5.9 7.9z" fill="#d1be11"/></g><g><path d="m76.9 76.8c-1 .4-2 .5-3.1.3-2.4-.3-4.8-2-6.5-4s-2.9-4.6-2.7-7.2c.3-2.8 2.2-4.5 4.5-5.1 1.9-.5 4-.3 5.8.5s3.3 2.1 4.5 3.6c2.9 3.5 2 10.1-2.5 11.9z" fill="#d1be11"/></g><g><path d="m123.4 54.2c-1 1.3-2.3 2.5-3.2 2.8-1.9.7-3.9.4-5.7-.5-1.5-.7-2.8-1.9-3.8-3.1-1.3-1.6-2.3-3.4-2.6-5.4 2.2-.1 4.5-.2 6.7-.4 2.6-.2 6.4-.5 8.8.8 2.1 1.2 1.3 3.7-.2 5.8z" fill="#d1be11"/></g><g><path d="m114.4 92.4c0 4.9-3.9 9.8-8.6 10.3-.6.1-1.2.1-1.8 0-2.8-.3-5.3-2-7-4.2-3.6-4.4-3.9-9.9-.8-14.5.9-1.4 2.2-2.5 3.6-3.3 2.5-1.4 5.5-1.7 8.1-.2 3.8 2.3 6.5 7.6 6.5 11.9z" fill="#d1be11"/></g><g><path d="m28 106.1c.3.7.5 1.4.7 2.2-6.7 1.3-14.1-1.5-18.2-7-.9-1.2-2.1-2.9-2.1-4.5 0-.3 0-.5 0-.7 0-.4.2-.4 1.1-.5.8-.1 1.6 0 2.4 0 3.3.2 6.5 1 9.4 2.7 3 1.7 5.4 4.5 6.7 7.8z" fill="#d1be11"/></g><g><path d="m29.3 108.1-.5.7c0-.2-.1-.4-.1-.5.2-.1.4-.2.6-.2z" fill="#d1be11"/></g><g><path d="m120.4 38.1c-13.1-6.7-28.9-7-43.3-5.3-9.8 1.2-19.4 3.3-29 5.1-9.5 1.8-19.1 3.4-27.9 7.3 0 0-.1.1-.2.1-1.8.8-3.5.5-4.8-.2-1.1-.7-2-1.7-2.5-2.8 5.9-2.2 12.2-3.8 18.2-5.6 8.5-2.5 17.1-4.7 25.7-6.6 9.9-2.2 19.8-4 29.9-5 5.2-.5 10.5-.7 15.6.8 4.4 1.3 8.4 3.9 12.1 6.8 2.1 1.6 4.2 3.4 6.2 5.4z" fill="#fcf16d"/></g><g><path d="m128 104.1c-.1 1-.1 1.9-.4 2.9-.8 1.2-1.7 2.3-2.7 3.3-1.5.7-3.3.9-5 .9-26.7 1-53.3-5.6-79.8-3-4.4.4-8.8 1.1-13.1 1.1.4-.7 1-1.3 1.9-1.7 20.4-10.9 42.3-7.4 63.6-1.6 10.4 2.8 22.9 4.3 28.5-7.2 4.7-9.5 5.4-23.9 2.9-34-.9-3.6 1.9-6 4.8-6.2.4 15.1.1 30.3-.7 45.5z" fill="#ead300"/></g><g><path d="m108.7 49.2c-.2-.1-.4-.2-.9-.3-2-.4-4.8.1-6.8.2-4.7.1-9.3.1-14 .1-9.1 0-18.2-.3-27.3-.8-.6 0-1.2-.1-1.8-.1-10.3-.6-20.5-1-30.8-1.8-6.1-.5-12.3-1.6-18.4-2-.3 0-.7 0-1 .2s-.4.6-.5.9c-.5 1.7-1.2 4.7-.4 6.4.8 1.6 4 1.5 5.6 1.8 5.1.8 10.3 1.1 15.4 1.5 6.1.4 12.1.8 18.2 1.2 19.9 1.3 40 2.6 59.6-1.1 1.1-.2 3.4-.5 4.1-1.5.6-.9-.1-2.4-.4-3.3-.3-.8-.3-1.2-.6-1.4z" fill="#ead300"/></g><g><path d="m114.4 92.4c0 4.9-3.9 9.8-8.6 10.3-.7-1.3-.7-2.8.4-4.4 1.9-2.7 1.4-5.7.8-8.9-.7-3.1-2-3.9-4.7-5.3-1.5-.8-2.3-2-2.5-3.3 2.5-1.4 5.5-1.7 8.1-.2 3.8 2.2 6.5 7.5 6.5 11.8z" fill="#c9b106"/></g><g><path d="m76.9 76.8c-1 .4-2 .5-3.1.3-.7-1.1-.9-2.4-.4-3.6.6-1.4 1.9-3.7 1.4-5.4-.4-1.4-2.1-2.5-3.2-3.3-1.3-1-2.3-2.4-2.4-3.9 1.9-.5 4-.3 5.8.5s3.3 2.1 4.5 3.6c2.8 3.4 1.9 10-2.6 11.8z" fill="#c9b106"/></g><g><path d="m51.1 93.6c-1.3 1.8-3.5 2.9-5.7 3.2-.2-.7-.1-1.5.1-2.2 1.2-3.2 1.8-6.6-.9-9.2-1.3-1.3-1.7-2.7-1.5-4.1 1.6-.2 3.3-.1 4.8.6 4.3 1.7 5.9 7.9 3.2 11.7z" fill="#c9b106"/></g><g><path d="m18.7 69.6c-2.1 2.9-6.8 3.3-9.4.9-.4-.3-.7-.7-1-1.1 2.8-.3 7.7-1.9 7.3-4.9-.2-1.3.4-2.5 1.4-3.5.3.1.5.3.8.6 2.1 2 2.6 5.6.9 8z" fill="#c9b106"/></g><g><path d="m28 106.1c.3.7.5 1.4.7 2.2-6.7 1.3-14.1-1.5-18.2-7-.9-1.2-2.1-2.9-2.1-4.5 0-.3 0-.5 0-.7.6.3 1.3.7 1.8 1.4 4.2 5.1 9.8 8.2 16.5 8.4.5 0 .9 0 1.3.2z" fill="#c9b106"/></g><g><path d="m29.3 108.1-.5.7c0-.2-.1-.4-.1-.5.2-.1.4-.2.6-.2z" fill="#c9b106"/></g><g><path d="m123.4 54.2c-1 1.3-2.3 2.5-3.2 2.8-1.9.7-3.9.4-5.7-.5.2-.9.7-1.8 1.4-2.5.8-.9 2.3-1.5 3.5-1.5s2.3.5 3.2 1.2c.3.2.5.3.8.5z" fill="#c9b106"/></g><g fill="#202020"><path d="m130.5 61-.1-3.5c0-1.2-.1-2.4-.3-3.8-.2-1-.5-2-1-3-.1-.8-.2-1.6-.4-2.7-.4-1.7-1.1-3.8-2.5-6.2-3.7-6.4-15.2-16.3-24.5-18.4-9.1-2.2-25.8.8-34.9 2.7-18.8 3.9-57.2 14.9-59.4 18.6-.1 0-.2 0-.2.1s.9.2 2.6.4c19.8 2.1 66 5.6 96.9 4.4 0 .2.1.3.1.5.2.6.6 1.4.8 1.7 2.4 4.2 6.5 6.4 9.4 6.4 1.1 0 1.9-.2 2.4-.5s.7-.5.7-.6c-.1-.3-1.3 0-2.9-.4-2.8-.7-5.5-3.6-6.8-6.3-.1-.3-.1-.3-.1-.3 0-.1 0-.2.1-.2s.2 0 .3.1c6.6-.1 9.8-.6 11.8.4.3.2.2.2.3.3s0 .5 0 .8c-.2.7-.6 1.5-.9 2.1-.4.6-.7 1-.9 1.4-.5.7-.8 1.1-.9 1.4s0 .6.1.8c.1.3.2.5.6.6s1.1-.1 2.1-.7c.5-.3 1.1-.8 1.7-1.5.5-.6 1.1-1.4 1.6-2.5.2.5.4 1 .4 1.5.2 1 .2 2.1.2 3.3 0 .9.2 8.2.1 17.5-.1 13.6-.9 28.6-1.1 30.4-.1.9-.4 1.6-.7 2.1-2.6 3.5-31.3.7-38.6 0-42.6-3.9-42.7-1.3-56.7-.4v-.1c0-.7-.2-1.8-.8-3.2s-1.7-3.3-3.7-5.1c-1.1-1-2.7-2.1-4.6-2.9s-3.9-1.3-5.8-1.4c-2.7-.2-4.9.2-6 .6 0-.2 0-.4-.1-.6-.1-1.2-.4-14.3-.6-22.8 4.8 4.6 13.7 1.6 13.4-5.7-.2-5.3-4.4-8.8-10.1-6.9-.8.3-1.4.5-1.8.8-.6.4-1 .7-1.2 1-.2 0-.4.2-.7.4-.3-10.1-.8-10.6-1.2-10.6-.6 0-1.1.7-1.3 17.3 0 3.2-.1 23.4 0 26.4.4 7.9 5.9 13.2 13.5 15.4 2.6.7 5.3 1 8.1 1 14.1.1 10.5-3.9 59.2.5 6.6.6 32.1 2.8 38.4.8 1.2-.4 2.6-1.1 3.6-2.4 2.6-3.2 2.5-16.1 2.5-34.9.1-4.6 0-9.3-.1-14.1zm-122.3 2.6c.1-.6.2-1.1.3-1.5.3.5.6.8 2.3.5 3.6-.4 6.7-.8 6.9 3.6.2 4.2-5.4 5.5-8 2.7-.7-.7-1.1-1.7-1.3-2.7-.3-.9-.3-1.9-.2-2.6zm.9 32.4c1.1.3 3.1.6 5.3 1.2 1.6.5 3.2 1.1 4.7 2 1.4.8 2.6 1.8 3.5 2.5 1.6 1.5 2.5 2.8 3.1 3.8.4.7.8 1.3 1 1.7-2.4 0-4.8-.3-6.8-.8-5.3-1.4-9.9-4.9-10.8-10.4zm.7-51.4c-.7 0-1.3 0-1.7 0 25.9-7.8 43.7-12 59.4-14.8 8.1-1.5 25.2-4.3 33.3-2.4 8.1 1.8 20.7 11.4 24.4 19.6-.2-.1-.4-.3-.6-.4-1.9-1-3.9-1.2-6.1-1.2-157.9-.3-74.4-.6-108.7-.8z"/><path d="m42 98.2c2.1.5 4.4.4 6.5-.4 4.1-1.6 6.3-5.5 5.9-9.6-1.1-11.9-14.9-9.5-17-6.5-.2.3-.4.7-.4 1-.5.5-1 1.2-1.4 2.3-2.1 5.3.4 11.8 6.4 13.2zm-4.9-12.6c.1-.8.3-1.4.5-1.9h.2c.3 0 .5-.1.8-.2h.4c3.1-.4 7-1.2 9.4 1 1 .8 1.9 2.4 2 4.2.3 2.5-.9 4.7-3.3 5.8-1.3.6-2.8.8-4.3.5-4.5-.8-6.5-5.2-5.7-9.4z"/><path d="m78 76.7c.6-.2 1.5-.7 2.3-1.7.8-.9 1.5-2.3 1.8-4 1.7-8.7-9.4-15.6-16.3-10.8-.9.6-1.6 1.4-2.1 2.3-2.6 4.9.1 10.7 4.3 13.9 2.5 1.9 4.8 2.3 6.3 2.2s2.2-.6 2.5-1c.3-.3.2-.6.1-.9s-.2-.5-.6-.6c-.3-.1-.9-.1-1.8-.3s-2.3-.7-4.1-2.2c-3.2-2.8-5.2-7.8-2.3-10 3.8-3 12.1.8 11.7 7.2 0 1.3-.4 2.4-.9 3.3-.3.9-.9 1.5-1.3 1.9s-.7.6-.7.8c0 .1.4.1 1.1-.1z"/><path d="m114.2 87.5c-.8-2.8-2.4-5.5-4.7-7.3-.9-.7-2.1-1.4-3.4-1.7-4.6-1.2-10.5 1.5-13 7.5-2 4.6-1.1 9.7 1.9 13.6 2.1 2.8 5 4.6 7.9 5.1 5.7 1 11-3.3 12.2-8.5.2-.9.3-1.6.2-2.1 0-.5-.1-.9-.2-1.1-.2-.5-.5-.5-.8-.5s-.6 0-.8.4c-.3.4-.5 1.1-1.1 2.4-1.7 3.4-5 6.2-8.7 5.5-4.6-.9-9.4-7.2-7.1-13.4 2.7-7.3 11.5-9.2 16.1.8 1.2 2.5 1.3 4.4 1.6 4.4.3-.2.8-2.1-.1-5.1z"/></g></g></svg>