<svg id="Layer_1" enable-background="new 0 0 136 136" height="512" viewBox="0 0 136 136" width="512" xmlns="http://www.w3.org/2000/svg"><g><g><path d="m130.9 90.3c-.6 2.5-1.8 4.8-3.2 7-.5.8-1.1 1.6-1.7 2.3-6.8 8.5-17.3 13.5-28 15.6-.2.1-.4.1-.6.1-10.9 2.1-22.1 1.6-33.2.9-11.2-.7-22.6-1.5-33.5-4.2-3.9-1-7.7-2.2-11.4-3.7-14.2-5.8-17.3-23-13-37 1.5-5.1 4.3-10 8.5-13.2 5.1-3.9 11.7-4.9 18.1-5.6 24-2.6 50.4-3.5 73.4 5.1 7 2.6 13.8 6.3 18.7 11.9 1.6 1.8 3 3.9 4 6.1 2.2 4.6 3.1 9.8 1.9 14.7z" fill="#ed6969"/></g><g><path d="m129.3 76.8c-.3.3-.9.4-1.3.4-.7 0-1.4-.3-2.2-.5-1.1-.2-2.3 0-3.4.4-2.6.9-4.7 2.9-6.9 4.6-2 1.6-4.1 3.3-6.3 4.7-4.2 2.7-8.8 3.8-13.6 2-7.1-2.7-13.3-9.4-20.8-8.2-4.3.7-7.3 3.8-11.1 5.6-3.6 1.8-7.1 1.1-10.6-.3-.5-.2-.9-.4-1.4-.6-3-1.4-6.2-2.9-9.4-2.4-1.1.1-2.2.5-3.1 1-3.3 1.6-6.8 5-10.5 7.2-3.2 1.8-6.5 2.7-10 1-3.8-1.9-6.8-5-9.3-8.4-1.3-1.8-2.5-3.6-3-5.8-1.6-6.2 4.3-15.1 9.1-18.6 5.1-3.9 11.7-4.9 18.1-5.6 2.9-.3 5.9-.6 8.9-.8 21.5-1.8 45.2-1.8 65.4 5.7 7 2.6 12.9 6.5 17.8 12.2.3.3.6.7.8 1 .9 1.1 1.7 2.3 2.4 3.6.3.6.8 1 .4 1.6.1.1 0 .1 0 .2z" fill="#2afff9"/></g><g><path d="m56.3 47.3c-.1-.1-.2-.2-.3-.3-3.1-4.1-4-10.1-1.4-14.6 2.5-4.5 8.7-6.9 13.4-4.6l1.7-1.5c.5.2 1.1.4 1.6.7 3.3 1.7 6 4.8 7 8.4 3.8 13-13.5 22.5-22 11.9z" fill="#ed1c24"/></g><g><path d="m71.2 26.9c-.6 1.8-2.1 3.3-4.6 3.3-7.1.1-9.5 7.2-8.9 13.2.2 1.8-.5 3.1-1.6 3.9-.1-.1-.2-.2-.3-.3-3.1-4.1-4-10.1-1.4-14.6 2.5-4.5 8.7-6.9 13.4-4.6l1.7-1.5c.7.1 1.2.3 1.7.6z" fill="#ff5f72"/></g><g><path d="m24.2 87.3c2.5.1 4 1.7 4.6 3.6-3.2 1.8-6.5 2.7-10 1-3.8-1.9-6.8-5-9.3-8.4-1.3-1.8-2.5-3.6-3-5.8-1.6-6.2 4.3-15.1 9.1-18.6 5.1-3.9 11.7-4.9 18.1-5.6 2.9-.3 5.9-.6 8.9-.8-2.5 1.7-5.2 3-8.2 4-5.1 1.7-10.3 2.7-14.6 6.2-8.2 6.7-9.2 23.8 4.4 24.4z" fill="#9ff"/></g><g><path d="m129.6 77.3c-.1.1-.1.1-.2.2-.9.6-2 .2-3 0-.9-.2-1.9-.3-2.9-.2-1.3 0-3 .2-4 1-.9.7-1.7 1.6-2.6 2.4-2.2 1.8-4.4 3.6-6.7 5.2-4.4 3-9.3 4.5-14.4 2.6-7.1-2.7-13.3-9.4-20.7-8.2-4.3.7-7.3 3.8-11.1 5.6-3.6 1.8-7.1 1.1-10.6-.3.1-.1.2-.3.3-.4 4.5-5 9.6-10 16.3-11.6 7.4-1.8 14.3 1 21.1 3.5 12.5 4.6 25.7 3.2 35.6-5.7.6.9 3.8 4.7 2.9 5.9z" fill="#0aefe4"/></g><g><path d="m130.2 90.1c-3.3 11-15.3 20.1-25.7 23.4-13 4.1-26.7 3.6-40.1 2.8-11.2-.7-22.6-1.5-33.5-4.2 1.1-1.4 2.8-2.2 5-1.6 16.9 4.1 34.5 3.4 51-1.8 8.4-2.6 16.4-6.3 23.7-11.1 5.8-3.7 18.1-11 17.6-18.8-.1-1.3.3-2.4.9-3.1 2.3 4.9 2.5 9.8 1.1 14.4z" fill="#e05353"/></g><path d="m130.7 75.3c-1.3-2.8-3-5.1-4.7-7-1.7-1.8-3.4-3.3-5-4.5-3.2-2.3-5.9-3.6-7.9-4.5-2.1-.9-3.5-1.4-4.5-1.6-2-.5-2.3-.3-2.4-.1-.1.3 0 .6 1.8 1.5.9.5 2.2 1.2 4.1 2.2 1.9 1.1 4.3 2.5 7.2 4.8 2.6 2.2 5.7 5.2 7.9 9.7-.2-.1-.5-.2-.8-.3-1.2-.3-2.7-.2-4.5.3-7.2 2.3-18.7 15.4-32.6 7.9-2.4-1.2-4.9-3.1-8.1-4.6-1.7-.8-3.9-1.6-6.4-1.6-1.2 0-2.5.2-3.7.6s-2.3.9-3.3 1.5c-2.1 1.2-3.9 2.6-5.7 3.5-4.3 2.2-7.5.6-12.9-.9-2.5-.7-5.4-1.2-8.3-.5-2.8.7-5.1 2.2-7.2 3.6s-3.9 2.9-5.9 3.9c-7.2 3.8-14.5-1.3-19-7.7-.9-1.3-1.6-2.5-2.2-3.7.3-2.1.7-4.3 1.3-6.3 3.6-12.3 10.9-16 22.8-17.6 9.9-1.2 19.4-2 28.1-2.3 1 .6 2.1 1.1 3.3 1.4.7.2 1.5.3 2.2.4.7 0 1.5.1 2.2 0 2.3-.1 4.4-.8 6.1-1.8 4.3.2 8.3.5 11.9 1 6.8.9 12.3 2.1 16 3.1 1.9.4 3.3.9 4.3 1.2s1.5.4 1.5.3-.5-.3-1.4-.7c-1-.4-2.3-1-4.2-1.6-3.7-1.3-9.1-2.7-16-3.9-3-.5-6.3-.9-9.8-1.2.3-.4.7-.7 1-1.1.6-.8 1.2-1.5 1.6-2.4 3.9-7.5-.6-18.2-5.8-20.5-1.1-.5-2.1-.5-2.8-.3-.3.1-.6.2-.8.3s-.3.2-.5.3c.1-.5.1-1.3.2-2 .1-.6.3-1.2.5-1.6.2-.5.5-.8.7-1.1.8-1 1.3-1.2 1.6-1.7.3-.4.3-.9.3-1.5s0-1.1-.8-1.4c-.4-.1-1-.2-1.7.1-.8.3-1.7.8-2.6 2-.5.6-.9 1.6-1.1 2.6s0 2.1.3 2.9.7 1.4 1.1 1.8c-.9-.3-2.2-.5-3.7-.4-1.8.1-4 .8-6 2.3-6.6 5-6.2 15.3-.5 21.2-8 .2-16.6.7-25.6 1.7-2.7.3-5.4.7-8.1 1.5-8.3 2.3-14.4 7.6-17.6 18-.8 2.8-1.4 5.6-1.7 8.5s-.2 5.8.1 8.8c.4 2.9 1.1 5.8 2.2 8.5 3.7 9.4 10.7 12.9 19.4 15.7 5.1 1.6 10.2 2.8 15.2 3.6 9.9 1.6 19.1 2 27.1 2.5 13 .7 26.6.9 39-3.3 13.5-4.5 27.6-15.9 27.2-29.9 0-3.5-1-6.8-2.4-9.6zm-72.9-45c1.5-1.4 3.3-2.2 4.8-2.5 2.6-.6 4.5 0 5.1 0 .1.1.2.1.4.2h.4c.2 0 .3.1.5.1.4.1.8.3 1.4.6 3.9 2.8 7.6 14.3.8 19.3-1.1.9-2.6 1.5-4.3 1.8-1.2 0-2.4-.1-3.7-.1-.1 0-.1 0-.2 0-1.1-.2-2.1-.7-3-1.3-5.9-4-7.5-13.4-2.2-18.1zm46.9 81.1c-11.8 4-25.1 3.7-37.5 3-8-.5-17.1-.9-26.7-2.4-4.8-.7-9.7-1.8-14.6-3.3-9-2.8-17.3-6.5-19.3-21-.3-2.3-.4-4.7-.2-7 .3.7.7 1.4 1.1 2.1 4.7 7.8 12.7 13.7 21.6 9.4 2.3-1.1 4.3-2.6 6.3-3.9s4-2.5 6.1-2.9 4.3-.1 6.6.6c5.8 1.7 9.7 3.7 15.5.9 2.4-1.1 4.2-2.6 6-3.5 1.8-1 3.4-1.6 5-1.5 1.6 0 3.2.5 4.7 1.2 6.5 3 12 9.3 24 6.3 13.1-3.2 16.8-12.8 24.4-11.2.2.1.3.1.4.1.8 2.2 1.3 4.6 1.4 7.2.3 12.1-12.9 22-24.8 25.9z" fill="#202020"/></g></svg>