<svg id="Layer_1" enable-background="new 0 0 136 136" height="512" viewBox="0 0 136 136" width="512" xmlns="http://www.w3.org/2000/svg"><g><g><path d="m17.2 71.5 11.3-2.3c-3.5 1.9-7.4 2.9-11.3 2.3z" fill="#9b8579"/></g><g><path d="m125.1 57c-10.2 6.8-23.5 5.3-35.8 2.6-.6-.1-1.2-.3-1.8-.4-1.3-.3-2.6-.6-3.9-.9l-55 11c3.3-1.8 6.3-4.4 8.6-7.3 2.4-3.1 4.4-6.4 6.1-9.9.4-.8.8-1.6 1.3-2.5.3-.6.6-1.2.9-1.8.1-.2.2-.3.2-.5.9-1.7 1.7-3.4 2.7-5.1 5.3-9.5 12.6-17.9 21.3-24.6 10.7-8.2 24.9-13.8 37.9-9.9 3.3 1 6.7 2.8 8.1 5.9 3.3 7.2-5.5 16.5-.9 23.1 2.1 3 6.2 4 9.7 5.4 1.7.7 3.3 1.5 4.4 2.8.6.6 1 1.3 1.3 2.1 1.3 3.8-1.7 7.8-5.1 10z" fill="#9b8579"/></g><g><path d="m79.5 114.5c-6.5 9.9-18.2 16.4-30.3 16.8-2.5.1-5-.1-7.4-.5-3.6-.6-7.2-1.7-10.5-3.3-5.3-2.5-10-6.3-13.6-10.9-4.8-6.2-7.4-13.7-9.3-21.2-2.4-9.1-3.9-18.4-4.5-27.8 1.8-.5 3.5-1 5.3-1.5 38.7-10.9 70-16.4 77.1-4.5.1.8.1 1.4.2 2 .6 6.9.8 3.4.9 12.3.1 13.3-.5 27.4-7.9 38.6z" fill="#ffcade"/></g><g><path d="m85.6 63.2.6-1.2c0 .4-.2.9-.6 1.2z" fill="#9b8579"/></g><g><path d="m87.9 58.2-.4 1-1.3 2.8c0-1.2-1.2-2.6-2.6-2.7-1.9-.1-3.6 1.1-5.2 2.2-7.3 5-16.2 7.4-25 9.2-14.5 3-30 4.6-43.5-.6-2.1-.8-4.1-1.7-6-2.9v-.4c8.5-10.8 22.6-14.5 36.4-16.7l4.2-.6c.3 0 .5-.1.8-.1 15-1.6 31-.3 42.6 8.8z" fill="#9b8579"/></g><g><path d="m45.4 47.8c.1.6.1 1.2-.1 1.7-.3 1.1-.9 2-2.1 2.6-.5.2-1 .4-1.6.5-11.9 1.8-22.1 7.3-29.8 16.2-.6.7-1.2 1.1-1.9 1.4-2.1-.8-4.1-1.7-6-2.9v-.4c8.5-10.8 22.6-14.5 36.4-16.7 1.4-.2 2.8-.4 4.2-.6.3-.6.6-1.2.9-1.8z" fill="#af998e"/></g><g><path d="m124.5 42.1c-1.4 2.1-4.1 3.3-7 1.8-8.1-4.2-7.9-12.8-6-20.4 1.1-4.4 2.4-8.3-2.2-11-4.7-2.7-9.9-1.7-14.8-.3-18.4 5.5-31.5 20.2-43.4 33.9-1.7 1.9-3.8 2.1-5.5 1.2.9-1.7 1.7-3.4 2.7-5.1 5.3-9.5 12.6-17.9 21.3-24.6 10.7-8.2 24.9-13.8 37.9-9.9 3.3 1 6.7 2.8 8.1 5.9 3.3 7.2-5.5 16.5-.9 23.1 2.2 3 6.3 4 9.8 5.4z" fill="#af998e"/></g><g><path d="m125.1 57c-10.2 6.8-23.5 5.3-35.8 2.6.6-1.9 2.2-3.6 4.8-4 6.1-.8 12.2-1.1 18.4-1.6 5.3-.4 10.5-1.5 12.9-6.5.8-1.7 2.2-2.5 3.6-2.6.6.6 1 1.3 1.3 2.1 1.2 3.8-1.8 7.8-5.2 10z" fill="#8e776b"/></g><g><path d="m31.3 127.6c-5.3-2.5-10-6.3-13.6-10.9-4.8-6.2-7.4-13.7-9.3-21.2-2.4-9.2-3.8-18.5-4.5-27.9 0-.5 5.5 2.1 6 2.9 1.2 1.9.5 6.2.9 8.5 1 6.4 3.2 12.6 5.4 18.6 3 8.1 7.1 18.3 14.3 23.8 2.4 1.9 2.2 4.4.8 6.2z" fill="#ffdeeb"/></g><g><path d="m79.5 114.5c-6.5 9.9-18.2 16.4-30.3 16.8-2.5.1-5-.1-7.4-.5 11.1-3.4 22.3-9.1 28.7-17.9 9.5-12.9 11.6-29.7 12.8-45 .2-2.2 1.5-3.7 3.2-4.4.6 6.9.8 3.4.9 12.3.1 13.4-.5 27.5-7.9 38.7z" fill="#ff9fc6"/></g><path d="m132.3 46.5c-.3-1.3-.9-2.4-1.7-3.5-1.7-2-4-3-6-3.8-2.1-.8-4.1-1.5-5.8-2.5-2.9-1.7-4.4-3.9-2.4-10.5.7-2.7 1.9-5.6 2.1-9.4.6-11.7-15.6-12.7-17.1-13-3.9-.3-8 .1-11.9 1.1-7.9 2-15.2 6.1-21.5 11.1s-11.8 11-16.2 17.3c-2.2 3.1-4.1 6.4-5.7 9.6-.6 1.2-1.2 2.4-1.8 3.6-.4-.1-.9-.1-1.6-.1-1.1 0-2.8.1-5.3.6-2.4.4-5.7 1.1-9.8 2.5-8.3 2.8-16.9 7.7-22.2 14.5-1.2 1.5-1.7 2.6-1.7 2.9h-.1c0 .1.1.2.2.3-.1.3-.2 1.4-.1 3.3 0 2.2.2 5.3.7 9.1 1.4 11.8 4.9 27.8 12.3 37.2 1.9 2.5 4.2 4.8 6.8 6.8 5.1 3.9 11.2 6.6 17.4 7.8s12.6.7 18.1-.9c13.9-4 24.9-14.9 28.4-32.2 0 .1.1.1.1.2.2.3.8.8 2 1.1 4.7 1.4 12.5-.4 15.6-4.8 1.6-2.3 2.5-6.1 1.6-9.7-1.8-7.3-9.8-10.6-15.7-7.9-1 .4-1.7.9-2.1 1.3 0-.5 0-1 0-1.5-.1-3.3-.2-5.8-.4-8-.1-1.1-.3-2.1-.5-2.8-.2-.8-.3-1.5-.4-2-.1-.8-.3-1.3-.4-1.8 0 0 .1-.1.1-.1.4-.3.7-1.4.3-2.5 1.6.5 3.7 1.1 6.8 1.8 7.6 1.6 14.1 1.8 17.4 1.3 8-.7 18.5-4.8 20.6-12.5.1-1.3.2-2.6-.1-3.9zm-125.9 18.7c9.7-7.6 18.6-11.1 31.7-14.5 2.2-.6 3.7-1 4.7-1.3-.5.9-.9 1.9-1.4 2.7-4.3 8.7-10.4 16.7-20 18.4-2.1.3-3.4.3-4 .3-3.1-.4-5.8-1.1-8-1.8-.9-.3-1.7-.6-2.4-.8s-1.3-.5-1.8-.7-1-.3-1.2-.4c.4-.2 1.3-.9 2.4-1.9zm78.9 11.9c-.1 3.2-.1 7-.5 11.5-.2 2.2-.5 4.7-1 7.2-3.2 17.1-13.1 27.1-26.1 30.9-4.9 1.5-10.6 2-16.3 1.1s-11.3-3.3-16.1-6.8c-12.2-8.9-16.6-25.6-19.4-41.5-1.2-6.6-1.6-11-1.9-12 .2.2.5.4.9.7.5.3 1 .7 1.7 1.1.6.3 1.4.7 2.3 1.2 3.6 1.7 8.9 3.2 15 3.7 6 .6 12.7.3 18.8-.5 12.2-1.5 27.3-4.6 37.2-11.7.8-.6 1.5-1.1 2-1.4 1.1-.7 2-.8 2.4-.6.6.2.9.6 1.1.9-.1.2-.1.5-.2.9-.1.6-.1 1.4-.1 2.7 0 .6 0 1.3.1 2.2s.2 1.7.2 2.7c0 1.8-.1 4.5-.1 7.7zm3.2 11.8c.2-3.6.3-6.8.2-9.5.5-.2 1.4-.5 2.5-.7 5.2-1 10.6 1.8 11.6 7.2 1.5 7.7-5.2 10.5-13.1 10.9-1 0-1.5.1-1.9.2-.2.1-.3.2-.4.4.1-.3.1-.6.2-.9.5-2.8.7-5.3.9-7.6zm39.9-39.6c-1.4 5.5-10.5 9.2-17.2 9.9-4.2.7-11.1.1-16.5-.6-5.3-.8-8-1.3-9.5-1.4 0 0 0 0-.1 0-1.5-.6-3.3-.3-4.8.4-26.3 12.2-44.6 14.2-56.3 13.7-.7 0-1.4-.1-2.1-.1 9.9-1 16.8-9.3 21.6-18 6.5-11.6 11.2-22.6 26.4-34.4 6.1-4.7 13.1-8.3 20.4-10.1 3.6-.9 7.3-1.2 10.7-.9l1.3.1c16 2.2 12.2 10.3 10.2 17.3-1.9 6.7-1.6 11.7 4.2 15.1 2.3 1.3 4.5 2 6.4 2.7s3.5 1.6 4.5 2.6c.4.5.8 1.1.9 1.7.1.7.1 1.3-.1 2z" fill="#202020"/></g></svg>