<svg id="Layer_1" enable-background="new 0 0 136 136" height="512" viewBox="0 0 136 136" width="512" xmlns="http://www.w3.org/2000/svg"><g><g><path d="m66.1 74.7c-.1 1-.7 1.8-1.5 2.6-3.5 3.5-9.3 4.5-14.6 3.6-1.1-.2-2.2-.4-3.3-.8-6.1-2-10.9-6-15.5-10-7.1-6.1-14.2-12.6-18.4-20.6-3.2-6.2-4.5-13.2-4.5-20 0-4 .6-8 2.2-11.8 1.7-3.9 6.3-11.3 10.9-4.9 0 .1.1.1.1.2 1.1 1.6 1.3 3.6 1.7 5.4.9 5.4 2.9 11 7.4 14.8 3.7 3.1 8.9 4.6 12.3 8 4.7 4.7 4.8 11.6 8.5 16.9 2.7 4 7.2 6.7 10.7 10.1 1.1 1.1 2.1 2.2 3 3.4.6 1 1.1 2 1 3.1z" fill="#b7895f"/></g><g><path d="m81.2 65.6c-.1.3-.3.7-.5 1-1.4 2.5-4 4.7-7.1 4.8-1.7.1-3.3-.4-4.7-1.2-.3-.2-.6-.4-.9-.5-.9-.7-1.8-1.5-2.5-2.3-1.8-2.4-2.8-5.1-3.9-7.8-2.1-4.9-4.9-11.8-8.1-16.5-.4-.6-.8-1.1-1.2-1.7-4.1-5.4-11.4-7.6-16.2-12.4-.1-.1-.2-.2-.4-.3-5.3-5.4-17-18.5-6.1-23.8 5-2.4 12.2.4 18.5 4.1 3.4 2 6.6 4.3 8.9 6.1.6.5 1.2 1 1.8 1.4 13.9 11.1 22.4 23.4 23.2 39.8.2 3.1.4 6.3-.8 9.3z" fill="#b7895f"/></g><g><path d="m35.7 28.7c-5.3-5.4-17-18.5-6.1-23.8 5-2.4 12.2.4 18.5 4.1-.2 0-.5-.1-.8-.1-3.7-.7-8.5-.3-10.4 3-1.9 3.2.2 7.7 1.4 10.9 1 2.8-.2 5-2.3 6.3 0-.2-.2-.3-.3-.4z" fill="#cc9b72"/></g><g><path d="m43.8 78.2c-.3.1-.6.2-1 0-4.4-2-8-5-11.6-8-7.1-6.2-14.2-12.7-18.4-20.7-3.2-6.2-4.5-13.2-4.5-20 0-4 .6-8 2.2-11.8 1.7-3.9 6.3-11.3 10.9-4.9 0 .1.1.1.1.2-9.3 8.8-6.8 21.7-3.3 32.5 3.7 11.5 10.9 20.3 23.3 25.5 1.7.7 3 2.1 3.3 3.8 0 .7-.1 2.9-1 3.4z" fill="#cc9b72"/></g><g><path d="m110.1 124c-7.4 5.4-16.7 8.2-25.8 8-6.3-.2-12.8-1.1-18.5-3.9-1.7-.8-3.4-1.8-5-3-.5-.4-.9-.8-1.4-1.2-1.7-1.5-3.3-3.3-4.5-5.3-.2-.3-.3-.6-.5-.9-.7-1.7-.9-3.8-1.1-5.7-.7-9.1 2.3-18.3 7.8-25.6.3-.4.7-.9 1-1.3 0 0 .1-.1.1-.1 3.6-4.3 8-7.9 12.9-10.8 1.6-.9 3.3-1.8 5-2.5 3.3-1.5 6.7-2.7 10.1-3.5.5-.1 1-.2 1.5-.4 6-1.4 12.3-1.9 18.2-.4 6 1.5 11.6 5.1 14.5 10.5 1.6 3.1 2.3 6.6 2.5 10.1v.5c.8 13.6-5.8 27.4-16.8 35.5z" fill="#a97c50"/></g><g><path d="m81.2 65.6c-.1.3-.3.7-.5 1-1.4 2.5-4 4.7-7.1 4.8-1.7.1-3.3-.4-4.7-1.2-.3-.2-.6-.4-.9-.5 4.4-7.8 7.8-15.5 5-24.3-2.7-8.6-9.3-15.6-15.9-22.1-2.7-2.7-2.1-6-.1-8.2.6.5 1.2 1 1.8 1.4 13.9 11.1 22.4 23.4 23.2 39.8.2 3.1.4 6.3-.8 9.3z" fill="#a5734a"/></g><g><path d="m110.1 124c-7.4 5.4-16.7 8.2-25.8 8-6.3-.2-12.8-1.1-18.5-3.9.9-1.6 2.4-2.9 4.7-3.1 11.4-1.4 23.5-2.9 33.3-9.4 9.2-6.1 15.1-16 20.8-25.3.7-1.1 1.5-1.8 2.4-2.3v.5c.7 13.6-5.9 27.4-16.9 35.5z" fill="#a5734a"/></g><g fill="#202020"><path d="m127.5 81c-.6-2-1.5-3.9-2.7-5.6s-2.6-3.2-4.2-4.5c-8.9-7.1-20.7-6.7-31.6-3.6-6.2 1.8-11.5 4.4-15.5 7-4.1 2.7-7 5.4-8.8 7.4s-2.6 3.3-2.5 3.4 1.1-1 3.1-2.8 4.9-4.2 9-6.6 9.3-4.6 15.3-6.2c10-2.5 21.1-2.9 29.1 3.8 1.8 1.5 3.3 3.4 4.4 5.5-.1.1-.2.2-.3.4-.1.1-.2.3-.2.4-.1.2-.2.4-.3.6-.2.5-.6 1.1-1 1.8-1 1.4-2.9 3.4-6.7 5-1.9.9-4.2 1.5-7.1 2.1-25.6 6.2-4.9 9.2-37.4 21-2.7 1-5.3 2-7.5 3.6-1.1.8-2 1.7-2.7 2.8-.7 1-1 2.2-1.1 3.2-.1.7 0 1.3.1 1.9-1.1-1.3-1.9-2.7-2.5-4.1-1-2.4-1.4-4.8-1.5-7.1-.2-5.2 1.1-10.7 3-15.4s3.4-7 4-8.2.5-1.5.3-1.7-.5-.3-1.6.7c-6.3 6.3-12.2 21.7-7.8 33.1 1.2 2.9 3.2 5.9 6.1 8.2 9.5 7.5 27.4 8.1 37.9 5.4 5.6-1.5 11.8-4.3 17.2-9.1 12.8-11.2 17.5-29.6 13.5-42.4zm-16.2 39.5c-4.9 4.3-10.5 6.8-15.6 8.1-8.9 2.3-26 2-34.4-4.5-.3-.2-.5-.4-.7-.6-.4-.8-.7-2.1-.4-3.5.2-.8.5-1.6 1.1-2.3s1.4-1.4 2.3-2c1.9-1.2 4.4-1.9 7.1-2.7 33.4-9.7 12.9-13.5 37.4-19.8 1.5-.4 2.8-.7 4.2-1.1 1.3-.4 2.5-.9 3.6-1.5 4.3-2.1 6.6-4.9 7.6-7 .3-.6.5-1.2.6-1.7 0 .1.1.2.1.3 3.5 11.5-1.2 28.2-12.9 38.3z"/><path d="m61.6 81.7c1.4-.6 2.8-1.5 3.9-2.5.6-.5 1.1-1.1 1.6-1.8s.9-1.7 1-2.8c0-1-.2-1.8-.5-2.5s-.7-1.2-1-1.7c-.3-.4-.5-.7-.8-1.1.8.8 1.6 1.5 2.6 2.1 1.4.8 3 1.3 4.7 1.4s3.5-.4 5-1.3 2.8-2.2 3.7-3.7c1-1.5 1.5-3.3 1.7-5 4.3-28.7-29.4-58.7-47.9-60.7-2.1-.2-4.4 0-6.4.9-1 .4-1.8.9-2.7 1.6-.8.6-1.5 1.4-2.1 2.3s-.9 2-1.1 3-.1 2 0 2.9c.3 1.8.9 3.4 1.6 4.8 6.6 13.2 18.9 18.6 21.3 20.1 3.7 2.3 5.1 3.9 6 4.7s1.2.7 1.4.6c.2-.2.4-.4-.1-1.5s-1.9-3.4-5.7-6.1c-1.8-1.4-4.3-2.8-7-4.7-4.8-3.4-10.4-10.4-12.5-14.8-.6-1.2-1-2.4-1.2-3.6-.1-.6-.1-1.2 0-1.8.1-.5.3-1.1.6-1.5.3-.5.7-.9 1.2-1.3.3-.2.6-.4.9-.6s.6-.4 1-.5c1.2-.5 2.7-.7 4.4-.5 7.5.8 17.4 7.9 23.2 12.7 24 19.4 24 42 20.8 47.4-1.3 2.3-3.8 3.9-6.2 3.9-2.5 0-4.8-1.4-6.4-3.3-2.8-3.3-6-13.4-10.9-21-1.2-1.9-2.1-2.9-2.2-2.8s.5 1.2 1.5 3.2c4.9 10.1 6.8 18 9.8 21.9-.2-.2-.3-.4-.5-.5-9-9.2-9.1-4.1-15.5-20.2-1.1-2.9-2.6-5.7-4.7-7.7-8.4-7.9-12.2-1.8-19.9-20.1-.5-1.2-.7-1.2-1-1.2s-.5.2-.5 1.5c0 .7.1 1.6.4 3 1.9 8.9 6.5 12.1 13.1 15.8 1.8 1 3.8 2.2 5.4 3.7 1.5 1.6 2.8 3.7 3.7 6.4 6.6 17 7.4 12.6 16.2 21.6.7.7 1.3 1.4 1.8 2.2.6.8.9 1.5.8 1.8 0 .2-.4 1-1.2 1.7s-1.8 1.3-2.8 1.8c-13.1 5.7-29.3-9.2-38.9-19.5-2.3-2.4-4.3-5-6-7.8-1.7-2.7-3-5.7-3.8-8.7-3.3-11.2-1.5-18.9.4-25 .8-2.3 1.8-4.3 3.4-5.2.4-.2.8-.4 1.3-.5.4-.1.8-.2 1.2-.2.8 0 1.5.2 2.1.7 1.1 1 1.8 2.3 2.2 3.4.8 2.2 1.1 3.5 1.2 3.5s.1-1.4-.5-3.7c-.3-1.2-.8-2.7-2.2-4-.7-.7-1.7-1.1-2.9-1.2-.6-.1-1.1.1-1.7.2-.5.2-1.1.3-1.6.6-1.1.5-2 1.5-2.7 2.5-3.1 4.5-6.6 16.5-3.1 29.9.9 3.2 2.1 6.5 3.9 9.5 1.7 3 3.9 5.8 6.2 8.5 4.6 5.2 16.3 16.2 23.7 19.8 3 1.5 6.4 2.5 9.7 2.7 3.4-.1 6.7-.5 9.6-1.7z"/></g></g></svg>