<svg id="Layer_1" enable-background="new 0 0 136 136" height="512" viewBox="0 0 136 136" width="512" xmlns="http://www.w3.org/2000/svg"><g><g><path d="m77.8 83.7c1.4.4 40 39.2 42.3 45.4.1.3.2.5.1.8-.6 1.9-3.2 1.5-4.2.8-3.3-2.3-34-40.2-38.2-47z" fill="#ffd2b3"/></g><g><ellipse cx="56.7" cy="54.4" fill="#6fcccf" rx="21.4" ry="59.7" transform="matrix(.794 -.608 .608 .794 -21.403 45.686)"/></g><g><path d="m95.1 99.1c-.9 1.7-2.2 3-3.9 3.8-11.1 4.9-35.6-12.7-54.8-39.4-19.2-26.8-25.8-52.4-14.7-57.3.6-.3 1.3-.5 2.1-.6-4.8 9.2 2.4 31 18.6 53.5 18 25.1 40.9 42.2 52.7 40z" fill="#50b2b2"/></g><g><g><path d="m89.7 98.3c-.8.3-1.7.4-2.5.3-11.1-1.9-18.3-10-16.4-18.5.2-.9.5-1.8.8-2.7.7-2.4 1.4-4.6.3-5.9-1-1.1-3.2-1.6-5.7-2.2-1.2-.3-2.4-.5-3.5-.9-7-2.1-11.4-7.3-11.2-13 .1-1.8.6-3.6 1.1-5.4.7-2.4 1.4-4.7.7-6.5-1.6-4.2-9.6-5.2-13-5.4l-.9-.1c-2.7-.2-5.7-.4-8.1-1.7-1.4-.8-2.5-1.9-3.3-3.3-2.5-4.4-.7-10.3 4.4-14.2 1.3-1 3.5-1.2 4.7-.4 1.3.8 1.2 2.3-.1 3.4-3.2 2.5-4.3 6.2-2.8 8.9.4.7.9 1.3 1.5 1.6 1.1.6 3.1.7 5.1.9l.8.1c9.6.7 16.2 3.7 18 8.4 1.1 2.9.2 5.9-.6 8.8-.5 1.6-.9 3.1-1 4.5-.2 3.9 2.9 7.6 7.7 9 .9.3 1.9.5 3 .7 3.2.7 6.7 1.5 8.8 3.9 2.5 2.9 1.4 6.3.5 9.3-.3.8-.5 1.6-.7 2.4-1.4 6.2 4 12.3 12.1 13.7 1.7.3 2.6 1.6 2 2.9-.3.5-1 1.1-1.7 1.4z" fill="#fbe000"/></g><g fill="#202020"><path d="m120.5 126.8c-.5-.8-1.1-1.5-1.6-2.2-5.5-7-16.3-18-22.7-24.3.3-.5.5-.9.7-1.4 1-2.3 1.2-4.6 1.2-6.8 0-4.4-1-8.5-2.1-12.2-2.4-7.5-5.6-13.8-8.4-18.9-2.9-5.1-5.6-9-7.5-11.6s-3.1-4-3.2-3.9.8 1.6 2.5 4.4 4.2 6.8 6.8 11.9 5.6 11.4 7.7 18.7c1 3.6 1.8 7.6 1.7 11.6-.1 2-.3 4-1.1 5.7s-2.1 3.1-3.8 3.7c-6.7 2.6-17.7-4.3-23.6-8.8-7.4-5.6-14-12.2-19.9-19.1-12.1-14-28.9-39.8-28.6-57.2.1-2.5.6-4.8 1.7-6.4 1-1.6 2.7-2.5 4.7-2.7 10.4-1.4 26.7 12.6 34.3 20 8.1 8 13.6 14.9 15.8 17.2 1.2 1.2 1.5 1.2 1.7 1s.4-.4-.5-2c-3.1-5.7-10.1-13.9-14.7-18.6-8.5-8.8-25-23-37.1-21.6-2.7.2-5.8 1.8-7.6 4.4-1.7 2.6-2.3 5.6-2.4 8.6-.3 19 17 45.1 29.7 59.8 6.1 7 13 13.7 20.7 19.4 7 5.1 18.7 12 26.7 8.8 5 6.4 16.3 20.4 22.4 26.7.3.3.7.6 1.1.9 3.1 2.1 8.6.4 5.4-5.1zm-1.8 2.8s-.1.2-.6.2c-.4 0-1.1-.2-1.3-.3-4.4-4.4-18.6-21.8-22.7-26.8.3-.3.6-.5.8-.8 4.8 5.1 19.3 20.7 23.1 26.5.2.3.4.7.5.9z"/><path d="m59.1 56.4c-.6-2.7 1.3-6.2 1.9-9.9.2-1.3.2-2.7-.1-4.1s-1-2.7-1.9-3.8c-3.6-4.2-10.8-5.9-16.4-6.3-4.5-.4-7.1.1-8-3.2-.4-1.5.1-3.2 1.1-4.6.5-.7 1.1-1.4 1.8-1.9.4-.3.9-.9 1.2-1.5.3-.7.3-1.5 0-2.3-.3-.7-.9-1.2-1.5-1.5s-1.2-.4-1.9-.4c-1.2 0-2.5.3-3.5 1-1.7 1.4-3.3 3-4.4 5s-1.7 4.3-1.5 6.7c1.3 14.5 24 5.7 26.5 14.5.8 3.1-2.3 7.7-1.9 12.5.1 1.1.4 2.2.7 3.3.4 1 1 2 1.6 2.9 5.8 7.8 15.7 6.5 18.3 8.9.5.5.7 1.2.6 2-.2 1.5-8.9 20.5 15.2 24.9.6.1 1.1.1 1.5 0s.7-.2.9-.3.3-.1.3-.2c0 0-.4.1-1.2.2-.4 0-.9 0-1.4-.1-23.2-5.5-14.4-22.2-14.1-24.5 0-.5 0-1-.1-1.5-1.2-4.9-12.6-1.9-18.8-10.4-.6-.8-1-1.7-1.4-2.6-.3-.9-.6-1.9-.6-2.9-.3-4.4 3-9 2-12.8-1.2-4.3-7.4-5.8-11.8-6.3-4.2-.5-13.7.3-14.5-8-.1-1.9.4-3.9 1.3-5.6s2.3-3.2 3.8-4.4c.6-.5 1.5-.7 2.3-.6.8 0 1.5.4 1.7.8s0 .9-.6 1.4c-.8.7-1.6 1.4-2.2 2.3-1.2 1.7-1.9 4-1.4 6.2 1.2 4.9 5.1 4.3 9.7 4.8 6.1.5 15.2 2.7 16.5 8.6 1.1 4.5-2.7 9.5-1.8 13.8 1.8 9.7 14.4 7.8 19 11.7 1.1.9 1.8 2.1 1.9 3.4.6 4.6-8.3 17.9 9.3 22.2.6.2 1.1.2 1.6.3s.8.1 1.2.3c.6.3.9.8.9 1.2s-.2.8-.4 1.1c-.4.6-.8.8-1 .9-.2.2-.2.2-.1.3 0 .1.1.1.3.1.2-.1.7-.2 1.4-.8.3-.3.7-.8.8-1.6s-.5-1.8-1.4-2.2c-.4-.3-1-.4-1.5-.5s-1-.2-1.5-.4c-16.2-4.6-7.1-15.1-7.8-21.2-.1-.8-.4-1.7-.8-2.5s-1-1.5-1.7-2.1c-5.3-4.3-16.5-1.8-18.1-10.3z"/></g></g></g></svg>