<svg id="Layer_1" enable-background="new 0 0 136 136" height="512" viewBox="0 0 136 136" width="512" xmlns="http://www.w3.org/2000/svg"><g><g><path d="m129.3 69.3c-1.5 20.7-11.8 41.3-30.2 52.7-7.2 4.5-14.6 7.1-22.2 8.1-4.1.6-8.3.6-12.5.3-9.6-.8-19.2-3.9-28.2-8.8-6.8-3.6-12.3-8.9-16.6-15.2-8-11.5-11.9-26.3-11.9-40.1 0-12.5 2.9-25.3 9.9-35.7 7.5-11.1 19.3-18.9 32.1-22.5s26.7-3.2 39.6.2c29.2 7.7 41.9 34.4 40 61z" fill="#a97c50"/></g><g><path d="m125.7 65.6c-.6 1.2-1.3 2.5-2 3.7-.7 1-1.6 1.9-2.6 2.5-3.4 2-7.8.6-11.2-1.3-3.4-2-6.7-4.5-10.6-5-3.1-.4-5.9.5-8.7 1.8-3.1 1.4-6.1 3.2-9.3 4.1-7.3 2-15.3 2.6-22.8 3.8-5.3.8-13.1 3.8-17.8.5-1.6-1.1-3-2.8-4.9-2.9-2.3-.1-4 2.2-5.7 3.7-3.7 3.3-9.5 3.6-13.9 1.4-1.7-.8-3.5-2.2-5.1-3.8s-2.9-3.6-3.4-5.5c-1-3.6.1-8.5.5-12 .8-6.3 2.5-12.6 5.1-18.4 1.2-2.7 2.7-5.3 4.3-7.7 3.1-4.6 6.9-8.6 11.3-12 6.1-4.8 13.3-8.4 20.8-10.5 9.9-2.8 20.3-3.2 30.5-1.7 3 .5 6.1 1.1 9.1 1.9 5.6 0 13.3 5 17.8 8.2 4.1 3 7.8 6.5 10.8 10.6.6.8 1.2 1.6 1.8 2.5 3.4 5.1 5.9 10.9 7.5 16.8.2.8.4 1.6.6 2.4.5 2.2.9 4.5 1.2 6.7.5 3.8-1.6 6.8-3.3 10.2z" fill="#ee2a7b"/></g><g><path d="m80.2 6.2c-14.9 3-29.7 7.3-41.6 17-14.1 11.5-23.3 28.5-24.9 46.6-.2 2-1.3 3.4-2.7 4.1-1.6-1.6-2.9-3.6-3.4-5.5-.9-3.4.2-8.3.6-11.8.8-6.3 2.5-12.6 5.1-18.4 4.1-7.4 9.3-14.1 15.6-19.8 6.1-4.8 13.3-8.4 20.8-10.5 9.9-2.8 20.4-3.2 30.5-1.7z" fill="#f94898"/></g><g><path d="m125.7 65.6c-.6 1.2-1.3 2.5-2 3.7-.7 1-1.6 1.9-2.6 2.5-3.4 2-7.8.6-11.2-1.3-3.4-2-6.7-4.5-10.6-5-3.1-.4-5.9.5-8.7 1.8-.1-1.2.3-2.4 1.2-3.5 4.6-5.8 12.6-5.7 18.7-2.3 3.7 2.1 8.2 6.8 9.5-.5.8-4.4-1.4-9-3.2-12.9-3.5-7.9-11.8-21.7-9.6-31.6 4.1 3 7.8 6.5 10.8 10.6 1.5 4.3 4.1 8.6 5.1 10.8 1.6 3.5 3.4 7.1 4.8 10.8.5 2.2.9 4.5 1.2 6.7.4 3.8-1.7 6.8-3.4 10.2z" fill="#e01974"/></g><g><path d="m73.5 42.1c-20.9-3-41.3 21.1-28.1 39.8 3.3 4.7 7.7 8.6 12.9 11s11.2 3 16.7 1.5c5.2-1.5 9.6-4.8 13.1-8.9 5.8-7 9.3-17.2 5.9-25.9-3.7-9.1-10.4-16-20.5-17.5z" fill="#fff"/></g><g><path d="m129.3 69.3c-1.5 20.7-11.8 41.3-30.2 52.7-7.2 4.5-14.6 7.1-22.2 8.1-.2-.4-.3-.7-.5-1.1-4 .9-8 1.3-12 1.4-9.6-.8-19.2-3.9-28.2-8.8-6.8-3.6-12.3-8.9-16.6-15.2 1.6-2.4 5-3.6 7.7-1 17.1 17 43 19.7 63.5 6.9 15.7-9.8 31.2-25.3 38.5-43z" fill="#966a42"/></g><g><path d="m72.2 41.9c-6.3-1-9 8.7-2.7 9.6 9 1.4 16.8 6.6 15.9 16.8-.8 9.6-9 15.5-17.9 16.9-6.3 1-3.6 10.6 2.7 9.6 13.4-2.1 24.5-12.7 25.3-26.5.8-14.3-9.8-24.3-23.3-26.4z" fill="#edeceb"/></g><g fill="#202020"><path d="m130.5 57.5c-.5-6.2-1.9-12.5-4.4-18.7-8.4-20.6-25.4-31.6-48.1-34.4-6.9-.9-13.9-.8-20.7.2-68.9 9.9-68.2 107.9-5.5 125.3 4.2 1.2 8.2 1.8 11.9 2.1 12.2.9 21.9-1.5 31.4-6.7.9-.4 1.5-.9 2-1.3 2.1-1.5 2.1-1.8 2-2s-.5-.4-2.7.6c-.6.2-1.2.6-2.1 1-10.3 4.3-19 6.1-30.2 5-3.4-.4-7.2-1-11.2-2.2-27.2-8-37.6-24.5-42.1-48.2-.1-.5-.1-.9-.2-1.4-.1-.7-.2-1.4-.3-2.1.9 1.4 2.1 2.8 3.8 3.9 6.5 4.4 15.2 2.4 19.6-4.2.5-.7.7-.9.9-1 .3-.2 1.2-.1 1.9.4.4.2.6.4.9.7s.6.5.9.8c.6.5 1.1 1 1.5 1.3.6.4 1 .6 1.4.7.3.7.6 1.4.9 2.1 4.9 10.5 16.6 18.7 28.9 17.7 2.8-.2 5.5-1 7.8-2 10.2-4.5 18.5-16.6 18.4-28.3.7-.3 1.5-.5 2.5-.4.6 0 1.1.1 1.7.3s1.2.4 1.8.8c2.4 1.3 4.6 3.7 7.5 5.6 1.5.9 3.2 1.6 5 1.8s3.5-.2 4.7-.7c2.4-1 4-2.5 5.1-3.9 1.2-1.5 1.8-2.9 2.3-4.1.2-.5.3-.9.5-1.3 0 19.7-8 39.4-23.4 52.6-.9.7-1.7 1.5-2.4 2s-1.3 1-1.8 1.4c-1 .8-1.5 1.2-1.5 1.2 0 .1.6-.2 1.7-.9.5-.3 1.2-.7 2-1.2s1.6-1.2 2.6-1.9c17.4-13.5 27-37.4 25-60.6zm-4.2 2.6c-.5 1-1 2.5-2 4.4-.5 1-1.1 2.1-2 3.1s-2.1 2.1-3.6 2.7c-.8.3-1.8.6-2.8.5s-2.2-.5-3.5-1.1c-2.5-1.3-5-3.6-8.2-4.9-.8-.3-1.6-.6-2.4-.7s-1.7-.1-2.4 0c-.9.1-1.7.4-2.4.8-.1-1.4-.4-2.7-.7-3.9-.2-.6-.4-1.2-.6-1.8s-.5-1.1-.7-1.6c-7-15.6-21.2-17.3-21.5-15.5-.3 2 11.5 1.5 18.1 16.9.2.5.4 1 .6 1.5.1.5.3 1 .5 1.5.3 1 .5 2.1.6 3.3 1 12.1-9.6 26.8-22.6 28-10.7.8-21.1-6.4-25.7-15.4-2.5-4.8-2.8-10.5-1.3-15.5s4.6-9.2 8-12.3 7.2-5.1 10.5-6.3c3.3-1.1 6.2-1.5 8.2-1.6 1-.1 1.8 0 2.3 0s.8-.1.8-.1-.3-.2-.8-.3-1.3-.3-2.3-.4c-2-.2-5.1-.1-8.7.9s-7.7 2.9-11.5 6.1-7.3 7.6-9.2 13.2c-.9 2.8-1.4 5.8-1.3 8.9 0 .5.1 1 .1 1.5-.4-.4-.9-.9-1.4-1.3-.6-.4-1.3-.8-2.2-1.1-.9-.2-2.1-.3-3.4.2-.6.3-1.2.7-1.6 1.1s-.7.9-1 1.2c-3.3 4.9-9.4 6.7-14.7 4.1-2.3-1.1-4-2.9-4.9-4.4-.3-.4-.5-.8-.7-1.1-2.2-33.6 17.7-57.8 48-62.4 6.4-1 13.1-1.1 19.7-.3 21.5 2.5 37.4 12.2 45.8 31.9 2.5 6 3.9 12.3 4.5 18.4-.4 0-.9.3-1.6 1.8z"/><path d="m37.8 31.9c-.5-.2-1-.3-1.7.4-15.8 15.4-7.6 20.3.4 7 1.9-3.1 2.3-5 2.3-6s-.5-1.2-1-1.4z"/><path d="m71.4 21.7c-.8-.4-2.4-.9-5.6-.9-1.7 0-4.5.3-6.7.8-2.3.6-4 1.4-3.9 1.9.1.6 1.9.8 4.1 1s4.8.3 6.4.4c3 .1 4.5 0 5.3-.3s.9-.8 1-1.3c.2-.7.2-1.2-.6-1.6z"/><path d="m114.2 51.4c-.6-.2-1.4 0-3 .4-.9.2-2.2.7-3.5 1.1-1.2.4-2.3.8-2.4 1.3s1 1.2 2.5 1.6 3.3.3 4.4 0c2-.5 2.9-1.2 3.2-1.7.3-.6.1-1-.1-1.5s-.5-1-1.1-1.2z"/></g></g></svg>