<svg id="Layer_1" enable-background="new 0 0 136 136" height="512" viewBox="0 0 136 136" width="512" xmlns="http://www.w3.org/2000/svg"><g><g><path d="m30.1 24.1-9.5 5.5c-2.8.7-5.6 1-8.4.9-.9 0-1.9-.2-2.8-.5-1.7-.5-3-1.6-3.1-3.3-.1-1.5 1.2-2.9 2.6-3.5.5-.2 1-.3 1.5-.4.1 0 .3 0 .5-.1-.1 0-.3 0-.4 0-2.4-.3-5.2-1.8-3.7-7.1.4-1.5 2.3-2 3.8-2 .8 0 1.5.1 2.2.4.5.3 1.3 1 1.8.1.6-1-.1-2.4.2-3.5.3-1.2 1.1-2.4 2.1-3 2.1-1.2 5.1-.7 7.1.8 1.1.8 2 1.8 2.7 3 .7 1 1.2 2.1 1.6 3.2 1.4 3 2.1 6.3 1.8 9.5z" fill="#f9aaaa"/></g><g><path d="m98.5 66.8c-8 8.4-21.2 9.4-32.6 7.4-6.1-1.1-12.2-3-17.9-5.7-9.6-4.5-17.9-11.3-22.8-20.2-1.3-2.3-2.3-4.7-3.1-7.2-1.3-4.1-1.8-8.7.2-12.5 2.2-4.2 7.2-6.5 11.9-6.1 3 .3 5.5 1.5 8 3.1 2.4 1.5 3.4 3.6 4.9 5.9 1 1.6 2.4 3.1 4 4.2 2 1.4 4.2 2.1 6.3 3.2 2 1.1 4 2.1 6.2 2.8 4.2 1.4 8.6 2.1 13 2.4 1.4.1 2.8.1 4.3.1 3.8 0 7.5.1 11.1 1 3.5.9 6.9 2.9 9 5.7.9 1.2 1.5 2.6 1.8 4.1.7 4.3-1.4 8.6-4.3 11.8z" fill="#f48c8c"/></g><g><path d="m53.6 107.8-1.5 10.8c-1.1 2.6-2.7 5-4.5 7.2-.6.7-1.3 1.4-2.1 1.9-1.5 1-3.1 1.4-4.5.4-1.3-.9-1.6-2.7-1.2-4.2.1-.5.3-1 .6-1.4.1-.1.1-.3.2-.4-.1.1-.2.2-.3.3-1.8 1.7-4.6 3-7.8-1.4-.9-1.2-.2-3 .7-4.2.5-.6 1-1.1 1.7-1.5.5-.3 1.6-.4 1.2-1.4-.4-1.1-1.9-1.4-2.6-2.3-.8-1-1.2-2.3-1-3.5.3-2.5 2.5-4.5 5-5.2 1.3-.4 2.7-.5 4-.3 1.2.1 2.4.4 3.5.7 3.2.9 6.2 2.3 8.6 4.5z" fill="#f9aaaa"/></g><g><path d="m129.3 80.3c1.7 11.5-5.7 22.5-14.3 30.3-4.6 4.2-9.9 7.8-15.5 10.6-9.4 4.7-19.9 7-29.9 5.5-2.6-.4-5.1-1.1-7.6-2-4-1.5-7.9-3.9-9.7-7.8-2-4.3-.7-9.7 2.5-13.1 2-2.2 4.6-3.4 7.4-4.4 2.7-.9 4.9-.5 7.7-.2 1.9.2 3.9 0 5.7-.5 2.3-.7 4.2-2 6.4-2.9 2.1-.9 4.1-1.8 6-3.1 3.7-2.5 7-5.5 9.9-8.8.9-1.1 1.8-2.2 2.7-3.3 2.3-2.9 4.7-5.9 7.6-8.2 2.9-2.2 6.5-3.7 10.1-3.6 1.5.1 3 .4 4.4 1.1 3.8 1.8 5.9 6.1 6.6 10.4z" fill="#f48c8c"/></g><g><path d="m98.5 66.8c-8 8.4-21.2 9.4-32.6 7.4-6.1-1.1-12.2-3-17.9-5.7 17.1.9 47.7 5.9 52.8-17.1 0-.2.1-.3.1-.4.9 1.2 1.5 2.6 1.8 4.1.8 4.2-1.3 8.5-4.2 11.7z" fill="#ed6969"/></g><g><path d="m80.7 44.2c-8.1 6.6-20.9.7-28.2-4.9-5.5-4.2-12.4-8.3-19.6-8.8-9.7-.7-9.3 9-7.8 16 .1.6.1 1.2.1 1.7-1.3-2.3-2.3-4.7-3.1-7.2-1.3-4.1-1.8-8.7.2-12.5 2.2-4.2 7.2-6.5 11.9-6.1 3 .3 5.5 1.5 8 3.1 2.4 1.5 3.4 3.6 4.9 5.9 1 1.6 2.4 3.1 4 4.2 2 1.4 4.2 2.1 6.3 3.2 2 1.1 4 2.1 6.2 2.8 4.2 1.4 8.6 2.1 13 2.4 1.3.2 2.7.2 4.1.2z" fill="#f9aaaa"/></g><g><path d="m10.4 22.8c-.9 2.4-1.2 4.9-.9 7.2-1.7-.5-3-1.6-3.1-3.3-.1-1.5 1.2-2.9 2.6-3.5.4-.2.9-.3 1.4-.4z" fill="#a37454"/></g><g><path d="m26.8 11.4c-.8.6-1.8.9-3 .8-6.1-.6-11.2 4.6-13.3 10.5-2.4-.3-5.2-1.8-3.7-7.1.8-2.7 4-1.6 5.9-1.8 2.3-.2 2.3-4 3.5-5.4 1.9-2.3 5.8-1.6 8 0 1 .8 1.9 1.8 2.6 3z" fill="#f9c2c2"/></g><g><path d="m129.3 80.3c1.7 11.5-5.7 22.5-14.3 30.3-4.6 4.2-9.9 7.8-15.5 10.6 11.3-12.9 34-33.9 19.1-52.2-.1-.1-.2-.2-.3-.4 1.5.1 3 .4 4.4 1.1 3.8 2 5.9 6.3 6.6 10.6z" fill="#ed6969"/></g><g><path d="m100.6 80.4c.2 10.4-12.3 16.9-21.2 19.2-6.8 1.8-14.2 4.7-19 10-6.5 7.2 1.4 12.8 7.8 16 .6.3 1 .6 1.4 1-2.6-.4-5.1-1.1-7.6-2-4-1.5-7.9-3.9-9.7-7.8-2-4.3-.7-9.7 2.5-13.1 2-2.2 4.6-3.4 7.4-4.4 2.7-.9 4.9-.5 7.7-.2 1.9.2 3.9 0 5.7-.5 2.3-.7 4.2-2 6.4-2.9 2.1-.9 4.1-1.8 6-3.1 3.7-2.5 7-5.5 9.9-8.8.9-1.2 1.8-2.3 2.7-3.4z" fill="#f9aaaa"/></g><g><path d="m40.4 122.6c1.4 2.1 3.1 4 5.1 5.1-1.5 1-3.1 1.4-4.5.4-1.3-.9-1.6-2.7-1.2-4.2.1-.4.3-.9.6-1.3z" fill="#f9c2c2"/></g><g><path d="m41.5 102.6c0 .9-.4 1.9-1.3 2.9-4.2 4.4-3.3 11.7.1 17-1.8 1.7-4.6 3-7.8-1.4-1.7-2.3 1.2-4.1 2.2-5.7 1.2-1.9-1.7-4.2-2.1-6.1-.7-3 2.3-5.6 4.9-6.3 1.3-.4 2.6-.5 4-.4z" fill="#f9c2c2"/></g><path d="m129.5 74.2c-1.1-2.3-2.8-4.4-5-5.7-.7-.4-1.4-.8-2.1-1 0-.1 0-.1 0-.2.1-.9-.2-1.8-.7-2.6-.7-1.1-1.7-2.6-3.5-4-1-.8-2.4-1.7-4-2.3s-3.4-1-5-1.1c-1.9-.1-3.4.2-4.4.6 0-.7 0-1.3 0-2-.3-2.5-1.4-4.9-2.9-6.6-1.5-1.8-3.3-3.1-5.1-4-8.7-4.7-18.4-1.1-33.1-4.8-3.6-.9-6.4-2-8.6-3-4.3-2.1-6.1-3.9-7.1-4.7-1-.9-1.2-.8-1.5-.7-.2.1-.4.4.2 1.7.4.6.9 1.5 2 2.6s2.7 2.4 4.9 3.6c2.3 1.3 5.2 2.6 9 3.7 14.6 4.2 24.5.9 32.1 5.1 2.9 1.5 5.5 4.2 5.8 7.5.9 9.2-13.2 21.6-39.6 15.1-3.4-.8-6.8-1.9-10.1-3.3-21.8-9.1-30.7-28.1-28.2-37.2.7-2.6 2.5-4.7 4.6-5.9 2.1-1.3 4.5-1.8 6.6-1.7s4 .8 5.6 1.6 2.8 1.7 3.8 2.5c1.9 1.6 2.6 2.9 2.8 2.8.1 0-.4-1.4-2.2-3.4-.9-.9-2.1-2-3.7-3s-3.6-1.8-6.1-2.1c-.8-.1-1.6-.1-2.4 0 0-.2.1-.3.1-.5.2-.8.2-2.2-.2-3.9-.2-.9-.6-1.8-.9-2.9-.4-1-.9-2.4-1.8-3.7-.9-1.5-2.5-3.4-5-4.6-1.2-.5-2.6-.8-4-.8s-2.8.5-3.9 1.3c-2.1 1.6-3 3.8-2.9 5.5v.1c-.1 0-.2-.1-.3-.1-.6-.3-1.4-.5-2.3-.5s-1.9.1-3 .7c-.6.3-1.3.7-1.8 1.4-.6.7-1 1.5-1.2 2.4-.4 1.8 0 3.6.8 4.9.3.6.7 1 1.2 1.4-.1.1-.3.2-.4.3-.5.4-.9 1-1.3 1.7-.3.7-.6 1.7-.4 2.7.1 1.1.7 2.4 1.7 3.1.9.8 1.9 1.3 2.9 1.5 1 .3 2.1.4 3.1.4s1.9-.1 2.8-.3c2.9-.4 5.1-1.4 5.8-2 0 .1-.1.2-.1.4-3.1 10.2 5.9 31 29.4 41 3.5 1.5 7 2.7 10.6 3.6 12.9 3.4 28.6 3.4 38.4-5.6 1.9-1.7 3.6-3.8 4.7-6.1.6-1.3 1.1-2.7 1.3-4.1 1 .2 2.5.4 4.1 1 1.3.4 2.7 1 3.9 1.7s2.2 1.4 3 2c1.4 1.1 2.2 2.1 2.9 2.9-.3 0-.7 0-1 0-2.3.1-4.4.7-6.3 1.5s-3.6 2-5 3.1c-1.4 1.2-2.6 2.5-3.7 3.7-5.3 6-12.1 15.6-23.1 21.2-4.3 2.1-6.8 2.4-8 2.7-1.3.2-1.4.5-1.4.8s0 .6 1.5.8c.7.1 1.8.2 3.3 0s3.5-.6 5.9-1.7c12.6-5.3 21.5-17.5 24.8-21.2 2.1-2.3 4.4-4.5 7.4-5.8s6.7-1.7 9.5.1c2.9 1.8 4.7 5.7 5 10.1 1.4 17.5-19.3 34.9-36 40.8-.8.3-1.7.6-2.5.8-10.6 2.9-28.1 3.1-34.6-5.6-1.7-2.2-2.2-4.9-1.8-7.3.3-2.5 1.4-4.6 2.8-6.3 1.4-1.6 3.1-2.7 4.7-3.4 1.6-.8 3.1-1.2 4.3-1.4 2.5-.5 3.9-.3 3.9-.5 0-.1-1.4-.6-4-.3-1.3.1-2.9.4-4.6 1.1s-3.7 1.7-5.4 3.5c-.5.6-1 1.2-1.5 1.9-.1-.1-.2-.3-.3-.4-.5-.6-1.6-1.5-3.3-2.2-.8-.4-1.8-.7-2.9-1s-2.4-.7-4-.9c-1.7-.2-4.2-.2-6.7 1.1-1.2.6-2.2 1.5-3.1 2.7-.8 1.1-1.3 2.5-1.3 3.8 0 2.6 1.1 4.6 2.6 5.6 0 0 .1 0 .1.1-.1 0-.2.1-.3.1-.6.3-1.2.8-1.8 1.5s-1.1 1.6-1.3 2.8c-.1.7-.2 1.5 0 2.3.2.9.6 1.7 1.2 2.4 1.1 1.4 2.8 2.2 4.3 2.3.7.1 1.3.1 1.8 0v.5c.1.6.2 1.3.6 2.1.4.7 1 1.5 1.8 2 .9.6 2.3.9 3.4.6 1.2-.2 2.2-.7 3-1.4.9-.6 1.6-1.4 2.2-2.2s1.1-1.6 1.5-2.3c1.4-2.5 2.1-4.9 2-5.8.1.1.1.2.2.3 6.9 9.9 25.5 10.4 37.3 7.4.9-.2 1.8-.6 2.7-.8 23.1-7.6 46.4-32.2 36.8-51.6zm-108.9-44.7c-.3-.5-2.9-.3-6-.5-.8-.1-1.6-.1-2.4-.2-.7-.1-1.5-.3-2.1-.6-.7-.2-1.1-.6-1.4-.9s-.3-.5-.3-.7c-.1-.3.1-.7.5-1.1s.7-.6 1.2-.8c.9-.4 1.7-.5 2.2-.7 1.1-.4 1.2-.9 1.2-1.4 0-.6 0-1.1-1.3-1.4-.6-.1-1.6-.3-3.3 0-.1 0-.2.1-.4.1-.2-.5-.5-1-.6-1.5-.2-.9-.2-2 .1-2.6.3-.7.7-1 1.2-1.2.9-.4 1.8-.4 2.3-.3.6.1.9.2 1.2.3.6.2 1.1.1 1.6-.1.3-.1.5-.2.7-.4.1-.2.3-.6 0-1.2-.1-.2-.3-.5-.5-.8 0-.3 0-.7.1-1.1.2-.5.5-1.1 1-1.7s1.1-1.1 1.8-1.5c1.3-.7 3.2-.4 4.6.4s2.5 2.2 3.2 3.3 1.1 2.1 1.5 3.1.8 1.8 1.1 2.5c.5 1.4.7 2.2.9 2.9.1.4.2.6.3.9-1 .3-1.9.6-2.9 1.1-1.3.7-2.5 1.6-3.5 2.8-.8.8-1.5 2-2 3.3zm27.3 93.6c-.5.6-1.1 1.2-1.7 1.8-.5.5-1.1 1-1.7 1.3s-1.2.5-1.5.5c-.4 0-.5-.1-.7-.2-.3-.1-.5-.5-.6-1s0-.9.1-1.4c.2-.9.6-1.7.8-2.2.4-1.1.1-1.5-.4-1.9-.4-.3-.9-.7-1.9.1-.5.4-1.3 1.1-2 2.6 0 .1-.1.2-.1.3-.5-.1-1-.2-1.6-.5-.9-.4-1.6-1.1-2-1.7-.4-.7-.3-1.2-.2-1.7.2-1 .8-1.6 1.2-2s.7-.6.9-.7c.5-.3.8-.8.9-1.3.1-.3.1-.5.1-.8-.1-.2-.3-.6-1-.8-.2-.1-.6-.1-.9-.1-.3-.2-.6-.4-.8-.8-.3-.4-.6-1.1-.7-1.8s-.2-1.6 0-2.4c.3-1.5 1.6-2.8 3.2-3.4 1.5-.6 3.2-.6 4.6-.4 1.3.1 2.3.4 3.4.7s1.9.5 2.6.7c2.1.6 3 1.2 3.8 1.3-.4.9-.7 1.9-.9 3-.3 1.4-.3 3 0 4.5.2 1.3.8 2.6 1.5 3.8-.9 0-2.3 2.2-4.4 4.5z" fill="#202020"/></g></svg>