<svg id="Layer_1" enable-background="new 0 0 136 136" height="512" viewBox="0 0 136 136" width="512" xmlns="http://www.w3.org/2000/svg"><g><g><path d="m120.8 110.9c-3.7 7.5-11.3 12.7-19.3 15.2-8 2.6-16.6 2.9-25 3-14.2.1-29.1-.5-41.8-6.6-1.7-.8-3.3-1.7-4.9-2.7-13.7-8.5-22.2-27.3-14.5-41.4 5.2-9.5 16.1-14.6 24.8-21.3 5-3.8 9.2-8.2 11.2-14.1 3.7-11.2 0-26.9 11-34.5 5.7-4 20.6-4.6 25.3 1.9 1.4 2 1.9 4.6.9 7.9-1.4 4.9-6.9 7.4-10 11.5-5.7 7.7-1.6 19.1 5.3 25.6 0 .1.1.1.1.1.9.9 1.9 1.7 2.9 2.4 2 1.6 4.1 2.9 6.3 4.2 2.5 1.5 5 2.9 7.5 4.4 2.4 1.4 4.8 2.9 7 4.6s4.3 3.6 6.2 5.7c8.3 9.8 12.5 23.1 7 34.1z" fill="#ffefe1"/></g><g><path d="m87.6 10.5c-1.1 1-2.6 1.5-4.5 1-6-1.9-12 1.1-16.5 5-4.3 3.7-5.4 8.2-6.3 13.6-1.8 10.3-4.9 20.3-12.7 27.8-2.6 2.4-5.8 1.4-7.5-.8 5-3.8 9.2-8.2 11.2-14.1 3.7-11.2 0-26.9 11-34.5 5.8-3.8 20.6-4.5 25.3 2z" fill="#fff8f3"/></g><g><path d="m120.8 110.9c-3.7 7.5-11.3 12.7-19.3 15.2-8 2.6-16.6 2.9-25 3-14.2.1-29.1-.5-41.8-6.6.4-1.6 1.5-3.1 3.1-3.8-4.7-6.8-7.9-14.5-8.9-22.8-.9-7.1-.5-14.5 1.5-21.5.9-3.1 7-19.7 12.3-16 .8.5 1 1.5 1.1 2.5.5 4.9-1.5 9.7-3 14.4-2.7 8.6-3.3 16.8-.8 25.4 2.3 7.6 6.7 14.3 12.4 19.7 1.8.3 3.7.6 5.5.9-9.1-23.8-10.5-50-3.5-74.7 1.8-6.2 11.4-3.5 9.6 2.6-6.5 23-5.3 47.7 3.6 69.8-2.8-20.7 2.6-40.6 9.5-60.1 1-2.8 4.2-3.8 6.8-3.1 1.3.3 2.4 1.2 2.9 2.4.2.5.3 1.1.3 1.8-.1 3.1-3.2 6.4-4.4 9.2-1.5 3.4-2.6 6.9-3.5 10.4-3.5 12.7-6.3 25.8-4.6 38.9.1 1.1.2 3.7 1.1 4.4 1.1.9 2.6-.4 3.3-1.3.7-.8 1.2-1.8 1.7-2.8 3.1-6.6 5.3-13.2 7-20.3 1.5-6.3 3-12.6 3.7-19.1.5-5.3.4-10.7 1.5-15.9.1-.3.2-.7.3-1 2.5 1.5 5 2.9 7.5 4.4 1.2 4.6.9 9.4.4 14.1-.5 5.6-1.6 11.1-2.9 16.5-1.2 5.3-3.5 10.3-5.4 15.4-1.3 3.6-1.8 7.7 2.5 9.4 2.1.8 4.6.5 6.6-.7 4.2-2.4 6.4-5.6 7.9-10.1 1-2.8 1.8-5.7 2.6-8.6.7-2.6 1.9-5.7 2-8.4.1-2.6-.6-5.5-.8-8.1-.2-2.9-.2-5.9.2-8.8 0-.1 0-.2.1-.3 8.2 9.3 12.4 22.6 6.9 33.6z" fill="#f7dfcd"/></g><path d="m119.5 81.5c-1.8-2.8-3.8-5.3-6-7.5s-4.5-4.1-6.9-5.6c-2.3-1.6-4.6-2.9-6.8-4.2-4.4-2.5-8.4-4.8-11.6-7.2-1.6-1.2-3.1-2.5-4.4-3.8-12-13-5.3-21.5.4-27.2 2-1.8 3.2-3.4 3.8-4.6s.7-1.9.7-2.3-.1-.5-.3-.5c-.1 0-.3 0-.5.2-.2.3-.5.8-1.3 1.7-.7.9-1.9 2.1-4 3.8-8 6.6-11.9 14.4-5 26.5 1 1.6 2.1 3.2 3.5 4.8l.5.5c-.5.7-1.2 1.9-1.9 3.3-1.5 2.8-3.3 6.8-5 11.4-7.2 20-7.7 42.2-5.3 51.9.8 3.4 1.3 3.5 1.9 3.4s1-.3 1-3.7c-.2-15-.7-29.3 5.2-50.7 1.3-4.6 2.7-8.7 3.7-11.7.5-1.4.9-2.5 1.1-3.3 1.1 1.1 2.3 2.1 3.6 3.1 1.6 1.2 3.3 2.4 5 3.5.1.8.2 1.8.3 3 .2 2.9.2 6.9-.2 11.4-1.1 14.1-3.7 27.2-7.7 40-1 3.4-1.8 5.6-2.2 7.2-.3.9-.4 1.6-.5 2.1-4.3.1-8.7.1-13.3 0-1.7 0-3.3-.1-5-.2.2-.5.1-1.9-1.1-6.2-2.4-9.7-5.8-21.8-5.7-40.9 0-6.4.5-14.7 2-23.3 2.2-13.3 8.6-34.2 17.2-44.6 2-2.4 3.9-4 5.1-4.9.4.1.9.2 1.3.3 3.1.8 5.5 2.5 6.6 4.4s1 3.8 1 5c-.1 1.2-.3 1.8-.2 1.9 0 0 .3-.6.6-1.8.1-.6.2-1.4.2-2.3s-.3-2-.8-3.1c-.6-1.2-1.5-2.3-2.7-3.2s-2.7-1.6-4.3-2.1c-.1 0-.3-.1-.4-.1.2-.1.2-.2.2-.3s-.3 0-.7.1c-3.1-.8-6.7-1-10.6-.6-21.3 3-15.2 25.9-20.3 38.8-1.1 2.6-2.8 5.1-4.8 7.2-2.1 2.2-4.5 4.1-7 6-11.7 8.5-31.4 17.2-26.3 40 3.4 14.8 15.3 27.5 37.1 31.9 3.2.6 6.4 1.1 9.5 1.4s6.2.5 9.2.6c6.1.2 11.8.1 17.4-.1 5.6-.3 10.9-.9 15.8-2.3 4.4-1.2 8.6-3.1 12.2-5.6 14.6-10.1 15.8-27.2 6.7-41.5zm-83.4-19.6c-2.2 2.9-4.6 6.9-6.3 11.7-6.8 19.4.3 39.6 15.4 50.6-25.9-6.9-48.8-34.8-9.1-62.3zm17 63.9c-.4-.3-.9-.7-1.5-1.1-18.4-13.7-24.1-31.9-19-50.2 1.4-5.2 3.7-9.6 5.6-12.7.7-1.1 1.3-1.9 1.8-2.7 2.5-1.9 4.8-3.8 6.9-6.1 2.2-2.4 4-5.1 5.2-8.1 5.1-13.8-1.6-34.9 18.1-38.2 3-.5 6-.5 8.5-.1-1.4.8-3.2 2.1-5.1 4.1-9.7 9.9-17.1 31.2-19.7 45-1.7 8.9-2.4 17.4-2.3 24-.1 14 2 28.1 7.1 41.8 1.3 3.1 2.1 4.6 2.6 5.2-.9-.1-1.8-.1-2.7-.2-1.9-.2-3.7-.4-5.5-.7zm30.3 1.1c.2-.3.3-.5.5-.9.8-1.5 1.9-3.7 3.1-7.1 4.8-12.7 7.1-27.4 7.1-41.1 0-4.6-.4-8.8-1.2-11.8-.2-.7-.4-1.3-.6-1.9 1.8 1.1 3.6 2.2 5.5 3.3 4.3 2.6 8.9 5.3 12.8 9.3l.4.4c0 .1.1.2.1.4.6 2.7 1.3 6.4 1.4 10.5.4 12.5-3.7 25-12.8 33.4-2.3 2.1-4.1 3.3-5.3 4.1-.2.1-.3.2-.4.3-3.2.6-6.8.9-10.6 1.1zm20.2-3.7c9.5-8.5 13.6-22.1 12-35.4-.3-2.7-.9-5.2-1.5-7.3.7 1 1.5 2 2.1 3.1 9.6 15.3 5.7 32.3-12.6 39.6z" fill="#202020"/></g></svg>