<svg id="Layer_1" enable-background="new 0 0 136 136" height="512" viewBox="0 0 136 136" width="512" xmlns="http://www.w3.org/2000/svg"><g><g><path d="m130.8 92.7c-.1.9-.2 1.8-.4 2.7-.7 3.7-2.3 7.3-5.3 9.6-1.8 1.4-3.9 2.1-6.2 2.4-2.9.4-6.1-.1-8.9-1-.2-.1-.4-.1-.6-.2-5.2-1.8-9.9-4.8-15.1-6.4-6.9-2.1-14.3-1.6-21.3-.1-1.6.3-3.2.7-4.7 1.2-1.5.4-3 .9-4.5 1.3-2.8.9-5.5 1.8-8.3 2.6-3 1-6 1.9-9 2.6-1.2.3-2.4.5-3.6.8-8.7 1.6-18.1 1.3-25.7-3.2-.2-.1-.5-.3-.7-.4-2.8-1.8-5.2-4.4-6.9-7.3-2.6-4.6-3.6-9.9-1.8-14.8l114.5-11.3c3.6 3.3 6.3 7.7 7.6 12.4.8 2.9 1.2 6 .9 9.1z" fill="#f1f2f2"/></g><g><path d="m119.3 79.2c-1.4 2.8-3.6 5.4-6.5 6.5-3.6 1.4-7.7.4-11.3-1-9.7-3.7-18.8-10.2-29.1-10.2-9.7 0-18.3 5.8-26.7 10.6-5.2 3-13.2 7-20.2 7.4-1.8.1-3.5 0-5.1-.5-1.1-.3-2.2-.8-3.3-1.3-9.5-5-15.4-18.9-12.9-28.6 1.2-4.7 3.8-9 6.9-12.7l1.8-2.1c10.7-11.5 26.1-18.4 41.8-19.7 15.7-1.2 31.7 3 45.2 11.1 5.6 3.4 11 7.4 15 12.6 1 1.3 2 2.7 2.8 4.2 4.1 7.1 5.3 16.3 1.6 23.7z" fill="#ffcade"/></g><g><path d="m43.8 61.1c-3.4-7.9-8.7-14.8-15.4-20.2-5-4-12.1 3-7.1 7.1 6.1 4.9 10.7 11 13.8 18.2 2.7 5.8 11.3.8 8.7-5.1z" fill="#f9d7e4"/></g><g><path d="m68.5 27.9c-4.1-4.9-11.2 2.2-7.1 7.1 3.4 4 4.9 9.5 4 14.7-1.1 6.3 8.6 9 9.6 2.7 1.5-9.1-.7-17.5-6.5-24.5z" fill="#f9d7e4"/></g><g><path d="m95.9 42.1c-1.2 5.3-3.4 9.9-6.7 14.2-1.6 2.1-.3 5.6 1.8 6.8 2.6 1.5 5.2.4 6.8-1.8 3.7-4.9 6.3-10.6 7.7-16.6 1.5-6.2-8.2-8.9-9.6-2.6z" fill="#f9d7e4"/></g><g><path d="m17.1 90.7c-9.5-5-15.4-18.9-12.9-28.6 1.2-4.7 3.8-9 6.9-12.7 2.4 1.2 3.9 4 2.2 7-5.6 9.7-2.2 22.7 3.1 31.7.5.9.8 1.8.7 2.6z" fill="#f9d7e4"/></g><g><path d="m119.3 79.2c-1.4 2.8-3.6 5.4-6.5 6.5-3.6 1.4-7.7.4-11.3-1-9.7-3.7-18.8-10.2-29.1-10.2-9.7 0-18.3 5.8-26.7 10.6-5.2 3-13.2 7-20.2 7.4.1 0 1-1.8 1.2-2 .7-.7 1.7-1.2 2.5-1.7 2.2-1.4 4.4-2.7 6.6-4.1 4.3-2.7 8.6-5.3 13-8 3.6-2.2 7.2-4.5 11.2-5.7 5.3-1.7 11.1-1.5 16.6-.6 4.2.7 8.7 1.7 12.6 3.2 3.5 1.4 6.9 3.1 10.5 4.3 3.3 1.1 6.9 1.6 10.1.3 3.5-1.4 6.9-5.5 7.8-9.2 1-4.6-.8-9.4-2.6-13.6-.7-1.5-.6-3 0-4.2 1 1.3 2 2.7 2.8 4.2 4 7.2 5.2 16.4 1.5 23.8z" fill="#ffbbd7"/></g><g><path d="m35.1 90.6c-6.4 0-6.4 10 0 10 6.5 0 6.5-10 0-10z" fill="#e5e5e5"/></g><g><path d="m72.3 75.8c-4.7 0-4.7 7.3 0 7.3 4.6 0 4.6-7.3 0-7.3z" fill="#e5e5e5"/></g><g><path d="m60.5 85.2c-4.7 0-4.7 7.2 0 7.2s4.7-7.2 0-7.2z" fill="#e5e5e5"/></g><g><path d="m99.5 84.6c-3.9 0-3.9 6 0 6s3.9-6 0-6z" fill="#e5e5e5"/></g><g><path d="m84.5 84.9c-4.4 0-4.4 7.9 0 7.9s4.4-7.9 0-7.9z" fill="#e5e5e5"/></g><g><path d="m130.8 92.7c-.8.4-1.6.6-2.4.6h-.1c-1.3 0-2.5-.6-3.5-1.5s-1.4-2.2-1.5-3.5c0-1.3.6-2.7 1.5-3.5.9-.9 2.3-1.5 3.5-1.5h.1c.5 0 1 .1 1.5.3.8 2.9 1.2 6 .9 9.1z" fill="#e5e5e5"/></g><g><path d="m119 107.4c-2.9.4-6.1-.1-8.9-1-.7-2.9.8-6.4 4.7-6.4 4.3-.1 5.7 4.4 4.2 7.4z" fill="#e5e5e5"/></g><g><path d="m73 99.7c-1.6.3-3.2.7-4.7 1.2-1.5.4-3 .9-4.5 1.3-.1-2.6 1.5-5.2 4.8-5.2 2.3-.1 3.7 1.1 4.4 2.7z" fill="#e5e5e5"/></g><g><path d="m18.6 100.4c.1 1.3-.6 2.7-1.5 3.5-.2.2-.4.4-.6.5-2.8-1.8-5.2-4.4-6.9-7.3.1-.1.2-.2.3-.4.9-.9 2.3-1.5 3.5-1.5h.1c1.3 0 2.6.6 3.5 1.5 1.2 1.1 1.6 2.4 1.6 3.7z" fill="#e5e5e5"/></g><g><path d="m55.5 104.8c-3 1-6 1.9-9 2.6-.1-.1-.2-.3-.3-.4-.7-1.2-.8-2.5-.5-3.9 0-.2.1-.4.1-.6.3-1.3 1.3-2.3 2.3-3 1.1-.7 2.6-.8 3.9-.5 1.2.3 2.4 1.3 3 2.3.6 1.1.7 2.3.5 3.5z" fill="#e5e5e5"/></g><path d="m132 85c-.8-3.3-2-5.8-3.1-7.7-2.3-3.8-4.2-5.2-5.2-5.9-.1-.1-.3-.2-.4-.2.4-4.9-.7-9.6-2.4-13.8-2-4.6-5-8.5-8.2-11.7s-6.7-5.7-10-7.8c-12.2-7.6-24.5-11.2-35.5-12.2-5.5-.5-10.7-.4-15.4.2-7.8.9-15.9 3.4-23.3 7.3-3 1.6-5.7 3.4-8 5.1-4.6 3.5-7.8 6.8-10.2 9.7-2.7 3.4-5.3 7.6-6.2 11.8-.4 2-.1 2.2.1 2.3.3.1.5 0 1.4-1.8.9-1.7 2.3-5.1 7-10.4 2.4-2.6 5.6-5.7 10-8.8.2-.1.4-.3.7-.4 1 .5 2.2 1.3 3.4 2.4 1.3 1.2 2.6 2.7 3.8 4.1s2.3 2.8 3.1 3.9c3 4 4.2 6.2 5.1 7.2s1.4.9 1.9.6c.5-.2 1-.5.7-1.9-.1-.7-.5-1.7-1.1-3.1-.7-1.4-1.7-3.2-3.3-5.3-1.8-2.4-5-5.7-8.5-7.8-1.1-.7-2.1-1.1-3.2-1.4 1.5-1 3.2-1.9 5-2.9 2.9-1.5 6.2-2.9 9.9-4 3.7-1.2 7.8-2.1 12.3-2.6 3.8-.4 7.8-.5 12.1-.3.5.9 1.5 2.2 2.2 3.8 1.3 2.6 1.9 6 2.2 8.2.3 2 .4 3.6.6 4.8.1 1.2.3 2 .5 2.6.4 1.1.9 1.2 1.4 1.2.6 0 1.1 0 1.4-1.2.2-.6.3-1.4.4-2.7s0-3-.3-5.3c-.2-1.2-.6-2.8-1.2-4.5-.6-1.6-1.5-3.3-2.6-4.6-.6-.8-1.3-1.5-2-2 9.6 1 20.5 4.1 31.2 10.3 0 .7 0 1.6-.1 2.6-.1 1.2-.2 2.4-.4 3.5s-.5 2.2-.6 3c-.4 1.5-.7 2.6-1 3.4s-.4 1.4-.5 1.9c-.1.9.3 1.2.8 1.5s.9.6 1.7-.1c.4-.3.9-.9 1.4-1.8s1.1-2.2 1.6-4c.2-1 .4-2.3.4-3.7s-.2-2.8-.5-4.1c-.1-.3-.1-.5-.2-.8 3.1 2 6.2 4.3 9.1 7.1 2.9 2.9 5.6 6.3 7.4 10.4 1.7 4 2.7 8.7 2.1 13.2-.3 2.3-1 4.5-2 6.6-4.2 7.7-10.3 6.3-18.1 3-4.8-2.1-9.6-4.6-14.7-6.6-2.6-1-5.3-1.7-8-2.1-2.8-.4-5.6-.3-8.4.1-5.5.9-10.4 3.3-14.8 5.8-4.5 2.5-8.6 5.2-12.8 7.3s-8.4 3.9-12.5 4.6c-2.1.4-4.1.5-6 .2s-3.7-1.1-5.3-1.9c-5.4-3.3-9.3-9-11.2-15.1-.4-1.2-.7-2.4-.9-3.5-.1-1.1-.4-2.1-.4-3-.3-3.6.3-5.7.1-5.7-.1 0-.2.5-.5 1.4-.2.5-.2 1.1-.3 1.8 0 .4-.1.7-.1 1.2v1.3c0 .9.1 2 .2 3.1.2 1.1.4 2.4.8 3.7.4 2.6 1.4 5.3 3.1 8.1-.1.1-.2.3-.3.7-.3.5-.5 1.3-.7 2.4s-.3 2.4-.2 4 .5 3.3 1.2 5.2c1.4 3.7 4.1 7.8 8.6 10.8 4.4 3 10.2 4.6 16.2 4.9 3 .2 6.1-.1 9.2-.5 9.4-1.4 18-4.8 26.7-7.2 5.7-1.6 11.3-2.5 16.5-2.4 2.6 0 5 .3 7.3.9 2.3.5 4.3 1.3 6.3 2.2 3.6 1.6 7 3.4 10.5 4.6 17.6 5.9 26.3-7.8 23-23.2zm-32.1 14.7c-2.1-.9-4.4-1.8-7-2.4s-5.3-.9-8.2-.9c-5.7 0-11.7 1.1-17.5 2.8-8.8 2.5-17.1 6.1-26.2 7.7-2.9.5-5.8.8-8.6.7-5.6 0-10.9-1.4-15-3.9s-6.8-6.1-8.3-9.5c-.8-1.7-1.2-3.3-1.4-4.7-.3-1.4-.2-2.7-.2-3.8.1-1 .2-1.8.3-2.4 0-.2.1-.4.1-.5 0 .1.1.1.1.2 1.8 2.9 4.3 5.8 7.7 8 1.8 1 3.7 2 5.9 2.4s4.5.3 6.7-.1c4.5-.7 8.9-2.5 13.3-4.6s8.6-4.8 13-7.1 9-4.5 13.9-5.2c2.4-.4 4.9-.4 7.4 0s4.9 1.1 7.3 2.1c4.8 1.9 9.5 4.5 14.5 6.7 9.7 4.2 17.6 5.2 22.9-4.4 1.3-2.3 2.1-4.8 2.5-7.4.7 1 1.9 2.6 3.2 5.3.9 1.8 1.7 4.1 2.3 7 3.1 17.9-5.3 24.5-28.7 14z" fill="#202020"/></g></svg>