<svg id="Layer_1" enable-background="new 0 0 136 136" height="512" viewBox="0 0 136 136" width="512" xmlns="http://www.w3.org/2000/svg"><g><g><path d="m129.9 91c-.2.8-.5 1.6-.7 2.5-2.5 8-6.6 15.6-12.8 21.2-1.8 1.6-3.8 3-5.9 4.3-3 1.8-6.2 3.3-9.5 4.6-16.3 6.5-34.8 8-51.5 2.5-11.7-3.8-22.1-11.1-30-20.5-6.9-8.2-11.9-18-14.2-28.5-.5-2.2-.8-4.4-1.1-6.7-1.5-14.4 1.8-29.9 9.5-42.1 7.8-12.3 21-18.9 34.9-21.5 4.4-.8 8.8-1.2 13.2-1.4 14.5-.4 29.2 3.6 41.1 12 16.8 11.8 27.3 31.5 28.8 51.8.6 7.4 0 14.7-1.8 21.8z" fill="#f9bf98"/></g><g><path d="m33 24c-14 12.7-20.5 33.1-16.5 51.6s18.3 34.4 36.3 40.3c13.7 4.5 28.9 3.3 42.3-2.1 4.5-1.8 8.9-4.1 12.6-7.4 5.7-5 9.2-12.1 11.1-19.4 5.8-22.1-3.4-47.4-22.1-60.5s-41.1-17.8-59.8-4.7" fill="#ffd2b3"/></g><g><path d="m30.3 59.7c-1.5 2.2-.6 5.3.7 7.6.6 1.2 1.4 2.3 2.6 3 2.3 1.4 5.6.4 6.9-2 1.3-2.3.6-5.5-1.5-7.3-2.1-1.7-5.1-2-7.6-.8" fill="#ef4136"/></g><g><path d="m52.5 82.5c-1.5 2.2-.6 5.3.7 7.6.6 1.2 1.4 2.3 2.6 3 2.3 1.4 5.6.4 6.9-2 1.3-2.3.6-5.5-1.5-7.3s-5.1-2-7.6-.8" fill="#ef4136"/></g><g><path d="m53.5 35.5c-1.5 2.2-.6 5.3.7 7.6.6 1.2 1.4 2.3 2.6 3 2.3 1.4 5.6.4 6.9-2 1.3-2.3.6-5.5-1.5-7.3-2.1-1.7-5.1-2-7.6-.8" fill="#ef4136"/></g><g><path d="m82 42.3c-1.5 2.2-.6 5.3.7 7.6.6 1.2 1.4 2.3 2.6 3 2.3 1.4 5.6.4 6.9-2 1.3-2.3.6-5.5-1.5-7.3-2.1-1.7-5.1-2-7.6-.8" fill="#ef4136"/></g><g><path d="m85.5 74.3c-2.2 3.1-1 7.4 1 10.7 1 1.6 2.1 3.2 3.8 4.2 3.4 2 8.3.5 10.3-2.8 1.9-3.3.8-7.8-2.2-10.2s-7.6-2.8-11.2-1.2" fill="#ef4136"/></g><g><path d="m48.6 6.8c-10.5 6.6-22.2 14.4-29.6 24.3-3.7 4.9-6.4 10.9-8.8 16.5-2.6 6.1-4.4 12.4-4.4 19.2 0 1.7-.6 2.9-1.6 3.7-1.5-14.5 1.8-30 9.5-42.2 7.8-12.4 21-18.9 34.9-21.5z" fill="#ffd2b3"/></g><g><path d="m129.9 91c-.2.8-.5 1.6-.7 2.5-4.3 9.7-10.7 18.6-18.7 25.5-3 1.8-6.2 3.3-9.5 4.6-16.3 6.5-34.8 8-51.5 2.5-11.7-3.8-22.1-11.1-30-20.5 1.4-1.2 3.3-1.6 5.3-.2 17 12.5 43.7 23.5 64.6 15 19.6-8 32.6-27.9 35.6-48.3.6-3.8 4.2-4.3 6.8-2.9.5 7.4-.1 14.7-1.9 21.8z" fill="#edaf85"/></g><g><path d="m61.9 57.3c-2.8 2-1.4 6.5.8 9.1 1.8 2.2 4.5 4.1 7.2 3.5 3.8-.8 5.1-6.3 2.7-9.4s-7-3.7-10.7-2.5" fill="#2bb673"/></g><g><path d="m36.9 37.4c-1.7 1-1 3.7.1 5.2 1 1.3 2.4 2.5 4 2.3 2.2-.3 3.1-3.4 1.8-5.3-1.3-1.8-3.9-2.3-6-1.8" fill="#6d6e71"/></g><g><path d="m36.1 82.2c-1.7 1-1 3.7.1 5.2 1 1.3 2.4 2.5 4 2.3 2.2-.3 3.1-3.4 1.8-5.3-1.3-1.8-3.9-2.3-6-1.8" fill="#6d6e71"/></g><g><path d="m74.6 97.7c-1.7 1-1 3.7.1 5.2 1 1.3 2.4 2.5 4 2.3 2.2-.3 3.1-3.4 1.8-5.3-1.3-1.8-3.9-2.3-6-1.8" fill="#6d6e71"/></g><g><path d="m102.6 56.2c-1.7 1-1 3.7.1 5.2 1 1.3 2.4 2.5 4 2.3 2.2-.3 3.1-3.4 1.8-5.3-1.3-1.8-3.9-2.3-6-1.8" fill="#6d6e71"/></g><g><g><path d="m72.6 25.2c-1.7 1-1 3.7.1 5.2 1 1.3 2.4 2.5 4 2.3 2.2-.3 3.1-3.4 1.8-5.3-1.3-1.8-3.9-2.3-6-1.8" fill="#6d6e71"/></g><g fill="#202020"><path d="m107.7 19.8c-.8-.6-1.5-1-2-1.3-2.2-1.4-2.5-1.3-2.7-1-.2.2-.2.6 1.7 2.3.5.4 1 1 1.8 1.6 21.4 21.2 26.9 46 22 67.1-3.6 15.9-11.4 25.3-23.3 31.1-7 3.4-15.1 6-23.9 7.2-25.7 3.5-48.2-6-62.6-25.1-10.7-14.2-14.8-30.2-12.5-47.8 2.2-16.2 9.8-31.5 24.6-39.6 5.3-3 11-4.8 16.5-6.1 11-2.4 21.4-2.3 29.8-.7 8.5 1.5 14.9 4.2 19.2 6.4s6.5 3.7 6.6 3.6c0-.1-.5-.5-1.5-1.3-.5-.4-1.2-.8-2-1.3s-1.7-1.1-2.8-1.7c-4.1-2.4-10.6-5.5-19.2-7.2-8.5-1.8-19.2-2.2-30.6 0-5.7 1.2-11.6 3-17.2 6-15.8 8.3-24.1 24.3-26.6 41.5-2.7 18.9 1.9 35.8 12.7 50.4 14.9 20.1 38.8 30.6 66.1 26.9 9.3-1.3 17.7-4 25.1-7.6 14.4-7.1 21.9-18.4 25.3-33.9 5.4-24-3-52.5-24.5-69.5z"/><path d="m66.2 12.6c-6.1-.5-11.1.2-15 1.2-3.8 1.1-6.7 2.3-8.7 3.4-1 .6-1.8 1.1-2.5 1.5-.7.5-1.2.9-1.6 1.2-1.7 1.3-1.6 1.6-1.5 1.9.2.2.5.4 2.3-.5.5-.2 1-.5 1.7-.9.7-.3 1.6-.7 2.6-1.1 2-.9 4.7-1.8 8.3-2.7 3.7-.7 8.3-1.2 14-.6.7 0 1.4.2 2.2.3 14.4 2.4 30.4 11.1 39.7 24 14 19.4 13.7 45.4 2.6 60.3-8.7 12.3-36.4 21.1-58.7 13.1-14-4.9-26.9-17.1-32.4-33-5.6-16.2-2.9-35.9 9.8-52 .6-.8 1.2-1.4 1.7-2s.9-1 1.3-1.4c.7-.8 1-1.2 1-1.3s-.5.3-1.3 1c-.4.3-.9.8-1.5 1.3-.5.6-1.1 1.2-1.8 1.9-12.9 14.2-17.6 35-11.7 53.3 5.5 16.9 18.9 29.9 33.7 35.3 20.8 7.8 51.2 2 63-13.8 12-15.9 12.9-43.8-2.6-65.1-9.8-13.4-26.4-22.7-42.4-25-.7-.2-1.5-.3-2.2-.3z"/><path d="m31.3 59.4c-.1.3 0 .6.1.8.1.3.3.5.5.6.3.1.7.2 1.4.2.7.1 1.8.1 3 .6.6.3 1.3.7 1.8 1.3.5.7.9 1.6.9 2.7 0 .6-.1 1.2-.5 1.8-.3.5-.9 1.1-1.7 1.4s-1.6.3-2.3 0-1.4-1-2.1-1.9c-1.3-1.8-2-3.6-2.2-5s.2-2.3 0-2.4c-.1-.1-.4 0-.7.4s-.7 1-.9 1.9c-.4 1.8.1 4.2 1.3 6.5.6 1.1 1.4 2.5 3 3.4 2.8 1.6 6.8.8 8.9-2.1.9-1.3 1.2-2.8 1.2-4 0-3.6-2.2-6.6-5.5-7.6-1.1-.4-2.1-.4-2.9-.3s-1.4.2-1.9.4c-.9.6-1.3 1-1.4 1.3z"/><path d="m50.9 84.9c-.4 1.8.1 4.2 1.3 6.5 3 5.9 9.3 4.9 11.9 1.3.9-1.3 1.2-2.8 1.2-4 0-3.6-2.2-6.6-5.5-7.6-1.1-.4-2.1-.4-2.9-.3s-1.4.2-1.9.4c-1 .4-1.4.8-1.5 1.1s0 .6.1.8c.1.3.3.5.5.6.3.1.7.2 1.4.2.7.1 1.8.1 3 .6.6.3 1.3.7 1.8 1.3 1 1.2 1.3 3.2.4 4.5-.3.5-.9 1.1-1.7 1.4-1.9.7-3.2-.2-4.4-1.8-1.3-1.8-2-3.6-2.2-5s.2-2.3 0-2.4c-.1-.1-.4 0-.7.4-.2.4-.6 1.1-.8 2z"/><path d="m53.5 35.5c-.1-.1-.4 0-.7.4s-.7 1-.9 1.9c-1.7 7.6 7.8 15.4 13.1 7.8.9-1.3 1.2-2.8 1.2-4 0-3.6-2.2-6.6-5.5-7.6-1.1-.4-2.1-.4-2.9-.3s-1.4.2-1.9.4c-1 .4-1.4.8-1.5 1.1s0 .6.1.8c.1.3.3.5.5.6.3.1.7.2 1.4.2.7.1 1.8.1 3 .6.6.3 1.3.7 1.8 1.3 1 1.2 1.3 3.2.4 4.5-.3.5-.9 1.1-1.7 1.4-3.6 1.3-6.3-4.4-6.5-6.8-.1-1.2.4-2.1.1-2.3z"/><path d="m82 42.3c-.1-.1-.4 0-.7.4s-.7 1-.9 1.9c-.4 1.8.1 4.2 1.3 6.5 3 5.9 9.3 4.9 11.9 1.3.9-1.3 1.2-2.8 1.2-4 0-3.6-2.2-6.6-5.5-7.6-1.1-.4-2.1-.4-2.9-.3s-1.4.2-1.9.4c-1 .4-1.4.8-1.5 1.1s0 .6.1.8c.1.3.3.5.5.6.3.1.7.2 1.4.2.7.1 1.8.1 3 .6.6.3 1.3.7 1.8 1.3 1 1.2 1.3 3.2.4 4.5-.3.5-.9 1.1-1.7 1.4s-1.6.3-2.3 0-1.4-1-2.1-1.9c-1.3-1.8-2-3.6-2.2-5 0-1.2.4-2.1.1-2.2z"/><path d="m91.8 72.4c-1.1.1-1.9.3-2.6.5-1.3.5-1.9.9-2.1 1.3s-.1.6 0 .9.2.5.6.6 1 .1 2.1.1c14.5-.1 10.5 15.6 1.7 12.2-1.2-.5-2.4-1.6-3.3-2.8-1.9-2.6-3-5.3-3.1-7.4-.1-2 .6-3.3.4-3.4-.1-.1-.4.1-.9.7-.4.5-.9 1.5-1.1 2.7-.4 2.5.4 5.9 2.3 9 .9 1.6 2.2 3.3 4.3 4.4 9.1 4.4 18.1-7.2 10.5-15.3-1.6-1.7-3.4-2.4-4.9-2.9-1.5-.6-2.8-.6-3.9-.6z"/><path d="m65.9 55.8c-.9.1-1.6.2-2.1.4-1.1.3-1.6.7-1.8 1 0 0 0 .1-.1.1 0 0 0 0 0-.1-.1-.1-.4-.1-.9.2s-1.1 1-1.4 2c-.6 2.1 0 5 1.8 7.6.9 1.2 2 2.4 3.4 3.4 3.6 2.4 7.9 1.5 9.9-2 2.8-4.9.4-10.8-5.8-12.4-1.1-.2-2.2-.3-3-.2zm5.4 10.8c-.9 1.9-2.8 2-4.7 1-1.1-.5-2.1-1.4-2.9-2.3-1.6-1.7-2.5-4-2.5-5.5 0-1.1.5-1.8.7-2.2 0 .1 0 .3.1.4.1.3.2.5.5.7s.8.2 1.7.3 2.2.1 3.9.7c3.7 1.4 4.5 4.4 3.2 6.9z"/><path d="m44.6 44.7c3.1-4.7-1.8-10.1-6.7-8.5-.9.4-1.1.7-1.1 1.1-.1-.1-.3 0-.6.1s-.8.5-1.1 1.2c-2 4.7 5.7 11.9 9.5 6.1zm-7.8-6.9c.1 0 .1 0 0 0 .1.6.4 1 1.3 1.3.5.2 1.1.3 1.9.7.5.3 1.2.8 1.3 1.2.1.2.1.4.1.7s-.1.6-.2.9c-.6 1.2-2.2.1-3.1-.9-.9-.9-1.4-2-1.4-2.8-.1-.5.1-.8.1-1.1z"/><path d="m43.8 83.2c-.2-.3-.4-.5-.6-.7-.9-.9-1.9-1.3-2.6-1.5-1.6-.4-2.7-.2-3.3 0-.9.4-1.1.7-1.1 1.1-.1-.1-.3 0-.6.1s-.8.5-1.1 1.2c-.5 1.3-.4 3.1.6 4.8.5.8 1.1 1.6 2 2.3.8.7 2.1 1.2 3.5 1.1.7-.1 1.4-.3 2-.7s1-.9 1.3-1.4c.6-1 .9-2 .9-2.9 0-.8-.1-1.6-.4-2.3-.2-.5-.4-.8-.6-1.1zm-3.3 4.1c-.2.3-.3.4-.4.5-.2.1-.6.1-1.2-.2-.5-.2-1.1-.7-1.5-1.2-.9-.9-1.4-2-1.4-2.8-.1-.5.1-.8.2-1.1.1.6.3 1 1.3 1.2.5.2 1.1.3 1.9.7.4.2.7.4 1 .8.1.1.1.2.2.3 0 .1.1.1.1.2.1.2.1.4.1.7-.1.3-.2.6-.3.9z"/><path d="m79 96.4c-1.6-.4-2.7-.2-3.3 0-.9.4-1.1.7-1.1 1.1-.1-.1-.3 0-.6.1s-.8.5-1.1 1.2c-.5 1.3-.4 3.1.6 4.8.5.8 1.1 1.6 2 2.3 6.2 4.9 12.2-6.9 3.5-9.5zm-1.6 6.7c-.5-.2-1.1-.7-1.5-1.2-.9-.9-1.4-2-1.4-2.8-.1-.5.1-.8.2-1.1.1.6.3 1 1.3 1.2.5.2 1.1.3 1.9.7 2.3 1.3 1.3 4.1-.5 3.2z"/><path d="m110.8 58.2c-.1-.4-.3-.7-.6-1-.2-.3-.4-.5-.6-.7-.9-.9-1.9-1.3-2.6-1.5-1.6-.4-2.7-.2-3.3 0-.9.4-1.1.7-1.1 1.1-.1-.1-.3 0-.6.1s-.8.5-1.1 1.2c-.5 1.3-.4 3.1.6 4.8 4.2 7 11.7 1.8 9.3-4zm-8.2-1.6c.1.6.4 1 1.3 1.3.5.2 1.1.3 1.9.7.4.2.7.4 1 .8.1.1.1.2.2.3 0 .1.1.1.1.2.5 1.3-.5 3.5-3.2.7-.9-.9-1.4-2-1.4-2.8-.1-.6 0-1 .1-1.2z"/><path d="m77 23.9c-1.6-.4-2.7-.2-3.3 0-.9.4-1.1.7-1.1 1.1-.1-.1-.3 0-.6.1s-.8.5-1.1 1.2c-.5 1.3-.4 3.1.6 4.8.5.8 1.1 1.6 2 2.3.8.7 2.1 1.2 3.5 1.1.7-.1 1.4-.3 2-.7 3.5-2.5 3-8.4-2-9.9zm-.5 6.9c-.2.1-.6.1-1.2-.2-.5-.2-1.1-.7-1.5-1.2-.9-.9-1.4-2-1.4-2.8-.1-.5.1-.8.2-1.1.1.6.3 1 1.3 1.2.5.2 1.1.3 1.9.7 2.2 1.3 1.3 3.1.7 3.4z"/></g></g></g></svg>