<svg id="Layer_1" enable-background="new 0 0 136 136" height="512" viewBox="0 0 136 136" width="512" xmlns="http://www.w3.org/2000/svg"><g><g><path d="m97.2 117.8c0 2.6-.1 5.3-2 7.3-1.4 1.5-3.7 2.4-5.8 3-9.8 3.1-20.4 4.3-30.8 3.5-4.6-.3-9.2-1-13.7-2.1-.9-.2-1.8-.5-2.7-.7-1.1-.3-2.2-.7-2.9-1.5s-.7-1.9-.7-2.9c.3-24.9 3.9-49.9 10.6-74.1.4-1.4.8-2.9 1.2-4.3l1.5-.1 12.4-.5 14.5-.6c4.4 8.5 8 17.2 10.9 26.1 4.9 15.2 7.4 31.1 7.5 46.9z" fill="#d7df23"/></g><g><path d="m64.3 45.4c-.2.8-.5 1.5-1.1 2.2-10.6 12.4-12.2 27.6-14.5 43.2-1.8 12.8-3.4 25.7-3.9 38.7-.9-.2-1.8-.5-2.7-.7-1.1-.3-2.2-.7-2.9-1.5s-.7-1.9-.7-2.9c.3-24.9 3.9-49.9 10.6-74.1.9-1.5 1.8-3 2.8-4.4 1.3-1.8 2.7-3.6 4.2-5.4 3.6-4.2 9.3.4 8.2 4.9z" fill="#f2f240"/></g><g><path d="m80.2 44c-.7.3-1.4.4-2.2.4-7.1.7-14.2 1.5-21.3 2.2-2.4.3-4.8.5-7.2.2-.7-.1-1.5-.3-2.1-.6-.3-.2-.6-.4-.8-.8-.5-.8-.5-1.9-.3-2.9.6-4 1.9-7.8 3.7-11.4h1.5c1.8-.2 3.7-.3 5.5-.4h.1c4.9-.2 9.8 0 14.6.6.2 0 .3 0 .4.1 3.3.4 6.8 1.2 9 3.7 2.5 2.7 2.3 7.6-.9 8.9z" fill="#e6e7e8"/></g><g><path d="m72.2 31.5v.7l-15.2-1v-.1c0-.1 0-.1 0-.2 1.7-9 4.5-17.7 8.4-26 .3-.6 1.2-.6 1.5 0 .8 1.8 1.5 3.6 2.2 5.5 2.3 6.8 3.4 14 3.1 21.1z" fill="#e6e7e8"/></g><g><path d="m97.2 117.8c0 2.6-.1 5.3-2 7.3-1.4 1.5-3.7 2.4-5.8 3-9.8 3.1-20.4 4.3-30.8 3.5 4-1.4 7.2-2.7 10.7-5.1 3.4-2.3 6.7-5 9.7-7.9 1.4-1.3 2.7-2.8 3.8-4.4 1.5-2.2 2.5-4.8 3.4-7.3 3.2-10.1 1.7-19.9-.4-30-.7-3.2 1.5-5.5 4-6.1 4.8 15.3 7.3 31.2 7.4 47z" fill="#cec802"/></g><g><path d="m69.1 10.4c-2.5 23.2-12 20.6-12.1 20.7-2.7 3.4-4.3 7.2-5.1 11.5-.4 2.1-2.5 3.5-4.5 3.6-.3-.2-.6-.4-.8-.8-.5-.8-.5-1.9-.3-2.9.6-4 1.9-7.8 3.7-11.4h1.5c1.8-.2 3.7-.3 5.5-.4 1.7-9 4.5-17.7 8.4-26 .3-.6 1.2-.6 1.5 0 .8 2 1.6 3.8 2.2 5.7z" fill="#f2f3f4"/></g><path d="m80.5 46c.1 0 .1 0 .2-.1 1-.3 1.9-.9 2.5-1.7.7-.8 1.1-1.6 1.3-2.5.5-1.7.4-3.3 0-4.7-1.2-4.4-5.6-6.5-10.1-7.3-.3 0-.6-.1-.8-.1 0-.1 0-.2 0-.3.9-6.3-.9-15.3-3.1-21-2.5-6.5-5-8.5-7.7-2.2-.2.4-.4.9-.5 1.3-1.8 4.8-3.3 9.5-4.4 15-.6 3-.9 5.4-1 7-.3 0-.6.1-.9.1-4.3.6-4.4 1.2-4.4 1.8.1.6.3 1 4.5 1.1 4.1.2 12.2.4 17.7 1.4 2.8.5 6.1 1.7 6.8 4.4.2.8.3 1.7 0 2.4-.1.4-.3.7-.5 1s-.5.4-.8.6c-.5.2-26.4 3.5-28.7 3.4-.7 0-1.3-.1-1.9-.2-3.9-1.1 1.8-13.9 1.3-14.2s-4.7 7.2-5 12.5c0 .8 0 1.8.7 2.6.6.9 1.6 1.3 2.4 1.6.5.1.9.2 1.4.3-.2.5-.4 1.1-.6 1.7-11.9 35.7-12 73.7-12 74.4 0 .5 0 1.1.1 1.8s.3 1.4.8 2.1 1.1 1.1 1.7 1.4c9.1 4.8 37.9 6 53.2-.6 1.5-.6 3.1-1.6 4.3-3 1.1-1.3 1.7-2.9 1.9-4.3.3-1.4.3-2.8.3-4-.7-33.5-11.2-61.2-18.7-71.7zm-22.6-16.7c1.7-4.9 3-9.9 7.7-20.4l.2-.5.2-.3.1-.1s.1-.1.1 0v.1l.2.4c.1.4.3.7.4 1.1 3.1 8.2 3.6 16.1 4.1 19.7-.3 0-.6-.1-.9-.1-4-.2-8.2-.3-12.1.1zm35.9 94.2c-2.6 3.3-27.5 10.4-51.7 3.5-.8-.2-1.5-.6-1.6-.8-4.7-3.1 7.1-65.1 9.5-77.9h.5c2.4.2 4.7.1 25.5-1.7.7-.1 1.5-.1 2.2-.2.2 0 .5 0 .7-.1v.1c2.6 8.6 15.5 30.9 16.2 71.3 0 2.4-.2 4.5-1.3 5.8z" fill="#202020"/></g></svg>