<svg id="Layer_1" enable-background="new 0 0 136 136" height="512" viewBox="0 0 136 136" width="512" xmlns="http://www.w3.org/2000/svg"><g><g><path d="m116.1 40.4c-3.2 5.9-7.9 11.1-12.1 16.2-2.1 2.6-4.3 5.2-7.1 7s-6.4 2.7-9.5 1.6c-3.9-1.5-7.8-5.9-11.3-3.7-1.1.7-1.8 2-2.4 3.2-3.2 6.6-6.8 12.3-10.7 17.8-2.5 3.5-5.1 6.8-8 10.3-7.6 9.3-12.8 21.1-20 30.9-2 2.7-4.2 5.5-7.3 6.8s-7.3.5-8.7-2.6c-.6-1.3-.6-2.8-.2-4.2.4-1.6 1.2-3.1 2-4.5 11.7-20.2 26-38.2 39.6-57.4.1-.2.3-.4.4-.5.9-1.3 1.8-2.6 2-4.2.2-1.9-.3-3.6-1.2-5.3-1.1-2.2-2.8-4.2-4.2-6.4-.3-.5-.7-1.1-1-1.6-1.4-2.5-2.2-5.3-1.1-8.7.7-2.2 2.1-4.1 3.6-6 6.8-8.7 18.7-28.2 32-24.6 4.4 1.2 8.4 3.4 12 6.3 4.9 4 8.9 9.3 11.6 14.8.5 1 1 2 1.4 2.9 1.7 4 2.6 7.7.2 11.9z" fill="#c2b59b"/></g><g><path d="m65.2 35.9c4.2-7.2 9.8-13.9 16.5-19.9.7-.6 1.5-1.3 2.4-1.6 1-.3 2.2-.3 2.7.4.3.4.3.9.3 1.5-.2 2-1.2 4-2.4 5.9-3.5 5.7-8.2 11-13.8 15.6-1 .8-2.1 1.6-3.4 1.9s-2.9-.1-3.2-1.2" fill="#e0d2b8"/></g><g><path d="m78.3 42.8c4.2-7.2 9.8-13.9 16.5-19.9.7-.6 1.5-1.3 2.4-1.6s2.2-.3 2.7.4c.3.4.3.9.3 1.5-.2 2-1.2 4-2.4 5.9-3.5 5.7-8.2 11-13.8 15.6-1 .8-2.1 1.6-3.4 1.9s-2.9-.1-3.2-1.2" fill="#e0d2b8"/></g><g><path d="m88.3 50.4c4.2-7.2 9.8-13.9 16.5-19.9.7-.6 1.5-1.3 2.4-1.6 1-.3 2.2-.3 2.7.4.3.4.3.9.3 1.5-.2 2-1.2 4-2.4 5.9-3.5 5.7-8.2 11-13.8 15.6-1 .8-2.1 1.6-3.4 1.9s-2.9-.1-3.2-1.2" fill="#e0d2b8"/></g><g><path d="m21 119.3c11.5-20.3 25.8-38.3 39.4-57.5-2.3 9.4-7.8 18.6-12.2 26.2-7 12-16.5 22-23.9 33.6-1.3 2-3.4 2.6-5.2 2.2.3-1.5 1.1-3.1 1.9-4.5z" fill="#d1c6b0"/></g><g><path d="m61.4 50c.1.6.1 1.2.1 1.8-1.1-2.2-2.8-4.2-4.2-6.4 2 .5 3.8 2.1 4.1 4.6z" fill="#d1c6b0"/></g><g><path d="m102.8 10.7c-1.2.5-2.7.5-4.2-.3-5-2.7-10.2-4-15.6-1.7-4.4 1.9-8 5.3-11.3 8.7-6.9 7.3-12.4 15.7-15 25.5-.1.3-.2.6-.3.8-1.4-2.5-2.2-5.3-1.1-8.7.7-2.2 2.1-4.1 3.6-6 6.8-8.7 18.7-28.2 32-24.6 4.3 1.2 8.3 3.4 11.9 6.3z" fill="#d1c6b0"/></g><g><path d="m116.1 40.4c-3.2 5.9-7.9 11.1-12.1 16.2-2.1 2.6-4.3 5.2-7.1 7s-6.4 2.7-9.5 1.6c-3.9-1.5-7.8-5.9-11.3-3.7-1.1.7-1.8 2-2.4 3.2-3.2 6.6-6.8 12.3-10.7 17.8-4.6-9.9 5.8-24.1 16-25.6 3.5-.5 6.7.5 10.2.6 4.5.1 7.1-2.4 10.2-5.3 5.6-5.3 12.1-11.5 13.2-19.6.3-2.1 1.5-3.5 3-4.2 2 4.1 2.9 7.8.5 12z" fill="#b2a38a"/></g><g fill="#202020"><path d="m116.1 25.3c-1.4-2.8-3-5.5-4.9-8-7.2-9.3-20.2-18.7-31.5-12.4-8.4 4.6-15.2 14.8-20.7 22.4-1.3 1.8-2.7 3.5-3.7 5.5-.5 1-.9 2.1-1 3.1-.8 4.3.8 7.4 4.5 12.6 1.9 2.6 4.3 6.1 3.5 9.3-.2.8-.5 1.4-.7 1.9-.5 1-.8 1.5-.8 1.5.1 0 .5-.4 1.1-1.3.3-.5.7-1.1 1-1.9 1.1-3.4-1.1-7.3-3.1-10.2-3.2-4.8-5.8-9-2.9-14.2.9-1.7 2.3-3.3 3.7-5.2 5.4-7 12.3-17.1 20.3-21.3 10-5.3 21.6 3.8 27.7 12.1 1.7 2.4 3.2 4.9 4.5 7.6 2.1 4.3 3.7 7.8 2 11.8-1.3 3.1-5.3 8.2-7.5 11-2 2.4-3.9 4.7-5.9 7.1-3.3 4-9.2 6.1-10.3 6.3-1 .2-2.1 0-3.2-.6-2.3-1.1-4.8-3.3-8.4-3.9-5.2-.8-7.2 3.8-13.2 12.3-6.1 9.1-11.6 17.5-16.4 24.9-4.4 6.8-8.4 13.2-11.9 19.4-3.1 5.4-4.9 10.1-9.8 13-.6.3-1.2.6-1.7.8-1.1.3-2.3.3-3.4.1-1.1-.3-1.8-.9-2.2-1.6-.4-.8-.5-1.7-.2-2.8.2-1.1.7-2.2 1.3-3.3 6.2-11.2 13.2-21.5 20.5-32 3.7-5.3 6.7-9.5 9.1-13 9.6-13.8 9.5-14.7 9-15s-1.2 0-11.4 13.3c-2.5 3.3-5.7 7.5-9.5 12.7-7.6 10.4-14.8 20.9-21.2 32.1-.7 1.3-1.3 2.6-1.7 4.3-.4 1.6-.4 3.7.6 5.5.9 1.9 2.8 3.1 4.6 3.6s3.8.5 5.6-.1c8.8-3 8.8-8.8 25.7-34.9 4.7-7.3 10.2-15.8 16.2-24.8 7.7-11 7.4-11.6 11-10.3.6.2 1.1.5 1.7.8 1.2.7 2.4 1.5 4 2.2.8.4 1.6.7 2.6.8.9.2 2 .2 2.9 0 1.8-.3 8.3-2.6 12.5-7.6 1.9-2.4 3.9-4.8 5.8-7.1 1.9-2.4 3.9-4.9 5.6-7.6.4-.7.8-1.4 1.2-2.1.2-.4.4-.7.6-1.1s.4-.8.6-1.2c2.1-5.1.3-9.5-2.2-14.5z"/><path d="m67.5 41.1c1.1-.1 2.4-.5 3.6-1.3.6-.4 1.2-.8 1.8-1.3s1.3-1 2-1.6c5-4.4 13.1-13.6 14.1-19.8 0-.2 0-.3.1-.6 0-.3 0-.5 0-.8 0-.5-.2-1.1-.4-1.5-.5-.9-1.5-1.5-2.6-1.7-.5-.1-1.1-.1-1.6 0-.4.1-.9.2-1.3.4-5.8 2.4-19.7 22.2-18 23.1.5.3 4.5-5.8 10.7-12.1 1-1 7.1-7 8.7-7.6.2-.1.3-.1.4-.1h.1s.1 0 .1.1v.1c0-.1 0 .1 0 .2-.9 4.9-9 13.9-12.9 17.7-1.2 1.2-2.4 2.2-3.2 2.9s-1.5 1-2 1.2-.9.2-1.2.2-.5 0-.6 0c-.3 0-.6 0-.8 0-.1 0-.3.1-.4.2s-.2.3-.1.7c.2.5 1.2 1.7 3.5 1.6z"/><path d="m78.3 42.8c.4.2 14.6-18 19.4-19.7.2-.1.3-.1.4-.1h.1s.1 0 .1.1v.1c0-.1 0 .1 0 .2-.9 4.9-9 13.9-12.9 17.7-1.2 1.2-2.4 2.2-3.2 2.9s-1.5 1-2 1.2-.9.2-1.2.2-.5 0-.6 0c-.3 0-.6 0-.8 0-.1 0-.3.1-.4.2s-.2.3-.1.7c.2.7 1.3 1.8 3.5 1.8 1.1-.1 2.4-.5 3.6-1.3.6-.4 1.2-.8 1.8-1.3s1.3-1 2-1.6c5-4.3 13.2-13.5 14.2-19.8 0-.2 0-.3.1-.6 0-.3 0-.5 0-.8 0-.5-.2-1.1-.4-1.5-.5-.9-1.5-1.5-2.6-1.7-.5-.1-1.1-.1-1.6 0-.4.1-.9.2-1.3.4-.8.3-1.4.8-1.9 1.2-8.9 7.3-17.2 21.2-16.2 21.7z"/><path d="m88.3 50.4c.5.3 4.5-5.8 10.7-12.1 1.2-1.2 7.4-7.4 9.1-7.7h.1s.1 0 .1.1v.1c0-.1 0 .1 0 .2-.9 4.9-9.3 14.2-12.9 17.7-1.2 1.2-2.4 2.2-3.2 2.9s-1.5 1-2 1.2-.9.2-1.2.2-.5 0-.6 0c-.3 0-.6 0-.8 0-.1 0-.3.1-.4.2s-.2.3-.1.7c.2.7 1.3 1.8 3.5 1.8 1.1-.1 2.4-.5 3.6-1.3.6-.4 1.2-.8 1.8-1.3s1.3-1 2-1.6c6.2-5.3 10.9-11.6 13.1-16.2.5-1.1 1-2.2 1.2-3.6 0-.2 0-.3.1-.6 0-.3 0-.5 0-.8 0-.5-.2-1.1-.4-1.5-.5-.9-1.5-1.5-2.6-1.7-.5-.1-1.1-.1-1.6 0-.4.1-.9.2-1.3.4-.8.3-1.4.8-1.9 1.2-9.1 7.2-17.3 21.1-16.3 21.7z"/></g></g></svg>