<svg id="Layer_1" enable-background="new 0 0 136 136" height="512" viewBox="0 0 136 136" width="512" xmlns="http://www.w3.org/2000/svg"><g><g><path d="m116.7 27.2v.6c-.2 2.1-.6 4.2-1.8 5.9s-3.2 3-5.2 2.9c-2.7-.2-4.8-2.6-5.6-5.2-.9-2.6-.9-5.4-1.4-8s-1.7-5.5-4.1-6.7c-2.1-1.1-4.9-.7-6.9.7-4 2.8-5.6 9.4-6.6 13.9-1.3 5.9-1.6 12-1.6 18.1 0 9.6 1.2 19.6 2.3 29.2.9 8.4 2 17.1.8 25.5-1.3 8.6-5.1 16.8-12.8 22-9.7 6.6-24.8 7.7-35.2 2.4-10.2-5.2-21.6-16.5-17.8-29.2 2-6.8 11.3-5.6 16.5-4.2 1.5.4 3.1.9 4.6 1.5 7.3 2.7 15.8 4.6 22.3 2.3 8.2-2.9 10.1-11.1 10.4-18.5.3-6.1 0-12.1-.4-18.1-1.1-15.8-3-30.9 2.2-44.3 1.7-4.3 4.2-8.5 9.1-11.3 8.8-5 22.2-3.1 27.7 5.8 2.5 4.3 3.8 9.6 3.5 14.7z" fill="#a97c50"/></g><g><path d="m102.3 5.1c-8 1.9-15.3 6.5-20 13.6-8 11.9-7.7 27.1-7.6 40.9 0 1-.2 1.9-.7 2.6-1.1-15.8-3-30.9 2.2-44.3 1.7-4.3 4.2-8.5 9.1-11.3 5.6-3.2 11.6-3.3 17-1.5z" fill="#bc936f"/></g><g><path d="m36.9 95.4c.4.3.6.9-.1 1.7-.4.5-1 .8-1.7 1-1.9.6-4 .7-5.8 1.5-1.9.9-3.5 2.5-4.2 4.5-.3.8-.5 1.7-.8 2.4-.4.8-1.1 1.5-1.9 1.5-1.4.1-2.4-1.4-2.6-2.8-.6-4 2.1-9.4 5.9-10.9 1.7-.7 3.7-.7 5.5-.6 1.4.1 2.8.7 4.2 1 .5.2 1.1.4 1.5.7z" fill="#bc936f"/></g><g><path d="m86.5 103.9c-1.3 8.6-5.1 16.8-12.8 22-5.4 3.7-12.2 5.3-18.7 5.1-6.6-.2-12.9-.4-19-3.2-1.4-.7-2.8-1.3-4.2-2-.8-.4-1.6-.8-1.8-1.7-.1-.8.5-1.6 1.3-1.9 2.4-.8 5.9.8 8.2 1.2 2.9.5 5.9.8 8.8.8 5.9 0 11.8-1.3 16.9-4.3 7.7-4.6 13.3-12.5 15.1-21.3 1.1-5.6.2-11.4-.1-17.1-.4-6.5-.3-13.1.4-19.5.5-4.4 1.2-8.7 2.7-12.8 0 9.6 1.2 19.6 2.3 29.2 1.1 8.5 2.2 17.2.9 25.5z" fill="#996d45"/></g><g><g><path d="m85.3 6.6c-.1-.1-.1-.3.2-.6s.9-.8 2.2-1.4 3.2-1.4 6.2-1.9c7.4-1 15 1.5 19.2 7.6 4.1 5.7 5.3 14.9 3.9 20.4-.3 1.2-.7 2.5-1.6 3.7-.4.6-.9 1.2-1.6 1.7-.3.3-.7.5-1.1.7s-.8.3-1.2.4c-.8.2-1.8.2-2.6 0-.9-.2-1.6-.5-2.3-1-5.6-3.6-4.2-11.2-6.7-15.7-.6-1.1-1.4-2-2.4-2.6-1-.5-2-.7-3.1-.4-.6.1-1.1.4-1.6.8s-1 .8-1.4 1.3-.8 1.1-1.1 1.7c-.3.7-.7 1.5-1 2.3-2.6 6.6-3.6 14.1-3.9 21.2-.1 3.9 0 7.9.4 12.1.8 8.4 2.6 17.3 3.6 27.1.5 5.3.8 11.2.1 17.4-1.2 10.9-5.5 19.7-14.4 25.8-3 2-6.4 3.6-9.9 4.6-16.2 4.4-33.3-1.2-41.5-11.8-2.4-3.2-4-6.9-4.8-10.8-.4-1.9-.6-4-.4-6 .5-7.4 4.6-11.8 12.6-11.3 4 .3 7.6 1.5 11 2.8 3.3 1.3 6.7 2.3 10.1 2.9s6.8.7 10-.1c3.1-.8 5.8-2.6 7.5-5.2 4.4-6.4 3.6-18.8 3.2-27.7-.3-6-.8-11.8-1-17.2s-.2-10.5.2-15.1 1.4-8.8 2.5-12.3 2.6-6.4 4.2-8.5 3.2-3.4 4.4-4.1c1.4-.6 2.1-.9 2.1-.8s-.6.5-1.6 1.3-2.5 2.2-3.9 4.3c-1.5 2-2.8 4.8-3.8 8.3s-1.8 7.5-2.1 12-.2 9.5.2 14.9c1.2 18.3 4.3 37.1-1.9 46.6-1 1.6-2.3 3-3.9 4.1s-3.3 1.9-5.2 2.4c-3.7 1-7.5.8-11.2.2s-7.2-1.6-10.7-2.9c-13.4-4.8-21.7-3-18.7 10.8.7 3.4 2.2 6.6 4.2 9.3 6.8 8.6 21.7 14.7 37.6 10.2 3.2-1 6.1-2.3 8.7-4.1 7.9-5.5 11.6-13.4 12.6-23 1.5-13.9-2.3-29.8-3.7-43.6-.5-4.3-.6-8.6-.4-12.6.2-7.7 1.4-15.5 4.2-22.6.3-.8.7-1.7 1.1-2.5.5-.9 1-1.8 1.6-2.5.6-.8 1.4-1.5 2.2-2.1.9-.5 1.8-1 2.8-1.3 2-.6 4.3-.2 6.1.8 7.8 4.7 4.7 20.5 11.3 19 .2 0 .3-.1.5-.2.1-.1.3-.1.4-.3.3-.2.6-.5.8-.8 3.1-4.4 1.5-15.2-2-20.3-3.5-5.4-10-7.5-16.4-7.2-2.8.2-4.6.7-5.9 1.1s-1.9.6-2.3.7c-.4.2-.5.1-.6 0z" fill="#202020"/></g></g><g><g><path d="m32.1 85.5c-.5.3-1 .5-1.6.1-.7-.3-1.5-1.3-3.6-2.8-1.1-.8-3.1-2-4.9-2.8-1.8-.9-3.5-1.4-3.5-2 0-.5 1.8-1 4.2-.8 2.3.1 5 1.1 6.5 2.2 2.8 1.9 3.6 3.7 3.7 4.6s-.4 1.2-.8 1.5z" fill="#202020"/></g></g><g><g><path d="m63.8 58.2c.4.4.7.8.2 1.8s-1.8 2.5-4.1 5.7c-1.3 1.7-3.2 4.5-4.6 7.1-1.4 2.5-2.4 4.8-3 4.6-.5-.1-.5-2.7.3-5.7.4-1.5 1-3.1 1.7-4.6s1.5-2.8 2.2-3.8c1.3-1.8 2.4-3 3.3-3.8s1.6-1.3 2.2-1.6c1-.5 1.4-.1 1.8.3z" fill="#202020"/></g></g><g><g><path d="m39.4 56.2c.6 0 1.1.1 1.4 1.1.4 1 .5 3.1 1.2 6.9.4 2.1 1 5.4 1.9 8.2.8 2.8 1.7 5.1 1.2 5.4s-2.3-1.5-3.9-4.2c-.8-1.4-1.5-2.9-2.1-4.5-.6-1.5-.9-3-1.2-4.2-.4-2.2-.5-3.8-.4-5.1 0-1.2.2-2.1.4-2.6.4-1 .9-1 1.5-1z" fill="#202020"/></g></g></g></svg>