<svg id="Layer_1" enable-background="new 0 0 136 136" height="512" viewBox="0 0 136 136" width="512" xmlns="http://www.w3.org/2000/svg"><g><g><path d="m129.5 93.1c-1.3 5.8-4.4 10.9-8.6 15-4 3.9-8.8 6.9-14 8.7-2.6.9-5.2 1.6-7.9 2.1-8.5 1.5-17.5 1-26.1-.5-14.6-2.6-28.9-7.8-40.8-16.6-2.6-1.9-5.1-4-7.5-6.3-6.3-6-11.5-13.1-15-21-1.2-2.6-2.1-5.2-2.9-7.9-2.8-9.9-2.5-21.6 4.2-29.7l-.3 1.4c1.7-8.2 8.2-14.8 15.8-18.3s16.3-4.2 24.7-3.6c18.5 1.3 36.4 8.8 50.6 20.6 10.1 8.4 18.3 18.9 23.7 30.9 1.6 3.5 2.9 7.2 3.8 11 1 4.7 1.3 9.5.3 14.2z" fill="#f3bd8e"/></g><g><path d="m101.7 37c-8.7-2.5-17.4-5-26.1-7.6-10.6-3.1-21.5-6.4-32.6-5.6-23.2 1.7-33.7 24.5-30.8 45.4.3 2.5-.9 4.4-2.6 5.4-1.2-2.6-2.1-5.2-2.9-7.9-2.8-10-2.5-21.7 4.2-29.8l-.3 1.4c1.7-8.2 8.2-14.8 15.8-18.3s16.3-4.2 24.7-3.6c18.5 1.2 36.4 8.8 50.6 20.6z" fill="#fcd1b1"/></g><g><path d="m47.8 35.1c-1.5 13.2-9.7 24.6-21.3 30.8-5.7 3-.6 11.7 5 8.6 14.9-8 24.4-22.7 26.2-39.4.9-6.4-9.2-6.4-9.9 0z" fill="#e8aa7c"/></g><g><path d="m82.6 50.3c-.3-6.4-10.3-6.4-10 0 .3 6.2-2.6 12.1-5.4 17.4-2.6 4.9-5.6 9.2-10.6 11.8-5.7 2.9-.7 11.6 5 8.6 6.5-3.3 10.9-9.1 14.2-15.4 3.6-6.8 7.2-14.4 6.8-22.4z" fill="#e8aa7c"/></g><g><path d="m101.4 65.7c-1.7 11.9-13.1 23.3-22.5 29.8-5.3 3.6-.3 12.3 5 8.6 6.4-4.4 12-9.5 16.8-15.7 4.4-5.7 9.3-12.8 10.3-20 1-6.3-8.7-9-9.6-2.7z" fill="#e8aa7c"/></g><g><path d="m129.5 93.1c-1.3 5.8-4.4 10.9-8.6 15-.8.6-1.5 1.2-2.4 1.8-5.9 4.1-12.6 7.1-19.5 9.1-8.5 1.5-17.5 1-26.1-.5-14.6-2.6-28.9-7.8-40.8-16.6-2.6-1.9-5.1-4-7.5-6.3.7-3.4 5.2-6.1 8.4-2.8 13.3 13.4 31.7 20.5 50.6 19 9.7-.8 19.3-4 27.6-9.1 8.7-5.4 13.5-13.4 17.3-22.7.2-.4.4-.8.7-1.2 1 4.8 1.3 9.6.3 14.3z" fill="#e8aa7c"/></g><g><g><path d="m10.5 38.3c-.1 0-.3-.1-.3-.5s-.1-1 .2-2.2.8-2.9 2-5.1c8.8-15.3 28.6-17.8 46.2-15.1 27 4.2 50.1 20.5 63.2 41.4 26.8 44.2-4.4 70.1-46.2 63.9-12.6-1.9-24.8-5.8-35.3-11.8-5.3-3-10.1-6.4-14.3-10.2-2.1-1.9-4.1-3.9-5.9-5.9s-3.5-4.2-5-6.3c-8.6-12-14.4-30.5-8-43.9.4-1 1-1.8 1.4-2.6.5-.7.9-1.3 1.2-1.7.8-.9 1.2-1.3 1.2-1.3.1 0-.3.6-.9 1.5-.3.5-.6 1.1-1 1.8-.3.8-.8 1.6-1.2 2.6-5.4 13.4.6 30.8 9.1 42.2 5.9 8.2 14.5 15.7 24.7 21.3 10.3 5.6 22.2 9.2 34.4 10.9 35.9 5 52.8-13.9 52.1-31.1-.3-9.5-4.9-19.1-9.8-27.2-12.4-19.8-34.2-35.6-60.3-39.9-16.5-2.7-34.1-1-43.6 12.7-1.3 2-2 3.4-2.5 4.4s-.7 1.6-.9 1.9-.3.3-.5.2z" fill="#202020"/></g></g><g><g><path d="m27.6 71.1c-.4-.4-.7-.8.6-2.7.3-.5.7-1 1.2-1.7s1.1-1.5 1.8-2.4c1.5-1.9 3.4-4.4 5.7-7.9 1.2-1.9 2.9-4.4 4.4-7.2 1.6-2.7 3.1-5.7 4.4-8.5 2.6-5.6 4.3-10.3 4.9-10.2.5.1-.2 5.2-2.2 11.3-1 3-2.3 6.2-3.8 9.2-1.4 3-3 5.6-4.4 7.6-2.4 3.7-4.5 6.2-6.2 8.1-.8.9-1.6 1.7-2.2 2.3s-1.2 1.1-1.6 1.4c-1.8 1.4-2.2 1.1-2.6.7z" fill="#202020"/></g></g><g><g><path d="m57.9 79.8c-.4-.4-.7-.8.3-2.3.2-.4.5-.8.9-1.3s.9-1.2 1.4-1.9c1.1-1.5 2.6-3.4 4.4-6.2.9-1.5 2.2-3.5 3.3-5.6 1.1-2.2 2.2-4.5 3.2-6.7 1.8-4.4 2.9-8.2 3.4-8.2.5.1.5 4.1-.7 9-.6 2.4-1.5 5.1-2.5 7.5s-2.2 4.6-3.2 6.2c-1.9 3-3.6 5-4.9 6.4-.7.7-1.3 1.3-1.8 1.8s-1 .8-1.4 1.1c-1.6 1-2 .7-2.4.2z" fill="#202020"/></g></g><g><g><path d="m75 100.9c-.2-.5-.3-1 1.5-2.4.5-.3 1-.8 1.8-1.3.4-.2.8-.5 1.2-.8s.9-.7 1.4-1c2-1.5 4.6-3.5 7.7-6.7 1.6-1.8 3.7-4.1 5.6-6.8s3.6-5.7 5-8.7c1.4-2.9 2.3-5.7 3-7.7.6-2 1.1-3.3 1.4-3.3s.4 1.4.2 3.6-.7 5.3-1.9 8.5c-1.1 3.2-2.7 6.6-4.5 9.7-1.8 3-4 5.6-5.8 7.5-3.3 3.4-6.2 5.6-8.5 7-.6.4-1.1.7-1.6 1s-1 .5-1.4.7c-.9.4-1.5.7-2.1.9-2.5.7-2.8.3-3-.2z" fill="#202020"/></g></g></g></svg>