<svg id="Layer_1" enable-background="new 0 0 136 136" height="512" viewBox="0 0 136 136" width="512" xmlns="http://www.w3.org/2000/svg"><g><g><path d="m112.8 36.8c-.1 3.2-.5 6.5-1.3 9.6-1.5 5.7-4.5 11.2-9.4 14.6-2.5 1.7-5.4 2.9-8.4 3.6-15.6 3.8-33.6-4.3-40-18.6-.1-.2-.2-.4-.3-.6-4.2-10-2.4-21.9 3.8-30.3 2.4-3.3 5.6-6.1 9.3-7.9 3-1.5 6.4-2.5 10.1-2.7h1.3c10.5-.2 21.3 3.7 27.9 11.5 2.2 2.6 3.9 5.5 5 8.5 1.4 3.9 2 8.1 2 12.3z" fill="#f8a3bc"/></g><g><path d="m71.8 65c-9.6 20.6-20.2 40.7-31.8 60.3-.8 1.4-1.7 2.8-3.1 3.8-2.2 1.6-5.2 1.5-8 1.3-1.5-.1-3.2-.2-4.4-1.2-.5-.4-.8-.9-1-1.4-.7-2 .3-4.6 1.3-6.6 11.4-21.6 24-42.7 37.6-63.1l6.2 4.6z" fill="#ffefe1"/></g><g><path d="m110.7 24.4c-1.7 1.1-4 1.2-5.9-.7-11-10.9-27.2-12.5-40.3-4.4-3.7 2.3-7.1-.8-7.4-4.2-.1-1.6.5-3.4 2.3-4.5 2.2-1.4 4.6-2.5 6.9-3.5 3.7-1.5 7.6-2.4 11.4-2.7 10.5-.2 21.3 3.7 27.9 11.5 2.3 2.7 4 5.5 5.1 8.5z" fill="#ffc5d8"/></g><g><path d="m112.8 36.8c-.1 3.2-.5 6.4-1.3 9.6-1.5 5.7-4.5 11.2-9.4 14.6-2.5 1.7-5.4 2.9-8.4 3.6-15.6 3.8-33.6-4.3-40-18.6-.1-.2-.2-.4-.3-.6 1-.2 2.2-.1 3.4.7 9.5 6.2 19.5 12.4 31.4 10.5 10.5-1.6 18.8-8.6 23.3-18.1.3-.7.7-1.3 1.3-1.7z" fill="#f489ac"/></g><g><path d="m71.7 65.1c-9.6 20.6-20.2 40.7-31.8 60.2-.8 1.4-1.7 2.8-3.1 3.8-2.2 1.6-5.2 1.5-8 1.3-1.5-.1-3.2-.2-4.4-1.2-.5-.4-.8-.9-1-1.4 0 0 11-9 12-10 3.7-3.9 7.2-8.1 9.7-12.8 6-11.6 12.4-22.9 18.6-34.3 1.3-2.1 5.2-8.9 8-5.6z" fill="#ffe1cc"/></g><path d="m114.3 32.5c-.4-3.7-1.4-6.6-2.3-8.8-2-4.4-3.8-6.3-4.8-7.1-1-.9-1.2-.7-1.5-.6-.2.2-.4.4.2 1.5.5 1.1 1.9 3.1 3.3 7.2.7 2.1 1.4 4.7 1.7 8.1.1 1.7.1 3.5 0 5.6-.1 1.4-.3 2.8-.6 4.3h-.1c-.5 0-1.2.3-2.6.7-9.8 2.9-22.1-1.8-30.7-7-7.4-4.5-13.8-11-17.7-16.9-.7-1.1-1-2.1-1.1-2.8 1.7-2.5 3.8-4.8 6.2-6.5 2.5-1.8 5.2-3 8-3.7s5.6-.9 8.3-.8c5.4.1 10.2 1.4 14 3 1.9.8 3.5 1.7 4.9 2.6s2.5 1.7 3.4 2.5c.4.4.8.7 1.2 1 .3.3.6.6.8.8.5.4.7.6.8.6s-.1-.3-.5-.8c-.2-.3-.4-.6-.7-.9s-.7-.7-1.1-1.2c-.8-.9-1.9-1.8-3.3-2.9-1.4-1-3-2.1-5-3-3.9-1.9-8.9-3.5-14.6-3.8-2.8-.2-5.9-.1-9 .6s-6.2 2-9 3.9c-5.6 3.8-9.9 10-11.9 16.8-3.6 12.1-.2 25.1 10.9 34.1-1.2 1.4-3.4 4.4-6.2 8.5-16.1 23.2-31.6 51.5-32.8 54.3-5.4 12.8 13.1 14.2 18.6 5.5 6-10 13.8-23.9 20.5-37.2 3.9-7.8 6.4-13.2 7.9-16.9 3.1-7.4 2.7-7.9 2.2-8.1s-1.1-.1-4.8 6.9c-1.9 3.5-4.6 8.7-8.7 16.4-8.5 16-13.5 24.7-20.6 36.8-3.1 5.1-14.9 5.7-11.7-1.8.9-2 11.6-22.9 30.7-54.9 2.6-4.3 4.4-7.4 5.3-9.1.8.6 1.5 1.2 2.3 1.7 2.6 1.8 5.4 3.1 8.1 4.1 14.1 4.6 25.6 1.7 31.8-3.2 5-4 8.1-10 9.4-16.2.6-2.6.9-5 1-7.2.1-2.3 0-4.3-.2-6.1zm-12.6 26.3c-5.3 4.1-15.5 6.6-28 2.5-2.4-.9-4.9-2.1-7.3-3.7-11.7-7.9-15.8-20.1-12.5-32.2.7-2.7 1.8-5.2 3.2-7.5.1.7.3 1.4.6 2.1 2.1 5.1 8.5 13.6 17.1 19.4 9.1 6.1 24.7 11.8 33.9 6.5.4-.2.7-.4 1-.6-1.3 5.3-3.8 10.3-8 13.5z" fill="#202020"/></g></svg>