<svg id="Layer_1" enable-background="new 0 0 136 136" height="512" viewBox="0 0 136 136" width="512" xmlns="http://www.w3.org/2000/svg"><g><g><path d="m62 118.9c-1.5 4.8-7.6 6.6-12.9 7.3-10.2 1.3-20.6 1.3-30.8.1-2-.2-4-.6-5.8-1.2-2-.7-3.7-1.7-4.9-3.3-1.8-2.4-2-5.6-2-8.7-.1-6.9.1-13.7.4-20.6l50.6-4.6c2.4 1.1 3.5 3.5 4 6.1.2 1.2.4 2.4.5 3.5.4 5.5.8 11 1.2 16.5 0 1.6.1 3.3-.3 4.9z" fill="#662d91"/></g><g><path d="m55.5 98.4c-9 7.3-39.2 9.4-47.6-.6-.5-.5-.8-1.1-1.2-1.6-10.9-16.5 37.6-15.9 46.6-12 .4.2.8.4 1.3.6 1.5.8 2.9 1.9 3.8 3.4 1.8 3.4.1 7.8-2.9 10.2z" fill="#f1f2f2"/></g><g><path d="m118.7 106.9c-1.4 5.1-6.5 6.6-10.8 7.1-8.4.8-16.8.3-25.1-1.5-2.7-.6-5.7-1.6-7.6-3.9-.4-.4-.7-.9-1-1.5-1.4-2.7-1.4-6.1-1.3-9.3.2-7.3.6-14.6 1.2-21.9l41.4-2.3c2.3 1.5 3 4.9 3.2 8.3 0 .7.1 1.4.1 2.1.1 5.9.2 11.8.3 17.6 0 1.8 0 3.6-.4 5.3z" fill="#662d91"/></g><g><path d="m114.2 84.7c-7.3 7-30.1 7.9-37.8-1.8-.3-.4-.7-.9-.9-1.4-9.5-16.5 16.8-17.3 30.6-14.4 3.1.6 5.5 1.5 6.8 2.3 1.6 1 3.2 2.5 3.9 4.5 1.5 3.8 0 8.3-2.6 10.8z" fill="#f1f2f2"/></g><g><path d="m21.5 71.8c9-18.3 18.7-36.3 29-54 1.9-3.3 4-6.7 7.5-8.4 1.4-.7 3.2-1 4.5-.1 2.4 1.6 1.2 5.1-.3 7.5-9.8 16.3-20 32.4-30.5 48.3-2.7 4.1-6.2 8.6-11.3 8.9" fill="#c2b59b"/></g><g><path d="m46.8 61.3c22.6-9.6 45.4-18.4 68.3-26.5 4.2-1.5 8.8-3 12.6-1.8 1.5.5 3 1.5 3.1 3.3.1 3.2-3.9 5.5-7.1 6.5-21.3 7.2-42.7 13.9-64.1 20.2-5.5 1.6-11.9 3-15.4-.6" fill="#c2b59b"/></g><g><path d="m62 118.9c-1.5 4.8-7.6 6.6-12.9 7.3-10.2 1.3-20.6 1.3-30.8.1-2-.2-4-.6-5.8-1.2 9-.5 17.8-2 26.4-4.7 4.6-1.4 11.2-3.1 14.8-6.3 3.3-3 1.5-10.9 1.4-14.9-.1-3.4 2.7-5.2 5.5-5.2.2 1.2.4 2.4.5 3.5.4 5.5.8 11 1.2 16.5 0 1.6.1 3.3-.3 4.9z" fill="#562382"/></g><g><path d="m118.7 106.9c-1.4 5.1-6.5 6.6-10.8 7.1-8.4.8-16.8.3-25.1-1.5-2.7-.6-5.7-1.6-7.6-3.9 1.1-1.3 2.7-1.9 4.8-1.1 8 3.1 17.1 1.8 25-1 9.1-3.3 6.4-12.3 6.8-19.9.2-3.9 4-5.4 6.8-4.6 0 .7.1 1.4.1 2.1.1 5.9.2 11.8.3 17.6.1 1.7.1 3.5-.3 5.2z" fill="#562382"/></g><g><path d="m54.5 84.9c-1.1.8-2.5 1.2-4.2.8-6.6-1.4-13.3-1.6-20-.3-5.6 1.1-14.4 3.3-17.5 8.4-1.5 2.4-3.9 2.9-6.1 2.4-10.9-16.5 37.6-15.9 46.6-12 .4.2.8.5 1.2.7z" fill="#fff"/></g><g><path d="m100.1 73.6c-3.9-.9-7.8-1.2-11.7-.2-2.9.7-9 2.7-9.5 6.2-.3 1.8-1.2 2.9-2.5 3.4-.3-.4-.7-.9-.9-1.4-9.5-16.6 16.8-17.4 30.6-14.5.9 3.3-1.7 7.6-6 6.5z" fill="#fff"/></g><g fill="#202020"><path d="m62.7 97.6c-.2-2.2-.6-4.2-1.2-5.6-.3-.7-.6-1.3-.9-1.8-.2-1.2-.7-2.1-1.2-2.9-1.1-1.5-2.2-2.2-3.1-2.7-.9-.4-1.5-.6-1.9-.7-.9-.2-1 .1-1.1.3-.1.3-.2.5.4 1.1.3.3.7.6 1.3 1.2.4.4.9.9 1.4 1.5-.1.2-.1.5.3 1 .1.2.3.4.5.6.3.9.3 2.1-.1 3.4-.3.9-.8 1.8-1.6 2.7-6.5 7.7-39.6 10.8-47.4-.7-1.1-1.6-1.5-3.2-1-4.5 1.6-4.1 11.7-5.9 16.1-6.6 8.2-1.1 15.8-1 21.3-.7 2.7.2 4.9.4 6.4.7 1.5.2 2.3.5 2.4.3.1-.1-.7-.6-2.2-1.1s-3.7-1-6.5-1.5c-5.5-.8-13.2-1.3-21.7-.6-6.3.6-16.5 2.2-19.1 8-.6 1.4-.7 3-.4 4.3.3 1.5.9 2.7 1.6 3.7 0 .1.1.1.1.2-.1 1.1-.2 2.4-.3 3.8-.9 11.7-1 17.4 1.1 20.9 4.6 8.1 27.3 7.6 36.5 7 6-.4 13.6-.9 18.3-4.7 1.1-.9 2.1-2.1 2.7-3.4s.9-2.8.9-4c.1-2.4-1.4-16.8-1.6-19.2zm-2.9 21.4c-.3.7-.9 1.4-1.7 2-6.3 5.1-45.1 6.9-49.8-.6-1.7-2.6-1.7-6.3-1.9-19.4 0-.8 0-1.5 0-2.1.3.3.6.7.9 1 8.9 9.4 35.8 8.1 47.2 1.5.4-.2.8-.5 1.1-.7.4-.3.7-.5 1.1-.8.7-.6 1.3-1.2 1.8-1.9.3-.4.6-.9.9-1.3 0 .4 0 .8.1 1.2.5 17.2 1.4 18.7.3 21.1z"/><path d="m120.4 83.5c-.1-2.2-.4-3.9-.8-5.4-.2-.6-.3-1.1-.5-1.5-.1-1.5-.5-2.8-1.1-3.7-.8-1.4-1.6-2.2-2.3-2.7s-1.2-.8-1.6-.9c-.8-.2-.9 0-1.1.2s-.2.5.2 1.1c.2.3.5.7.9 1.2 2.7 3.7 2.1 8.6-1.2 11.6-4.7 4.2-14.6 5-20.9 4.4-5.2-.6-10.9-2.2-14.1-6.3-.2-.3-.4-.6-.7-1l-.6-1.1c-2.4-4.8-1.6-8.4 5.3-10.6 1.7-.5 3.5-.9 5.2-1.2 7.1-.9 13.7-.4 18.4.2 2.4.3 4.2.8 5.5 1.1 1.3.4 1.9.7 2 .5.1-.1-.5-.7-1.7-1.3s-3.1-1.3-5.5-1.9c-4.8-1.2-11.5-2.1-19.1-1.5-1.9.2-3.8.5-5.8 1-7.9 2.3-11.4 7.4-7.8 15.4v.1c-.1.8-.2 1.7-.3 2.7-.3 2.5-.5 5.4-.8 8.7-.2 3.3-.8 6.8-.4 10.9.2 2 .9 4.3 2.4 6.1 5.5 6.8 26 7.2 34.6 6.2 8.3-1 12-5.4 12.3-11 .1-1.2.1-2.3 0-3.3-.1-6.9-.2-12.7-.5-18zm-12.2 28.4c-7.2.8-27.1 1-31.7-4.3-1.1-1.2-1.7-2.8-2-4.5-.5-3.4-.2-7.2-.2-10.5.1-3.3.1-6.2.1-8.7 0-.2 0-.3 0-.5.1.1.2.3.3.4.6.9 1.4 1.7 2.1 2.3 3.9 3.5 9.4 5.1 14.6 5.7 7.7.8 18.4-.4 23.9-5.7.6-.6 1.2-1.3 1.6-2-.1 5.6 0 8.4.1 17.5.1 5.4-.7 9.2-8.8 10.3z"/><path d="m21.7 74.6c.6 0 1.4 0 2.6-.4 1.1-.4 2.6-1.2 4.1-2.5 5.7-4.9 36.3-53.4 37.3-57.8 1-4.9-2.3-7.9-6.6-6.9-.8.2-1.6.5-2.3.9-9 4.7-35.9 63.6-35.3 63.9 1.4.7 30.4-59.4 38.4-61.1 1.6-.3 2.3.3 1.9 2.2-.7 2.9-32.9 53.9-35.5 56.6-2.4 2.5-4.1 3-4.9 3.4-.9.4-1 .6-.9.9 0 .4 0 .7 1.2.8z"/><path d="m123.7 30.7c-5.4.5-21.6 6.9-36.4 12.8-20.6 8.2-40.7 17.2-40.4 17.8.2.5 17.7-6.5 41.5-15.1 29.7-10.8 34-12.2 37.6-11.7 3.7.6 3.6 2.5 1.2 4.3-3 2.2-36.2 12.5-55.2 18.5-14.9 4.7-20.7 7.4-26.3 5.2-1-.4-1.2-.4-1.4-.2s-.4.5.5 1.5c4.8 5.1 19.6-.4 28.3-2.9 9.2-2.7 21.4-6.4 37.4-11.6 14.2-4.7 16.3-5.2 19.1-7.4 5.9-4.6 3.3-11.8-5.9-11.2z"/></g></g></svg>