<svg id="Layer_1" enable-background="new 0 0 136 136" height="512" viewBox="0 0 136 136" width="512" xmlns="http://www.w3.org/2000/svg"><g><g><path d="m127.6 47.5c-.7 6.3-4.5 11.1-9.6 14.8-4.2 3.1-9.2 5.5-14 7.4-7.2 2.9-14.5 5.5-21.9 8h-4l-9 .1-13.2.2c-8.7-.4-17.4-1.6-26-3.5-3-.7-6-1.4-9-2.3-1.6-.5-3.3-1-4.9-1.7-2.5-1.1-4.7-2.5-6.2-4.7-1.6-2.3-2.1-4.9-2.1-7.7.1-3.2 1-6.5 2.2-9.5 4.6-11.9 12.8-22.3 22.9-29.8 7.7-5.7 16.5-9.8 25.9-11.7 8.1-1.6 16.5-1.5 24.6.1 13.5 2.7 26.1 9.5 35.6 19.7 5.1 5.7 9.6 12.9 8.7 20.6z" fill="#9b8579"/></g><g><path d="m83.3 7.2c-5.1 1.3-10.2 2.5-15.2 3.8-9.1 2.3-17.3 5.9-24.9 11.7-7.1 5.4-13.2 12.3-17.9 19.9-4.3 7-10.7 18.2-9.3 26.8.1.4.1.8.1 1.2-2.5-1.1-4.7-2.5-6.2-4.7-1.6-2.3-2.1-4.9-2.1-7.7 1.6-6.2 4.5-12.2 7.4-17.4 4.6-8.2 10.6-15.8 17.6-22 7.7-5.7 16.5-9.8 25.9-11.7 8.1-1.6 16.5-1.5 24.6.1z" fill="#a8958c"/></g><g><path d="m118.1 62.3c-4.2 3.1-9.2 5.5-14 7.4-7.2 2.9-14.5 5.5-21.9 8h-4c0-.2.1-.5.1-.7-1.3-.7-2.4-2-2.6-3.9-.2-.2-.3-.3-.5-.5-.2-.1-.4-.1-.6-.2-1.1.7-2.3 1-3.6.6-.3 1-.9 1.9-1.8 2.6.1.8 0 1.5-.2 2.2l-13.1.2c-8.7-.4-17.4-1.6-26-3.5-2.2-2.1-1-5.6 1.5-7.2-.3-2 .7-4.2 2.4-5.2 0-.4.1-.8.3-1.2 1.6-4.4 5.7-6.5 9.3-9 2-1.4 4.1-3.1 6.4-3.8.8-.3 1.6-.4 2.4-.6 1.4-1.1 3.4-1.7 5.2-.8 1.1-3.4 6.3-5.1 8.7-1.2 1.5-3 6.1-3.9 8.1-1 .7-.8 1.8-1.3 3-1.4 1.8-.4 3.9.2 5 1.8.6.3 1.1.6 1.5 1.1 1.4-1.8 3.9-1.8 5.9-.7 2.8-1 6.3.2 6.2 3.8.6.2 1.2.6 1.7 1.1l.5.6c.9 0 1.9.3 2.7.9 1.8.1 3.7 1.4 4.4 3.3 1-.3 2.2-.2 3.4.5 3.5 1.7 6.7 4.1 9.6 6.8z" fill="#847269"/></g><g><path d="m101.4 119.9c-4.1 5.7-10.9 8.9-17.7 9.8-2.6.3-5.2.4-7.8.2-.2 0-.3 0-.5 0-4.1-.3-8.2-1.1-12.2-2.1-2.3-.5-4.7-1.3-6.3-3-.2-.3-.5-.5-.7-.8-.9-1.5-1.1-3.3-1.3-5-1.3-14.3-1.2-28.8.3-43.1.4-4 2-9.2 6-9.2h-2.5c4.5-7.4 14.8-10.4 22.4-6.4 4.3 2.2 7.4 6.2 10.2 10.2.9 1.3 1.8 2.6 2.6 3.9 1.8 2.9 3.5 5.8 5.1 8.8s3 6.1 4.1 9.3c.8 2.2 1.4 4.4 1.8 6.7.1.7.2 1.4.3 2.2 1.1 6.4 0 13.2-3.8 18.5z" fill="#d1d3d4"/></g><g><path d="m101.4 119.9c-4.1 5.7-10.9 8.9-17.7 9.8-2.6.3-5.2.4-7.8.2.8-.5 1.5-1.1 2.2-1.6-.9.6-1.8 1.1-2.7 1.6-4.1-.3-8.2-1.1-12.2-2.1-2.3-.5-4.7-1.3-6.3-3 3-.3 5.9-.7 8.7-1.4 5.8-1.6 11.3-6 16-9.8 9.8-8 15.6-20 10.4-32.7-1.1-2.7.1-5.2 2-6.6 1.8 2.9 3.5 5.8 5.1 8.8s3 6.1 4.1 9.3c-.1 2.2-.4 4.3-.9 6.5.9-.2 1.8-.1 2.7.3.1.7.2 1.4.3 2.2 1 6.4-.1 13.2-3.9 18.5z" fill="#c2c3c4"/></g><path d="m129.6 44.3c-1.3-22.8-44.2-52.8-85-34.6-22.8 10.1-37.4 33.7-38.2 47.6-.1 2.3.1 4.6 1 6.8s2.4 4 4.2 5.3 3.7 2.2 5.5 2.8c1.9.7 3.7 1.1 5.5 1.6 1.8.4 3.5.9 5.2 1.2 8.2 1.8 16.2 2.8 23.1 3 1.2 0 2.2.1 3 .1 0 .2-.1.4-.1.6-.3 3.2-.5 6.4-.6 9.8-.3 6-1 28.6.7 34.3.3 1 .8 2.1 1.6 3 5.2 6.2 42.3 13.6 50.7-10.8 4.8-13.9-2.2-28.7-10.3-41.1.8-.2 2-.4 3.7-1.1 1.6-.7 3.8-1.5 6.9-2.6 1.5-.6 3.2-1.3 5-2.2s3.8-2 6-3.3c9.3-6.1 12.4-13.3 12.1-20.4zm-61.6 9.1c.4 2.7 1 4.1 1.5 4.8-.7.2-1.4.3-2.2.6-2.1.7-4.4 1.9-6.4 3.7-.2-.9-1-2.4-3-5.2-1.8-2.5-5.9-7.1-7.7-8 4.2-2 8.7-3.5 13.2-4.2 1.7-.3 3.4-.4 5.1-.5-.2.6-.4 1.4-.5 2.3-.3 2.3-.3 4.9 0 6.5zm-13.4 6.4c2.4 3.4 3.6 4.5 4.5 4.7-1.3 1.5-2.4 3.2-3.2 5.2-.4.9-.7 1.8-1 2.8-.8-.8-2.9-1.9-7.7-3.8-3.9-1.5-11.6-3.9-14.5-4.1 1.2-1.8 2.8-3.8 4.7-5.9 2-2.1 4.4-4.1 7.1-6 1.5-1 3.2-2 4.8-2.9.3 1.8 3.5 7.4 5.3 10zm47.7 53.9c-7.5 21.5-41.1 13.2-44.1 9.7-2.8-3-2.3-30.7-2.2-34.8.2-6.6 0-13 2-18.2 1.8-5.2 5.9-8.6 9.8-10.1 3.9-1.6 7.5-1.5 9.8-1s3.6 1.1 3.6.9c.1-.1-1-1-3.4-1.7-1.4-.4-3.3-.7-5.4-.6v-.1c.2-.8 0-2.2-.4-5-.2-1.5-.7-3.8-1-5.8-.2-.9-.3-1.7-.5-2.3 3.3 0 6.4.2 11 1 1.5.3 2.9.6 4.3 1-1.2 2.2-2.6 5.7-3.1 7.8-.9 3.1-1 4.7-.8 5.5-.3 0-.5.1-.5.3-.1.3-.1.5.8 1.4s2.8 2.3 5.6 6c1.4 1.8 3 4.3 4.9 7.4 6.9 11.5 14.1 25.8 9.6 38.6zm23.1-64.3c-.7 3-2.3 5.5-4.1 7.6s-3.8 3.7-5.7 5c-3.9 2.7-7.4 4.3-10.2 5.6s-5.1 2.3-6.8 3.2c-1.5.8-2.7 1.3-3.4 1.7-.1 0-.1.1-.2.1-1.9-2.8-3.6-5.1-5.1-6.8-2.4-2.7-4.3-4.1-5.6-4.9.7-.5 1.4-1.8 2.3-5.4.6-2.1 1.2-5.8 1.3-8.3 5.7 1.7 10 3.8 13.4 5.6 4.6 2.5 7.5 4.5 9.5 5.8 4 2.7 4.4 2.6 4.8 2.1.3-.4.6-1-3-4.4-1.8-1.7-4.7-4-9.4-6.8-4.7-2.7-11.3-6.1-20.9-7.9-2.6-.5-5.6-.9-8.9-1s-6.8.1-10.4.8c-7.2 1.3-14.4 4.5-20 8.8-2.8 2.1-5.2 4.5-7.1 6.8s-3.4 4.6-4.5 6.6c-2.1 4-2.6 6.8-2.4 6.9.3.1 1.2-2 3.2-5.2 2.1 1.8 9.6 5.4 13.6 7 5.4 2.1 7.6 2.6 8.6 2.4-.2.9-.3 1.8-.4 2.8-.8-.1-1.8-.2-3-.4-3.2-.4-7.8-1-13.5-2.1-2.8-.5-5.9-1.2-9.2-2-1.6-.4-3.3-.9-5.1-1.4-3.5-1-7.3-2.1-10.1-4.3-1.4-1.1-2.6-2.6-3.2-4.3-4-10.5 10.4-38.9 36.3-50 35.7-15.5 71.5 7.7 78.4 26.2 1.3 3.7 1.5 7.1.8 10.2z" fill="#202020"/></g></svg>