<svg id="Layer_1" enable-background="new 0 0 136 136" height="512" viewBox="0 0 136 136" width="512" xmlns="http://www.w3.org/2000/svg"><g><g><path d="m86.4 45.3c-18 26.9-38.5 29.8-58.6 2.6.4-1 .9-2.1 1.4-3.1 5.4-10.4 17.6-19.6 28.8-19.5 2 0 3.9.2 5.9.7 10 2.1 18.9 9.6 22.5 19.3z" fill="#f9ed32"/></g><g><path d="m122.8 89.4c-2.5 6-8.1 16.5-13.3 20.6-5.7 4.4-19.7-.5-26.9-1.1-10.4-.9-20.9-1.1-31.4-.8-2.3.1-4.6.3-7 .6-6.6.8-13.5 2-19.7 1.4-.7-.1-1.4-.2-2.1-.3-5.4-1-8.3-6.6-10.5-11.6-2.6-6-10.7-15.8-.7-16.1 6.3-.2 12.4 4.1 18.5 5.1 5.8 1 11.7 1.7 17.6 2.1 3.7.3 7.3.4 11 .5 19.1.2 38.3-2.7 56.5-8.6 2.6-.8 5.7-1.6 7.7.2.2.1.3.3.5.5 1.5 1.9.8 5.1-.2 7.5z" fill="#e6e7e8"/></g><g><path d="m87 88.2c-22.4 3.4-43.6 2-63.7-5 1.4-12 10.6-22.2 21.6-25 .3-.1.5-.1.8-.2 8.3-1.9 17.2.3 24.4 5.3 2.1 1.4 4.1 3.1 5.8 5 2.3 2.4 4.2 5.1 6.2 7.8 2.6 3.6 5.3 7.6 4.9 12.1z" fill="#f9ed32"/></g><g><path d="m109 77.7c-.4 2-1.7 4.4-3.8 4.1-20.9 15-35.4 4.7-44.4-27.8 3.4-4.1 8.4-6.1 13.7-6.7 3.2-.4 6.4-.2 9.5.4 5.8 1.1 11.4 3.4 15.9 7.1 1.1.9 2.1 1.8 3 2.9 4.9 5.3 7.5 12.9 6.1 20z" fill="#f9ed32"/></g><g><path d="m50.8 60.7c-5 19.1-16.5 28.5-39.3 21.1-.6-1.2-1.1-2.5-1.5-3.8-1.7-6-.8-12.8 2.5-18.2 3.1-5 8.3-8.5 14-9.9 1.8-.4 3.6-.6 5.4-.6 7.7.3 15.1 4.7 18.9 11.4z" fill="#f9ed32"/></g><g><path d="m127.4 79c-1.5 2.3-3.5 1.4-6.2 2-45.9 9.1-42-24.7-40.2-49.1.2-.1.4-.3.6-.4 3.2-1.7 7-2.2 10.7-2.1 6.8.2 13.3 2.5 18.9 6.3 7.6 5.1 13.6 12.7 16.6 21.4 2.7 7.7 3.6 15.8-.4 21.9z" fill="#f9ed32"/></g><g><path d="m112.8 56.2c-3-9.7-11.1-17.1-21.2-19-5.3-1-8.1 5.8-4.9 8.6-.7 2.4.2 5.4 3.3 6.3 3.8 1.2 10.5 4 13.6 8 .1.5.3 1 .4 1.5.2 1.1.7 1.9 1.3 2.5v.5c0 6.4 10 6.4 10 0-.1-3.1-1-5.9-2.5-8.4z" fill="#e8d418"/></g><g><path d="m71.9 44.8c-5.2-9.1-20-6.4-27.7-2.8-.3.1-.6.3-.8.5-.1 0-.1 0-.2 0-6.3-1.4-8.9 8.2-2.7 9.6 4.1.9 7.1 2.9 9.7 6.2 1.6 2 5.5 1.9 7.1 0 3.1-3.7 8.6-4.3 12.8-6.6 2.4-1.3 3.1-4.6 1.8-6.9z" fill="#e8d418"/></g><g><path d="m75.7 56.6c-1.2 0-2.3.2-3.3.9s-3.1 2.6-2.6 4c.3 1.1 3.4 3 4.3 4.1 2.7 3.2 4.6 7 6.5 10.7 1.8 3.6 3.8 12.5 9.5 10.6 1.1-.4 2.2-1.1 2.9-2.1 1.5-.4 2.8-1.4 3.5-3.2 2.1-5.5-.7-11.4-4-15.7-3.8-5-7.9-8.4-14.3-9-.8-.3-1.6-.4-2.5-.3z" fill="#e8d418"/></g><g><path d="m67.3 80.5c-.4 0-2.3-2.3-2.8-2.6-1.2-.9-2.4-1.8-3.8-2.5-2.6-1.4-5.5-2.5-8.4-2.9-2.8-.4-5.5 0-8.2 1-2.8 1.1-4.7 4.1-6.8 6.3-.6.7-1.2 1.3-1.7 2.1-5.9 9.4 8 6.8 12.4 6.9 4.8.1 9.6.5 14.3 1 2.4.3 5.2.4 6.6-1.5.9-1.2.9-3 .3-4.4-.3-1.3-1-2.4-1.9-3.4z" fill="#e8d418"/></g><g><path d="m37.4 52.9c-11.6.2-20.7 12.8-21.3 23.5-.3 6.4 9.7 6.4 10 0 .2-3.3 1.5-6.2 3.7-8.6 1.7-1.9 4.9-4.9 7.6-4.9 6.4-.1 6.4-10.1 0-10z" fill="#e8d418"/></g><g><path d="m24.4 55.3c-6.2 4-10 10.6-10.2 18-.1 2.8-2 4.4-4.1 4.7-1.8-6-.9-12.8 2.4-18.2 3.1-5 8.3-8.5 14-9.9.5 2-.1 4-2.1 5.4z" fill="#fff385"/></g><g><path d="m63.9 26c-.7 1.7-2.1 3.1-4.3 3.4-9.4 1-17.8 6.3-23.1 14.1-1.8 2.7-5 2.7-7.2 1.4 5.3-10.5 17.5-19.7 28.7-19.6 2 0 4 .2 5.9.7z" fill="#fff385"/></g><g><path d="m111.2 35.8c-1.2.4-2.5.4-3.9-.3-6.4-3.1-13.3-3-19.8-.4-3.2 1.3-5.4-.9-5.9-3.6 3.2-1.7 7-2.2 10.7-2.1 6.8.3 13.3 2.6 18.9 6.4z" fill="#fff385"/></g><g><path d="m99.8 56.6c-1 3-5.2 5.2-8.5 2.4-3.4-3-7.8-4.2-12.2-4.4-3.3-.2-5-2.9-4.8-5.5 3.2-.4 6.4-.2 9.5.4 5.8 1 11.5 3.4 16 7.1z" fill="#fff385"/></g><g><path d="m70.1 63.3c-.7 3-3.9 5.4-7.1 3.2-3.8-2.6-7.7-3.5-12.3-2.9-2.7.3-5-2.6-5-5 0-.2 0-.4 0-.5 8.3-1.9 17.2.2 24.4 5.2z" fill="#fff385"/></g><g><path d="m47.3 89.3c-.5 1.3-1.5 2.4-3.1 3-8.2 2.8-16.2.7-24.3-1.3-.6-.1-5.9-1.6-6.1-1.2s2.1 4.4 2.5 5.1c2 3.5 4.7 6.6 7.3 9.6 1.6 1.8 1.6 3.9.8 5.6-.7-.1-1.4-.2-2.1-.3-5.4-1-8.3-6.6-10.5-11.6-2.6-6-10.7-15.8-.7-16.1 6.3-.2 12.4 4.1 18.5 5.1 5.9.9 11.8 1.6 17.7 2.1z" fill="#f7f8f9"/></g><g><path d="m122.8 89.4c-2.5 6-8.1 16.5-13.3 20.6-5.7 4.4-19.7-.5-26.9-1.1-10.4-.9-20.9-1.1-31.4-.8-2.3.1-4.6.3-7 .6.3-1.6 1.3-3.2 3.2-4 12.7-5.4 27.4-.8 40.6.3 6.7.6 13.7 1.3 18.8-3.9 4.6-4.7 7.9-11.2 11.1-16.9 1.2-2.2 3.3-2.8 5.1-2.3 1.5 1.9.8 5.1-.2 7.5z" fill="#d7d9db"/></g><path d="m91.9 28.3c-2.7.1-5 .7-6.9 1.3-1.7.6-3 1.2-3.9 1.8-.2-.2-.4-.4-.7-.6-7.4-6.1-17.7-8.2-25.4-7.2-14.2 1.9-26.5 16.7-27.6 24.1-3.5.6-7.9 2.3-11.6 5.6-1.9 1.6-3.5 3.6-4.8 5.8s-2.1 4.5-2.6 6.8c-1 4.6-.3 8.9.7 11.7.3 1 .7 1.7 1 2.4h-.1c-.9.1-1.8.3-2.8.7s-2.1 1.3-2.5 2.5c-.5 1.2-.5 2.3-.4 3.2.5 3.4 9 18.9 10 20.2 1.6 2.1 3.8 3.9 6.4 4.7.7.2 1.3.3 1.9.4 12.2 1.7 14.9-2.4 46.5-2.2 6.4 0 9.8.1 11.5 0s1.9-.4 1.9-.6-.1-.6-1.8-.9c-1.7-.4-5.1-.9-11.5-1.3-27.2-1.7-33.6 2.7-44.5 1.4-.5 0-1-.1-1.5-.2s-.9-.2-1.3-.3c-1.6-.5-3.2-1.7-4.5-3.4s-8.4-15.8-8.7-16.7c-.2-.6-.4-1.1-.4-1.6-.1-.5 0-.9.1-1 .1-.2.2-.3.5-.5.4-.2.9-.3 1.5-.4 1.2-.1 2.6 0 3.9.2 3 .6 6.2 2.1 10 3.4.9.3 1.9.7 2.9.9 1 .3 2.2.5 3.1.6 2 .3 4.1.6 6.2.9 8.4 1.1 17.5 1.6 26.9 1.4s19-1.2 28.4-3c4.7-.9 9.3-1.9 13.9-3.2 2.3-.6 4.5-1.3 6.7-2 1.1-.4 2.2-.7 3.3-1.1 1-.3 2-.6 3-.7s1.8 0 2.4.3c.6.4 1.1.9 1.3 1.7s.2 1.7 0 2.6-.5 1.9-.9 2.8c-7.6 18.5-12.8 22-20.1 21.8-2.9 0-5.5-.4-7.8-.8s-4.3-.7-5.9-.9c-3.3-.5-5.1-.5-5.1-.4 0 .2 1.8.4 5 1.2 1.6.4 3.6.8 5.9 1.3s4.9 1 8 1.2c8.6.6 14-3.2 22.5-22.4.5-1 .8-2.1 1.1-3.3.2-1.2.4-2.5.1-3.8-.1-.3-.1-.5-.3-.8.6-.4 1.4-1 2.4-2.1.2-.2.4-.4.6-.7s.4-.5.6-.8c11-14.6-6.3-49.7-36.6-50zm-36.4-.9c12.7-1.3 24.9 4.5 31.5 19.4.5 1.2.8 2 1.1 2.6-3.9-1.2-8.2-1.8-12.2-1.5 0 0 0 0 0-.1 0-.4-.1-1-.6-2.1-.6-1-1.5-2.5-3.4-4.2s-4.6-3.8-8.9-5.3c-1.2-.4-2.6-.8-4.1-1-1.6-.2-3.3-.2-5 .1-3.4.5-6.7 2-9.3 3.9s-4.5 4.2-5.5 6c-.7 1.3-1.1 2.4-1.1 2.9-.5-.1-1.1-.2-1.7-.3-1.2-.2-2.6-.3-4-.4-1.3 0-2.8 0-4.3.2 6.6-10 15.5-19.1 27.5-20.2zm53.7 43.7c-.3-1.5-.7-3-1.3-4.7-2.8-7.1-8.7-13-17.9-16.4 0-.1.1-.2.1-.3.1-.6.1-1.7-.3-3.7-.5-2-.4-1.4-.7-2.7-.1-.3-.3-.7-.4-1.1-.2-.4-.4-.9-.6-1.4.6-.2 1.3-.5 2.3-.6 7.3-1.3 23.8 7.2 21.9 21.5-.2 1.8-.7 3.3-1.1 4.6-.8 2.1-1.5 3.7-2 4.8zm-58.9-15.6c-.4 0-.7 0-1.1.1-.1-.2-.2-.4-.4-.6-.9-1.4-2.7-3.5-6.1-5.3-1.2-.6-2.6-1.1-4.2-1.5.4-.4 1-1.1 1.9-2 1.3-1.4 3.3-3.2 5.7-4.5 2.5-1.4 5.4-2.4 8.2-2.6 1.4-.1 2.7-.1 4 .1 1.2.2 2.4.5 3.4.9 3.6 1.3 6 3 7.8 4.3 1.7 1.4 2.8 2.4 3.6 3.1.3.3.5.5.7.6-5 .8-9.2 2.8-11.7 4.9-1.6 1.3-2.6 2.4-3.1 3.2-2.8-.5-5.7-.8-8.7-.7zm-39.1 24.5c-.2-.7-.4-1.6-.6-2.7-.5-2.7-.6-6.7.6-10.7.6-2 1.5-4 2.7-5.7 1.2-1.8 2.7-3.4 4.3-4.7 3.3-2.6 7.1-4 10.1-4.5 1.4-.2 2.6-.3 3.9-.3s2.4.1 3.5.3c2.2.3 3.9.8 5.3 1.4 2.2 1 3.7 2.1 4.7 3-.4.1-2.3.3-5.6 1.8-3.2 1.5-5.9 3.7-8.1 6s-4.1 4.8-5.4 7.2c-1.4 2.4-2.3 4.7-3 6.7-.6 2.1-.9 3.8-1 5-2.4-1-4.9-1.9-7.5-2.4-1.2-.3-2.5-.5-3.9-.4zm52.2 7.8c-9.2.1-18.1-.5-26.3-1.6-2.1-.3-4.1-.6-6-.9-1-.2-1.8-.3-2.7-.6-.9-.2-1.7-.5-2.6-.8-.8-.3-1.6-.6-2.4-.9.3-1.1.9-2.7 1.8-4.7.8-1.8 1.9-3.9 3.4-6s3.3-4.3 5.5-6.3 4.7-3.8 7.5-5c1.4-.6 2.8-1 4.3-1.3l1.1-.2 1.1-.1c.7-.1 1.5-.1 2.3-.1 12.8-.3 24.9 6.9 34 25.1.4.7.7 1.4.9 1.8-4.6.6-9.3 1.1-13.9 1.3 0-.3 0-.6-.1-1.1-.2-1.2-.7-3-2.1-5.3-3.6-5.9-9.9-10.1-16.9-10.3-3.7-.1-7.4 1-10.2 2.9-2.9 1.8-4.8 4.3-5.7 6.3s-1 3.4-.7 3.4c.3.1.9-1.1 2.1-2.6s3.2-3.4 5.8-4.7 5.7-2 8.6-1.7c5.7.6 10.6 4 13.9 8.6 1.3 1.8 2 3.2 2.5 4.2.1.1.1.2.2.3-1.9.2-3.7.3-5.4.3zm24.2-1.9c-.1-.7-.3-1.5-.6-2.6-3.3-10.6-9.6-18.7-19.4-23.8-2.2-1.1-4.9-2.2-7.9-3 .7-.6 1.8-1.3 3.1-2.1 2.7-1.6 6.9-3.1 11.7-3.4 2.4-.2 4.9 0 7.3.5 9.6 2 18.6 7.6 22.3 16.5 1 2.3 1.4 4.3 1.6 6.1s.2 3.3.1 4.6c0 .3-.1.6-.1.9s-.1.5-.1.7c-.1.4-.2.8-.4 1.2-.2.5-.4.9-.6 1.1-3.4.9-7 1.6-10.5 2.3.1-.1.3-.2.4-.3 1.1-.8 2.6-2.2 3.7-4.9.6-1.3 1-3 1-5 .2-9.7-9.6-19.3-22.2-18.5-1.5.1-2.8.4-3.8.7-2.1.6-3.3 1.4-3.2 1.6.1.3 1.4 0 3.4-.1 13.6-1 24.2 10.2 21.2 19.9-.7 2.1-1.6 3.3-2.1 4.1-.6.8-1 1.3-1.1 1.6-.1.4 0 .6.1.9.1.1.1.2.2.3-.2 0-.3.1-.5.1-1.1.2-2.3.4-3.6.6zm37.3-7.4c-.5.9-1 1.4-1.2 1.9v.1c-.3-.3-.7-.6-1.1-.8-1.3-.8-2.8-.9-4.1-.8s-2.5.4-3.6.7-2.2.7-3.3 1c-1 .3-2.1.6-3.1.9 0-.1.1-.2.2-.3.1-.3.2-.7.3-1s.2-.7.2-1c.2-1.2.4-2.7.4-4.3.4-.2 1-.6 1.8-1.6.9-1.1 2.1-2.8 3.3-5.7 8.3-20-14.7-32.8-24.8-28.9-1 .4-1.7.9-2.3 1.3 0-.1-.1-.1-.1-.2-.5-.8-.9-1.8-1.6-2.8-.7-.9-1.4-2-2.3-3-.5-.5-.9-1.1-1.5-1.6-.1-.1-.2-.2-.3-.2.9-.3 2.1-.6 3.6-.9 25.6-5.2 51.1 27.7 39.5 47.2z" fill="#202020"/></g></svg>