<svg id="Layer_1" enable-background="new 0 0 136 136" height="512" viewBox="0 0 136 136" width="512" xmlns="http://www.w3.org/2000/svg"><g><g><path d="m125.7 61.5c-2.4 11-10.6 19.7-18.6 27.6-4.1 4-8.2 8.1-12.7 11.7-.8.7-1.6 1.3-2.5 2-12.5 9.7-27.1 15.9-42.4 20.2-11.8 3.3-24 5.5-36.1 7.2l-.1-3.5c.8-1.2 1.7-2.4 2.5-3.6 25.2-34.6 64.8-58.3 107.3-64 .2 0 .5-.1.7-.1.7 0 1.4.1 1.8.7.4.5.3 1.2.1 1.8z" fill="#2ea034"/></g><g><path d="m125.7 61.5c-2.4 11-10.6 19.7-18.6 27.6-4.1 4-8.2 8.1-12.7 11.7-1.8 1.2-3.6 2.4-5.5 3.5-11.2 6.9-23.2 12.4-35.5 17.2-1.3.5-2.6 1-3.9 1.5-11.8 3.3-24 5.5-36.1 7.2l-.1-3.5c.8-1.2 1.7-2.4 2.5-3.6 11.3-2.2 22.5-6.5 33.2-10.5 11.5-4.4 22.7-9.6 33.2-15.9 16.3-9.7 30.8-22.2 41.7-37.7.7 0 1.4.1 1.8.7.3.5.2 1.2 0 1.8z" fill="#259327"/></g><g><path d="m40.3 105c-2.4-.2-4.4 1.7-5.8 3.7-1.1 1.5-2 3.4-1.6 5.3s2 3.4 3.6 4.4c2.1 1.4 4.8 2.5 7 1.3 1.2-.6 2-1.8 2.6-3 1-2.2 1.3-4.7.5-7s-2.9-4.1-5.3-4.3" fill="#d7df23"/></g><g><path d="m56.8 94c-2.4-.1-4.6 1.9-6 4-1.2 1.7-2.2 3.6-1.9 5.6s1.8 3.5 3.4 4.7c2.1 1.4 4.8 2.5 7.1 1.3 1.3-.7 2.1-1.9 2.8-3.3 1.1-2.3 1.6-5 .8-7.4-.7-2.4-2.7-4.3-5.2-4.5" fill="#d7df23"/></g><g><path d="m74.4 84.9c-2.4-.2-4.4 1.7-5.8 3.7-1.1 1.5-2 3.4-1.6 5.3s2 3.4 3.6 4.4c2.1 1.4 4.8 2.5 7 1.3 1.2-.6 2-1.8 2.6-3 1-2.2 1.3-4.7.5-7s-2.9-4.1-5.3-4.3" fill="#d7df23"/></g><g><path d="m91.9 75c-2.4-.2-4.4 1.7-5.8 3.7-1.1 1.5-2 3.4-1.6 5.3s2 3.4 3.6 4.4c2.1 1.4 4.8 2.5 7 1.3 1.2-.6 2-1.8 2.6-3 1-2.2 1.3-4.7.5-7s-2.9-4.1-5.3-4.3" fill="#d7df23"/></g><g><path d="m109.4 65.5c-2.4-.2-4.4 1.7-5.8 3.7-1.1 1.5-2 3.4-1.6 5.3s2 3.4 3.6 4.4c2.1 1.4 4.8 2.5 7 1.3 1.2-.6 2-1.8 2.6-3 1-2.2 1.3-4.7.5-7s-2.9-4.1-5.3-4.3" fill="#d7df23"/></g><g><path d="m83.7 5.6s0 .1-.1.1c-1.1 2.3-2.2 4.5-3.2 6.8-7.5 16.6-13.6 34-21.3 50.5-9.1 19.5-30.1 52.5-47.2 65.5l-.6-1c0-.9 0-1.9.1-2.8.3-11.6 1.3-23.1 3.4-34.5 2.5-13 6.4-25.7 12.4-37.6 2.7-5.4 5.9-10.6 9.6-15.5 3.8-5.1 8.1-9.9 12.8-14.2 0 0 0-.1.1-.1 9.5-8.6 20.7-15.2 33.1-18.5.6 0 1.2.7.9 1.3z" fill="#39b54a"/></g><g><path d="m84.3 7c-.8 1.6-1.5 3.1-2.2 4.7-.6.3-1.1.6-1.7.9-39.2 21.9-61.5 64.3-66.6 108.3-.2 1.8-1.2 3.1-2.5 3.9.3-11.6 1.3-23.1 3.4-34.5 2.5-13 6.4-25.7 12.4-37.6 2.7-5.4 5.9-10.6 9.6-15.5 3.9-5 8.2-9.8 12.8-14.2 0 0 0-.1.1-.1 9.5-8.6 20.7-15.2 33.1-18.5.7-.2 1.3.6 1 1.2 0 0 0 .1-.1.1.6.1 1 .7.7 1.3z" fill="#4dce59"/></g><g fill="#202020"><path d="m125.9 59.5c-.3-.4-.7-.6-1.1-.7s-.7 0-.9 0c-.5.1-.7.2-.7.2 0 .1.3.1.7.1.2 0 .5 0 .8.1s.6.3.8.6c.2.5.1 1 0 1.6-.2.7-.4 1.5-.7 2.3-.6 1.7-1.4 3.5-2.5 5.6-1.1 2.2-2.7 4.4-4.5 6.8.2-.6.3-1.2.4-1.8.2-1.9 0-3.6-.6-4.9-.6-1.4-1.4-2.3-2.1-3-.8-.7-1.5-1.1-2.1-1.3-1.3-.4-2-.3-2.3-.1-.4.2-.4.5-.4.7 0 .3 0 .6.2.8.2.3.6.6 1.2 1.1s1.6 1.4 2.1 3 .3 3.5-.4 5c-.3.7-.6 1.4-1.1 1.9-.5.6-1 .9-1.8.9-.8.1-2-.2-3.2-.8s-2.4-1.4-3.2-2.3-1.1-1.8-.9-2.9.8-2.3 1.4-3.3 1.3-1.8 2-2.3c1.3-1.1 2.5-1.2 2.5-1.5 0-.1-.3-.3-.9-.4s-1.5.1-2.5.5c-1 .5-2 1.3-2.9 2.3s-1.9 2.3-2.4 4c-.3.9-.4 1.9-.2 2.9s.6 2 1.2 2.8 1.2 1.4 1.9 2 1.4 1 2.1 1.5c1.5.9 3.2 1.6 5.1 1.5.5 0 1-.1 1.5-.2-.1.1-.2.2-.2.2-2.2 2.3-4.7 4.7-7.4 7.3-2.6 2.5-5.4 5.1-8.4 7.6-5.9 5.1-12.8 9.8-20.4 13.6-3.8 1.9-7.8 3.7-11.9 5.3s-8.3 2.9-12.5 4.2c-8.5 2.4-17.1 4.3-25.5 5.7-7.9 1.2-6.7 1.1-9.4 1.5-.7.1-1.2.2-1.6.3l-.3.1h-.1s-.1-.1 0-.1 0 .1 0-.1c.1-.2.2-.4.3-.5 1.7-3.3 5.3-3.9 17.1-18.2 2.3-2.7 4.6-5.7 7-8.8 9.7-8.8 20.1-16 31.5-22.3 8.9-4.8 18-8.7 27.4-11.8 4.8-1.6 8.7-2.7 11.9-3.5s5.6-1.4 7.5-1.8 3.1-.7 4-1c1.7-.5 1.8-.8 1.8-1.1s-.2-.5-2-.5c-.9 0-2.2.1-4.2.3-1.9.2-4.4.6-7.7 1.2s-7.3 1.6-12.3 3.1c-9.9 3-19.4 6.9-28.3 11.6-3.8 2-7.8 4.3-12 7-2.9 1.9-5.9 3.9-8.9 6.2 2.7-4 5.3-8.2 7.9-12.6 2-3.4 3.8-6.9 5.6-10.5 8-16.6 14.5-34.8 21.7-50.2.4-.9.8-1.8 1.3-2.7.6-1.3 1.2-2.5 1.8-3.8.2-.5.3-.9.3-1.3s0-.6-.1-.9c-.2-.6-.9-1.4-1.4-1.6-.3-.1-.5-.2-.9-.2-.2 0-.4 0-.6 0s-.4 0-.7.1c-.9.3-1.8.5-2.6.8l-1.5.5c-.5.2-1 .4-1.5.5-38.9 14.4-60.1 53.8-65.9 94.9-1 7.5-1.9 18.8-1 26.3.1.7.2 1.1.3 1.4-.1.8.1 1.5.5 2.1.5.8 1.3 1.3 2.2 1.5 1.5.2.5.2 13.5-2 8.5-1.5 17.3-3.5 25.9-6.1 4.3-1.3 8.6-2.8 12.7-4.5s8.2-3.5 12.1-5.6c7.7-4.1 14.8-9.1 20.7-14.4 3-2.7 5.7-5.3 8.3-7.9s5-5.1 7.2-7.5c4.4-4.9 7.8-9.7 9.9-14 1-2.2 1.7-4.1 2.2-5.9.2-.9.4-1.7.6-2.4 0-.8 0-1.7-.4-2.2zm-114.1 67.5c.4-3.1.6-12.8 2.7-25.7 6.7-39.6 26.4-77.6 63.7-91.7.5-.2.9-.4 1.4-.5l1.4-.5.3-.1h.1c.1 0 .1.1 0 .1-.7 1.4-1.3 2.9-2 4.3-8.7 19.5-17 44.7-26.2 61.1-3.7 6.7-7.6 13-11.5 18.7-3.8 5.7-7.6 10.9-11.2 15.4-4.7 6-10.7 12.9-16.6 18.4-.6.6-1.2 1-1.6 1.4-.2.1-.4.1-.6.2-.1 0-.1 0-.2 0 .2-.2.2-.6.3-1.1z"/><path d="m46.2 106c-.8-.7-1.5-1.1-2.1-1.3-1.3-.4-2-.3-2.3-.1-.4.2-.4.5-.4.7 0 .3 0 .6.2.8.2.3.6.6 1.2 1.1s1.6 1.4 2.1 3 .3 3.5-.4 5c-.3.7-.6 1.4-1.1 1.9-.5.6-1 .9-1.8.9-.8.1-2-.2-3.2-.8s-2.4-1.4-3.2-2.3-1.1-1.8-.9-2.9.8-2.3 1.4-3.3 1.3-1.8 2-2.3c1.3-1.1 2.5-1.2 2.5-1.5 0-.1-.3-.3-.9-.4s-1.5.1-2.5.5c-1 .5-2 1.3-2.9 2.3s-1.9 2.3-2.4 4c-.3.9-.4 1.9-.2 2.9s.6 2 1.2 2.8 1.2 1.4 1.9 2 1.4 1 2.1 1.5c1.5.9 3.2 1.6 5.1 1.5 1 0 1.9-.3 2.8-.7.8-.4 1.5-1 2-1.6.9-1 1.4-2.1 1.8-3.1s.6-2 .7-2.9c.2-1.9 0-3.6-.6-4.9-.5-1.2-1.3-2.1-2.1-2.8z"/><path d="m62.9 95.3c-.8-.8-1.5-1.2-2.2-1.5-1.3-.5-2.1-.3-2.5-.2-.4.2-.4.5-.4.7 0 .3 0 .6.2.8.2.3.6.6 1.3 1.1.6.6 1.5 1.5 1.9 3.2.4 1.8 0 3.7-.7 5.4-.3.7-.7 1.5-1.2 2-.5.6-1.1 1-2 1.1-.8.1-2-.2-3.2-.9-1.2-.6-2.4-1.5-3.1-2.5-.7-.9-.9-2-.6-3.2s1-2.4 1.6-3.5c.7-1 1.4-1.9 2.1-2.5 1.4-1.2 2.6-1.3 2.6-1.6 0-.1-.3-.3-.9-.4s-1.6.1-2.6.6-2 1.3-3 2.4c-.9 1.1-1.9 2.3-2.6 4-.3.9-.5 1.8-.5 2.9.1 1.1.4 2.1 1 3 .5.9 1.2 1.6 1.9 2.2s1.4 1.2 2.2 1.6c1.5 1 3.4 1.7 5.4 1.6 1 0 2-.4 2.8-.8.8-.5 1.5-1.1 1.9-1.6.9-1 1.4-2.1 1.8-3.1 1-2.5 1.4-5.4.6-8-.3-1-1-2.1-1.8-2.8z"/><path d="m80.3 85.9c-.8-.7-1.5-1.1-2.1-1.3-1.3-.4-2-.3-2.3-.1-.4.2-.4.5-.4.7 0 .3 0 .6.2.8.2.3.6.6 1.2 1.1s1.6 1.4 2.1 3 .3 3.5-.4 5c-.3.7-.6 1.4-1.1 1.9-.5.6-1 .9-1.8.9-.8.1-2-.2-3.2-.8s-2.4-1.4-3.2-2.3-1.1-1.8-.9-2.9.8-2.3 1.4-3.3 1.3-1.8 2-2.3c1.3-1.1 2.5-1.2 2.5-1.5 0-.1-.3-.3-.9-.4s-1.5.1-2.5.5c-1 .5-2 1.3-2.9 2.3s-1.9 2.3-2.4 4c-.3.9-.4 1.9-.2 2.9s.6 2 1.2 2.8 1.2 1.4 1.9 2 1.4 1 2.1 1.5c1.5.9 3.2 1.6 5.1 1.5 1 0 1.9-.3 2.8-.7.8-.4 1.5-1 2-1.6.9-1 1.4-2.1 1.8-3.1 1.1-2.8 1-5.7.1-7.8-.6-1.1-1.4-2.1-2.1-2.8z"/><path d="m97.9 76c-.8-.7-1.5-1.1-2.1-1.3-1.3-.4-2-.3-2.3-.1-.5.3-.5.5-.5.8s0 .6.2.8c.2.3.6.6 1.2 1.1s1.6 1.4 2.1 3 .3 3.5-.4 5c-.3.7-.6 1.4-1.1 1.9-.5.6-1 .9-1.8.9-.8.1-2-.2-3.2-.8s-2.4-1.4-3.2-2.3-1.1-1.8-.9-2.9.8-2.3 1.4-3.3 1.3-1.8 2-2.3c1.3-1.1 2.5-1.2 2.5-1.5 0-.1-.3-.3-.9-.4s-1.5.1-2.5.5c-1 .5-2 1.3-2.9 2.3s-1.9 2.3-2.4 4c-.3.9-.4 1.9-.2 2.9s.6 2 1.2 2.8 1.2 1.4 1.9 2 1.4 1 2.1 1.5c1.5.9 3.2 1.6 5.1 1.5 1 0 1.9-.3 2.8-.7.8-.4 1.5-1 2-1.6.9-1 1.4-2.1 1.8-3.1s.6-2 .7-2.9c.2-1.9 0-3.6-.6-4.9-.5-1.2-1.3-2.2-2-2.9z"/></g></g></svg>