<svg id="Layer_1" enable-background="new 0 0 136 136" height="512" viewBox="0 0 136 136" width="512" xmlns="http://www.w3.org/2000/svg"><g><g><path d="m63 27c6.6 3.3 15 7.5 18.3 14.3 1.9 3.8 2.1 8 4.5 11.7 2.3 3.6 5.6 6.4 8.5 9.4 10 9.9 18.5 21.8 22.6 35.3 1.7 5.6 2.3 12.5-2.2 16.3-2 1.7-4.7 2.3-7.3 2.6-9.7 1.1-19.4-2.2-27.7-7.3s-15.3-12-22.2-18.8c-12.1-12-27.7-23.7-29.4-42-.5-5.5.3-11.1 3.2-16 2.9-4.8 8.3-8.7 14.4-9.5 6.1-.7 12 1.4 17.3 4z" fill="#8dc63f"/></g><g><path d="m99.2 92c-1.1-2.2-2.3-4.4-3.5-6.6-5.2-9.7-24.7-44.7-36.7-23.3-4.6 8.1 8.4 13.2 13.8 17-.7 1.6-.5 3.5 1.1 5.1 6 5.8 13.2 10.1 18.7 16.4 2 2.3 5.2 1.9 7.1-.3 1.6-2 1.5-3.3.7-5.4-.4-1-.8-2-1.2-2.9z" fill="#86b230"/></g><g><path d="m127.3 117.4c-.2 1.7-.5 3.5-1.6 4.8-1.7 2-4.1 1.9-6.5.8-.2-.1-.5-.2-.7-.4-.9-.5-1.7-1.1-2.5-1.7-1.1-.9-2.2-2-3-3.1-.3-.4-.7-.9-1-1.3-8.9-11.6-16.8-24-24.5-36.5-14.3-23.3-27.5-47.3-43.8-69.1-2-2.6-1.8-2-3.9-4.5l-1.2-2.5c22.6-.9 44.8 8.6 61.5 24.2 2.8 2.6 5.5 5.5 8 8.4 3.8 4.5 7.2 9.5 10 14.6 12.1 22.1 12.4 42.3 9.2 66.3z" fill="#ffefe1"/></g><g><path d="m116.3 130.5c-.2.1-.4.2-.7.3-1.7.6-3.8.3-5.7.1-9.5-1.4-18.3-3-26.7-5.1-7.1-1.9-14-4.2-20.5-7.1-7.8-3.5-15.3-7.9-22.6-13.6-27.2-21.4-40.3-53.4-30.1-80.2 0 0 2.7 2.6 4.4 4.4 16.8 17.4 36.3 33.3 55.5 49.4 14.7 12.2 29.1 24.5 42.1 37.8.8.8 1.6 1.6 2.3 2.4.6.6 1.2 1.3 1.7 2 1.3 1.9 2.4 4 2.5 5.8.1 1.7-.5 3-2.2 3.8z" fill="#ffefe1"/></g><g><path d="m100.1 28.2c-9.3-5.7-19.4-9.7-29.6-13.5-8.5-3.1-17.9-5.9-26.8-3.8-2-2.6-1.6-1.6-3.6-4.1l-1.5-2.8c22.6-.9 44.8 8.5 61.5 24.2z" fill="#fcf3ed"/></g><g><path d="m62.6 118.6c-7.8-3.5-15.3-7.9-22.6-13.6-27.1-21.3-40.2-53.3-30-80.1 0 0 2.7 2.6 4.4 4.4-5.1 34 19.2 64.4 46.5 82.9 2.4 1.6 2.7 4.3 1.7 6.4z" fill="#fcf3ed"/></g><g><path d="m127.3 117.4c-.2 1.7-.5 3.5-1.6 4.8-1.7 2-4.1 1.9-6.5.8 0 0 0-.1 0-.2.1-.5.2-1 .3-1.4-.6-.2-1.1-.5-1.7-.8.3.7.5 1.3.6 2 .3 1.4.3 2.8 0 4.1-.4 1.4-1.1 2.7-2.2 3.8-.2.1-.4.2-.7.3-1.7.6-3.8.3-5.7.1-9.5-1.4-18.3-3-26.7-5.1.6-2.5 2.9-4.5 6-3.6 3.3.9 6.5 1.6 9.9 1.8 1 .1 9.3.6 9.6-.4 0-.1-5-5-5.5-5.5-2.1-2.2-4.2-4.4-6.3-6.5-8.9-9-18.4-17.4-28.3-25.3-3.2-2.5-1.5-6.3 1.4-7.7 14.7 12.3 29.1 24.6 42.1 37.9-8.9-11.6-16.8-24-24.5-36.5 1.4-3.1 6.6-4.5 9.2-.8 5 7 10.1 14 15.1 21 2.8 3.9 5.7 8.6 9.8 11.1.5-2.9.9-5.8 1.1-8.8.5-7.2-.6-14.1-2-21.1-2.9-13.6-7.2-26.9-12.9-39.6-.8-1.9-.5-3.7.4-5 3.8 4.5 7.2 9.5 10 14.6 12 21.8 12.3 42 9.1 66z" fill="#f9d9c0"/></g><path d="m130.5 83.4c-.5-4.6-1.3-8.9-2.4-12.8-3.9-14.4-10.8-25.8-18-34.6-15.6-20.7-47.5-35.2-69.3-32.8-2.1.2-2.2.5-2.2.8s.2.5 2.2.8 5.9.3 13.2 1.7c23 5.1 43.2 18.9 52.9 32.1 7.3 9.3 13.5 19.5 17.1 33.2 1 3.8 1.8 7.9 2.3 12.2.5 4.4.7 9 .6 13.9 0 2-.9 21.7-2.9 23.4l-.2.2c-.1.1-.2.1-.2.1-.1.1-.3.2-.5.3-.7.3-1.7.1-2.7-.2-1.1-.4-2.2-1.1-3.2-1.9-.2-.3-.4-.5-.6-.8-1-1.2-2-2.2-3-3.2l-.2-.2c-1.2-1.6-2.5-3.3-3.7-4.9-1.6-2.2-3.2-4.5-4.8-6.7-1.6-2.3-3.1-4.6-4.7-6.9-6.2-9.2-11.9-18.6-17.4-27.6-10.2-17-19.6-32.4-27.5-43.4-1-1.4-4-5.5-4.4-6.2-.9-1.3-1.8-2.4-2.7-3.5-1.7-2.2-3.1-4.1-4.4-5.5-2.5-3-3.9-4.6-4-4.5s1.1 1.9 3.4 5c1.5 2 3.4 4.8 6.6 9.3 0 .1.1.1.1.2-.6 0-1.1-.1-1.7-.1-2.9 0-6.3.7-9.5 2.3s-6.2 4.2-8.4 7.5c-2 3-3.2 6.5-3.7 10.1-1.2-1.1-2.4-2.2-3.5-3.2-.1-.1-12.5-12-12.9-12.2 0-.3-.2-.3-.3-.4-.3-.1-.6 0-1.4 1.9-6.3 14-5.5 37.2 12.2 61.5 3.1 4 6.6 8.2 11 12.1 19.8 20 48.4 28.2 76 32.1 1.3.2 2.6.4 4.1.5s3.2.1 4.9-.6l.6-.3c.2-.1.4-.3.6-.4.4-.3.8-.7 1.1-1 .7-.9 1.1-1.9 1.2-2.9.1-.9 0-1.7-.1-2.4.5.1.9.2 1.4.3h1.4c.5-.1 1-.1 1.4-.3.5-.2.9-.4 1.3-.6.2-.1.4-.3.6-.4l.5-.5c3.5-3.2 4.1-23.9 4.2-26 .2-5 0-9.9-.4-14.5zm-100.6-41.2c.5-3.4 1.7-6.7 3.6-9.4s4.5-4.8 7.1-6c2.7-1.3 5.3-1.8 7.7-1.8 1.6 0 3.2.2 4.7.5 7.6 11.3 17 27.5 27.4 45.4 5.3 9.1 11 18.6 17.1 27.9.8 1.2 1.5 2.3 2.3 3.5-1.6-1.5-3.2-2.9-4.8-4.3-8.6-7.6-17.3-14.8-25.7-21.6-15.4-12.4-29.4-23.7-39.6-32.9.1-.4.1-.9.2-1.3zm86.7 85.2c-.1.8-.4 1.1-1.3 1.5-1.6.7-4.3.2-7-.2-26.8-4-54.4-11.9-73.8-31.2-19.3-17.4-30.2-41.1-24.5-70.2.2-.9.2-1.5.2-1.8 2.2 3.3 12.2 13.3 15.5 16.6.2.2.4.4.7.7 1 1 2.1 2 3.2 3 9.9 9.3 23.2 20.7 37.8 32.9 8.3 7 16.9 14.3 25.3 21.9 4.2 3.8 8.4 7.7 12.4 11.7 2 1.9 3.9 3.9 5.8 5.8.3.5.7.9 1.1 1.4.8 1 1.7 1.9 2.6 2.7.5.7 1 1.5 1.3 2.2.5 1 .8 2.2.7 3z" fill="#202020"/></g></svg>