<svg id="Layer_1" enable-background="new 0 0 136 136" height="512" viewBox="0 0 136 136" width="512" xmlns="http://www.w3.org/2000/svg"><g><g><path d="m125.3 58.2-95.7 56.5s-.1 0-.2.1c-4.3 1.5-9.5.5-12.9-2.6-3.5-3.1-5.1-8.1-4.1-12.7l1.4.1c-3.3-.4-5.9-3.4-7.4-6.5-1.8-3.7-2.5-8.1-1.3-12s4.5-7.3 8.6-7.9l-1.6-.2c-1-.9-1.4-2.2-1.7-3.5-.9-4.6.3-9.6 3.2-13.4 2.5-3.1 6.1-5.3 10-6.1.5-4 3.1-7.6 6.6-9.5 3.6-1.9 8.1-2 11.8-.2l-.3-1.1c1.2-4.2 4.2-7.8 8.1-9.8 2.4-1.2 5.2-1.8 8-1.7 1.1 0 2.5.7 3.5.6 1.6-.2 2.6-2 3.8-3 1.4-1.2 3.2-2 4.9-2.5s3.5-.6 5.3-.5c.5 0 5.1 1.4 5.1 1.4 3.2-3 7.9-4.3 12.2-3.7 4.6.6 8.9 3.1 11.9 6.6v-1c4.5-.6 9.3.8 12.6 3.9 3.4 3.1 5.3 7.7 5 12.2l.1-2.8c4.4.4 8.3 4 9 8.4.8 4.4-1.8 9.1-5.9 10.9z" fill="#2bb673"/></g><g><path d="m116.7 68.9c-6.1 5.3-13.3 9.3-20.4 13.3-9.6 5.3-18.9 10.8-28.3 16.2-7.4 4.3-14.8 8.7-22.3 12.9-1.3.8-2.6 1.5-4 2.2l-.7 1.4c-6.9-1.2-13.2-5.2-17.2-10.9s-5.6-13-4.4-19.9c.8-4.4 2.7-8.6 5-12.5 9-15 24.2-25.6 40.6-31.7 2.5-.9 5-1.8 7.5-2.4 7.1-2 14.5-3 21.8-2.2 5.8.6 11.6 2.4 16.7 5.4 3.5 2.1 6.7 4.8 9.2 8.1 1.7 2.3 3.2 4.9 3.3 7.7.5 4.9-3.1 9.2-6.8 12.4z" fill="#fae000"/></g><g><path d="m47.8 86c-2.2-.1-4.2 1.8-4.5 4s1 4.4 2.9 5.5 4.2 1.3 6.4.8c1.2-.3 2.4-.8 3.2-1.8 1.7-2.1.9-5.5-1.2-7.2s-5.1-1.9-7.8-1.6" fill="#9b8579"/></g><g><path d="m94.6 67.3c-.9-1.6-2.3-2.9-3.9-3.7-1.3-.6-3.4-1.6-4.9-.9-1.9 1-2.7 2.9-2.4 5 .2 1.2.6 2.3 1.2 3.3 1.6 2.7 4 3.7 7.1 3 1.7-.4 3.2-1.6 3.5-3.3.4-1.2 0-2.4-.6-3.4z" fill="#9b8579"/></g><g><path d="m50.7 56.1c-2.3 1.8-2 5.9.2 7.8s5.8 1.9 8.4.6c1.2-.6 2.3-1.5 2.6-2.8.6-2.2-1.2-4.4-3.1-5.7-1.2-.8-2.6-1.5-4.1-1.6s-3 .4-3.9 1.6z" fill="#9b8579"/></g><g><path d="m70.5 45.8c-13 3.2-26.8 14.7-32.6 26.9-5.5 11.5-3.7 31.1 7.8 38.6-1.3.8-2.6 1.5-4 2.2l-.7 1.4c-6.9-1.2-13.2-5.2-17.2-10.9s-5.6-13-4.4-19.9c.8-4.4 2.7-8.6 5-12.5 9-15 24.2-25.6 40.6-31.7 2.5-.9 5-1.8 7.5-2.4 2.4 2.5 2.3 7.3-2 8.3z" fill="#ffed69"/></g><g><path d="m62.2 28.7c1 .5-3.5 3.3-3.7 3.4-2 1-3.9 2.2-5.9 3.4-4.7 2.9-9.2 5.9-13.7 9-5.2 3.7-10.3 7.3-14.7 12.1-4.8 5.1-7.4 11.4-9.6 18-2 6.1-2.9 11.9-.4 18 1.2 2.8 1.6 5.9 2.6 8.9 2 5.9 5.6 11.3 11.9 13.1.2.1.4.1.6.2-4.3 1.5-9.5.5-12.9-2.6-3.5-3.1-5.1-8.1-4.1-12.7l1.4.1c-3.3-.4-5.9-3.4-7.4-6.5-1.8-3.7-2.5-8.1-1.3-12s4.5-7.3 8.6-7.9l-1.5-.2c-1-.9-1.4-2.2-1.7-3.5-.9-4.6.3-9.6 3.2-13.4 2.5-3.1 6.1-5.3 10-6.1.5-4 3.1-7.6 6.6-9.5 3.6-1.9 8.1-2 11.8-.2l-.3-1.1c1.2-4.2 4.2-7.8 8.1-9.8 3.5-1.7 8.7-2.5 12.4-.7z" fill="#3cce84"/></g><g><path d="m116.7 68.9c-6.1 5.3-13.3 9.3-20.4 13.3-9.6 5.3-18.9 10.8-28.3 16.2.3-.5.8-1 1.4-1.4 10.8-7.8 21.7-15.5 32.1-23.7 4.6-3.6 9.3-7.6 12.4-12.7 3.8-6.3 2-10.6-2.1-15.9-1.1-1.4-1.2-2.8-.7-4 3.5 2.1 6.7 4.8 9.2 8.1 1.7 2.3 3.2 4.9 3.3 7.7.4 4.9-3.2 9.2-6.9 12.4z" fill="#eace00"/></g><g><path d="m87.1 62.6c-.2 0-.4 0-.6 0-.7.1-1.3.4-1.7.9-2 1.9-.8 5.7 2.1 5.7 1.7 0 3-1.3 3.1-3 0-1.9-1-3.5-2.9-3.6z" fill="#ad978c"/></g><g><path d="m52.8 55.4c-4 0-4 6.2 0 6.2 4 .1 4-6.2 0-6.2z" fill="#ad978c"/></g><g><path d="m47.9 86.1c-4.1 0-4.1 6.4 0 6.4 4.1-.1 4.1-6.4 0-6.4z" fill="#ad978c"/></g><g fill="#202020"><path d="m45.4 86.2c-.9.5-1.8 1.4-2.3 2.7-3 7.5 9.3 13.2 14.8 7 4-4.6-.2-13.1-8.5-11.8-1.9.4-2 1-1.9 1.5-.7.1-1.4.2-2.1.6zm3.9.9c3.2.7 6.9 2.2 5.8 5.5-.2.5-.4.9-1.2 1.3-4.3 2.5-9.4-.6-8.8-4.3.1-.8.6-1.6 1.1-2.1s1-.8 1.4-1c.4.2.8.4 1.7.6z"/><path d="m85.7 63.7c0-.1-.3-.2-.8-.1s-1.2.5-1.8 1.3-1.1 1.9-1.1 3.2c0 4.3 5.2 7.9 9.6 7.8.8 0 1.7-.2 2.5-.5s1.5-.8 2.1-1.3c5.2-4.9-1.5-13.8-8.4-12.8-1 .2-1.5.5-1.7.8s-.2.5-.1.8.1.5.4.7.7.3 1.4.6c5 1.5 8.3 6 4.9 7.8-2.5 1.3-7.5-.9-8.2-3.9-.2-.8-.1-1.6.2-2.2.1-1.5 1.1-2 1-2.2z"/><path d="m50.9 56c-.1-.1-.4-.1-.8.2s-1 .9-1.4 1.7c-.4.9-.6 2-.4 3.3 1 6.8 10.8 7.7 14.8 2.7.5-.7.9-1.5 1.1-2.3s.1-1.7-.1-2.3c-1-4-6.4-7.4-10.2-6.6-.9.2-1.6.5-2.1.8-1 .7-1.2 1.4-1.2 1.7 0 .4.2.5.4.7s.5.3.8.3.7-.1 1.3-.2c.3 0 .7-.1 1.1-.1 2.4.1 5.5 2.6 5.9 4.2.1.4.1.8-.2 1.3s-1.1 1.1-2.1 1.5c-2.7 1.2-6.2.7-7.3-2.3-.3-.8-.4-1.7-.3-2.3.2-1.3.9-2.1.7-2.3z"/><path d="m132.7 45.4c-.8-2-2.2-3.8-3.8-5s-3.4-1.7-4.6-1.9c-.2 0-.4 0-.6 0 0-.5-.1-1-.2-1.6-1.6-8.6-10.1-13.7-17.1-12.3-.7.2-1.2.4-1.6.5-.1-.2-.1-.4-.3-.6-.4-.6-1-1.5-2.2-2.5-5.2-4.4-12-5.2-17.4-2.7-1.7.7-3 1.7-3.9 2.7 0 0 0 0-.1 0-1.2-.7-3-1.4-5.4-1.6-5.8-.6-11.3 2.9-12.7 5.9-.3.6-.4 1.2-.2 1.5.1.4.4.5.5.5s.2-.2.3-.4c3.6-6.6 18.1-1.8 18.2-1.8 1 .3 1.4 0 1.8-.4s.7-.8-.1-1.9c-.2-.2-.4-.4-.7-.7.9-.4 2-.8 3.2-1.1 5.1-1.2 9.7.2 14.2 3 1.1.7 1.9 1.2 2.4 1.5 1.1.6 1.5.4 2 0 .2-.2.4-.4.5-.7 2.3.8 11.2 1.1 14.9 11.9.4 1.2.6 2 .8 2.6.4 1.2.9 1.3 1.4 1.3s1.1 0 1.4-1.4c0-.1 0-.2.1-.4.1 0 .1.1.2.1.9.5 2.1 1.3 3.2 2.5 1 1.1 1.8 2.6 2.2 4s.2 2.8 0 3.8c-.4 1.9-1.2 3.2-1.9 4.1s-1.2 1.5-1.6 1.9c-.1.1-.2.3-.3.4 0-.2 0-.4 0-.6-.2-2.9-1.5-5.4-3-7.6-8.7-12.3-26.9-19.7-51.3-12.7-3.9 1.1-7.4 2.4-10.7 3.8-21.1 8.9-45.3 30.3-43 51.8.3 3.2 1.2 6.1 2.3 8.6 2.2 4.9 5.3 8.2 8.1 10.3 1 .8 2 1.4 2.9 2-.4.3-.9.6-1.8 1-2.9 1.1-14.2.4-16-11.8 0-.2-.1-.4-.1-.6h.1c1.1.1 1.6-.2 1.9-.4s.3-.5.2-.8-.1-.5-.3-.8c-.2-.2-.6-.4-1.2-.8-.6-.3-1.5-.8-2.6-1.9-3.9-3.9-6.3-11.9-3.1-17.6 1-1.9 2.5-3.2 3.7-4s2.1-1.1 2.1-1.4c0-.2-.6-.4-1.6-.2 0-.3-.4-1-.5-2.1-1.1-6.6 1.8-14.4 9.9-18.2 1.4-.6 2.3-1 3-1.2 1.3-.5 1.4-1 1.4-1.6 0-.4-.1-.9-1.1-1.1.5-.9 1.1-2 2-3 2.8-3.4 6.7-4.8 11.2-4.6 1.1.1 1.8.2 2.4.2 1.1 0 1.4-.3 1.6-.9.2-.4.3-.7 0-1.2 1.4-1.2 4.8-9.3 16.3-9.4 1.2 0 2 .1 2.6 0 1.2 0 1.4-.5 1.6-1s.4-1-.8-1.8c-.6-.4-1.6-.8-3.1-1-8.3-1.2-15.7 4.7-17.1 11.3-.1.5-.1 1-.1 1.3-.5-.4-1.4-.9-2.9-1.2-8-1.7-15.1 4.4-15.4 11.1v.1c-.8 0-1.8.2-3 .6-10 3.3-14 15.2-10 22.3.5.9 1.1 1.4 1.5 1.6-.2 0-.4.1-.7.2-1.6.4-3.8 1.7-5.5 3.8-4.1 5.3-3.2 13.7.7 19.1.8 1.2 1.7 2.1 2.6 2.8 1.1.9 2.2 1.4 3.1 1.6-.1.2-.2.5-.2.7-4.3 16.6 18.8 20.9 22 12.4 0 0 0 0 0-.1.5.2 1 .4 1.5.6 1.9.7 3.2.9 4.1 1 1.8.2 2-.1 2.1-.4s-.1-.5-1.7-1.2c-.8-.3-2-.8-3.6-1.6s-3.7-2-6.1-4.1c-2.3-2-5-5-6.8-9.4-.9-2.2-1.6-4.7-1.8-7.6-1.7-19.6 21.2-39.3 41-47.7 20.6-8.7 44.7-10.3 57.5 7.2 1.3 1.8 2.3 3.8 2.4 5.8.2 2-.4 4-1.6 5.9-2.3 3.7-6.1 6.7-9.9 9.5-3.8 2.7-7.8 5.1-11.8 7.4-16 9.1-30.2 17.8-40.5 24.1-5.1 3.1-9.3 5.7-12.2 7.4-2.9 1.8-4.4 2.8-4.4 2.9.1.1 1.8-.7 4.8-2.2s7.3-3.8 12.6-6.8c10.6-5.8 24.9-14.2 41.1-22.9 4-2.2 8.2-4.6 12.2-7.4 2-1.4 3.9-2.9 5.8-4.5 1.9-1.7 3.7-3.5 5.1-5.8 1.1-1.7 1.9-3.6 2.1-5.7.2.5.5.9 1.8.5.7-.2 1.7-.7 2.9-1.8 1.1-1.1 2.5-2.9 3.1-5.8.4-1.4.4-3.6-.4-5.6z"/></g></g></svg>