<svg id="Layer_1" enable-background="new 0 0 136 136" height="512" viewBox="0 0 136 136" width="512" xmlns="http://www.w3.org/2000/svg"><g><g><path d="m102 41.9c-5.1 8.8-15.9 11.9-25 16.8 0 0 0 0-.1 0-1.3.7-2.6 1.5-3.8 2.3-3.6 2.4-6.7 5.4-9.3 8.9-1.8 2.4-3.2 4.9-4.4 7.6-.4 1-.8 2.1-1.2 3.1-2.1 6.5-2.4 13.7-5.8 19.7-2.8 4.9-9.6 9.2-16.5 10.9-.4.1-.9.2-1.3.3-5.5 1-10.8.2-13.9-3.6-1.1-1.4-1.9-3.1-2.4-5.3-2.5-12.4 2.3-20.1 7.5-30.4 4.8-9.7 10.5-18.8 18.1-26.7 10.5-10.9 24.4-19.1 39.4-21.2 2.4-.3 4.8-.5 7.2-.3 1 .1 2 .2 2.9.4.8.2 1.5.4 2.2.6 2.8 1 5.4 3 6.8 5.6.6 1 1 2.1 1.2 3.2v.3c.6 2.7-.3 5.5-1.6 7.8z" fill="#f9986e"/></g><g><path d="m21.8 108.2c-1.6.6-3.1 1.4-4.6 2.5-1.5 1-2.9 2.4-3.7 4.1-.8 1.8-.6 4.1.7 5.1 1.5 1.2 4.3.6 4.7 2.7.3 1.3-.8 2.7-1.3 4-.6 1.7-.2 3.9 1.2 4.5 1.1.4 2.3-.2 3.2-1.1s1.5-2.2 2-3.4 1.1-2.4 1.6-3.6c.4-.8.8-1.7 1.4-2.2.6-.6 1.6-.8 2.2-.3.7.6.5 2 .9 2.9.7 1.9 3.4 1.5 4.6-.2s1.2-4.1.8-6.1c-.3-1.6-.8-3.5.1-4.8" fill="#f1823b"/></g><g><path d="m98.8 27.3c-1.7-7.4 1.1-15.7 7-20.6 1.9-1.6 4.5-2.9 6.7-1.7 1.7.9 2.5 3 2.4 5s-.9 3.8-1.6 5.6c-.6 1.6-.9 3.8.6 4.8 1.8 1.2 4.3-.6 6.3.1 1.3.4 2.1 1.8 2.1 3.2 0 1.3-.6 2.6-1.4 3.7-2 2.7-5.3 4.5-8.7 4.8s-6.9-1-9.3-3.4" fill="#f1823b"/></g><g><path d="m75.8 60.5c-.8.2-1.6.5-2.3.8.6-.7 1.4-1 2.3-.8 0-.1 0-.1 0 0z" fill="#e6e7e8"/></g><g><path d="m80.3 77.9c0 1.9-1.1 3.6-2.3 5-.2.2-.3.4-.5.5-.8.9-1.8 1.7-2.8 2.2-1.4.7-2.8 1-4.2.4-.5-.2-.9-.5-1.2-.9-.4-.4-.8-.8-1.2-1.2-1.8-1.8-3.8-3.3-6-4.5-1.6-.8-4.1-1.1-4.7.6 1.5-6.6 4.7-11.6 9.3-15.1 2-1.5 4.3-2.8 6.8-3.8-1 1-1.6 2.8-1.2 4.3.6 2.5 2.6 4.2 4.4 5.9 1.8 1.9 3.6 4 3.6 6.6z" fill="#e6e7e8"/></g><g><path d="m117.1 124.5c0 .5-.3 1-.7 1.3-.8.9-1.8 1.5-2.9 1.9-3.3 1.3-7.5.6-10.6-1.4-4.2-2.6-7-7-9.6-11.3-5.2-8.2-10.4-16.5-15.6-24.7-1-1.6-2-3.2-3.1-4.9-.2-.3-.4-.6-.6-.9l3.9-1.9 3.1-1.5c8.8 16.3 23.3 28.3 35.4 42.1.4.5.7.9.7 1.3z" fill="#e6e7e8"/></g><g><path d="m57.4 33.4c-1.2-4.5-2.9-8.8-5.1-12.9-.1-.2-.3-.5-.5-.6-.3-.2-.8-.1-1.1.1-1.2.8-1.3 2.5-1.1 4 .4 4.6 1 9.1 1.8 13.6" fill="#e6e7e8"/></g><g><path d="m33.7 58c-3.3-1.2-6.4-3-9.1-5.2-1.5-1.3-.4-3.8 1.6-3.5 1.7.3 3.3 1 4.9 1.7 2.6 1.3 4.1 2.4 6.9 3" fill="#e6e7e8"/></g><g><path d="m42.1 47.6c-2.8-1.2-5.4-3-7.3-5.4-1.1-1.4-1.9-3.7-.4-4.6.9-.5 2-.1 3 .3 3.4 1.6 6.7 3.5 9.7 5.8" fill="#e6e7e8"/></g><g><path d="m117.1 124.5c0 .5-.3 1-.7 1.3-.8.9-1.8 1.5-2.9 1.9-12.2-12.9-23.6-26.5-34.3-40.8-.5 1.2-1 2.4-1.6 3.5-1-1.6-2-3.2-3.1-4.9-1.4.7-2.8 1-4.2.4-.5-.2-.9-.5-1.2-.9 1.3-2.7 2.2-5.5 2.2-8.6 0-4.6-2.6-6.5-4.3-10.3-.2-.4-.4-.8-.5-1.3-.4-1.3-.4-2.7.5-3.8.1-.1.2-.3.3-.4 2.3-3.1 6.3-2.5 8.3-.4-.8.2-1.6.5-2.3.8-1 1-1.6 2.8-1.2 4.3.6 2.5 2.6 4.2 4.4 5.9s3.6 3.8 3.6 6.3c0 1.9-1.1 3.6-2.3 5l3.1-1.5c8.8 16.3 23.3 28.3 35.4 42.1.5.6.8 1 .8 1.4z" fill="#d9dadb"/></g><g><path d="m90.8 24.1c-34.1 11.8-62.7 42.4-66.2 79.1-.3 2.5-2 4.1-3.9 4.6-1.1-1.4-1.9-3.1-2.4-5.3-2.5-12.5 2.4-20.1 7.6-30.5 4.9-9.7 10.6-18.8 18.2-26.6 10.6-10.9 24.4-19 39.5-21 2.4-.4 4.9-.5 7.2-.3z" fill="#ffaf99"/></g><g><path d="m105 35.7c-1.2 6.4-5.7 12-11.3 15.7-5 3.2-11.2 4.9-16.8 7.3 0 0 0 0-.1 0-4.2 1.8-8.1 4.1-10.9 7.7-.8 1.1-1.5 2.2-2.2 3.4-1.8 2.4-3.2 4.9-4.4 7.6-.4 1-.8 2.1-1.2 3.1-2.1 6.5-2.4 13.7-5.8 19.7-2.8 4.9-9.6 9.2-16.5 10.9.3-1 1-2 2.2-2.7 7.2-4.5 9.3-13.3 10.8-21.1 1.6-8.4 2.7-17.2 7.4-24.5 5-8 13.2-11.7 21.7-15.1 7.5-2.9 20.2-8.1 16.6-18.4-.4-1.3-.4-2.4.1-3.3.8.2 1.5.4 2.2.6 2.2.8 4.2 2.2 5.7 3.9 1.2 1.4 2 3 2.3 4.8.2.2.2.3.2.4z" fill="#f1823b"/></g><g fill="#202020"><path d=""/><path d="m124.1 22.4c-.3-1.2-.9-2.5-2.2-3.3-.6-.4-1.4-.7-2.1-.8s-1.4 0-1.9 0c-1.2.2-2.3.5-2.7.4-.2 0-.2-.1-.2-.1s-.1-.2-.1-.5c-.2-1.5 1.5-4.1 1.9-7.4.2-1.7-.1-3.6-1.2-5.3-.5-.8-1.3-1.6-2.3-2-.9-.4-2-.6-3-.5-1.9.2-3.4 1.1-4.7 2-1.3 1-2.2 2-3.2 3.2-1.8 2.3-3.1 4.7-3.8 7.1-.8 2.4-1 4.6-1 6.4 0 .8.1 1.5.1 2.1-3-1.4-6.4-1.8-9.8-1.7-2 .1-4 .3-6 .6-1 .1-2 .4-3 .6s-2 .5-3.1.8c-6.1 1.7-12.3 4.4-18.1 8.1-.1-1.5-.6-4-1.5-6.8-.2-.5-.4-1.1-.6-1.7l-.3-.8c-.1-.3-.2-.5-.4-1-.2-.4-.4-.9-.7-1.4-.2-.5-.5-1-.8-1.3-.6-.7-1.1-1-2-1.1-.9 0-1.7.4-2.3 1s-1 1.3-1.3 2.2-.3 2-.2 2.8c0 .5.1 1 .1 1.4.6 6.2 1.4 9.4 2 10.9.2.5.4.9.6 1.1-1.4 1.2-2.8 2.4-4.2 3.6-1.2-1.1-3.3-2.7-7.2-4.6-.3-.2-.7-.3-1.2-.5-.4-.2-.8-.3-1.3-.4-.2 0-.4-.1-.7-.1-1.7-.2-3.6 1.1-3.9 2.9-.2.9 0 2 .2 2.5 1.1 2.9 5 5.6 7.8 6.6-1.2 1.4-2.4 2.9-3.6 4.4-.4-.3-1-.6-1.7-1.1-3.3-2-8.3-4.9-11.2-2.6-.7.6-1.2 1.4-1.3 2.3-.8 4.1 7 7.1 9.9 7.6-2.3 3.5-4.4 7.2-6.2 10.8-1 2-2 4.1-3.1 6.1-1 2-2 4-2.9 6.1-1.8 4.1-3.1 8.5-3.4 12.8-.3 4.7.4 10.9 3.5 14.6-.7.3-1.7.7-2.7 1.2-1.3.7-2.9 1.8-4.2 3.7-.6.9-1.1 2.1-1.2 3.4-.1 1.5.3 3.1 1.5 4.1.7.6 1.4.9 2 1.1s1.2.3 1.6.5.5.3.5.3c0 .1.1.2 0 .5s-.3.8-.6 1.3-.6 1.1-.9 1.9c-.2.8-.3 1.6-.2 2.4s.3 1.7.9 2.5c.7.9 1.7 1.5 2.8 1.6 1.2.1 2-.3 2.7-.7s1.3-1 1.8-1.5c1.1-1.3 1.8-3 2.5-4.5.2-.4 1.1-2.4 1.4-3.1l.1-.3.1-.1v.2c0 .2.1.4.2.6.2.5.4 1 .7 1.4.6.8 1.7 1.3 2.6 1.4s1.7-.1 2.4-.3c.7-.3 1.3-.7 1.7-1.1.2-.2.5-.5.6-.8.2-.3.3-.5.4-.7.5-1 .7-1.9.8-2.8.2-1.7-.1-3-.4-4.1-.3-1-.5-1.6-.6-2.1-.3-1-.3-1.4-.4-1.8-.1-.3-.3-.5-.5-.7-.2-.1-.4-.3-.8 0-.4.2-1 1.1-1 2.7 0 .7.1 1.6.2 2.5.1.8.1 1.9-.1 2.9-.1.5-.3 1-.6 1.5-.1.1-.1.2-.2.3s-.1.1-.2.2-.3.2-.5.3-.4.1-.5.1 0-.1-.2-.9c-.1-1.1-.5-2.2-1.3-2.8-.5-.5-1.2-.8-2-.8-.7 0-1.5.2-2.2.6s-1.3 1.1-1.8 2l-.2.3-.1.2-.2.4c-.4.9-.2.3-1.4 3.2-.4.9-.8 1.8-1.2 2.6s-.9 1.4-1.4 1.7c-.6.3-.5.2-.6.2-.2-.2-.4-1.1-.2-1.8.1-.3.3-.8.5-1.3.2-.6.6-1.2.7-2 .2-.8.2-2-.4-2.9-.3-.5-.7-.9-1.1-1.1-.4-.3-.8-.4-1.2-.5-.7-.2-1.3-.3-1.8-.4s-.8-.2-1-.4c-.4-.2-.7-1-.7-1.8s.2-1.6.5-2.4c.7-1.5 2-2.6 3.1-3.5 1-.8 1.9-1.4 2.5-1.8.6.6 1.2 1.1 1.9 1.5 1.7 1 3.6 1.5 5.4 1.8 3.6.4 6.9-.2 9.7-1.1s5.2-2.1 7.2-3.3 3.6-2.5 4.7-3.7c1.2-1.2 1.9-2.2 2.4-3 .4-.8.6-1.2.5-1.2-.2-.1-1 1.5-3.4 3.6-1.2 1-2.8 2.2-4.8 3.2-2 1.1-4.3 2.1-7.1 2.8-2.7.7-5.8 1.2-9 .7-1.6-.2-3.1-.8-4.5-1.6-4.4-2.9-5.1-9.6-4.6-14.9.3-4 1.6-7.9 3.4-11.8.9-2 1.9-3.9 3-5.9 1-2 2.1-4 3.2-6 2.1-4 4.5-7.9 7.1-11.7s5.4-7.4 8.5-10.7 6.5-6.3 10-9c7.1-5.3 14.9-9.2 22.6-11.2 1-.3 1.9-.5 2.9-.7s1.9-.4 2.8-.5c1.9-.3 3.7-.5 5.5-.6 3.5-.1 6.8.5 9.2 1.9 2.3 1.3 4 3.3 4.6 5.4s.2 4.5-.8 6.6c-1.1 2.1-2.5 4-4.2 5.5-4.8 4.3-11.6 7-17.1 9.7-3.7 1.8-7.1 3.7-10 6-5.7 4.6-9.1 9.8-11.2 14.4-1 2.3-1.8 4.5-2.2 6.5-.5 2-.8 3.7-1.1 5.3-1.1 6.2-2 9.2-2.5 10.8s-.4 1.8-.1 2c.2.1.6.2 1.6-1.3.5-.7 1.1-1.9 1.8-3.7s1.4-4.1 2.1-7.2c.6-2.3 1.2-4.9 2.2-7.8 1.7.8 4.5 2.8 7.1 5.7.3.4.7.8 1.3 1.2.5.4 1.2.8 2 1 1.4.4 3 .2 4.2-.3.4.7.8 1.7 1.5 2.8 1.4 2.6 3.6 6.3 6.9 11.8 7.1 11.5 5 8.1 9.6 15.5 1.4 2.1 2.9 4.4 5 6.6 1.1 1.2 2.5 2.4 4.2 3.5s3.7 1.8 5.9 2.2c2.2.3 4.6.2 6.9-.8.6-.2 1.1-.6 1.6-.9l.8-.6.8-.7c.7-.7 1.2-1.6 1.3-2.5 0-1-.4-1.9-1.1-2.6-.7-.8-1.5-1.6-2.2-2.4-10.9-11.5-21.5-20.8-29.4-31.4-2.7-3.6-4.4-6.2-5-6.8.3-.7.6-1.5.7-2.3.2-1.2.1-2.4-.3-3.5s-1-2-1.6-2.9c-1.3-1.6-2.9-2.7-4-3.8-1.2-1.1-2.1-2.2-2.6-3.3-.3-.7-.3-1.6-.2-2.3 2.3-1.6 5-3.1 8-4.5 3.6-1.7 7.7-3.4 11.9-5.8 2.1-1.2 4.2-2.6 6.3-4.5 2-1.8 3.8-4.1 5.1-6.8.7-1.4 1.2-2.8 1.4-4.5.2-1.6.2-3.3-.3-4.9.9.5 2.1 1 3.7 1.3 1.7.3 3.8.3 6.2-.4 2.3-.7 4.9-2.2 7-5 .5-.7 1-1.5 1.3-2.5.5-.7.7-1.9.4-3.2zm-88.3 18.4c-.2-.3-.3-.7-.4-1-.1-.4 0-.3 0-.4.1-.1.1 0 .2 0h.1c.4.1.9.4 1.3.6 3.1 1.5 5.1 2.6 6.5 3.3-.7.7-1.4 1.5-2.1 2.2-.2.2-.4.4-.6.7-1.5-1.3-4-3.6-5-5.4zm-9.5 11.2c-.2-.2-.3-.3-.4-.4s0-.1 0-.1c0-.1 0-.1.1-.1.1-.1.1 0 .2 0h.1c.2 0 .3.1.5.1.3.1.6.2.9.3 2.2.8 3.8 1.7 5.2 2.3.5.2 1 .4 1.4.5-.5.7-1 1.4-1.5 2.2 0 0 0 .1-.1.1-1.4-1-3.7-2.5-6.4-4.9zm26.2-16.4c.1-1.7-.2-4.8-.8-10.7 0-.4-.1-.8-.1-1.3 0-.1 0 0 0-.1 0 0-.1-.2 0-.3s.1 0 .1 0c.1 0 .1 0 .2.2 0 0 .2.4.3.6l.4.7c.3.5.5 1 .8 1.5 1.4 2.7 2.5 5.1 3.2 6.3-1.4 1.1-2.8 2.1-4.1 3.1zm26.7 48.9c.7-.8 1.4-1.7 1.9-2.8.3 1 1.5 3.7 3.8 7.4 6.7 11 18.5 22.4 28 33 .7.8 1.4 1.6 2 2.3.1.1 0 .2 0 .2l-.1.1-.2.2-.5.3c-.3.2-.7.4-1 .5-1.5.6-3.1.7-4.7.5-1.6-.3-3.1-.9-4.3-1.6-1.3-.8-2.4-1.8-3.4-2.9-2.8-2.9-3.8-4.9-14.4-21.3-3.5-5.4-6-9-7.7-11.3-.7-1-1.3-1.8-1.8-2.4.8-.6 1.6-1.3 2.4-2.2zm-5.2-13.6c1.2 1.4 2.5 2.5 3.4 3.8s1.3 2.6 1 3.7c-.3 1.2-1.1 2.3-2.1 3.4-1 1-2 1.8-2.8 2.2s-1.4.4-1.8.3-.9-.5-1.5-1.1c-2.1-2.1-4.3-3.9-7.1-5.1-.6-.3-1.1-.5-1.7-.6.1-.1.1-.2.2-.4 1.9-3.9 4.9-8.3 9.7-12.2 0 .4 0 .8.1 1.3.2 1.7 1.3 3.4 2.6 4.7zm45.3-44.9c-1.4 1.9-3.2 3.1-4.9 3.7s-3.2.7-4.5.6-2.3-.4-3.1-.7c-1.6-.5-2.4-1-2.9-1.2-1.2-1.7-2.8-3.1-4.6-4.1-.1-.1-.2-.1-.3-.1 0-.8.1-1.6.2-2.6.4-3.4 2-8 5.4-11.7.8-.9 1.8-1.8 2.8-2.5s2.1-1.2 3.1-1.2c.9 0 1.6.3 2 1.1.5.8.6 1.8.5 2.9-.2 1.1-.6 2.3-1.1 3.5-.2.6-.5 1.3-.7 2.1s-.4 1.6-.3 2.5c0 .5.1.9.2 1.4.2.5.4 1 .8 1.5.7.9 1.8 1.4 2.8 1.6 1 .1 1.7 0 2.3-.1s1.1-.2 1.5-.3c.8-.1 1.1 0 1.2.1.2.1.4.5.5.8.1.7-.3 1.8-.9 2.7z"/></g></g></svg>