<svg id="Layer_1" enable-background="new 0 0 136 136" height="512" viewBox="0 0 136 136" width="512" xmlns="http://www.w3.org/2000/svg"><g><g><path d="m118.6 22.6c-.4 1.7-1.3 3.3-2.3 4.7-9 13.9-16.2 28.6-25.2 42.6-9.1 14.2-18.3 28.4-27.4 42.6-5.4 8.4-11.8 17.6-21.3 19.4-3.8.7-7.8.1-11.5-1.1-5.7-2-11.2-5.9-13.4-11.9-1.3-3.4-.4-6.6.3-10 1.3-6.1 4.7-10.5 7.8-15.7 3.5-6 7-11.9 10.5-17.9.3-.5.6-1 .9-1.5 6.8-11.4 13.5-22.8 20.2-34.2 0 0 0 0 0-.1 4.3-7.2 9.2-13.9 13.6-20.9s9.8-12.3 17.8-14.2c8.1-1.9 16.9.3 23.7 5.4 1.1.8 2.1 1.8 3 2.8 2.5 2.9 4.1 6.4 3.3 10z" fill="#d8caaf"/></g><g><path d="m32.6 111c-3.6.2-6.5 2.4-6.8 5.8-.7-1.2-1.1-2.5-1.2-4.1 0-2.8-4.4-7-7.1-4.2-1.2 1.3-.9 5.2-.8 6.8.2 2.6 1.1 5.1 2.4 7.3 3.8 6.4 11.3 10.1 18.6 10.4 6 .2 12.3-2.3 12.4-9.2.1-8.6-10-13.2-17.5-12.8z" fill="#c4b297"/></g><g><path d="m115.3 12.7c-5.3-1.8-10.6-3.8-16.1-3.8-9.3.1-16 7.9-21.5 14.4-12.6 15.3-24.2 31.6-34.7 48.5-1.5 2.4-3.9 2.8-6 2 6.8-11.4 13.5-22.8 20.2-34.2 0 0 0 0 0-.1 4.3-7.2 9.2-13.9 13.6-20.9s9.8-12.3 17.8-14.2c8.1-1.9 16.9.3 23.7 5.4 1.1.9 2.1 1.8 3 2.9z" fill="#e5d8c1"/></g><g><path d="m42.6 73.3c-1.5 2.2-.5 5.7 1.9 6.8s5.6-.3 6.5-2.8-.4-5.6-2.8-6.7-5.5-.1-7 2.1" fill="#58595b"/></g><g><path d="m83 29.9c-1-.5-2.3.6-2.3 1.8s1 2.2 2 2.8c1.2.8 2.7 1.2 4.1.9s2.7-1.4 2.9-2.9c.3-2.1-1.7-4-3.7-4.2s-4.1.7-5.8 1.8" fill="#58595b"/></g><g><path d="m69.5 61.4c-1 2.7 1.8 5.9 4.5 5.2s3.6-5 1.4-6.7c-1.9-1.4-5-.4-5.7 1.8" fill="#58595b"/></g><g><path d="m59.6 44.5c.6 1.7 1.6 3.3 3.2 4.1s3.7.5 4.8-.9c1.2-1.5.8-3.9-.8-4.9s-3.9-.3-4.7 1.3" fill="#58595b"/></g><g><path d="m103.9 17.2c1.4-1.7 4.5-1.2 5.3.8s-1.1 4.6-3.2 4.4-3.5-3.1-2.3-4.9" fill="#58595b"/></g><g><path d="m79.4 8c-1.5 2-.3 5.1 1.8 6.2s4.9.3 6.7-1.3c1.2-1.1 2.2-2.7 2.2-4.3s-1.2-3.5-2.9-3.6" fill="#58595b"/></g><g><path d="m64.5 108.3c-2-1.2-3.4-3.6-3.2-6s2-4.6 4.3-5c2.3-.5 4.9 1 5.6 3.2" fill="#58595b"/></g><g fill="#202020"><path d="m42.6 73.3c-.2-.2-1.1.4-1.5 2-.2.8-.2 1.8.2 2.9.3 1 1 2.2 2.2 3s2.8 1.1 4.2.8 2.8-1 3.8-2c1.1-1.1 1.7-2.6 1.8-3.9.1-1.4-.2-2.6-.6-3.6-.8-1.8-2.1-3-3.6-3.7-1.4-.6-2.8-.7-3.9-.5-2.2.4-3.3 1.4-3.9 2.1-.6.8-.7 1.3-.6 1.6s.3.5.5.6.5.3.8.3.7-.1 1.2-.3 1.3-.6 2.5-.6c1.1 0 2.5.3 3.3 2.1.4 1 .6 2.3-.2 3.4-.4.5-1.1 1-1.8 1.2s-1.4.2-2.1 0c-.6-.2-1.2-.8-1.6-1.4s-.6-1.3-.7-1.9c-.1-1.1.2-1.9 0-2.1z"/><path d="m81.7 35.7c5.6 4.3 12-.9 9.4-5.9-1-1.8-2.4-2.6-3.7-3.1-1.4-.4-2.6-.3-3.5-.1-1.8.4-2.7 1.1-3.3 1.6-1.1 1-.8 1.5-.5 2 0 0 .1.1.1.1-.3.4-.6.9-.6 1.6-.1 1.5 1 2.9 2.1 3.8zm2.9-5.5c.5 0 1.1 0 1.6.2 3.1 1.1 1.1 4.8-2.9 2.8-.9-.4-1.4-1-1.6-1.5-.1-.3 0-.7.2-1h.1c.6-.1 1.5-.4 2.6-.5z"/><path d="m68.5 63.1c-.1 1.2.5 3.1 2.2 4.3.8.6 2 1 3.3.9s2.5-.9 3.2-1.8c1.5-1.9 1.7-4.2 1-5.9-.6-1.6-2-2.8-3.2-3.1-1.3-.4-2.4-.2-3.2 0-1.7.6-2.5 1.6-2.8 2.3s-.2 1.2-.1 1.5c.1.1.1.1.2.2-.2.2-.5.7-.6 1.6zm2-1.3c.3 0 .5-.1.9-.3.3-.1.8-.4 1.5-.4.3 0 .7 0 1 .1.2.1.3.1.4.3.1.1.2.2.3.5.2.4.2 1.5-.2 2.2-.2.4-.5.6-.8.7s-.8.2-1.3 0c-1-.4-1.8-1.3-2.1-2-.2-.5-.3-.9-.4-1.1.2 0 .4.1.7 0z"/><path d="m63.3 47.2c-1-.3-1.9-1.1-2.5-1.7-3-3.1-1.5 2.5 1.1 4.3 1.6 1.1 4 1.3 6 .1 3.2-2 3-7-.1-8.8-3.9-2.3-8.1 1.9-5.7 3.1.5.3 1 .3 1.6.2 3.2-.5 2.7 1.9 2.1 2.5-.4.4-1.6.6-2.5.3z"/><path d="m106.3 20.3c-.2 0-.3 0-.5-.1s-.4-.4-.5-.6c-.3-.4-.4-.8-.5-1-.3-.6-.5-.8-1-1.2-.2-.2-.5-.3-.7-.3-.3 0-.7.2-1 .8s-.6 1.7-.1 3.1c.2.7.7 1.5 1.5 2.2s2.2 1.3 3.8 1c1.7-.3 3.3-1.7 3.9-3.6.3-.9.3-2.1-.1-3.1s-1.2-1.8-2-2.2c-1.7-.8-3.3-.4-4.2.2s-1 1.4-.8 1.5c.2.2.7-.1 1.4-.1.6 0 1.5.2 2 .8.3.3.4.5.3.8 0 .2-.1.5-.2.8-.4.5-.8.9-1.3 1z"/><path d="m119.2 14.9c-1.6-3-3.9-5.3-6.6-7.1-2.6-1.8-5.4-3.2-8.5-4.2-9-3-19.1-1.8-27 5-9.4 8.2-33 51.1-45 72-3.7 6.4-6.6 11.7-8.7 15.4-2 3.7-3.1 5.7-2.9 5.8.1.1 1.4-1.8 3.6-5.4 2.2-3.5 5.4-8.7 9.3-15 3.9-6.4 8.6-14 13.7-22.4 5.8-9.5 16.8-28.2 26.5-41.7 1.3-1.9 2.8-3.6 4.4-5.2.2.7.5 1.5 1.1 2.2 2.5 3.1 8 2.6 11-.8 1.9-2.1 2.4-4.8 1.6-6.7-.2-.4-.4-.8-.6-1.1 3.9-.5 8-.1 11.8 1.2 2.7.9 5.2 2.2 7.5 3.8s4.2 3.6 5.4 5.8c1.1 2.2 1.5 4.5.4 6.8-.5 1.1-1.2 2.2-2 3.4-9 14.3-16.7 29.5-25.4 42.9-6.5 10.1-12.4 19.3-17.7 27.6-.3-.3-.6-.6-1-.9-3.4-2.3-7.9-1-9.7 2.8-1.6 3.4-.2 7.3 2.4 8.8.5.3.8.4 1.1.4-1.4 2.2-2.8 4.4-4.1 6.4-2-3.2-5.2-6.6-9.6-9.5-6.9-4.6-18.8-7.5-26.3-4-.8.4-1.4.8-1.9 1.1-.1 0-.1 0-.2 0-.3.1-.8.3-1.3.6-3.4 2.1-6.2 7.7-5 14.3 1.8 8.9 11.2 15 20.4 16.3 4.6.6 8.9-.1 13.1-2.5 4.3-2.4 7.9-6.1 11.1-10.4 2.9-3.8 3-4.1 32-49.1 8.6-13.2 16.6-29.1 25.3-42.9 3-4.2 4.8-7.9 1.8-13.7zm-31.5-8.3c.1.3.4.7.5 1.4.1.5 0 1.6-1.1 2.8-1.9 2.2-4.6 2.5-5.9 1.5-.6-.4-1.1-1.1-1.3-1.8.9-.7 1.8-1.4 2.8-1.9 1.2-.7 2.5-1.3 3.8-1.7.3-.2.7-.3 1.2-.3-.1-.1-.1 0 0 0zm-38.1 119.9c.1-.3.2-.5.2-.8.9-4-.6-8.9-5.4-12.2-1.3-.9-2.9-1.7-4.7-2.3-6.4-2.2-13.4-2.6-14.7 3.3-.1.7-.1 1.4 0 2.1.2.7.5 1.3.9 1.8 1.7 2.1 5.6 3.9 9.6 3.5 2.6-.3 3.9-1.2 3.8-1.4-.1-.3-1.6.1-3.8-.2-2.7-.3-6.1-1.6-7.3-3.5-.3-.5-.4-1-.2-1.5s.6-1 1.1-1.4c1.9-1.4 6.9.2 9.2 1.1 6.4 2.4 8.2 6.3 7.7 10-.6 3.8-3.8 6-9.7 5.3-7.8-1-16.2-5.9-18.1-13.4-1.2-4.8.3-9.6 3.2-12.4.4-.3.7-.6.9-.8.2-.1.3-.3.4-.4.4-.1 1-.3 1.6-.4 8.5-1.7 21.7 1.5 33.3 14.8-.2.3-.4.6-.6.9-2.3 3.1-4.8 5.9-7.4 7.9zm14.7-18.8c-.1-.2-.3-.5-.5-.9-1.1-1.9-1.5-4.1-.2-5.8 1.1-1.5 2.7-2.2 4.5-1.4.5.2.8.4 1.1.6-.5.8-4.4 6.8-4.9 7.5z"/></g></g></svg>