<svg id="Layer_1" enable-background="new 0 0 136 136" height="512" viewBox="0 0 136 136" width="512" xmlns="http://www.w3.org/2000/svg"><g><g><path d="m51.5 122.2c-.8 3-2.8 5.8-5.5 7.5-1.5 1-3.3 1.6-5.1 1.8s-3.6-.1-5.3-.5c-2.4-.5-4.6-1.3-6.8-2.4-6.1-3-11.1-7.9-14-13.6-2.7-5.4-6-15.1 2.2-17.5 2.7-.8 5.6-1 8.6-.8 5.5.5 11.2 2.5 15.8 5.5 2.8 1.8 5.2 3.9 6.8 6.3 2.9 4 4.5 9 3.3 13.7z" fill="#f7941e"/></g><g><path d="m73.2 94.3c-1.2 4.7-5.4 8.8-10.6 9.3-1.8.2-3.6-.1-5.3-.5-6.5-1.5-12.3-5-16.6-9.8-1.7-1.9-3.1-4-4.2-6.2-2.7-5.4-6-15.1 2.2-17.5 4.7-1.4 10.1-1 15.3.5 6.6 2 12.7 5.8 16 10.5 2.8 4 4.4 9 3.2 13.7z" fill="#2bb673"/></g><g><path d="m91.1 64.9c-.8 3.4-3.3 6.4-6.5 8-1.3.7-2.7 1.1-4.1 1.2-1.8.2-3.6-.1-5.3-.5-4-.9-7.8-2.6-11.1-4.9-4.1-2.9-7.5-6.7-9.7-11.1-2.7-5.4-6-15.1 2.2-17.5 2.3-.7 4.8-.9 7.4-.8 5.5.2 11.4 2.1 16.2 5 3.2 1.9 5.9 4.2 7.7 6.8 2.8 4.1 4.4 9.1 3.2 13.8z" fill="#f7941e"/></g><g><path d="m28.8 128.6c-6.1-3-11.1-7.9-14-13.6-2.7-5.4-6-15.1 2.2-17.5 2.7-.8 5.6-1 8.6-.8-.2.4-.4.8-.7 1.1-7.5 8.8-3 21 3.9 30.8z" fill="#fca94f"/></g><g><path d="m64.1 68.8c-4.1-2.9-7.5-6.7-9.7-11.1-2.7-5.4-6-15.1 2.2-17.5 2.3-.7 4.8-.9 7.4-.8-5 6.2-2.8 15.6 4 21.1 3.9 3.2.2 8.3-3.9 8.3z" fill="#fca94f"/></g><g><path d="m53.9 70.1c-.8.8-1.9 1.4-3.3 1.5-4.8.3-8.5.9-9.9 6-1.2 4.4-.4 9.2.1 13.6.1.8 0 1.5-.1 2-1.7-1.9-3.1-4-4.2-6.2-2.7-5.4-6-15.1 2.2-17.5 4.6-1.3 10.1-.9 15.2.6z" fill="#3bc480"/></g><g><path d="m91.1 64.9c-.8 3.4-3.3 6.4-6.5 8 0-.8.3-1.6.7-2.4 4.5-7.7 1-16.2-4.1-22.7-.9-1.1-1.2-2.4-1.1-3.5 3.2 1.9 5.9 4.2 7.7 6.8 2.9 4.1 4.5 9.1 3.3 13.8z" fill="#ed800a"/></g><g><path d="m51.5 122.2c-.8 3-2.8 5.8-5.5 7.5-1.6-1-2.6-2.9-1.9-5.3 1.7-5.8 1.8-11.1-2.6-15.5-2.2-2.2-1.7-4.9-.1-6.7 2.8 1.8 5.2 3.9 6.8 6.3 2.9 4 4.5 9 3.3 13.7z" fill="#ed800a"/></g><path d="m125.5 6.3c-.9-.7-2.2-1.4-3.8-2s-3.4-1-5.5-1.3-4.3-.5-6.8-.4-5.2.7-7.8 2.2c-2.5 1.5-4.8 3.8-6 6.9-.6 1.6-.7 3.4-.4 5 .2 1.7.8 3.2 1.4 4.7s1.2 2.9 1.7 4.3.9 2.8.8 4.1v.5l-.1.5c0 .3-.1.6-.3.9-.2.6-.5 1.1-.9 1.7-.8 1.1-2.1 2.2-3.2 3.4-3.3 3.4-6.6 6.7-9.9 10-.7-.7-1.5-1.4-2.4-2.1-4.1-3.1-10.8-6.5-19-7-11.1-.3-14.2 4.3-13.7 11.4.6 4.9 3.3 11.4 8.1 16.6 1.4 1.5 3 2.9 4.5 4-.7.7-1.3 1.3-1.9 2-9.6-5.5-27.8-7.7-29.1 3.3-.2 1.2-.1 2.4 0 3.5.5 3.9 2.4 8.7 4.4 11.9.9 1.4 1.9 2.7 2.9 3.9-1.1 1.2-2.2 2.3-3.2 3.4-7.3-3.1-16.3-4.4-22.7.1-.5.4-.9 1-1.3 1.5-.7 1.1-1.1 2.4-1.3 3.5-.2 1.2-.1 2.4 0 3.5.5 3.9 2.4 8.7 4.4 11.9.1.2.3.5.5.7 0 0 0 0-.1 0-3.2 3-5 4.4-5.9 5.2s-.8 1.1-.7 1.3c.1.3.4.4 1.5 0s3.3-1.5 6.8-4.3c.5.6 1 1.2 1.5 1.7 2.6 2.8 5.5 4.9 8.3 6.5 19.6 10.6 31.2-3.8 25.8-16.6-1.2-2.8-2.3-3.9-2.9-4.4s-.9-.4-1.1-.2-.4.4-.2 1.1c.2.8.8 2 1.5 4.5 3.2 12-6.4 20.1-21.2 12-2.4-1.3-5-3.2-7.3-5.6-.5-.5-.9-1-1.4-1.5-3.3-4-8-13.2-5.4-17.6 2.7-4.4 13.4-3.5 19.4-1.6.1 0 .3.1.4.1 1.3.4 2.5.9 3.6 1.4 1.6.7 3 1.5 4.3 2.3 2.1 1.3 3.6 2.6 4.7 3.6 1 1 1.6 1.5 1.7 1.4s-.2-.8-1.1-2-2.3-2.7-4.4-4.3c-1.1-.8-2.3-1.7-3.7-2.5.8-.8 1.5-1.6 2.3-2.4 2.1 1.8 4.2 3.3 6.2 4.4 19.6 10.8 31.2-3.8 25.8-16.6-1.2-2.8-2.3-3.9-2.9-4.4s-.9-.4-1.1-.2-.4.4-.2 1.1.8 2 1.5 4.5c.3 1.2.7 2.8.6 4.7-.1 7.8-7.6 15.2-21.8 7.4-1.7-1-3.6-2.2-5.3-3.8-.7-.6-1.3-1.2-2-1.9-.3-.3-.6-.6-.9-.9-12-13.7-7.6-26.8 13.8-19.8 1.3.5 2.6 1 3.8 1.5 1.4.6 2.6 1.3 3.8 2 .1.1.2.1.3.2 2.1 1.3 3.6 2.6 4.7 3.6 1 1 1.6 1.5 1.7 1.4s-.2-.8-1.1-2-2.3-2.7-4.4-4.3c0 0-.1-.1-.1-.1.6-.6 1.3-1.3 1.9-2 .1.1.2.1.3.2 2.5 1.4 5 2.3 7.4 3 10.8 2.9 17.8-3 19.4-10 .3-1.4.4-2.8.3-4-.1-2.4-.7-4.2-1.3-5.6-1.2-2.8-2.3-3.9-2.9-4.4s-.9-.4-1.1-.2-.4.4-.2 1.1.8 2 1.5 4.5c.3 1.2.7 2.8.6 4.7-.7 34.3-61.7-19.9-26.5-20.7 3.7 0 7.2.7 10.3 1.7s5.8 2.3 7.8 3.7c1.6 1 3.1 2.1 4.7 3.6.2.2.4.4.5.5.7.6 1.1 1 1.2.9s-.1-.6-.7-1.4c3.3-3.5 6.6-7 9.9-10.5 1.1-1.2 2.3-2.3 3.4-3.8s1.8-3.6 1.8-5.5-.6-3.7-1.2-5.2c-.6-1.6-1.3-3-1.9-4.4-1.2-2.8-1.9-5.5-1.1-7.9s2.6-4.5 4.7-5.8 4.5-1.9 6.8-2.2 4.5-.1 6.5 0c4 .3 7.1 1.2 9 2.4s2.5 2.3 2.7 2.2c.3.5-.1-.9-2-2.4z" fill="#202020"/></g></svg>