<svg id="Layer_1" enable-background="new 0 0 136 136" height="512" viewBox="0 0 136 136" width="512" xmlns="http://www.w3.org/2000/svg"><g><g><path d="m95.3 60.2c-.9 6.2 1.8 12.3 4.3 18 4.9 11.2 9 23.5 4 34.8-3 6.8-9.4 12.5-17.2 15.5-5.2 2-10.9 2.8-16.5 2.4-2.9-.2-5.7-.7-8.4-1.6-14-4.5-26.3-15.4-32.4-26.9-5.1-9.5-8.5-21-7.6-31.7.4-4.1 1.4-8 2.7-12 3.3-10.4 8.3-18.9 16.1-27.6 6.2-6.9 13.1-13.5 21.6-18.4 6.2-3.6 13-6.1 20.1-7.1 7.3-1 14.4-1.7 21.6 1.5 5.6 2.5 9.4 6.7 11.3 11.9 1 2.6 1.5 5.3 1.5 8.2.1 5.2-.9 10.8-5 14.7-2.3 2.2-5.5 3.6-8.2 5.6-4.3 3.2-7.2 7.9-7.9 12.7z" fill="#89472b"/></g><g><path d="m95.3 60.2c-.9 6.2 1.8 12.3 4.3 18 4.9 11.2 9 23.5 4 34.8-3 6.8-9.4 12.5-17.2 15.5-5.2 2-10.9 2.8-16.5 2.4-2.7-2.7-1.5-8.6 3.4-8.7 10.3-.1 24.2-2.3 27.8-13.8 1.7-5.3-.7-10.6-2.9-15.3-2.4-5-4.8-10-6.3-15.4-2.9-10.1-2.5-21.4 4-30 5.6-7.5 17.8-13.7 16.4-24.3-.3-2.4.9-3.9 2.6-4.5 1 2.6 1.5 5.3 1.5 8.2.1 5.2-.9 10.8-5 14.7-2.3 2.2-5.5 3.6-8.2 5.6-4.3 3.3-7.2 8-7.9 12.8z" fill="#7c3a25"/></g><g><path d="m102.9 23.8c-.1 4.7-1 9.9-4.6 13.7-2.1 2.2-4.8 3.7-7.1 5.6-3.9 3.2-6.5 7.7-7.3 12.2-.9 5.9 1.2 11.4 3.1 16.7 3.8 10.4 7.1 22.1 2.3 33.1-2.9 6.7-8.7 12.6-15.6 15.9-7 3.3-15 4-21.7 1.8-7.2-2.3-13.6-6.9-18.6-12.6-3.3-3.7-5.9-7.8-7.7-12.1-3.8-8.7-5.9-19.5-4.5-29.5.5-3.8 1.7-7.5 2.9-11.2 3.3-9.6 8-17.7 14.9-25.9 5.5-6.5 11.5-12.8 18.7-17.7 3.5-2.3 7.2-4.3 11.2-5.8 2.5-.9 5.1-1.6 7.7-2 6-1 13.2 2 18.1 4.4 2.9 1.4 5.6 3.3 7 6 1.1 2.1 1.3 4.8 1.2 7.4z" fill="#af6d5b"/></g><g><path d="m69.7 25.3c-1.9-6.2 2.1-11.9 8.9-12.8 6.6-.9 13.4 3.2 15.4 9.1 2 6-1.6 11.8-8.3 13-6.8 1.2-14.1-3-16-9.3z" fill="#fde4cb"/></g><g><path d="m70.4 90c-5.3-.2-9.7-3.4-13.8-6.4-4.6-3.2-9.1-6.6-13.4-10.3-4.8-4.2-11.9 2.9-7.1 7.1 9.4 8.1 21.2 19.1 34.3 19.6 6.4.3 6.4-9.7 0-10z" fill="#9e5f57"/></g><g><path d="m69.7 66.7c-7.8-1.9-14.7-6.2-19.4-12.8-3.7-5.2-12.4-.2-8.6 5 6.2 8.8 14.9 14.9 25.4 17.4 6.2 1.6 8.9-8.1 2.6-9.6z" fill="#9e5f57"/></g><g><path d="m69.4 41.5c-3.5-.6-6.5-2.2-8.5-5.2-3.5-5.4-12.1-.4-8.6 5 3.3 5.1 8.4 8.8 14.5 9.8 2.7.4 5.4-.7 6.2-3.5.6-2.3-.9-5.7-3.6-6.1z" fill="#9e5f57"/></g><g><path d="m66.5 12.8c-34.8 19.1-48.8 61.7-33 97.4-3.3-3.7-5.9-7.8-7.7-12.1-3.8-8.7-5.9-19.5-4.5-29.5.5-3.8 1.7-7.5 2.9-11.2 3.3-9.6 8-17.7 14.9-25.9 5.5-6.5 11.5-12.8 18.7-17.7 3.5-2.3 7.2-4.3 11.2-5.8.1 1.8-.5 3.7-2.5 4.8z" fill="#b77869"/></g><g fill="#202020"><path d="m116.8 25.4c-.2-2.2-.5-3.9-.9-5s-.7-1.6-.8-1.6c.1-.1.2-.2.2-.5 0-.4-.2-1-.7-2.1s-1.5-2.7-3.5-4.4c-5.1-4.7-13.6-7.4-20.5-8.3-1.5-.2-3.3-.3-5.1-.1s-3.5.5-5.2.8c-1.9.3-3.8.7-5.8 1.3 0 0-.1 0-.2 0-8.1 1.7-15.7 5.8-22.2 11-15.9 12.6-32 35.6-33 56.6-.5 11.7 3.2 24.4 8.6 32.8 3 4.7 6.8 8.7 10.9 11.9.3.3.7.5 1 .8 4.1 3.8 8.9 7 14.1 9.6 2.9 1.4 5.9 2.6 9.1 3.4 22.2 5.9 49.3-9 44-36.6-3.6-18.8-17.8-31.3-5.5-44.4 3-3.3 7.1-4.8 10.2-7.6.8-.7 1.5-1.4 2.1-2.2s1.1-1.6 1.5-2.4c.8-1.7 1.3-3.3 1.6-4.9.4-3.2.3-5.9.1-8.1zm-1.4 7.8c-.7 2.9-2.1 6.2-5 8.6-1.4 1.2-3.2 2.2-5 3.3s-3.8 2.4-5.5 4.2c-1.7 1.7-3.2 3.8-4.2 6.1-5.7 12.5 5.4 23.5 8.3 40.1 4.5 25.7-22.3 40.6-45.9 30.5 16.9 1.3 33.1-11.1 35.4-28 .8-6.1-.1-11.7-1.3-16.6-3.3-12.8-10.5-21.9-3.8-32.2 6.5-10.4 11.6-7.1 15-18 .7-2.3.8-3.9.8-5-.1-2.2-.4-2.3-.6-2.3-.3 0-.5.2-.9 2.2-.2 1-.6 2.4-1.4 4.4-4.4 10.1-8.8 6.4-15.7 16.9-.9 1.3-1.7 2.8-2.3 4.5-3.8 9.9 2.3 18.9 5.2 30.5 1.1 4.6 1.9 9.8 1.1 15.1-2.6 17-21 28.1-36.5 23.5-4-1.2-8.1-3.4-11.8-6.2-.1-.1-.2-.1-.3-.2-13.3-10.4-18.9-26.8-18.4-41.4 1-24.5 24.4-53.7 43.3-62.6 4.1-1.9 8.3-3.3 12.3-3.8 1.8-.2 3.5-.1 5.2.3 2 .4 3.9 1 5.7 1.6 6.5 2.5 11 6.2 13 9.4 1 1.6 1.1 3.2 1.3 4.2.1 1 .1 1.6.2 1.6s.2-.5.2-1.6c0-.5 0-1.2-.1-2s-.3-1.7-.8-2.6c-1.9-3.6-6.5-7.7-13.1-10.5-.7-.3-1.3-.5-2-.8 1 0 1.9 0 2.8.1 1.4.1 2.8.3 4.1.6 2.6.5 4.8 1.1 6.8 1.8 3.9 1.4 6.6 3 8.5 4.4s2.9 2.7 3.6 3.5c.7.9 1 1.4 1.3 1.6.3.3.4.2.5.2-.2.1.8 2.3.9 6.7-.3 2.3-.3 4.9-.9 7.9z"/><path d="m71.6 14.5c-1.7 1.7-2.6 3.8-2.9 5.5-.3 1.8 0 3.2.3 4.1s.6 1.3.7 1.3c-.3.1-.5.2-.5.8 0 .3 0 .7.1 1.2 1.1 3.7 4.2 6.5 7.8 8.1 5.7 2.5 12.9 1.6 16.9-3.1 10.2-12.2-10.9-29.2-22.4-17.9zm19.2 15.2c-2.9 3.4-8.2 3.9-12.3 2.3-3.9-1.5-5.5-3.6-7.1-5.6-.3-.4-.5-.6-.7-.8-.4-.3-.7-.3-.9-.2.1 0 .1-.6.1-1.4 0-.9 0-2.1.5-3.6 1.5-5.2 8.2-8.3 15.2-5.1 6.1 2.7 9.1 9.8 5.2 14.4z"/></g></g></svg>