<svg id="Layer_1" enable-background="new 0 0 136 136" height="512" viewBox="0 0 136 136" width="512" xmlns="http://www.w3.org/2000/svg"><g><g><path d="m111.5 37.8-62.6 84.3c-13.7-4.6-32.5-16.8-40-29.9-.1-.1-.1-.2-.2-.3-4.3-7.7-5.3-17.1-4.3-26 .2-1.4.4-2.8.7-4.3 4.3-22.5 22.2-41.5 43.3-46.3 1.4-.3 2.8-.6 4.2-.8 14.9-2 29.8 2.5 42.9 10.7 5.7 3.7 11.1 8 16 12.6z" fill="#ec008c"/></g><g><path d="m129 95.1c-9.2 26.7-37.9 24.8-60.3 26.4-12.1.9-22.4 3-28.8-10.6-11.3-23.7 3-60.1 23.6-72.9 21.1-13.2 52.1-5.8 63.8 17.8 5.9 11.9 6.1 26.6 1.7 39.3z" fill="#c2b59b"/></g><g><path d="m104.3 49.4c-11.2-5-21-2.4-32.3.5-9.5 2.4-14.7 12.6-18.3 21.7-2.7 6.7-4.5 14.1-3.9 21.4s3.9 14.7 9.7 18.6c7.4 5.1 17.1 4.4 25.6 4.3 8.6-.1 17.4-2.5 23.9-8.8 3.6-3.5.7-8.7-3.2-9.3 8.2-3.8 14.7-11.3 16-21 1.6-12.6-7.2-22.8-17.5-27.4zm-5 22.3c-2.2 3.3-7.3 3.2-10.4 2.1-.8-.3-1.5-.4-2.2-.3 1.2-1.3 2.6-2.4 4-3.1 2-.9 11.4-2.9 8.6 1.3zm-27.2 31.4c-8.8-2-9.1-13.4-8.9-21.3.3-9.5 4.2-17.1 12.5-21.2 6.4-3.2 14.2-4.1 21.1-2.2-3.2-.1-6.4.3-8.7 1.3-10 3.9-17.2 14.2-15 25.8 2.5 13 14.4 17.1 25.6 14.9.8-.2 1.7-.4 2.5-.6-7.7 6.8-20 5.3-29.1 3.3zm37.5-22.6c-3.7 6.7-16.3 12.9-23.2 7.9-2.4-1.8-3.4-4.1-3.4-6.6.6 1.2 1.6 2.1 3 2.7 9.1 3.2 22.3-1.2 24.9-12.1.1-.3.1-.5.2-.8.6 2.8.2 5.8-1.5 8.9z" fill="#b7a98f"/></g><g><path d="m95.5 25.3c-1.1 1.2-2.8 1.8-4.8.9-19.4-8.1-41-3.5-56.7 10.8-15.3 14-23.4 34.3-25.1 55.3-.1-.1-.1-.2-.2-.3-4.3-7.7-5.3-17.1-4.3-26 .2-1.4.4-2.8.7-4.3 4.9-12.9 12.3-24.6 22.7-33.7 6.2-5.4 13.2-9.7 20.6-12.6 1.4-.3 2.8-.6 4.2-.8 14.9-2 29.8 2.6 42.9 10.7z" fill="#f21ca5"/></g><g><path d="m74.4 31.1c-19.8 8.2-34.6 25.9-38 47.3-1 6.3 8.7 9 9.6 2.7 2.7-17.7 14.3-33.4 31-40.3 6-2.5 3.4-12.2-2.6-9.7z" fill="#dbcdb4"/></g><g fill="#202020"><path d="m124.6 47.9c-3.4-4.5-8.1-9-14.3-12.4-1-1.2-2.8-3.1-6.2-5.9-4-3.2-10.3-8.1-21.1-12.6-32.4-13-61.7 2.3-74.8 29.5-3.3 6.9-5.2 14.7-5.7 22.6-.8 16.6 4.9 32.8 32.1 47.4 4.2 2.3 7.8 3.7 10.3 4.6 2 .7 3.4 1 3.8 1.1 1.1.4 2.2.8 3.3 1 2.7.6 5.4.6 8 .5s5.1-.4 7.6-.6c9.8-.8 19.4-1 28-2.5 4.3-.7 8.4-1.7 12-3 3.7-1.3 6.9-3.1 9.6-5 2.7-2 4.8-4.1 6.4-6.3 1.6-2.1 2.7-4.1 3.5-5.8s1.3-3 1.5-3.9c.3-.9.4-1.4.3-1.4s-.3.4-.7 1.3-1 2.1-1.9 3.7c-1.8 3.1-4.8 7.5-10.1 11.1s-12.7 6-21.1 7.1c-8.4 1.2-17.9 1.2-27.9 1.9-5 .3-10.1.9-14.7-.1-2.3-.5-4.5-1.5-6.2-3-1.8-1.5-3.2-3.5-4.3-5.7-1.2-2.2-2.1-4.6-2.7-7-.7-2.4-1.1-4.9-1.3-7.4-.5-5-.2-10.1.7-15 1.8-9.8 5.6-19 10.6-26.5 2.5-3.8 5.2-7.1 8.2-10 2.9-2.8 6-5.1 9.2-6.8 5.8-3.1 11.9-4.6 17.6-4.9 5.8-.3 11.2.5 16.1 2 9.7 3 16.8 8.7 21.3 14.6 8.4 10.8 10.2 24.9 8 38.3-.2 1-.3 1.8-.4 2.5s-.2 1.3-.3 1.8c-.3 1.9-.1 2.1.1 2.2.3.1.6 0 1.4-1.7.2-.4.4-1 .7-1.7s.5-1.5.8-2.6c3.5-13.5 1.5-29.6-7.4-41.4zm-40.6-18.3c-6.3.3-13 2-19.3 5.4-3.5 1.9-6.9 4.4-10.1 7.5-3.1 3.1-6.1 6.7-8.7 10.7-5.2 8-9.2 17.6-10.9 28.1-.9 5.2-1.2 10.6-.6 16 .3 2.7.8 5.4 1.6 8s1.8 5.2 3.1 7.6 3 4.8 5.2 6.6c.4.3.9.7 1.3 1-2.4-1.1-6-2.8-10.3-5.4-26.6-16.1-30.5-30.9-29.5-45.9.6-7.4 2.5-14.7 5.8-21.2 12.3-24.5 38.9-39.4 70.1-27.5 10.3 4 16.5 8.5 20.7 11.5.1.1.2.1.3.2-.4-.1-.8-.3-1.2-.4-5.3-1.7-11.2-2.6-17.5-2.2z"/><path d="m110.7 56.2c-4.1-3.3-9-4.8-13.7-5.3-15-1.6-31.3 4.5-38.8 17.8-5.3 9.4-9.9 33.4 5.1 41.1 9.5 4.8 22.1 1.1 32.3-3.1 6.4-2.7 9.4-4.7 10.9-5.8s1.5-1.4 1.3-1.7c-.1-.2-.4-.4-2.1.3-1.7.6-4.9 2.2-11.2 4.5-49 17.3-37.9-24.4-32.8-33.3 6.8-11.9 21.6-17.1 34.9-15.8 4.1.4 8.3 1.7 11.7 4.4 19.1 15-7.9 38.4-22.5 32.6-4.1-1.5-7.4-5.3-8.1-9.4-.4-2 0-4.2.8-6.1s2.2-3.6 3.7-5.1c3.4-3.3 10.7-7.8 15.9-7.2 1.7.2 3.3 1 4.4 2.1 3.5 3.4 3.2 8.7-5.5 12.8-2.2 1-4.2 1.7-5.9 1.9s-3 0-3.8-.3-1.2-.6-1.3-.5c0 0 .3.4 1.1.9.8.4 2.2.9 4.1.8 1.8-.1 4-.7 6.3-1.6 9.8-4 10.7-10.9 6.3-15.3-1.4-1.4-3.3-2.5-5.5-2.9-8.2-1.3-25.4 8.5-23.5 20.9.4 2.6 1.6 5.1 3.4 7.2 1.7 2 3.9 3.7 6.5 4.7 3.8 1.6 9.4 1.8 15.8-.8 2.5-1 4.7-2.3 6.9-3.8 14.4-10.1 14.1-25.3 3.3-34z"/></g></g></svg>