<svg id="Layer_1" enable-background="new 0 0 136 136" height="512" viewBox="0 0 136 136" width="512" xmlns="http://www.w3.org/2000/svg"><g><g><path d="m53.5 17c-.4-5.4 3.5-10.8 8.6-11.8 4-.8 8.5 1 10.9 4.5 1.8 2.7 2.4 6 3 9.2" fill="#6d6e71"/></g><g><path d="m111.7 99.5c-1.7 12.8-11.9 23.1-23.5 27.7-6.4 2.5-13.3 3.6-20.1 3.8-5.5.1-11.1-.3-16.6-.9-8.7-1.1-17.5-2.7-25.4-6.6-3.1-1.5-6.1-3.4-8.4-5.8-1.2-1.3-2.3-2.7-3.1-4.3-3.3-6.8-1.4-15.1 1-22.3 5-15.3 10.8-31.1 18.3-45.5 6.5-12.6 15.9-31.7 32-31.3 3.1.1 5.9 1 8.6 2.5.9.5 1.7 1.1 2.6 1.7 1.4 1 2.7 2.2 4 3.5s.1.1.1.1c1.8 1.9 3.5 4 5 6.1.9 1.2 1.7 2.4 2.5 3.7 7 11 12.7 22.9 17 35.3 1.5 4.1 2.7 8.3 3.9 12.6.3 1.3.7 2.7 1 4 .3 1.2.5 2.5.8 3.7.5 3.9.8 7.9.3 12z" fill="#00a79d"/></g><g><path d="m130 33c0 .1 0 .3-.1.4-.4 1.7-2 2.6-3.2 3.8-1.7 1.7-2.5 4.1-2.8 6.5-.6 5.8 2.1 10.6 3.2 16 1.7 8.6-2.6 17.6-8.4 23.5-2.1 2.1-4.7 3.9-7.6 4.3-.1 0-.2 0-.4.1l-.9-3.4-4.4-17-.6-2.3c2.7-.2 5.4-1 7.5-2.8s3.4-4.7 3-7.5c-.3-2-1.3-3.7-2.1-5.5-2.7-6.1-2.8-13.7 1-19.1 1.8-2.6 4.7-4.5 7.7-5.2 4.1-.9 4.5 1.1 6.5 4.4 1 1.1 1.8 2.4 1.6 3.8z" fill="#04af9f"/></g><g><path d="m86.1 28.1c-.2 1.2-1 2.3-2.5 2.9-.8.3-1.4.7-2.1 1.1-1.9 1.3-4.1.8-5.7-.6-2.5 1-5.3 1.5-7.5 1.8-5.4.9-10.7.7-16.1-.3-.4-.1-.8-.2-1.1-.3-7.1 7.6-12.2 17.1-16.9 26.4-4.3 8.7-7.9 17.7-10.7 26.9-1.3 4.4-2.5 8.9-3.5 13.4-1 4.6-2.5 9.7-1.7 14.4.3 1.4-.1 2.7-.7 3.7-1.2-1.3-2.3-2.7-3.1-4.3-3.3-6.8-1.4-15.1 1-22.3 5-15.3 10.8-31.1 18.3-45.5 6.5-12.6 15.9-31.7 32-31.3 3.1.1 5.9 1 8.6 2.5 0 .2 0 .5-.1.7.2 0 .3.1.5.1.8.2 1.5.5 2.2.8 1.7.8 3.1 2 4 3.5s0 .1.1.1h.1c3 .4 5.4 3.6 4.9 6.3z" fill="#17c6b5"/></g><g><path d="m130 33c0 .1 0 .3-.1.4-.4 1.7-2 2.6-3.2 3.8-1.7 1.7-2.5 4.1-2.8 6.5-.6 5.8 2.1 10.6 3.2 16 1.7 8.6-2.6 17.6-8.4 23.5-2.1 2.1-4.7 3.9-7.6 4.3.7 4 1 8.1.4 12.1-1.7 12.8-11.9 23.1-23.5 27.7-6.4 2.5-13.3 3.6-20.1 3.8 3.4-1.2 6.7-2.7 9.9-4.1 5.4-2.4 10.4-5.3 14.7-9.3 7.9-7.4 13.1-17.5 14.3-28.3.2-1.6 1-2.8 2-3.6.2-.6.5-1.1 1.1-1.6l.4-.4c4-3.1 7.6-6.7 9.6-11.4 2.3-5.3 1.1-10.2 0-15.6-1.8-8.5-1.3-18.2 7-23 1.2-.7 2.2-.9 3.1-.8z" fill="#039385"/></g><path d="m131.9 31.7c-.3-1.5-1-2.6-1.6-3.6-.6-.9-1-1.8-1.7-2.8-.4-.5-.8-1.1-1.5-1.7-.7-.5-1.6-.9-2.4-1-1.7-.2-2.8.2-4.1.6-10.6 3.6-13.1 16.7-7.9 26.9.4.9.9 1.7 1.2 2.5 1.4 3 .3 6.2-1.3 8.1-1.7 2-3.8 2.8-5.2 3.2-.2.1-.5.1-.7.2-1.6-4.2-3.2-8.1-4.8-11.7-5.1-11.1-14.5-29-24.7-35.6v-.1c0-.9-.1-2.3-.7-4.4-.3-1-.8-2.3-1.6-3.6-6.4-10.1-21.6-5.6-21.9 5.5-.2 1.8.2 2.8.5 2.8s.4-1.1.9-2.5c3-9.2 14.2-10.7 18.4-.9.2.5.3.9.5 1.3-2.2-.9-3.9-1.1-5-1.2-2.3-.1-2.4.3-2.4.5 0 .3.2.5 2.2 1 1 .3 2.4.7 4.4 1.7.7.4 1.5.9 2.4 1.5.2.3.5.4.7.5 3.6 2.7 6.4 6.1 9 9.7-.3.2-.6.4-1.1.7-.8.5-2 1.3-4.1 2-12.5 4.3-27.8 1.1-36.2-.7 2.7-4.2 6.2-8.7 10.2-11.7 2.3-1.7 4.5-2.8 6.4-3.5 3.8-1.3 6.2-1 6.2-1.3 0-.1-.6-.1-1.7-.2-1.1 0-2.7.1-4.7.7s-4.4 1.6-6.9 3.3c-5.8 4-10.6 10.7-14.2 16.9-.4.7-.8 1.5-1.3 2.2-.3-.5-.9-1.1-1.8-1.8-5.9-4.6-16-4.7-23.2 1.7-3 2.5-5.9 6.7-7.2 11.7-2.2 8.3-.7 15.4 6.1 20.5 1.7 1.3 3.3 2.2 4.7 2.8 1.9.9 3.4 1.4 4.2 1.5-.3.8-.6 1.7-1 2.5-3.2 8.7-6.8 18.5-7.7 25-1.4 10.5 2.3 17.9 12.6 23.4 5.4 2.8 11.3 4.6 17 5.8 10.2 2.1 23.3 3.4 33.7 2.2 26.9-3.1 40.9-21.6 39.1-41.2-.1-1.1-.3-2.3-.4-3.4 1-.2 2.4-.7 4.2-1.8 6-4 12.5-14 12-24-.4-10.7-8.3-15 1.1-25.9.4-.5.9-1.2 1.1-2 .3-.6.3-1.5.2-2.3zm-115.3 38.9c-1.2-.8-2.7-1.9-4.1-3.2-4.9-4.5-6.4-9.8-4-17.7 1.4-4.2 3.8-7.7 6.2-9.8 5-4.4 11.8-5.6 19-2.3 5.2 2.5 1-2.4-13.5 35.4-.6-.5-1.9-1.3-3.6-2.4zm57.6 57.9c-10 1.2-22.7 0-32.5-2-15.8-3.2-29-9.3-27.2-25.1.7-5.8 3.7-14.5 7.2-24.5 6.9-19.3 15.3-36.4 20.8-45.4 9.1 5.8 27.8 7.8 38.1 3.3 2.5-1.1 3.9-2.4 4.7-3.4.2-.3.4-.5.5-.7 3.5 5.4 8.3 14 12.5 23.4 3.5 8 7.1 17.5 9.9 28.9.7 2.8 1.3 5.8 1.5 8.8 1.6 17-10.7 33.7-35.5 36.7zm53.4-94.8c-1 1.2-6.6 4.1-5.6 13.7.3 3.2 1.3 6 2 8.4.4 1.2.7 2.4 1 3.5.1.6.2 1.1.3 1.6s.1 1 .2 1.5c.5 8.2-4.8 17.2-9.7 21.4-1.2 1-2.1 1.6-2.8 2-.3-1.3-.5-2.6-.8-3.8-1.6-6.3-3.4-11.9-5.3-17.1.2 0 .4 0 .6-.1 1.6-.2 4-.8 6.2-3 1.1-1.1 2-2.5 2.6-4.2.6-2 .4-3.8-.3-5.8-.3-.9-.7-1.8-1.1-2.7s-.7-1.7-1-2.6c-.6-1.8-.9-3.8-.9-5.7-.2-6.2 2.7-12.2 8.7-14.1.9-.3 1.9-.5 2.5-.4.3 0 .4.1.6.3s.4.4.7.8c.5.8 1 1.8 1.6 2.8.5.9.9 1.7 1 2.2 0 .5-.1.7-.5 1.3z" fill="#202020"/></g></svg>