<svg id="Layer_1" enable-background="new 0 0 136 136" height="512" viewBox="0 0 136 136" width="512" xmlns="http://www.w3.org/2000/svg"><g><g><path d="m80.7 25c-.5 1.4-1.1 2.7-1.8 3.9-2.5 4.9-6.1 9.2-8.7 14.1-3.3 6.1-5 14.2-1.2 19.6-.1.1-.2.1-.3.1l-17.4 6.9c-.3-3.9-3.7-6.4-7-8.2-5.6-3-11.7-5-17-8.4-1.5-.9-3-2-4.3-3.2-6.1-5.4-9.5-15.6-4.6-22.8 1.5-2.2 3.7-3.8 6.1-4.6 1.1-.4 2.3-.6 3.4-.7.8 0 1.7 0 2.5.1h.1c1.3.2 2.5.7 3.6 1.4 3.6 2.3 5.6 6.5 8 10.2s5.9 7.2 10.2 6.9c1.2-3.2.4-6.7.1-10.1 0-.3 0-.6-.1-.9-.3-7.1 3.3-14.4 8.8-18.8 1.9-1.6 4.1-2.7 6.4-3.5 2.8-.9 5.8-1.1 8.4 0 1.5.7 2.7 1.7 3.5 3 2.9 4 3 10.1 1.3 15z" fill="#8dc63f"/></g><g><path d="m110.8 106.7c-2.6 7.8-2.9 17.6 2.8 22.8l.7.1c-2.8 2.7-7.1 1.8-10.3-.4-.4-.2-.7-.5-1-.8-3.2-2.7-5.8-6.4-9.7-7.7-4.8-1.6-10 .9-14.9 2.8-.2.1-.3.1-.5.2-2.7 1-5.4 1.8-8.2 2.4-3.6.7-7.3 1-10.8.7 0 0 0 0-.1 0-5.1-.4-10-1.9-14.3-4.7-5.3-3.6-8.5-7.6-10-11.9-3.6-10.1 1.8-21.7 10-31.5 7.2-8.6 16.7-16 24.2-20 8-4.2 17.1-7.4 25.6-6.9 3.3.2 6.5.8 9.6 2.2 3.4 1.5 6.3 3.8 8.7 6.6 5.2 6.1 7.8 14.6 6.5 23-1.2 8-5.7 15.3-8.3 23.1z" fill="#92278f"/></g><g><path d="m91.4 58.9c-16.4 4.7-32 14.3-41.2 29-4.2 6.6-10.3 18.7-3.4 25.5 6.7 6.6 19.3 2.8 27.5 2.4 4.6-.2 5.9 4.8 4 7.8-.8 1.2-2.1 2.1-4 2.2-1.5.1-3.1.2-4.7.3-3.6.3-7.2.7-10.8.7 0 0 0 0-.1 0-6.9.1-13.6-1.1-18.9-6.4-3-3-4.7-6.5-5.4-10.3-1.3-6.9.8-14.5 3.7-20.8 1.8-3.8 3.9-7.4 6.4-10.8 7.2-8.6 16.7-16 24.2-20 8-4.2 17.1-7.4 25.6-6.9 1.3 2.6.7 6.3-2.9 7.3z" fill="#c65cc6"/></g><g><path d="m110.8 106.7c-2.6 7.8-2.9 17.6 2.8 22.8l.7.1c-2.8 2.7-7.1 1.8-10.3-.4-3.4-7.3-3.5-15.9-1.6-23.9 3.3-14 13.6-27.7 10.3-42.6-.2-.8-.2-1.6 0-2.2 5.2 6.1 7.8 14.6 6.5 23-1.3 8.1-5.8 15.4-8.4 23.2z" fill="#811384"/></g><g><path d="m78.9 9.7c.1.7-.4 1.3-1.7 1.7-.9.2-1.8.1-2.8.2-3.6.1-7 2.3-9 5.3s-3 6.6-3.2 10.2c-.1 2.4 0 4.8-.5 7.2-.8 3.7-3.2 7-6.5 8.6-3.2 1.6-6.6 1.4-9.8.2-3.1-1.2-5.4-3.8-7.8-6-1.3-.9-2.5-1.8-3.8-2.8-3.6-2.8-8.4-4.4-10.1 1.3-1.3 4.6 1.3 9.6 3.2 13.6.6 1.2.6 2.4.4 3.5-1.5-.9-3-2-4.3-3.2-6-5.5-9.4-15.7-4.5-22.9 1.5-2.2 3.7-3.8 6.1-4.6.8-.2 1.7-.4 2.5-.4.3-.1.5-.2.9-.2.6-.1 1.3-.1 2 0 .2 0 .3.1.5.1h.1c1.3.2 2.5.7 3.6 1.4 5.8 3.6 6.8 12.8 13.6 15.1 1.1.4 2.3.5 3.3 0 3.5-2 1.8-7.2 1.7-10.4-.2-4.5 1-9 3.5-12.7 3.1-4.7 8.1-8.1 13.6-9.2 1.7-.4 4.6.2 6.2 1 1.1.5 2.7 1.8 2.8 3z" fill="#acd36e"/></g><g><path d="m70.2 43.1c-1.6 2.9-2.7 6-3.2 9.3-.3 2.4 1.1 6.7-1.3 8-3.3 1.7-3.8-4-4-6.1-.2-3.1.3-6.3 1.4-9.2 2.1-5.8 6-11.1 10.7-15.1 1.6-1.4 3.5-1.5 5.1-.9-2.5 4.7-6 9.1-8.7 14z" fill="#80b232"/></g><path d="m103.4 51.5c-11.3-4.4-24.2-.6-35 5-.4-1.3-.7-3.4.3-6.5.7-2.1 2.1-4.8 4.1-8 5.6-9 15.2-19.1 9.3-31.8-2.1-4-6.4-6.5-12-5.7-4.7.7-9.3 3.2-12.8 7-6.8 7.3-7.2 14.6-6.4 22.5.2 1.9.2 2.4-.5 3-.3.3-.7.5-1.2.5-.4 0-.8-.1-1.3-.4-1.2-.8-2.3-2-3.3-3.3-2-2.6-3.6-6-6.2-9-6.8-7.6-17.1-5-21.4 1.6-2.2 3.4-2.8 7.5-2.2 11.2 1.1 7.1 5.3 12.4 11.5 16.3 6.5 4 15.4 6.6 19.9 9.5 1.5.9 2.6 1.9 3.3 2.9s1.1 1.8 1.3 2.5c0 .1.1.2.1.3-3.2 3-6.3 6.2-9.2 9.8-6.3 8-11.5 17.8-10.1 27.9 2.6 12.9 15.9 23.5 34.1 21.3 16.1-1.8 22-11.6 31.2-3.9 2.2 1.9 4.1 4 6.2 5.4s4.2 2 6 2.1 3.1-.5 3.9-1.1c.4-.3.6-.5.8-.7s.2-.3.2-.3-.1 0-.3.1-.5.3-.9.5c-.8.4-2 .8-3.6.6s-3.5-.9-5.3-2.3-3.5-3.5-5.8-5.6c-1.2-1-2.5-2.1-4.2-2.8-7.8-3.4-15.1 4.1-28.4 5.3-17.6 1.7-29.6-9.7-30.5-19.2-1.3-8.8 4.1-18.1 9.6-25.1 37.2-45.7 80.4-27.1 71.6 5.9-1.7 6-15.7 31.2-4.8 41.4 1.4 1.3 1.7 1.1 1.9.9s.2-.5-.7-1.9c-7.5-12.3 3.9-28.5 7.2-39.4 5-16.9-4.1-31.9-16.4-36.5zm-40.9 8.5c-3.8 2.5-7.5 5.4-11.1 8.7 0-.1 0-.1 0-.2-.1-.7-.4-1.7-1.1-2.8s-1.8-2.3-3.3-3.4c-4.4-3.2-13.1-6.2-19.3-10.4-5.1-3.5-9-8.1-9.9-14.8-.4-3.2.2-6.4 2-9.1 3.3-4.9 11.1-6.8 16-1 2.2 2.5 3.6 5.8 5.9 8.9 6.8 9.2 13.8 5.3 13.2-2.4-.5-5.7-.9-12.4 5.5-19.3 8.4-9.2 21.3-7.8 19.3 6.8-.9 6.8-6.7 13.8-9.9 19.4-1.9 3.4-3.3 6.3-3.9 8.9-.7 2.6-.5 4.9 0 6.4.2.8.5 1.3.8 1.8-1.5.8-2.9 1.6-4.2 2.5z" fill="#202020"/></g></svg>