<svg id="Layer_1" enable-background="new 0 0 136 136" height="512" viewBox="0 0 136 136" width="512" xmlns="http://www.w3.org/2000/svg"><g><g><path d="m5.4 61.7c-1.9 4.6-1.4 10 .4 14.7s4.8 8.7 7.9 12.6c10.7 13.4 23.1 25.4 36.8 35.6 3.5 2.6 7.3 5.2 11.7 5.7 3.5.4 7.1-.7 10.3-2.3 4.5-2.2 8.5-5.3 12.4-8.5 12.7-10.2 25-20.9 36.8-32 3.9-3.6 7.9-7.7 8.9-12.9 1-5.1-1.1-10.2-3.2-15" fill="#754c29"/></g><g><path d="m127.4 64.6c-.4 10.6-9.4 15.8-16.3 22.4-8.2 7.9-16.7 15.5-25.5 22.6-7.3 5.9-17 12.6-26.8 9.6-4.3-1.3-8-4.2-11.2-7.4-4.6-4.5-8.6-9.6-12.7-14.4-6.9-8-14.6-15-22.1-22.3-2-1.9-4-3.9-5.4-6.3-.2-.4-.4-.7-.6-1.1-3.6-7.4 1.5-10.7 6.4-15s9.6-8.9 14.3-13.5c9.1-9.1 18.1-18.3 28.3-26.2 4.7-3.6 10.2-7.2 16.3-7.3 9-.1 14.9 6.5 21.1 12.2 4.6 4.3 9.1 8.7 13.6 13.1l6.8 6.8c7.4 7.6 14.2 15.5 13.8 26.8z" fill="#a97c50"/></g><g><path d="m33 71.7c-1.5 1.5-3.4 2.8-5.5 2.7-2.4-.1-4.3-2-5.8-3.9-1.3-1.7-2.5-3.4-3.5-5.2l-.2-.6c.1-1.2 0-1.8.9-2.8.3-.4.7-.7 1.1-1.1 2.4-2.5 5.8-5.3 9-4.5.4.1.9.3 1.3.6 2.2 1.4 5.6 3.9 6.1 6.7.5 3-1.4 6.2-3.4 8.1z" fill="#754c29"/></g><g><path d="m47 58.2c-1.3 1.3-3 2.4-4.8 2.3-2.1-.1-3.8-1.7-5.1-3.4-1.1-1.4-2.2-2.9-3.1-4.5l-.1-.5c.1-.9 0-1.4.6-2.1.1-.1.1-.2.2-.2 1.7-1.7 4.2-4.3 6.8-4.8 1.1-.3 2.2-.2 3.2.5 1.9 1.2 4.9 3.4 5.4 5.8.3 2.5-1.4 5.3-3.1 6.9z" fill="#754c29"/></g><g><path d="m63.5 45.2c-1.4 1.4-3.2 2.7-5.1 2.6-2.2-.1-4-1.9-5.4-3.8-1.2-1.5-2.2-3.1-3.2-4.8 0-.1-.1-.1-.1-.2l-.1-.6c.1-1.1 0-1.8.8-2.7 1.3-1.4 2.9-3.2 4.7-4.4 1.9-1.2 3.9-1.8 5.8-.6 2 1.3 5.2 3.8 5.7 6.5.6 3.1-1.2 6.2-3.1 8z" fill="#754c29"/></g><g><path d="m78.4 30.4c-1.4 1.4-3.2 2.7-5.1 2.6-2.2-.1-4-2-5.4-3.8-.9-1.2-1.7-2.4-2.4-3.6-.3-.5-.6-.9-.8-1.4l-.1-.6c.1-1.1 0-1.8.8-2.7 1.1-1.3 2.6-2.9 4.3-4.1 2-1.4 4.2-2.2 6.3-.9 2 1.3 5.2 3.8 5.7 6.5.3 3-1.5 6.1-3.3 8z" fill="#754c29"/></g><g><path d="m50.1 88.1c-1.5 1.5-3.4 2.8-5.5 2.7-2.4-.1-4.3-2-5.8-3.9-1.3-1.6-2.5-3.4-3.5-5.2l-.2-.7c.1-1.1 0-1.8.9-2.8 1.2-1.3 2.8-2.9 4.5-4.1 2.2-1.5 4.7-2.4 7-1 .8.5 1.8 1.1 2.7 1.9 1.6 1.3 3.2 3 3.5 4.8.3 3.1-1.6 6.3-3.6 8.3z" fill="#754c29"/></g><g><path d="m64.1 74.6c-1.3 1.3-3 2.4-4.8 2.3-2.1-.1-3.8-1.7-5.1-3.4-1.1-1.4-2.2-2.9-3.1-4.5l-.1-.4c.1-1 0-1.6.8-2.4l1-1c2.4-2.4 5.9-5.2 9-3.3 1.9 1.2 4.9 3.4 5.3 5.7.4 2.6-1.3 5.3-3 7z" fill="#754c29"/></g><g><path d="m80.6 61.6c-1.4 1.4-3.2 2.7-5.1 2.6-2.2-.1-4-1.9-5.4-3.8-.5-.7-1-1.4-1.5-2.2-.6-.9-1.2-1.9-1.8-2.9l-.1-.6c.1-1.1 0-1.8.8-2.7 1-1.1 2.2-2.4 3.6-3.5 2.2-1.7 4.6-2.9 6.9-1.4 2 1.3 5.2 3.8 5.7 6.5.6 3-1.2 6.1-3.1 8z" fill="#754c29"/></g><g><path d="m95.5 46.8c-1.4 1.4-3.2 2.7-5.1 2.6-2.2-.1-4-1.9-5.4-3.8-1.2-1.6-2.3-3.3-3.3-5l-.1-.6c0-.2 0-.5 0-.6.1-.8.1-1.3.8-2 1-1 2.2-2.4 3.5-3.5 2.2-1.8 4.7-3 7-1.5 2 1.3 5.2 3.8 5.7 6.5.5 2.9-1.3 6-3.1 7.9z" fill="#754c29"/></g><g><path d="m54.4 102.3c1.1 1.8 2.2 3.6 3.5 5.2 1.5 1.9 3.4 3.8 5.8 3.9 2.1.1 4-1.3 5.5-2.7 2-1.9 4-5.1 3.4-8.1-.5-2.8-3.9-5.3-6.1-6.7-4.1-2.5-8.7 2.2-11.4 5.1-.9.9-.8 1.6-.9 2.8" fill="#754c29"/></g><g><path d="m70.2 89.8c.9 1.6 2 3.1 3.1 4.5 1.3 1.6 3 3.3 5.1 3.4 1.8.1 3.5-1.1 4.8-2.3 1.8-1.7 3.5-4.4 3-7-.4-2.4-3.4-4.6-5.4-5.8-3.6-2.2-7.6 1.9-10 4.3-.8.8-.7 1.4-.8 2.4" fill="#754c29"/></g><g><path d="m86.1 76.1c1 1.8 2.1 3.5 3.3 5 1.4 1.8 3.2 3.7 5.4 3.8 1.9.1 3.7-1.2 5.1-2.6 1.9-1.9 3.7-5 3.2-7.9-.5-2.7-3.6-5.2-5.7-6.5-3.8-2.4-8 2.1-10.5 4.9-.8.9-.7 1.5-.8 2.7" fill="#754c29"/></g><g><path d="m100.9 61.2c1 1.8 2.1 3.5 3.3 5 1.4 1.8 3.2 3.7 5.4 3.8 1.9.1 3.7-1.2 5.1-2.6 1.9-1.9 3.7-5 3.2-7.9-.5-2.7-3.6-5.2-5.7-6.5-3.8-2.4-8 2.1-10.5 4.9-.8.9-.7 1.5-.8 2.7" fill="#754c29"/></g><g><path d="m106.8 31.1c-2.1 1.9-5.9 2.3-7.8-.8-4.9-7.7-11.9-17.6-22-17.5-9.4.1-17.6 6.7-24.9 12-7.8 5.5-15.2 11.6-22.1 18.2-3.3 3.1-6.4 6.4-9.4 9.8-2.2 2.6-8.1 7.7-7.9 11.3.2 3.5-2.7 5.1-5.4 4.8-.2-.4-.4-.7-.6-1.1-3.6-7.4 1.5-10.7 6.4-15s9.6-8.9 14.3-13.5c9.1-9.1 18.1-18.3 28.3-26.2 4.8-3.7 10.3-7.3 16.4-7.4 9-.1 14.9 6.5 21.1 12.2 4.6 4.4 9.1 8.8 13.6 13.2z" fill="#ba8b61"/></g><g><path d="m86.5 43.8c-3 0-4.6-2.2-4.8-4.5.1-.8.1-1.3.8-2 1-1 2.2-2.4 3.5-3.5h.5c6.4 0 6.4 10 0 10z" fill="#8e6140"/></g><g><path d="m68.7 26.8c-1.4 0-2.5-.5-3.3-1.2-.3-.5-.6-.9-.8-1.4l-.1-.6c.1-1.1 0-1.8.8-2.7 1.1-1.3 2.6-2.9 4.3-4.1 5.6.9 5.2 10-.9 10z" fill="#8e6140"/></g><g><path d="m59.2 36.3c.1 1.3-.6 2.7-1.5 3.5-.9.9-2.3 1.5-3.5 1.5h-.2c-1.3 0-2.6-.6-3.5-1.5-.2-.2-.4-.4-.5-.6 0-.1-.1-.1-.1-.2l-.1-.6c.1-1.1 0-1.8.8-2.7 1.3-1.4 2.9-3.2 4.7-4.4 1 .2 1.8.7 2.5 1.4.9 1 1.4 2.3 1.4 3.6z" fill="#8e6140"/></g><g><path d="m39.2 54.6c-3 0-4.6-2.2-4.8-4.5.1-.1.1-.2.2-.2 1.7-1.7 4.2-4.3 6.8-4.8 4.2 1.9 3.4 9.5-2.2 9.5z" fill="#8e6140"/></g><g><path d="m30 59.3c.1 1.3-.6 2.7-1.5 3.5-.9.9-2.3 1.5-3.5 1.5h-.3c-1.3 0-2.6-.6-3.5-1.5-.6-.6-1-1.3-1.2-2.1 2.4-2.5 5.8-5.3 9-4.5.6.9.9 2 1 3.1z" fill="#8e6140"/></g><g><path d="m50 75.1c-.2 2.3-1.8 4.5-4.8 4.5-3.4 0-5-2.7-4.8-5.4 2.2-1.5 4.7-2.4 7-1 .8.5 1.7 1.1 2.6 1.9z" fill="#8e6140"/></g><g><path d="m57.5 69.3c-2.8 0-4.4-1.9-4.8-4.1 2.4-2.4 5.9-5.2 9-3.3 1.5 2.9.1 7.4-4.2 7.4z" fill="#8e6140"/></g><g><path d="m69.5 58.3c-.3 0-.6 0-.8-.1-.6-.9-1.2-1.9-1.8-2.9l-.1-.6c.1-1.1 0-1.8.8-2.7 1-1.1 2.2-2.4 3.6-3.5 4.7 1.7 4.1 9.8-1.7 9.8z" fill="#8e6140"/></g><g fill="#202020"><path d="m130.2 63.1c-.6-1.3-1.1-2.1-1.4-2.7-.3-.4-.5-.7-.7-.8-.1-.8-.2-1.7-.4-2.7-.5-2.4-1.6-5.6-3.9-9.2-1.9-3.1-4.7-6.5-8.3-10.3s0 0 0 0c-.6-.6-1.2-1.2-1.8-1.8-10.9-10.9-22.2-22.3-27-26.2-9-7.3-17.5-7.3-26.6-1.9-11.8 7-23.1 20-51.8 46.8-3.6 3.4-5.6 6.7-4.4 11.5-.4 2.4-.4 5.9.8 9.9 2.6 8.6 13.6 21.2 19.8 27.8 6.8 7.3 14.5 14.5 23.1 21.1 9.7 7.5 16.1 11.2 29.4 3.2 10.2-6.3 35.8-29.3 45.6-38.6 3.8-3.6 7-7.1 8.6-10.8 2.2-5.1 1.3-10.2-1-15.3zm-10.2 23.4c-8.6 7.9-35.9 32.1-45.1 37.9-11.2 6.9-16.1 4.1-25.1-2.6-8.4-6.2-16.1-13-23.2-20.2-6-6.1-17.4-18.3-20.4-26.3-1-2.6-1.4-5-1.5-7 .6 1.4 1.4 2.6 2.3 3.7 3 3.8 11.6 11.3 19.1 18.9 10.9 10.8 16.9 20.2 25 26.1 5.5 3.9 11.3 5.5 17.7 3.8 16.6-4.3 53.3-43.1 53.4-43.2 2.7-3.1 5.1-7.3 5.2-11.3 0-1.1 0-1.7-.1-1.7s-.2.6-.4 1.6c-.5 3.1-2.2 6.8-5.7 10.6-.1.1-39.4 37.9-53.2 41.2-5.6 1.4-10.5 0-15.2-3.5-7.5-5.7-13.5-15.2-24.2-26.2-7.3-7.5-16.1-15.4-18.6-18.7-.8-1.1-1.5-2.1-1.9-3.3-1.4-3.3-.9-5.6 2.8-9 23.7-21.2 38.7-38.7 51.3-46.3 7.6-4.6 14.3-4.7 22.1 1.5 3.8 3 9.9 9.1 27 25.5 4.5 4.3 7.9 8 10.1 11.3s3.4 6 4.1 8.2.9 3.7 1.1 4.8c.3 2.1.5 2.3.8 2.3.2 0 .4-.1.6-1 0 .1.1.2.1.3 2.4 9 2.2 13.3-8.1 22.6z"/><path d="m34.8 57.6c-1.1-1-3.6-2.8-5-3.2-1.9-.6-3.7-.3-5.5.6-2.6 1.3-5 3.8-6.7 6.2-.6.8-.7 1.7-.6 2.1 0 .5.2.7.3.9.2.4.5.4.8.4s.6 0 .8-.3c.1-.2.3-.4.4-.7.2-.4 5.8-5.6 8.5-5.5h.4c.5 0 11.7 5 2.9 13-2.7 2.5-4.8 2.4-7.5-.1-1.1-1-2-2.1-2.8-3-1.5-1.8-2.5-2.9-2.7-2.8s.2 1.6 1.4 3.7c.6 1.1 1.3 2.3 2.4 3.6 3.3 4 7.1 4.4 11.3 1.2 5.6-4.2 7.6-10.5 1.6-16.1z"/><path d="m33.1 51.8c.2.3.5.4.8.4s.6 0 .8-.3c.1-.1.3-.4.4-.6.2-.2.3-.3.5-.4l.1-.1c1.4-1.1 3.5-2.9 5.2-3.6 1.4-.6 2.1-.3 2.9.2.7.5 1.5 1 2.2 1.6 3.3 2.8 2.2 5.8-.9 8.6-2.2 2-3.9 2-6.3 0-2.1-1.9-4.5-5.1-4.9-4.8-.7.4 2.2 5.1 3.3 6.4 2.8 3.4 6.2 3.9 10.1 1.1 4.7-3.5 7-9.2 1.4-14.3-.9-.8-1.8-1.4-2.7-2-.1-.1-.2-.1-.3-.2-.2 0-2.6-1.9-6.3-.1-.8.4-1.5.8-2 1.3-1.3.9-2.4 2-3.4 3.2-.4.5-.3.3-.6.9-.5.7-.6 1.5-.6 1.9.1.4.2.7.3.8z"/><path d="m48.9 38c.2.3.5.4.8.4s.6 0 .8-.3c.4-.5.2-.7 1-1.3.4-.3 2.4-2.2 4.1-3.4 1.4-1 3-1.8 4.4-.9.1.1 3.8 2.4 4.7 4.7s-1.1 5.6-2.9 7.3c-6 5.8-10.5-6.4-11.9-5.6-.2.1.2 1.5 1.2 3.5.5 1 1.2 2.2 2.2 3.5.5.6 1.1 1.3 1.8 1.9 2.9 2.3 6 1.7 8.9-.7 3.3-2.7 5.7-7.2 4.5-11.1-.7-2.1-2-3.4-3-4.4-4.1-3.8-7.5-5-12.1-1.2-1.6 1.3-3.1 3.1-4.1 4.6-.5.8-.6 1.6-.5 2-.1.6 0 .8.1 1z"/><path d="m63.8 23.2c.2.3.5.4.8.4s.6 0 .8-.3c.1-.2.3-.4.4-.7.2-.3.3-.4.6-.6.9-.6 4.8-4.8 7.3-4.7 1.2 0 2.9 1.6 3.9 2.5.8.8 1.7 1.7 2 2.7.3.8.2 2.2-.3 3.6-.6 1.4-1.5 2.7-2.6 3.8s-2.4 1.8-3.5 1.7c-2.2-.1-4.5-3.1-5.9-4.7-1.4-1.7-2.3-2.8-2.6-2.7-.2.1.2 1.5 1.2 3.5.5 1 1.2 2.2 2.2 3.5.5.6 1.1 1.3 1.8 1.9s1.7 1.1 2.8 1.3 2.4 0 3.4-.4 1.9-1 2.7-1.7c1.6-1.3 2.9-2.9 3.8-4.8s1.4-4.1.7-6.3c-.7-2.1-2-3.4-3-4.4-3.2-3-6.2-4.6-10-2.6-2.2 1.1-4.1 3.1-5.6 5.1-.2.3-.4.5-.7 1-.5.8-.6 1.6-.5 2 0 .5.1.7.3.9z"/><path d="m51.9 74c-3.4-3-6.4-4.6-10.5-2.6-.9.4-1.6.9-2.3 1.4-1.6 1.2-5.3 4.8-5.1 6.8 0 .5.2.7.3.9.2.4.5.4.8.4s.6 0 .8-.3c.1-.2.3-.4.4-.7.2-.3.3-.4.6-.6.1-.1 3-2.6 4.4-3.5.5-.3 1.1-.7 1.7-.9 2.3-1 3.4.2 3.6.2.9.6 1.7 1.2 2.6 1.9 2.3 2 3.1 3.7 1.9 6.5-.6 1.4-1.6 2.8-2.9 3.9-2.7 2.5-4.8 2.4-7.5-.1-2.4-2.2-5.1-6-5.5-5.7-.2.1.2 1.6 1.4 3.7.6 1.1 1.3 2.3 2.4 3.6 2.3 2.8 5.1 4.1 8.4 2.9 2.4-.9 5.4-3.4 7-6.6 2.4-4.8.9-8-2.5-11.2z"/><path d="m62.3 73.9c-2.2 2-3.9 2-6.3 0-.9-.8-1.8-1.8-2.4-2.5-1.4-1.5-2.2-2.5-2.5-2.3-.2.1.2 1.4 1.2 3.2.5.9 1.1 2 2.1 3.1 2.8 3.3 6.2 4 10.1 1.1 3.3-2.4 5.7-6.6 4.4-10.3-.8-2-2-3.1-3-4-.9-.8-1.8-1.4-2.7-2-2.1-1.2-4.2-1.5-6.6-.3-.8.4-1.5.8-2 1.3-1.1.9-2.2 2-3.3 3.3-.4.5-.3.3-.6.9-.5.7-.6 1.5-.6 1.9s.2.6.3.8c.2.3.5.4.8.4s.6 0 .8-.3c.1-.1.3-.4.4-.6.2-.2.3-.3.5-.4l.1-.1c1.5-1.2 3.5-3 5.2-3.6 1.7-.7 2.5 0 2.6 0s.2.1.3.2c.7.5 1.5 1 2.2 1.6.8.7 1.6 1.5 1.9 2.3.7 1.9-1.4 4.9-2.9 6.3z"/><path d="m78.3 65.2c1-.4 1.9-1 2.7-1.7 3.3-2.7 5.7-7.2 4.5-11.1-.7-2.1-2-3.4-3-4.4-1-.9-1.9-1.6-2.9-2.2-.5-.1-3.9-3.3-9.3 1.1-1.6 1.3-3.1 3.1-4.1 4.6-.5.8-.6 1.6-.5 2s.2.7.3.9c.2.3.5.4.8.4s.6 0 .8-.3c.1-.2.3-.4.4-.7.2-.4 3.9-3.5 4.6-4 .5-.3 1-.7 1.6-.9 2-1 3 .2 3.2.2.8.5 1.6 1.2 2.4 1.9.8.8 1.7 1.7 2 2.7.9 2.3-1.2 5.6-2.9 7.3-2.4 2.4-4.3 2.3-6.8-.1-1-1-1.8-2-2.6-2.8-1.4-1.7-2.3-2.8-2.6-2.7-.2.1.2 1.5 1.2 3.5.5 1 1.2 2.2 2.2 3.5 2.5 3.3 5.4 3.9 8 2.8z"/><path d="m80.6 38.7c.1.4.2.7.3.9.2.3.5.4.8.4s.6 0 .8-.3c.1-.2.3-.4.4-.7.1-.1 6.3-6.7 9.1-4.9l.3.2c.8.5 1.6 1.2 2.4 1.9.8.8 1.7 1.7 2 2.7.3.8.2 2.2-.3 3.6-.6 1.4-1.5 2.7-2.6 3.8s-2.4 1.8-3.5 1.7c-1.3-.1-2.5-1-3.5-2s-1.8-2-2.6-2.8c-1.4-1.7-2.3-2.8-2.6-2.7-.2.1.2 1.5 1.2 3.5.5 1 1.2 2.2 2.2 3.5.5.6 1.1 1.3 1.8 1.9s1.7 1.1 2.8 1.3 2.4 0 3.4-.4 1.9-1 2.7-1.7c1.6-1.3 2.9-2.9 3.8-4.8s1.4-4.1.7-6.3c-.7-2.1-2-3.4-3-4.4-9.7-9.1-16.9 3.6-16.6 5.6z"/><path d="m71 94.7c-1-.9-2.1-1.6-3.1-2.3-1.8-1.4-4.5-1.7-7.4-.3-.9.4-1.6.9-2.3 1.4-1.9 1.5-3.2 3.1-4.5 4.7-.5.8-.7 1.7-.6 2.1 0 .5.2.7.3.9.2.4.5.4.8.4s.6 0 .8-.3c.1-.2.3-.4.4-.7.3-.5 4.2-3.6 5-4.1 3.8-2.6 5-.8 5.3-.7.9.6 1.7 1.2 2.6 1.9 2.3 2 3.1 3.7 1.9 6.5-.6 1.4-1.6 2.8-2.9 3.9-2.7 2.5-4.8 2.4-7.5-.1-2.4-2.2-5.1-6-5.5-5.7-.8.4 2.7 5.9 3.8 7.3 3.3 4 7.1 4.4 11.3 1.2 1.7-1.3 3.2-3 4.1-4.9 2.5-4.8.9-8-2.5-11.2z"/><path d="m84.9 83c-3-2.6-5.8-4-9.4-2.2-.8.4-1.5.8-2 1.3-1.4 1.1-4.8 4.2-4.5 6.1 0 .4.2.6.3.8.2.3.5.4.8.4s.6 0 .8-.3c.1-.1.3-.4.4-.6.1-.1 4.2-3.5 5.8-4.1 2-.9 3.4.3 5.1 1.8 1.9 1.7 2.7 2.9 1.6 5.3-.5 1.2-1.4 2.3-2.5 3.3-2.2 2-3.9 2-6.3 0-.9-.8-1.8-1.8-2.4-2.5-1.4-1.5-2.2-2.5-2.5-2.3-.2.1.2 1.4 1.2 3.2.5.9 1.1 2 2.1 3.1 2.8 3.4 6.2 3.9 10.1 1.1 1.5-1.1 2.8-2.6 3.7-4.3 2.2-4.3.8-7.3-2.3-10.1z"/><path d="m101.7 68.7c-1-.9-1.9-1.6-2.9-2.2-.2-.1-3-2.5-7.1-.4-.9.4-1.5.9-2.1 1.4-1.6 1.3-3.1 3.1-4.1 4.6-.5.8-.6 1.6-.5 2s.2.7.3.9c.2.3.5.4.8.4s.6 0 .8-.3c.1-.2.3-.4.4-.7.2-.3.3-.4.6-.6 4.6-3.1 5.6-7.4 11.2-2.2 2.1 1.9 2.8 3.5 1.7 6.2-.9 2.2-3.7 5.7-6.1 5.5-2.2-.1-4.5-3.1-5.9-4.7-1.4-1.7-2.3-2.8-2.6-2.7-.2.1.2 1.5 1.2 3.5 1 1.9 2.3 4 4 5.3.7.6 1.7 1.1 2.8 1.3 3.9.7 8.2-3.3 9.9-6.8 2-4.3.7-7.4-2.4-10.5z"/><path d="m116.5 53.9c-3.2-3-6.2-4.6-10-2.6-2.4 1.3-4.8 3.9-6.2 6-.5.8-.6 1.6-.5 2s.2.7.3.9c.2.3.5.4.8.4s.6 0 .8-.3c.1-.2.3-.4.4-.7.2-.3.3-.4.6-.6 4-2.6 3.6-5 8.8-4.1.8.5 1.6 1.2 2.4 1.9 2.1 1.9 2.8 3.5 1.7 6.2-.9 2.2-3.7 5.7-6.1 5.5-1.1-.1-2.4-.9-3.3-1.9-1-1-1.8-2-2.6-2.8-1.4-1.7-2.3-2.8-2.6-2.7-.2.1.2 1.5 1.2 3.5.5 1 1.2 2.2 2.2 3.5 1.2 1.5 2.7 2.9 4.6 3.2 4 .7 8.2-3.3 9.9-6.8.9-1.9 1.4-4.1.7-6.3-.8-2-2.1-3.3-3.1-4.3z"/></g></g></svg>